<svg width="40" height="40" viewBox="0 0 40 40" fill="none" xmlns="http://www.w3.org/2000/svg">
<g clip-path="url(#clip0_4001_7477)">
<path style="mix-blend-mode:screen" opacity="0.58" d="M9.35437 35.8271C11.4721 34.786 11.7126 30.9075 9.89168 27.1642C8.07075 23.4209 4.87787 21.2303 2.76019 22.2714C0.642503 23.3125 0.401938 27.191 2.22287 30.9343C4.0438 34.6776 7.23668 36.8682 9.35437 35.8271Z" fill="url(#paint0_radial_4001_7477)"/>
<path style="mix-blend-mode:screen" opacity="0.58" d="M19.1877 34.043C22.8119 32.021 24.8226 28.702 23.6786 26.6299C22.5347 24.5577 18.6693 24.5172 15.0451 26.5393C11.4209 28.5613 9.41026 31.8803 10.5542 33.9524C11.6981 36.0245 15.5635 36.0651 19.1877 34.043Z" fill="url(#paint1_radial_4001_7477)"/>
<path style="mix-blend-mode:screen" opacity="0.85" d="M21.1674 23.5691C21.5564 18.0994 17.8662 13.3775 12.925 13.0223C7.98382 12.6671 3.66282 16.8132 3.27377 22.2828C2.88472 27.7525 6.57495 32.4745 11.5161 32.8297C16.4573 33.1849 20.7783 29.0388 21.1674 23.5691Z" fill="url(#paint2_radial_4001_7477)"/>
<path d="M20.4637 27.8951L20.052 30.6035L19.9797 31.0813L19.9548 31.2448L19.9392 31.3488L19.9174 31.3632L16.7031 33.4592L15.7631 34.0297L14.815 34.6046L14.3764 34.8713L14.2967 34.9196L13.7628 35.1826L13.0471 35.5345L12.1071 35.9967L11.4841 36.3029L10.731 36.673L10.1448 36.4482L7.67303 35.4988L6.48447 35.0423L5.00562 31.3625L4.6711 30.5309L4.57642 30.2948V30.2935L4.58825 30.1495L4.66176 29.2339L4.74399 28.2138L4.89349 26.3595L4.96264 25.501L4.99004 25.1609L5.00562 24.9693L5.0704 25.0488L5.08473 25.0663L5.26289 25.2843L6.58663 26.9043L7.45998 27.9727L8.29783 28.9985L8.172 28.5319L8.09226 28.237L7.84745 27.3277L7.34536 25.4653L7.22825 25.0319L7.02019 24.2591L6.91429 23.8658L7.05757 23.6849L8.21373 22.2276L8.85349 21.421L10.3093 19.5855L10.5223 19.3169L10.8064 18.9593L11.0736 18.6224L12.0591 17.3799L12.1121 17.3129L12.7356 16.527L13.8955 17.9141L14.3035 18.4019L14.5758 18.7276L15.1134 19.3701L15.3401 19.6413L16.8339 21.4273L17.5322 22.2614L17.9683 22.7831L18.0318 22.8589L17.6973 24.6712L17.6138 25.1227L17.3466 26.5693L17.3404 26.6031L17.1859 27.441L17.1728 27.5112H17.1784L17.4998 27.5494L20.465 27.8951H20.4637Z" fill="url(#paint3_linear_4001_7477)"/>
<g style="mix-blend-mode:hard-light">
<path d="M9.60595 34.279L9.51563 34.7593L7.67236 35.4989L7.70787 31.4114L8.29654 28.9985L9.60595 34.279Z" fill="#6A2812"/>
</g>
<path d="M7.67229 35.4988L6.48373 35.0423L4.57568 30.2948C4.61742 30.3656 6.72107 33.9339 7.67229 35.4988Z" fill="url(#paint4_linear_4001_7477)"/>
<path d="M20.4637 27.895L19.9797 31.0813L19.9392 31.3487L19.9174 31.3631L19.5953 31.5729L16.7031 33.4591L15.1638 35.3766L14.9134 35.6885L13.0464 35.5345L12.1064 35.9966C11.6567 35.3002 11.2075 34.5776 11.2075 34.5776L17.1715 27.5111L17.4985 27.5493L20.4637 27.895Z" fill="url(#paint5_linear_4001_7477)"/>
<path d="M17.1952 29.3235L14.1179 31.8948L14.4537 33.0195L17.84 30.5046L17.1952 29.3235Z" fill="url(#paint6_linear_4001_7477)"/>
<path d="M18.0304 22.8589L17.1714 27.5112L13.7988 31.4953L18.0304 22.8589Z" fill="url(#paint7_linear_4001_7477)"/>
<path opacity="0.88" d="M7.43811 30.1495L5.06909 25.0488L5.08342 25.0664L5.26158 25.2843L6.58532 26.9044L7.45867 27.9727V27.9734L8.29652 28.9985L7.43811 30.1495Z" fill="url(#paint8_linear_4001_7477)"/>
<path style="mix-blend-mode:hard-light" d="M18.0304 22.8589L17.1714 27.5112L13.7988 31.4953L13.0027 32.4359L13.402 24.5372L17.9669 22.7831L18.0304 22.8589Z" fill="url(#paint9_linear_4001_7477)"/>
<path d="M17.8398 30.5045L19.9796 31.0813L19.9391 31.3487L19.9173 31.3631L16.7029 33.4591L14.5712 35.2101L13.0463 35.5345L12.5193 34.1066L13.501 33.7271L17.8398 30.5045Z" fill="#DC336C"/>
<g style="mix-blend-mode:hard-light">
<path d="M17.339 26.6031L17.1845 27.4411V27.4417L17.1714 27.5112L17.177 27.5118L14.0349 31.0739L17.339 26.6031Z" fill="#6A2812"/>
</g>
<g style="mix-blend-mode:hard-light">
<path d="M19.5953 31.573L16.7031 33.4592L15.1638 35.3768L13.5884 35.4926L13.9048 34.1951L19.5953 31.573Z" fill="#6A2812"/>
</g>
<path style="mix-blend-mode:hard-light" d="M11.502 36.673H10.2001L10.144 36.4482L9.60579 34.2789L8.29638 28.9985L7.01874 24.2591L6.91284 23.8658L10.2001 25.1935L11.112 28.1474V28.9265L11.4833 36.3029L11.502 36.673Z" fill="url(#paint10_linear_4001_7477)"/>
<path d="M13.2588 24.7483L11.1116 28.247V30.5936L13.1162 30.0537L13.4021 24.5378L13.2588 24.7483Z" fill="url(#paint11_linear_4001_7477)"/>
<path d="M14.7856 33.0753L13.5011 35.6679L13.402 35.8683L12.8594 35.7882L10.6729 35.4663L8.05786 35.0805L7.62866 31.4928L7.70777 31.4114L10.3079 28.9697L10.349 28.9396L10.5484 28.7925L13.6886 30.1495L13.7702 30.3668L14.7332 32.9357L14.7856 33.0753Z" fill="url(#paint12_linear_4001_7477)"/>
<g style="mix-blend-mode:hard-light">
<path d="M7.22694 35.1826L8.58307 34.2701L10.5584 35.5007C10.5584 35.5007 12.6564 34.8594 12.6895 34.7592C12.7225 34.659 14.5738 35.4919 14.5738 35.4919L10.1996 36.6724L7.22632 35.1819L7.22694 35.1826Z" fill="#6A2812"/>
</g>
<path style="mix-blend-mode:hard-light" d="M14.7855 33.1266L13.5011 35.7193L12.8594 35.8395L10.5483 36.2729L10.6729 35.5176L11.2074 32.2681L14.7332 32.987L14.7855 33.1266Z" fill="url(#paint13_linear_4001_7477)"/>
<path d="M11.2074 32.2167C11.2074 32.2167 9.1212 31.7114 7.70776 31.4114L10.5483 28.7925L11.2074 32.2167Z" fill="url(#paint14_linear_4001_7477)"/>
<path style="mix-blend-mode:screen" d="M20.4636 27.895L18.1974 29.1212L17.8398 30.5045L17.1951 29.3234L17.1714 27.5111L20.4636 27.895Z" fill="url(#paint15_linear_4001_7477)"/>
<path style="mix-blend-mode:screen" d="M13.8943 17.9141L13.1163 20.0571L12.1108 17.3129L12.7344 16.527L13.8943 17.9141Z" fill="url(#paint16_linear_4001_7477)"/>
<g style="mix-blend-mode:hard-light" opacity="0.46">
<path d="M13.116 20.057L12.1181 22.6234L10.2001 25.1934L6.91284 23.8658L12.0577 17.3799L13.116 20.057Z" fill="#DC5B7F"/>
</g>
<path d="M9.4458 16.5758C9.4458 16.5758 9.48567 19.2116 8.92441 19.4703C8.36314 19.7289 7.03442 19.6663 7.03442 19.6663C7.03442 19.6663 8.79671 19.7233 8.95618 20.3345C9.11503 20.9457 9.26266 23.1388 9.26266 23.1388C9.26266 23.1388 9.48816 20.4879 9.68813 20.2456C10.1653 19.6663 11.8566 19.8573 11.8566 19.8573C11.8566 19.8573 9.71803 19.6525 9.68813 19.3006C9.65823 18.9486 9.4458 16.5758 9.4458 16.5758Z" fill="#ECDBE3"/>
<path style="mix-blend-mode:screen" d="M11.2928 16.9153C9.82705 15.9634 7.81248 16.4782 6.79211 18.0657C5.77174 19.6532 6.13305 21.7116 7.59881 22.6635C9.06458 23.6154 11.0791 23.1006 12.0995 21.5131C13.1199 19.9256 12.7586 17.8671 11.2928 16.9153Z" fill="url(#paint17_radial_4001_7477)"/>
<path style="mix-blend-mode:screen" d="M16.9309 21.399C15.6894 20.5924 14.0586 20.91 13.2886 22.1079C12.5187 23.3059 12.9012 24.931 14.1427 25.7376C15.3842 26.5442 17.015 26.2267 17.785 25.0287C18.5549 23.8307 18.1724 22.2056 16.9309 21.399Z" fill="url(#paint18_radial_4001_7477)"/>
<path style="mix-blend-mode:screen" d="M11.709 28.371C10.4675 27.5644 8.83664 27.8819 8.0667 29.0799C7.29675 30.2779 7.67923 31.9029 8.92074 32.7095C10.1622 33.5161 11.7931 33.1986 12.563 32.0006C13.333 30.8026 12.9505 29.1776 11.709 28.371Z" fill="url(#paint19_radial_4001_7477)"/>
<path d="M10.4264 29.0179C10.4264 29.0179 10.4438 30.1884 10.1953 30.303C9.94612 30.4176 9.3562 30.39 9.3562 30.39C9.3562 30.39 10.1386 30.4151 10.209 30.6869C10.2794 30.958 10.3448 31.9318 10.3448 31.9318C10.3448 31.9318 10.4451 30.7545 10.5335 30.6474C10.7453 30.39 11.4966 30.4752 11.4966 30.4752C11.4966 30.4752 10.5473 30.3844 10.5335 30.2278C10.5205 30.0713 10.4258 29.0179 10.4258 29.0179H10.4264Z" fill="#ECDBE3"/>
<g style="mix-blend-mode:multiply">
<path d="M6.41472 30.1495L4.5752 30.2935L5.0044 24.9692L6.41472 30.1495Z" fill="#DC5B7F"/>
</g>
<path style="mix-blend-mode:screen" d="M18.1974 29.1212L17.1951 29.3235L17.8398 30.5046L18.1974 29.1212Z" fill="url(#paint20_linear_4001_7477)"/>
<path style="mix-blend-mode:screen" d="M12.1182 22.624L13.4021 24.5378L11.1115 28.247L10.2002 25.1941L12.1182 22.624Z" fill="url(#paint21_linear_4001_7477)"/>
<path d="M6.91284 23.8659L10.2001 25.4208L11.1114 28.247L10.349 25.1935L12.1181 22.624L10.2001 24.9918L6.91284 23.8659Z" fill="url(#paint22_linear_4001_7477)"/>
<path d="M20.4636 27.895L18.1974 29.3235L17.8398 30.5045L18.1974 29.1212L20.4636 27.895Z" fill="#CA91F9"/>
<path d="M16.9709 29.3022L14.2854 31.7539L17.1715 29.4945L17.8399 30.5046L17.1951 29.3235L17.1845 27.4417L16.9709 29.3022Z" fill="url(#paint23_linear_4001_7477)"/>
<path d="M13.5871 24.457L13.1355 29.8132L13.361 24.8923L13.5871 24.457Z" fill="url(#paint24_linear_4001_7477)"/>
<path d="M12.1108 17.3129C12.1108 17.3129 12.9886 19.8141 12.9412 20.057C12.8932 20.3006 12.1183 22.6234 12.1183 22.6234C12.1183 22.6234 13.1001 20.2293 13.2116 20.057C13.3231 19.8848 13.8943 17.9141 13.8943 17.9141C13.8943 17.9141 13.2278 19.9412 13.1163 19.8573C13.0048 19.7734 12.1108 17.3129 12.1108 17.3129Z" fill="url(#paint25_linear_4001_7477)"/>
<path d="M17.9668 22.7831C17.9668 22.7831 13.9271 24.1464 13.5135 24.777C13.0992 25.4077 11.1121 28.2464 11.1121 28.2464C11.1121 28.2464 13.116 24.9687 13.4026 24.5372C13.2151 24.1301 12.1187 22.6234 12.1187 22.6234C12.1187 22.6234 13.4231 24.2341 13.7707 24.2335C14.1183 24.2335 17.9675 22.7831 17.9675 22.7831H17.9668Z" fill="url(#paint26_linear_4001_7477)"/>
<path style="mix-blend-mode:screen" d="M7.62882 33.6032L6.41472 30.1495L5.00439 24.9692L5.08351 25.0663L7.4382 30.1495L7.62882 33.6032Z" fill="url(#paint27_linear_4001_7477)"/>
<path style="mix-blend-mode:screen" d="M13.7703 30.3668L11.2075 32.2167C11.2075 32.2167 10.7042 30.3111 10.3491 28.9396L10.5485 28.7925L13.6887 30.1495L13.7703 30.3668Z" fill="url(#paint28_linear_4001_7477)"/>
<g style="mix-blend-mode:overlay" opacity="0.15">
<g style="mix-blend-mode:hard-light">
<path d="M15.3458 19.6507C14.6219 19.8104 13.88 19.8955 13.1393 19.9062C12.2118 19.92 11.2886 19.8066 10.3822 19.61C10.3598 19.605 10.3374 19.6 10.3149 19.5949L10.528 19.3263C11.5047 19.5323 12.5027 19.6294 13.4981 19.5818C14.042 19.5561 14.5852 19.4885 15.119 19.3795L15.3458 19.6507Z" fill="url(#paint29_linear_4001_7477)"/>
</g>
<g style="mix-blend-mode:hard-light">
<path d="M16.8394 21.4367C16.7385 21.4524 16.637 21.4674 16.5348 21.4818C16.5174 21.4843 16.4993 21.4868 16.4812 21.4893C16.4812 21.4893 16.4794 21.4893 16.4775 21.4893H16.4762C16.4762 21.4893 16.4762 21.4893 16.475 21.4893C16.4731 21.4893 16.4713 21.4893 16.4681 21.49C16.4644 21.4906 16.46 21.4912 16.4551 21.4918C16.4482 21.4925 16.4414 21.4931 16.4345 21.4943C16.432 21.495 16.4289 21.495 16.4264 21.4956C16.4239 21.4956 16.4227 21.4956 16.4214 21.4956C16.4139 21.4962 16.4071 21.4975 16.3996 21.4981C16.3186 21.5087 16.2377 21.5188 16.1567 21.5288C14.9339 21.6741 13.7017 21.7261 12.4708 21.7379C11.8846 21.7436 11.299 21.7398 10.7141 21.6991C10.4307 21.6791 10.1472 21.6509 9.86566 21.6146H9.86441C9.86441 21.6146 9.86067 21.6146 9.8588 21.614C9.85507 21.614 9.85195 21.6127 9.84821 21.6121C9.84572 21.6121 9.84323 21.6121 9.84136 21.6114C9.84011 21.6108 9.83825 21.6108 9.837 21.6108C9.80523 21.6058 9.77346 21.6014 9.74231 21.597C9.66632 21.5858 9.59094 21.5732 9.51494 21.5607C9.37478 21.5369 9.23462 21.5106 9.09508 21.4812C9.01597 21.4649 8.93748 21.4474 8.85899 21.4286L8.21924 22.2352C8.28963 22.2546 8.36064 22.2734 8.43166 22.2915C9.59156 22.5846 10.8007 22.6817 11.9942 22.6804C13.2532 22.6786 14.514 22.6404 15.7673 22.5114C16.3585 22.4506 16.9509 22.3723 17.5377 22.269L16.8394 21.4349V21.4367Z" fill="url(#paint30_linear_4001_7477)"/>
</g>
<g style="mix-blend-mode:hard-light">
<path d="M17.7029 24.6807L17.6195 25.1322C16.7461 25.5286 15.8248 25.8204 14.8904 26.0271C13.8034 26.2669 12.6952 26.3821 11.5826 26.3202C10.28 26.2481 9.00925 25.9644 7.76027 25.5994C7.62322 25.5593 7.4868 25.5186 7.351 25.4747L7.23389 25.0414C7.52978 25.1416 7.83004 25.2286 8.13091 25.3157C9.4559 25.6996 10.8239 25.9607 12.2068 25.9626C12.5344 25.9632 12.8621 25.9494 13.1879 25.92C13.2919 25.9106 13.396 25.8993 13.5 25.8874C13.5523 25.8805 13.6053 25.8743 13.6582 25.868C13.6582 25.868 13.6613 25.8674 13.6626 25.8668C13.6663 25.8668 13.6719 25.8655 13.6806 25.8643C13.6931 25.863 13.7056 25.8611 13.718 25.8592C13.7429 25.8555 13.7685 25.8524 13.7934 25.8486C14.2637 25.7791 14.7297 25.6858 15.1906 25.5705C16.0578 25.3539 16.9043 25.0683 17.7023 24.6807H17.7029Z" fill="url(#paint31_linear_4001_7477)"/>
</g>
<g style="mix-blend-mode:hard-light">
<path d="M13.8489 27.7222C14.4357 27.592 15.0156 27.4292 15.5875 27.2413C16.0665 27.0835 16.54 26.9081 17.0078 26.7203C17.1224 26.6739 17.237 26.627 17.351 26.5794C17.351 26.5794 17.3523 26.5787 17.3529 26.5787L17.1922 27.4505C16.6023 27.6872 16.0042 27.9032 15.3963 28.0898C14.417 28.3911 13.4135 28.6128 12.3943 28.7192C11.4064 28.8232 10.4078 28.7994 9.43041 28.6159C8.97691 28.5313 8.53151 28.4073 8.09857 28.2464L7.85376 27.3371C7.90048 27.3597 7.94845 27.3809 7.99579 27.4016C8.00389 27.4054 8.01261 27.4085 8.02071 27.4123C8.03815 27.4292 8.07802 27.4361 8.10044 27.4454C8.15401 27.4667 8.20696 27.488 8.26116 27.5081C8.37516 27.5519 8.49102 27.5926 8.60751 27.6302C9.05665 27.7774 9.51949 27.8832 9.98731 27.9502C9.9898 27.9508 9.99354 27.9514 9.99852 27.9521C9.99852 27.9521 10.0004 27.9521 10.0016 27.9521C10.0035 27.9527 10.0048 27.9527 10.0066 27.9527C10.0066 27.9527 10.0116 27.9533 10.0141 27.954H10.0153C10.0153 27.954 10.0203 27.9546 10.0222 27.9546C10.0222 27.9546 10.0222 27.9552 10.0234 27.9546C10.0272 27.9552 10.0309 27.9558 10.0347 27.9565C10.0533 27.959 10.072 27.9615 10.0907 27.9633C10.1511 27.9702 10.2109 27.9771 10.2714 27.9834C10.3879 27.9947 10.5043 28.0041 10.6215 28.0116C10.86 28.026 11.0999 28.0316 11.3391 28.0291C11.5758 28.0266 11.8131 28.0159 12.0492 27.9984C12.1726 27.989 12.2953 27.9777 12.418 27.9646C12.4797 27.9583 12.5413 27.9508 12.603 27.9433C12.6317 27.9402 12.6603 27.9364 12.689 27.9327H12.6915C12.6915 27.9327 12.694 27.9327 12.6952 27.9327C12.6965 27.9327 12.6983 27.9327 12.7008 27.932L12.712 27.9302H12.7139C12.7139 27.9302 12.7158 27.9302 12.7164 27.9295C12.7189 27.9295 12.7207 27.9295 12.7226 27.9289C13.1007 27.8744 13.4764 27.8049 13.8483 27.7222H13.8489Z" fill="url(#paint32_linear_4001_7477)"/>
</g>
<g style="mix-blend-mode:hard-light">
<path d="M14.3092 18.4114C14.1136 18.4527 13.9167 18.4872 13.7199 18.5166C13.2838 18.5811 12.839 18.6174 12.398 18.6443C11.9588 18.6713 11.5172 18.6782 11.0793 18.6318L10.812 18.9687C11.2537 19.0564 11.7165 19.0514 12.1632 19.032C12.9717 18.9975 13.7896 18.9186 14.5814 18.737L14.3092 18.4114Z" fill="url(#paint33_linear_4001_7477)"/>
</g>
<g style="mix-blend-mode:hard-light">
<path d="M14.3826 34.8807L14.3028 34.929L13.769 35.192C13.7322 35.1882 13.6961 35.1838 13.66 35.1794C12.9741 35.0987 12.2926 34.9822 11.6199 34.8237C10.3067 34.5138 9.0054 34.0579 7.81995 33.4066C6.80519 32.8498 5.87017 32.1503 5.01176 31.3719L4.67725 30.5403C4.91521 30.7732 5.15753 31.0018 5.40608 31.2229C6.34111 32.0533 7.36957 32.7822 8.4921 33.3333C9.67754 33.9157 10.962 34.3165 12.254 34.5783C12.9542 34.7198 13.6668 34.8262 14.3826 34.8807Z" fill="url(#paint34_linear_4001_7477)"/>
</g>
<g style="mix-blend-mode:hard-light">
<path d="M12.0292 33.0021C13.2427 33.4555 14.4954 33.8118 15.7699 34.0391L14.8218 34.614C13.67 34.3623 12.5388 34.0097 11.4418 33.577C9.77354 32.9188 8.18194 32.0659 6.73549 31C6.00915 30.4652 5.30461 29.8853 4.66797 29.2434L4.7502 28.2233C5.01557 28.5195 5.28841 28.8088 5.58119 29.0812C5.91259 29.3887 6.25521 29.683 6.60779 29.9648C6.65451 30.0024 6.70123 30.0387 6.74795 30.0757C6.75106 30.0782 6.75418 30.0807 6.75667 30.0826C6.75667 30.0832 6.75854 30.0838 6.75916 30.0844V30.0851C6.75916 30.0851 6.76103 30.0869 6.76165 30.0876C6.76352 30.0888 6.76477 30.0901 6.76601 30.0907C6.76601 30.0907 6.76601 30.0913 6.76601 30.092C6.76601 30.0926 6.76726 30.0932 6.76788 30.0932C6.76788 30.0932 6.76913 30.0945 6.76975 30.0945C6.76975 30.0951 6.771 30.0951 6.771 30.0957C6.78906 30.1089 6.8065 30.1226 6.82395 30.1364C6.90929 30.2015 6.99463 30.2661 7.0806 30.3293C7.26249 30.4639 7.44626 30.5948 7.63252 30.7226C8.37319 31.2305 9.14812 31.6876 9.94859 32.0922C10.3454 32.2926 10.7484 32.4804 11.1571 32.6558L11.1832 32.667C11.1832 32.667 11.1845 32.6677 11.1857 32.6683C11.1857 32.6683 11.187 32.6689 11.1882 32.6689C11.1882 32.6689 11.1895 32.6695 11.1907 32.6702C11.1932 32.6714 11.1957 32.6721 11.1982 32.6733C11.2256 32.6846 11.253 32.6965 11.2798 32.7077C11.324 32.7259 11.3676 32.7434 11.4112 32.7616C11.4791 32.7892 11.547 32.8167 11.6149 32.8436C11.7514 32.8975 11.8884 32.9501 12.0261 33.0015L12.0292 33.0021Z" fill="url(#paint35_linear_4001_7477)"/>
</g>
<g style="mix-blend-mode:hard-light">
<path d="M20.0589 30.6136L19.9867 31.0908L19.9617 31.2542C19.2285 31.5122 18.4742 31.7076 17.7129 31.8423C15.9357 32.1554 14.0906 32.1535 12.3314 31.7258C11.4518 31.5122 10.6034 31.1835 9.80914 30.7488C8.8953 30.2497 8.04997 29.6266 7.26508 28.9428C6.52565 28.2984 5.81862 27.5995 5.22621 26.8148C5.11533 26.6677 5.00694 26.5186 4.89917 26.3689L4.96832 25.5104C5.31404 25.9813 5.63797 26.4685 6.00799 26.9031C6.64214 27.6477 7.37409 28.3266 8.13282 28.9396C8.89903 29.5596 9.73065 30.1095 10.6208 30.5334C11.3497 30.8797 12.1682 31.134 12.9855 31.2924C14.655 31.6162 16.4527 31.5523 18.1191 31.1891C18.7863 31.0432 19.4329 30.8522 20.0589 30.6136Z" fill="url(#paint36_linear_4001_7477)"/>
</g>
</g>
<path d="M19.8277 36.8008C19.7 36.9291 18.4952 37.0381 18.1688 37.0469C17.0208 37.0782 15.8989 37.1302 14.7452 37.1139H14.7433C14.4979 37.1114 14.0543 37.2942 14.0543 37.2942L13.7703 38C13.7703 38 11.8168 37.9349 11.4542 37.7426C10.617 37.2986 9.61282 37.6105 9.61282 37.6105L8.16948 37.5522L6.76974 36.817C6.16799 36.9536 3.98647 36.884 3.85939 36.849C3.85565 36.8477 3.85192 36.8465 3.84818 36.8452C3.72857 36.8045 3.14052 36.7482 3.03213 36.5453C2.92063 36.3361 3.5255 35.2677 3.76408 34.9941C3.76408 34.6741 4.82307 34.8043 4.97133 34.4899C5.03985 34.3453 5.26972 34.2827 5.40489 34.2413C5.40863 34.2401 5.41174 34.2388 5.41486 34.2369C5.61544 34.1411 5.50518 33.1041 5.72072 33.1429C6.09074 33.2087 6.76787 34.4242 7.10924 34.5814C7.11485 34.5839 7.12045 34.5864 7.12544 34.5883C7.37025 34.6797 7.62815 34.748 7.93276 34.7367C8.30092 34.7229 8.67592 34.6402 9.03286 34.7323C9.21165 34.7786 9.37673 34.8669 9.53931 34.954C9.87943 35.1362 10.2189 35.3185 10.5584 35.5007L13.8363 34.9909L13.946 34.7899L14.1179 34.4743C14.2344 34.4342 14.3889 34.4943 14.5409 34.5494C14.6947 34.6045 14.8448 34.654 14.9476 34.5858C15.2709 34.3703 15.5712 34.1104 15.8982 33.8806C16.148 33.7046 16.4059 33.5255 16.7031 33.4592C17.2569 33.3358 17.8106 33.6257 18.2853 33.9395C18.2922 33.9439 18.2984 33.9482 18.3053 33.9526C18.3233 33.9645 18.3426 33.9771 18.3619 33.989C18.3812 34.0015 18.4012 34.0134 18.4224 34.0253C18.423 34.0259 18.4236 34.0265 18.4242 34.0265C18.5631 34.1054 18.7301 34.1856 18.9089 34.2632C18.9107 34.2645 18.9126 34.2651 18.9145 34.2658C19.543 34.5425 20.3092 34.8043 20.4637 35.0103C20.6761 35.2934 19.9554 36.673 19.8277 36.8008Z" fill="#634649"/>
<path d="M14.5407 34.5495L13.9458 34.79L14.1177 34.4743C14.2342 34.4343 14.3887 34.4944 14.5407 34.5495Z" fill="#544535"/>
<path d="M19.8277 36.8008C19.7 36.9292 18.4952 37.0381 18.1688 37.0469C17.0207 37.0782 15.8988 37.1302 14.7452 37.1139H14.7433C14.4979 37.1114 14.0543 37.2943 14.0543 37.2943L13.7703 38C13.7703 38 11.8167 37.9349 11.4542 37.7426C10.617 37.2986 9.6128 37.6105 9.6128 37.6105L8.16947 37.5523L6.76973 36.8171C6.16798 36.9536 4.03442 36.849 4.03442 36.849L5.93188 36.3374L6.41466 35.7149L7.22696 36.4639L9.36488 36.673L10.9527 36.4482L11.1116 37.2153L12.0348 37.5022C12.0348 37.5022 13.4015 37.1289 13.688 36.6254C13.974 36.1213 14.4754 35.8577 14.4754 35.8577L16.2489 35.8808L16.5199 35.1212C16.5199 35.1212 15.2173 34.6378 14.947 34.5858C15.2703 34.3704 15.5706 34.1105 15.8976 33.8806C16.1474 33.7047 16.4053 33.5256 16.7024 33.4592C17.2637 33.3339 17.8256 33.6339 18.3046 33.9527C18.3227 33.9646 18.342 33.9771 18.3613 33.989C18.3806 34.0015 18.4005 34.0134 18.4217 34.0253C18.4224 34.0259 18.423 34.0266 18.4236 34.0266C18.5625 34.1086 18.7288 34.1906 18.9082 34.2633C18.9101 34.2645 18.912 34.2651 18.9138 34.2658C19.5424 34.5426 20.3086 34.8043 20.4631 35.0104C20.6755 35.2934 19.9548 36.673 19.8271 36.8008H19.8277Z" fill="#543549"/>
<path d="M7.7079 31.4114C7.7079 31.4114 10.7217 32.2249 10.9372 32.4359C11.1527 32.647 10.7067 35.3129 10.7067 35.3129C10.7067 35.3129 11.0406 33.0678 11.2761 32.6989C11.5115 32.3301 14.7334 32.987 14.7334 32.987C14.7334 32.987 12.9287 32.6263 11.8996 32.409C11.4947 32.3238 11.2206 32.2963 11.2075 32.2681C11.1596 32.1679 13.7703 30.3668 13.7703 30.3668C13.7703 30.3668 12.5456 31.3106 11.8012 31.754C11.5365 31.9118 11.3016 32.0583 11.2468 32.0044C10.9596 31.7201 10.5479 28.7925 10.5479 28.7925C10.5479 28.7925 11.0811 31.6456 10.8045 31.8942C10.5279 32.1428 7.70728 31.4114 7.70728 31.4114H7.7079Z" fill="url(#paint37_linear_4001_7477)"/>
<path opacity="0.34" d="M12.7817 35.3943L11.4536 35.7155C11.4536 35.7155 11.3502 36.2898 11.3184 36.4176C11.2867 36.5453 12.2005 36.9411 12.2684 36.9987C12.3363 37.0569 14.1179 35.8577 14.1179 35.8577L12.7817 35.3943Z" fill="#D15347"/>
<path opacity="0.34" d="M10.144 36.4482C10.144 36.4482 8.39232 36.1213 8.21229 36.1445C8.03227 36.1676 6.48365 35.0423 6.48365 35.0423C6.48365 35.0423 5.02847 35.5458 4.89205 35.8576C4.81979 36.023 4.34698 36.1157 3.91965 36.1658C3.84552 35.7124 3.76392 35.17 3.76392 34.9941C3.76392 34.6741 4.82291 34.8043 4.97116 34.4899C5.03969 34.3453 5.26955 34.2827 5.40473 34.2413C5.40846 34.2401 5.41158 34.2388 5.41469 34.2369C5.61528 34.1411 5.50502 33.1041 5.72055 33.1429C6.09058 33.2087 6.76771 34.4242 7.10908 34.5814C7.11468 34.5839 7.12029 34.5864 7.12527 34.5883L7.67221 35.4988L9.20774 35.0899L10.144 36.4482Z" fill="#D15347"/>
<g style="mix-blend-mode:multiply" opacity="0.36">
<path d="M19.8277 36.8007C19.7 36.9291 18.4952 37.0381 18.1688 37.0468C17.0207 37.0782 15.8988 37.1301 14.7451 37.1138H14.7433C14.4978 37.1113 14.0543 37.2942 14.0543 37.2942L13.7703 38C13.7703 38 11.8167 37.9348 11.4542 37.7426C10.617 37.2986 9.61278 37.6105 9.61278 37.6105L8.16944 37.5522L6.76971 36.817C6.16795 36.9535 3.98644 36.884 3.85936 36.8489C3.85562 36.8477 3.85188 36.8464 3.84814 36.8452L4.67042 36.7425C4.67042 36.7425 6.38723 36.3016 6.41464 36.3974C6.44205 36.4939 10.1099 37.174 10.2002 37.1502C10.2905 37.1264 12.667 37.6781 12.667 37.6781C12.667 37.6781 13.569 37.2942 13.7703 37.1502C13.9715 37.0061 14.7333 36.6223 14.7333 36.6223C14.7333 36.6223 17.2194 36.7425 17.339 36.7187C17.3864 36.7093 19.1518 36.0467 19.1518 36.0467L20.0357 35.2333C20.0357 35.2333 18.309 34.1799 18.2853 33.9395C18.2921 33.9438 18.2984 33.9482 18.3052 33.9526C18.3233 33.9645 18.3426 33.977 18.3619 33.9889C18.3812 34.0015 18.4011 34.0133 18.4223 34.0252C18.423 34.0259 18.4236 34.0265 18.4242 34.0265C18.5631 34.1054 18.7301 34.1856 18.9088 34.2632C18.9107 34.2645 18.9126 34.2651 18.9144 34.2657C19.543 34.5425 20.3092 34.8043 20.4637 35.0103C20.6761 35.2934 19.9554 36.673 19.8277 36.8007Z" fill="#FF28B4"/>
</g>
<g style="mix-blend-mode:screen">
<path d="M6.50501 20.2605C6.49878 20.2574 6.4913 20.2593 6.48756 20.2655C6.48445 20.2718 6.48632 20.2793 6.49255 20.2831C6.49878 20.2862 6.50625 20.2843 6.50999 20.2781C6.5131 20.2718 6.51124 20.2643 6.50501 20.2605Z" fill="#D7B3FF"/>
</g>
<path style="mix-blend-mode:color-dodge" opacity="0.44" d="M6.65704 19.9844C6.49944 19.8967 6.30073 19.9537 6.21351 20.1127C6.1263 20.2712 6.18299 20.4709 6.34122 20.5586C6.49882 20.6463 6.69753 20.5893 6.78475 20.4302C6.87196 20.2718 6.81527 20.072 6.65704 19.9844Z" fill="url(#paint38_radial_4001_7477)"/>
<g style="mix-blend-mode:screen">
<path d="M13.899 22.7298C13.8928 22.7266 13.8853 22.7285 13.8816 22.7348C13.8785 22.741 13.8804 22.7485 13.8866 22.7523C13.8928 22.7554 13.9003 22.7536 13.904 22.7473C13.9071 22.741 13.9053 22.7335 13.899 22.7298Z" fill="#D7B3FF"/>
</g>
<path style="mix-blend-mode:screen" opacity="0.69" d="M14.0511 22.4542C13.8935 22.3665 13.6948 22.4235 13.6076 22.5826C13.5203 22.741 13.577 22.9408 13.7353 23.0285C13.8929 23.1161 14.0916 23.0592 14.1788 22.9001C14.266 22.7417 14.2093 22.5419 14.0511 22.4542Z" fill="url(#paint39_radial_4001_7477)"/>
<g style="mix-blend-mode:screen">
<path d="M18.0324 20.1065C18.0262 20.1033 18.0187 20.1052 18.0149 20.1115C18.0112 20.1177 18.0137 20.1253 18.0199 20.129C18.0262 20.1321 18.0336 20.1303 18.0374 20.124C18.0405 20.1177 18.0386 20.1102 18.0324 20.1065Z" fill="#D7B3FF"/>
</g>
<path style="mix-blend-mode:screen" opacity="0.69" d="M18.1844 19.8303C18.0268 19.7426 17.8281 19.7996 17.7409 19.9587C17.6536 20.1171 17.7103 20.3169 17.8686 20.4046C18.0268 20.4922 18.2249 20.4353 18.3121 20.2762C18.3993 20.1178 18.3426 19.918 18.1844 19.8303Z" fill="url(#paint40_radial_4001_7477)"/>
<g style="mix-blend-mode:screen">
<path d="M10.845 15.865C10.8382 15.865 10.8319 15.87 10.8313 15.8769C10.8313 15.8838 10.8363 15.89 10.8431 15.8907C10.85 15.8907 10.8562 15.8857 10.8568 15.8788C10.8568 15.8719 10.8519 15.8656 10.845 15.865Z" fill="#D7B3FF"/>
</g>
<path style="mix-blend-mode:screen" opacity="0.69" d="M10.8661 15.5506C10.6861 15.5381 10.5303 15.6746 10.5179 15.8556C10.5054 16.0366 10.6412 16.1931 10.8213 16.2056C11.0013 16.2182 11.157 16.0817 11.1695 15.9007C11.1819 15.7197 11.0461 15.5631 10.8661 15.5506Z" fill="url(#paint41_radial_4001_7477)"/>
<g style="mix-blend-mode:screen">
<path d="M19.044 26.9531C19.0371 26.9531 19.0309 26.9581 19.0303 26.965C19.0303 26.9719 19.0353 26.9782 19.0421 26.9788C19.049 26.9788 19.0552 26.9738 19.0558 26.9669C19.0558 26.96 19.0508 26.9538 19.044 26.9531Z" fill="#D7B3FF"/>
</g>
<path style="mix-blend-mode:color-dodge" opacity="0.44" d="M19.0658 26.6381C18.8858 26.6256 18.73 26.7621 18.7176 26.9431C18.7051 27.1241 18.8409 27.2806 19.021 27.2932C19.201 27.3057 19.3567 27.1692 19.3692 26.9882C19.3816 26.8072 19.2458 26.6507 19.0658 26.6381Z" fill="url(#paint42_radial_4001_7477)"/>
<g opacity="0.65">
<g style="mix-blend-mode:screen">
<path d="M22.3395 30.8563C22.3395 30.8563 22.3345 30.8563 22.3333 30.8582C22.332 30.8607 22.3333 30.8632 22.3351 30.8645C22.3376 30.8657 22.3401 30.8645 22.3414 30.8626C22.3426 30.8607 22.3414 30.8576 22.3395 30.8563Z" fill="#D7B3FF"/>
</g>
<path style="mix-blend-mode:screen" opacity="0.69" d="M22.3961 30.7537C22.3375 30.7211 22.264 30.7424 22.231 30.8012C22.1986 30.8601 22.2198 30.934 22.2783 30.9672C22.3369 30.9998 22.4104 30.9785 22.4434 30.9196C22.4758 30.8607 22.4546 30.7868 22.3961 30.7537Z" fill="url(#paint43_radial_4001_7477)"/>
</g>
<g opacity="0.65">
<g style="mix-blend-mode:screen">
<path d="M6.54185 21.2925C6.54185 21.2925 6.53687 21.2944 6.53687 21.2969C6.53687 21.2994 6.53873 21.3019 6.54123 21.3019C6.54372 21.3019 6.54621 21.3 6.54621 21.2975C6.54621 21.295 6.54434 21.2925 6.54185 21.2925Z" fill="#D7B3FF"/>
</g>
<path style="mix-blend-mode:screen" opacity="0.69" d="M6.54983 21.1754C6.48317 21.1711 6.42524 21.2218 6.42026 21.2888C6.41527 21.3558 6.46635 21.414 6.53301 21.419C6.59966 21.4241 6.6576 21.3727 6.66258 21.3057C6.66694 21.2387 6.61648 21.1804 6.54983 21.1754Z" fill="url(#paint44_radial_4001_7477)"/>
</g>
<g opacity="0.65">
<g style="mix-blend-mode:screen">
<path d="M14.9428 26.1891C14.9428 26.1891 14.9378 26.1891 14.9365 26.191C14.9353 26.1935 14.9365 26.196 14.9384 26.1972C14.9409 26.1985 14.9434 26.1972 14.9446 26.1953C14.9459 26.1935 14.9446 26.1903 14.9428 26.1891Z" fill="#D7B3FF"/>
</g>
<path style="mix-blend-mode:screen" opacity="0.69" d="M14.9993 26.0864C14.9408 26.0539 14.8673 26.0751 14.8343 26.134C14.8019 26.1929 14.823 26.2668 14.8816 26.3C14.9402 26.3325 15.0137 26.3112 15.0467 26.2524C15.0797 26.1935 15.0579 26.1196 14.9993 26.0864Z" fill="url(#paint45_radial_4001_7477)"/>
</g>
<g style="mix-blend-mode:screen">
<path d="M8.19568 26.8053C8.18945 26.8022 8.18198 26.8041 8.17824 26.8103C8.17512 26.8166 8.17699 26.8241 8.18322 26.8279C8.18945 26.831 8.19693 26.8291 8.20066 26.8229C8.20378 26.8166 8.20191 26.8091 8.19568 26.8053Z" fill="#D7B3FF"/>
</g>
<path style="mix-blend-mode:screen" opacity="0.69" d="M8.34772 26.5292C8.19011 26.4415 7.9914 26.4985 7.90419 26.6575C7.81698 26.816 7.87366 27.0157 8.03189 27.1034C8.18949 27.1911 8.38821 27.1341 8.47542 26.975C8.56263 26.8166 8.50594 26.6168 8.34772 26.5292Z" fill="url(#paint46_radial_4001_7477)"/>
<g style="mix-blend-mode:screen">
<path d="M10.7795 17.6715C10.7534 17.6571 10.721 17.6665 10.7067 17.6928C10.6923 17.7191 10.7017 17.7517 10.7278 17.7661C10.754 17.7805 10.7864 17.7711 10.8007 17.7448C10.815 17.7185 10.8057 17.6859 10.7795 17.6715Z" fill="#D7B3FF"/>
</g>
<path style="mix-blend-mode:screen" opacity="0.69" d="M11.8703 18.5353C12.3189 17.9152 12.1826 17.0469 11.5658 16.5959C10.9489 16.1448 10.0852 16.2819 9.63656 16.902C9.18792 17.5221 9.32426 18.3904 9.94108 18.8414C10.5579 19.2925 11.4216 19.1554 11.8703 18.5353Z" fill="url(#paint47_radial_4001_7477)"/>
<g style="mix-blend-mode:screen">
<path d="M6.93921 22.3659C6.91305 22.3515 6.88065 22.3609 6.86633 22.3872C6.852 22.4135 6.86134 22.446 6.88751 22.4604C6.91367 22.4748 6.94606 22.4654 6.96039 22.4391C6.97472 22.4128 6.96537 22.3803 6.93921 22.3659Z" fill="#D7B3FF"/>
</g>
<path style="mix-blend-mode:screen" opacity="0.69" d="M7.96812 23.3083C8.46043 22.7226 8.38726 21.8466 7.80469 21.3517C7.22212 20.8568 6.35076 20.9303 5.85845 21.516C5.36614 22.1016 5.43931 22.9776 6.02188 23.4725C6.60445 23.9675 7.47581 23.8939 7.96812 23.3083Z" fill="url(#paint48_radial_4001_7477)"/>
<g style="mix-blend-mode:screen">
<path d="M18.3787 25.0337C18.3525 25.0193 18.3201 25.0287 18.3058 25.055C18.2915 25.0813 18.3008 25.1139 18.327 25.1283C18.3531 25.1427 18.3855 25.1333 18.3998 25.107C18.4142 25.0807 18.4048 25.0481 18.3787 25.0337Z" fill="#D7B3FF"/>
</g>
<path style="mix-blend-mode:screen" opacity="0.69" d="M19.4341 25.9423C19.9081 25.3416 19.8079 24.4683 19.2103 23.9918C18.6127 23.5153 17.7441 23.6161 17.2701 24.2168C16.7961 24.8176 16.8963 25.6908 17.4939 26.1673C18.0915 26.6438 18.9601 26.5431 19.4341 25.9423Z" fill="url(#paint49_radial_4001_7477)"/>
<g style="mix-blend-mode:screen">
<path d="M20.2053 32.1696C20.1792 32.1552 20.1468 32.1646 20.1324 32.1909C20.1181 32.2172 20.1275 32.2497 20.1536 32.2641C20.1798 32.2786 20.2122 32.2692 20.2265 32.2429C20.2408 32.2166 20.2315 32.184 20.2053 32.1696Z" fill="#D7B3FF"/>
</g>
<path style="mix-blend-mode:screen" opacity="0.69" d="M21.229 33.1168C21.7243 32.5337 21.6555 31.6574 21.0755 31.1595C20.4954 30.6616 19.6237 30.7307 19.1284 31.3139C18.6332 31.897 18.7019 32.7734 19.282 33.2712C19.8621 33.7691 20.7338 33.7 21.229 33.1168Z" fill="url(#paint50_radial_4001_7477)"/>
<g style="mix-blend-mode:screen">
<path d="M4.06055 29.0741C4.03438 29.0597 4.00199 29.0691 3.98766 29.0954C3.97334 29.1217 3.98268 29.1543 4.00884 29.1687C4.03501 29.1831 4.0674 29.1737 4.08173 29.1474C4.09606 29.1211 4.08671 29.0885 4.06055 29.0741Z" fill="#D7B3FF"/>
</g>
<path style="mix-blend-mode:screen" opacity="0.69" d="M5.13523 29.9599C5.59553 29.3485 5.47564 28.4777 4.86746 28.015C4.25928 27.5523 3.39311 27.6728 2.93281 28.2842C2.47251 28.8956 2.59239 29.7664 3.20057 30.2291C3.80876 30.6918 4.67493 30.5713 5.13523 29.9599Z" fill="url(#paint51_radial_4001_7477)"/>
<g opacity="0.65">
<g style="mix-blend-mode:screen">
<path d="M9.02354 23.389C9.02354 23.389 9.01855 23.3909 9.01855 23.3934C9.01855 23.3959 9.02042 23.3984 9.02291 23.3984C9.02541 23.3984 9.0279 23.3966 9.0279 23.394C9.0279 23.3915 9.02603 23.389 9.02354 23.389Z" fill="#D7B3FF"/>
</g>
<path style="mix-blend-mode:screen" opacity="0.69" d="M9.03169 23.272C8.96503 23.2676 8.9071 23.3183 8.90212 23.3853C8.89776 23.4523 8.94822 23.5106 9.01487 23.5156C9.08152 23.52 9.13946 23.4693 9.14444 23.4022C9.14942 23.3352 9.09834 23.277 9.03169 23.272Z" fill="url(#paint52_radial_4001_7477)"/>
</g>
<g opacity="0.65">
<g style="mix-blend-mode:screen">
<path d="M20.1467 27.1729C20.1467 27.1729 20.1417 27.1741 20.1411 27.1766C20.1411 27.1791 20.1424 27.1816 20.1449 27.1822C20.1473 27.1822 20.1498 27.181 20.1505 27.1785C20.1505 27.176 20.1492 27.1735 20.1467 27.1729Z" fill="#D7B3FF"/>
</g>
<path style="mix-blend-mode:screen" opacity="0.69" d="M20.1654 27.057C20.0993 27.0463 20.037 27.0914 20.0265 27.1584C20.0159 27.2248 20.0607 27.2874 20.1274 27.2981C20.1934 27.3087 20.2557 27.2636 20.2663 27.1966C20.2769 27.1296 20.232 27.0676 20.1654 27.057Z" fill="url(#paint53_radial_4001_7477)"/>
</g>
<g style="mix-blend-mode:screen">
<path d="M16.5092 21.8361C16.503 21.833 16.4955 21.8348 16.4917 21.8411C16.488 21.8474 16.4905 21.8549 16.4967 21.8586C16.503 21.8618 16.5104 21.8599 16.5142 21.8536C16.5173 21.8474 16.5154 21.8398 16.5092 21.8361Z" fill="#D7B3FF"/>
</g>
<path style="mix-blend-mode:screen" opacity="0.69" d="M16.6612 21.5599C16.5036 21.4722 16.3049 21.5292 16.2177 21.6883C16.1305 21.8467 16.1871 22.0465 16.3454 22.1342C16.503 22.2219 16.7017 22.1649 16.7889 22.0058C16.8761 21.8474 16.8194 21.6476 16.6612 21.5599Z" fill="url(#paint54_radial_4001_7477)"/>
<g style="mix-blend-mode:screen">
<path d="M10.8649 20.7195C10.86 20.7145 10.8519 20.7151 10.8469 20.7207C10.8425 20.7257 10.8425 20.7339 10.8481 20.7389C10.8531 20.7433 10.8612 20.7433 10.8662 20.7376C10.8712 20.7326 10.8706 20.7245 10.8649 20.7195Z" fill="#D7B3FF"/>
</g>
<path style="mix-blend-mode:color-dodge" opacity="0.44" d="M11.0748 20.4846C10.9409 20.3638 10.734 20.3744 10.6138 20.5097C10.4936 20.6443 10.5042 20.8522 10.6387 20.9731C10.7727 21.094 10.9795 21.0833 11.0997 20.948C11.2199 20.8134 11.2093 20.6055 11.0748 20.4846Z" fill="url(#paint55_radial_4001_7477)"/>
<g style="mix-blend-mode:screen">
<path d="M17.9751 21.2774C17.9701 21.2724 17.962 21.2731 17.957 21.2787C17.952 21.2837 17.9526 21.2918 17.9582 21.2969C17.9632 21.3012 17.9713 21.3012 17.9763 21.2956C17.9813 21.2906 17.9807 21.2825 17.9751 21.2774Z" fill="#D7B3FF"/>
</g>
<path style="mix-blend-mode:screen" opacity="0.69" d="M18.1849 21.0426C18.051 20.9217 17.8442 20.9324 17.7239 21.0677C17.6037 21.2023 17.6143 21.4102 17.7488 21.5311C17.8828 21.6519 18.0896 21.6413 18.2098 21.506C18.33 21.3714 18.3195 21.1635 18.1849 21.0426Z" fill="url(#paint56_radial_4001_7477)"/>
<g style="mix-blend-mode:screen">
<path d="M15.5625 17.9885C15.5575 17.9841 15.5494 17.9841 15.5444 17.9897C15.54 17.9948 15.54 18.0029 15.5456 18.0079C15.5506 18.0129 15.5587 18.0123 15.5637 18.0067C15.5681 18.0016 15.5681 17.9935 15.5625 17.9885Z" fill="#D7B3FF"/>
</g>
<path style="mix-blend-mode:color-dodge" opacity="0.44" d="M15.7718 17.7537C15.6379 17.6328 15.4311 17.6435 15.3108 17.7787C15.1906 17.9134 15.2012 18.1213 15.3358 18.2421C15.4697 18.363 15.6765 18.3524 15.7967 18.2171C15.917 18.0818 15.9064 17.8745 15.7718 17.7537Z" fill="url(#paint57_radial_4001_7477)"/>
<g opacity="0.65">
<g style="mix-blend-mode:screen">
<path d="M16.0502 16.9721C16.0502 16.9721 16.0453 16.9703 16.0434 16.9721C16.0415 16.974 16.0415 16.9772 16.0434 16.979C16.0453 16.9809 16.0484 16.9809 16.0502 16.979C16.0521 16.9772 16.0521 16.974 16.0502 16.9721Z" fill="#D7B3FF"/>
</g>
<path style="mix-blend-mode:screen" opacity="0.69" d="M16.1281 16.8851C16.0783 16.84 16.0017 16.8444 15.9568 16.8945C15.912 16.9446 15.9163 17.0216 15.9661 17.0667C16.016 17.1118 16.0926 17.1074 16.1375 17.0573C16.1823 17.0072 16.1779 16.9302 16.1281 16.8851Z" fill="url(#paint58_radial_4001_7477)"/>
</g>
<g opacity="0.88">
<g style="mix-blend-mode:screen" opacity="0.94">
<path d="M7.64236 18.0849C7.64112 18.0899 7.64423 18.0949 7.64922 18.0962C7.6542 18.0974 7.65918 18.0943 7.66043 18.0893C7.66168 18.0843 7.65856 18.0793 7.65358 18.078C7.64859 18.0768 7.64361 18.0799 7.64236 18.0849Z" fill="#D7B3FF"/>
</g>
<path style="mix-blend-mode:screen" opacity="0.87" d="M7.4456 18.0311C7.41446 18.1451 7.48173 18.2628 7.59511 18.2941C7.70848 18.3255 7.82559 18.2578 7.85674 18.1438C7.88789 18.0299 7.82061 17.9121 7.70723 17.8808C7.59386 17.8495 7.47675 17.9171 7.4456 18.0311Z" fill="url(#paint59_radial_4001_7477)"/>
</g>
<g opacity="0.69">
<g style="mix-blend-mode:screen" opacity="0.59">
<path d="M4.07104 26.3263C4.07104 26.3263 4.07167 26.3319 4.07478 26.3332C4.0779 26.3338 4.08039 26.3326 4.08163 26.3294C4.08226 26.3263 4.08101 26.3238 4.0779 26.3225C4.07478 26.3219 4.07229 26.3232 4.07104 26.3263Z" fill="#D7B3FF"/>
</g>
<path style="mix-blend-mode:screen" opacity="0.87" d="M3.72784 26.2317C3.67552 26.4252 3.78889 26.6256 3.98138 26.6782C4.17387 26.7308 4.37321 26.6168 4.42553 26.4233C4.47786 26.2298 4.36448 26.0294 4.172 25.9768C3.97951 25.9242 3.78017 26.0382 3.72784 26.2317Z" fill="url(#paint60_radial_4001_7477)"/>
</g>
<g opacity="0.69">
<g style="mix-blend-mode:screen" opacity="0.59">
<path d="M5.26025 33.9689C5.26025 33.9689 5.26088 33.9745 5.26399 33.9758C5.26711 33.9764 5.2696 33.9751 5.27084 33.972C5.27147 33.9689 5.27022 33.9664 5.26711 33.9651C5.26399 33.9645 5.2615 33.9657 5.26025 33.9689Z" fill="#D7B3FF"/>
</g>
<path style="mix-blend-mode:screen" opacity="0.87" d="M4.91705 33.8743C4.86473 34.0678 4.9781 34.2682 5.17059 34.3208C5.36307 34.3734 5.56241 34.2594 5.61474 34.0659C5.66707 33.8724 5.55369 33.672 5.36121 33.6194C5.16872 33.5668 4.96938 33.6808 4.91705 33.8743Z" fill="url(#paint61_radial_4001_7477)"/>
</g>
<g opacity="0.69">
<g style="mix-blend-mode:screen" opacity="0.59">
<path d="M14.2146 27.1974C14.2146 27.1974 14.2152 27.203 14.2183 27.2043C14.2215 27.2049 14.2239 27.2037 14.2252 27.2005C14.2258 27.1974 14.2246 27.1949 14.2215 27.1936C14.2183 27.193 14.2158 27.1943 14.2146 27.1974Z" fill="#D7B3FF"/>
</g>
<path style="mix-blend-mode:screen" opacity="0.87" d="M13.8707 27.1028C13.8183 27.2963 13.9317 27.4967 14.1242 27.5493C14.3167 27.6019 14.516 27.4879 14.5684 27.2944C14.6207 27.1009 14.5073 26.9005 14.3148 26.8479C14.1223 26.7953 13.923 26.9093 13.8707 27.1028Z" fill="url(#paint62_radial_4001_7477)"/>
</g>
<g opacity="0.69">
<g style="mix-blend-mode:screen" opacity="0.59">
<path d="M21.0618 29.5984C21.0618 29.5984 21.0624 29.604 21.0655 29.6053C21.0686 29.6059 21.0711 29.6047 21.0724 29.6015C21.073 29.5984 21.0717 29.5959 21.0686 29.5946C21.0655 29.594 21.063 29.5953 21.0618 29.5984Z" fill="#D7B3FF"/>
</g>
<path style="mix-blend-mode:screen" opacity="0.87" d="M20.7178 29.5038C20.6655 29.6973 20.7789 29.8977 20.9714 29.9503C21.1639 30.0029 21.3632 29.8889 21.4155 29.6954C21.4678 29.5019 21.3545 29.3015 21.162 29.2489C20.9695 29.1963 20.7702 29.3103 20.7178 29.5038Z" fill="url(#paint63_radial_4001_7477)"/>
</g>
<g opacity="0.69">
<g style="mix-blend-mode:screen" opacity="0.59">
<path d="M12.2144 33.7784C12.2144 33.7784 12.215 33.7841 12.2181 33.7853C12.2212 33.786 12.2237 33.7847 12.2249 33.7816C12.2256 33.7785 12.2243 33.7759 12.2212 33.7747C12.2181 33.7741 12.2156 33.7753 12.2144 33.7784Z" fill="#D7B3FF"/>
</g>
<path style="mix-blend-mode:screen" opacity="0.87" d="M11.8704 33.6838C11.8181 33.8773 11.9315 34.0777 12.124 34.1303C12.3164 34.183 12.5158 34.069 12.5681 33.8755C12.6204 33.682 12.5071 33.4816 12.3146 33.429C12.1221 33.3764 11.9227 33.4903 11.8704 33.6838Z" fill="url(#paint64_radial_4001_7477)"/>
</g>
<g opacity="0.69">
<g style="mix-blend-mode:screen" opacity="0.59">
<path d="M13.2737 14.8267C13.2737 14.8267 13.2743 14.8323 13.2774 14.8336C13.2805 14.8342 13.283 14.8329 13.2843 14.8298C13.2849 14.8267 13.2836 14.8242 13.2805 14.8229C13.2774 14.8223 13.2749 14.8235 13.2737 14.8267Z" fill="#D7B3FF"/>
</g>
<path style="mix-blend-mode:screen" opacity="0.87" d="M12.9305 14.7321C12.8782 14.9256 12.9915 15.126 13.184 15.1786C13.3765 15.2312 13.5758 15.1172 13.6282 14.9237C13.6805 14.7302 13.5671 14.5298 13.3746 14.4772C13.1821 14.4246 12.9828 14.5386 12.9305 14.7321Z" fill="url(#paint65_radial_4001_7477)"/>
</g>
<g opacity="0.78">
<g style="mix-blend-mode:screen" opacity="0.99">
<path d="M3.46875 27.1034C3.46875 27.1034 3.46937 27.109 3.47249 27.1097C3.4756 27.1103 3.47809 27.109 3.47872 27.1059C3.47934 27.1028 3.47809 27.1003 3.47498 27.0996C3.47249 27.099 3.46937 27.1003 3.46875 27.1034Z" fill="#D7B3FF"/>
</g>
<path style="mix-blend-mode:screen" opacity="0.87" d="M3.33479 27.0664C3.31361 27.1434 3.35908 27.223 3.43571 27.2436C3.51233 27.2649 3.59144 27.2192 3.612 27.1422C3.63318 27.0651 3.5877 26.9856 3.51108 26.9649C3.43446 26.9437 3.35535 26.9894 3.33479 27.0664Z" fill="url(#paint66_radial_4001_7477)"/>
</g>
<g opacity="0.78">
<g style="mix-blend-mode:screen" opacity="0.99">
<path d="M4.86523 32.0807C4.86523 32.0807 4.86586 32.0863 4.86897 32.087C4.87146 32.0876 4.87458 32.0863 4.8752 32.0832C4.87582 32.0801 4.87458 32.0776 4.87146 32.0769C4.86835 32.0763 4.86586 32.0776 4.86523 32.0807Z" fill="#D7B3FF"/>
</g>
<path style="mix-blend-mode:screen" opacity="0.87" d="M4.73201 32.0444C4.71083 32.1214 4.7563 32.201 4.83292 32.2216C4.90954 32.2429 4.98866 32.1972 5.00921 32.1202C5.03039 32.0432 4.98492 31.9636 4.9083 31.943C4.83168 31.9217 4.75256 31.9674 4.73201 32.0444Z" fill="url(#paint67_radial_4001_7477)"/>
</g>
<g opacity="0.78">
<g style="mix-blend-mode:screen" opacity="0.99">
<path d="M4.41919 33.3024C4.41919 33.3024 4.41981 33.308 4.42293 33.3086C4.42604 33.3093 4.42853 33.308 4.42916 33.3049C4.42978 33.3017 4.42853 33.2992 4.42542 33.2986C4.42293 33.298 4.41981 33.2992 4.41919 33.3024Z" fill="#D7B3FF"/>
</g>
<path style="mix-blend-mode:screen" opacity="0.87" d="M4.28596 33.2661C4.26478 33.3431 4.31026 33.4227 4.38688 33.4433C4.4635 33.4646 4.54261 33.4189 4.56317 33.3419C4.58435 33.2648 4.53887 33.1853 4.46225 33.1647C4.38563 33.1434 4.30652 33.1891 4.28596 33.2661Z" fill="url(#paint68_radial_4001_7477)"/>
</g>
<path d="M15.5163 21.825C15.5163 21.825 15.5393 23.3323 15.2185 23.4807C14.8977 23.6285 14.1377 23.5928 14.1377 23.5928C14.1377 23.5928 15.1456 23.6254 15.2366 23.9748C15.3275 24.3243 15.4116 25.5786 15.4116 25.5786C15.4116 25.5786 15.5405 24.0625 15.6545 23.9241C15.9274 23.5928 16.8948 23.7018 16.8948 23.7018C16.8948 23.7018 15.672 23.5847 15.6545 23.383C15.6371 23.1814 15.5163 21.8243 15.5163 21.8243V21.825Z" fill="#ECDBE3"/>
</g>
<g clip-path="url(#clip1_4001_7477)">
<path d="M37.3243 25.7674C37.2116 25.8904 37.0862 26.0119 36.9498 26.1295C36.9017 26.1708 36.8521 26.2113 36.8016 26.251C36.7701 26.2756 36.7386 26.3002 36.7062 26.3232C36.6313 26.3796 36.5549 26.432 36.4792 26.4821C36.4145 26.5242 36.3507 26.5639 36.286 26.6004C36.2537 26.6195 36.2214 26.6369 36.1898 26.6544C36.1575 26.6719 36.126 26.6885 36.0937 26.7044C36.07 26.7163 36.0464 26.7282 36.0227 26.7394C35.9975 26.7521 35.9723 26.7632 35.9462 26.7743C35.9257 26.7838 35.9045 26.7934 35.884 26.8013C35.8595 26.8124 35.8343 26.8228 35.8099 26.8323C35.7484 26.8569 35.6869 26.8783 35.6262 26.8974C35.6049 26.9045 35.5836 26.9109 35.5631 26.9165C35.5418 26.9228 35.5213 26.9292 35.5008 26.9339C35.4724 26.9419 35.4448 26.949 35.4165 26.9546C35.4141 26.9554 35.4117 26.9562 35.4094 26.9562C35.3849 26.9617 35.3613 26.9665 35.3368 26.9713C35.3203 26.9744 35.3045 26.9768 35.2887 26.9792C35.2801 26.9808 35.2706 26.9824 35.2611 26.9832C35.2422 26.9863 35.2233 26.9887 35.2052 26.9903C35.0853 27.0038 34.9734 27.003 34.8725 26.9879C34.6872 26.9609 34.5382 26.8863 34.4405 26.7608C34.4365 26.7552 34.4286 26.7449 34.4184 26.7306C34.3545 26.6425 34.1937 26.4114 34.1598 26.3629C34.1559 26.3574 34.1535 26.3542 34.1535 26.3542C34.1535 26.3534 34.1535 26.3534 34.1535 26.3534L32.1739 23.8503L31.6788 23.2245L30.9732 22.3319L28.8888 19.6978H28.888L28.0649 18.6559L24.9382 14.7035L24.7325 14.4431L23.84 13.3146L23.1352 12.4244L21.8723 10.8274L21.8675 10.821L21.7974 10.7329L21.0689 9.8117L20.413 8.98262L20.1418 8.63956L19.0728 7.28795L18.4176 6.45967H18.4168L18.2111 6.1992L18.2103 6.19841L18.174 6.15235L18.0274 5.96652C18.0045 5.88631 18.0037 5.7926 18.0226 5.68937L18.1653 5.57422L18.4137 5.3741L18.4618 5.33519L19.0239 4.88174L19.5316 4.47197L20.4918 3.6969L20.5951 3.61351L20.834 3.42054L21.0232 3.26807C21.1651 3.27283 21.2818 3.31174 21.363 3.38639L21.4331 3.47454L21.7863 3.91608L22.205 4.441L22.2893 4.54662L23.6485 6.25002L23.7817 6.41758L24.4699 7.2808L25.3025 8.32429L26.2706 9.53772L26.3368 9.6211L26.5307 9.86411L27.1559 10.6487L32.7628 17.6768L33.4999 18.5995L34.5627 19.9329C34.5627 19.9329 34.5634 19.9329 34.5634 19.9337L35.381 20.9597H35.3818L37.8147 24.0099H37.8155L37.8982 24.1148C37.8998 24.1164 37.9006 24.1179 37.9014 24.1203C38.1277 24.4983 37.8825 25.1551 37.3251 25.7674H37.3243Z" fill="url(#paint69_linear_4001_7477)"/>
<g style="mix-blend-mode:multiply">
<g style="mix-blend-mode:overlay">
<path d="M28.8879 19.6973L28.0649 18.6562C27.9868 18.441 27.8977 18.2321 27.7984 18.0304C27.4168 17.2554 26.9399 16.5121 26.3785 15.8561C26.0821 15.5107 25.7526 15.1795 25.3694 14.9333C25.2543 14.8595 25.1006 14.7674 24.9382 14.7038L24.7324 14.4434C25.3379 14.4029 25.9063 14.7022 26.4069 15.17C27.6849 16.3644 28.5592 17.9828 28.8879 19.6973Z" fill="#B99F9D"/>
</g>
<g style="mix-blend-mode:overlay">
<path d="M32.174 23.8506L30.9733 22.3331C31.0371 21.3261 31.1483 17.1688 30.3828 15.853C29.5526 14.4267 28.2897 13.2895 26.873 12.4739C26.1682 12.0681 25.383 11.6655 24.5654 11.3598C23.6832 11.0286 22.764 10.8102 21.8676 10.8214C21.8085 10.8214 21.7494 10.823 21.691 10.8261C21.5704 10.8317 21.6201 10.8166 21.6816 10.7777C21.7131 10.7586 21.7533 10.7443 21.7974 10.7332C21.8865 10.7118 21.9906 10.7062 22.0647 10.703C22.9847 10.6609 23.9253 10.8428 24.8327 11.1525H24.8335C25.8142 11.486 26.7571 11.9681 27.5959 12.4739C28.9716 13.3038 30.1873 14.4354 30.9827 15.849C31.764 17.2355 32.0573 18.8707 32.1897 20.443C32.2828 21.5524 32.2867 22.7055 32.174 23.8506Z" fill="#B99F9D"/>
</g>
<g style="mix-blend-mode:overlay">
<path d="M34.8734 26.9882C34.6881 26.9612 34.5391 26.8865 34.4414 26.7611C34.4075 26.7174 34.3815 26.6697 34.3625 26.6173L34.1544 26.3545L34.1536 26.3537C33.8808 25.0052 33.7571 23.606 33.5576 22.271C33.3432 20.8376 33.0909 19.4138 32.8213 17.9891C32.8016 17.8874 32.7826 17.7834 32.7629 17.677L33.5001 18.5998C33.9392 20.9218 34.223 23.2661 34.6006 25.5977C34.6755 26.0622 34.7615 26.5284 34.8734 26.9882Z" fill="#B99F9D"/>
</g>
<g style="mix-blend-mode:overlay">
<path d="M37.3251 25.7675C37.2124 25.8906 37.087 26.0121 36.9507 26.1296C35.6254 24.3968 35.0877 22.0081 34.5635 19.9338L35.381 20.9599H35.3818C35.8075 22.6355 36.3255 24.4032 37.3251 25.7675Z" fill="#B99F9D"/>
</g>
<g style="mix-blend-mode:overlay">
<path d="M26.5308 9.8642C26.433 9.83799 26.3345 9.81337 26.2367 9.78796C25.4681 9.59499 24.6892 9.44251 23.9095 9.32101C23.4428 9.24875 22.9737 9.19316 22.5038 9.1471C21.8085 9.07801 21.1108 9.03115 20.413 8.98271L20.1418 8.63965C20.5415 8.66824 20.942 8.69683 21.3425 8.72859C21.8558 8.76989 22.3706 8.8223 22.8854 8.88821C24.023 9.03354 25.1598 9.24398 26.2706 9.53781C26.303 9.54654 26.3361 9.55528 26.3684 9.56402C26.3589 9.58307 26.3487 9.60213 26.3369 9.62119L26.5308 9.8642Z" fill="#B99F9D"/>
</g>
<g style="mix-blend-mode:overlay">
<path d="M23.781 6.41771C23.1802 6.42406 22.5866 6.42168 22.0119 6.37085C21.6524 6.33909 21.2913 6.30176 20.9318 6.25412C20.6756 6.22076 20.4202 6.18106 20.1655 6.135C20.1143 6.12547 20.063 6.11594 20.0126 6.10641C19.9661 6.09688 19.9203 6.08814 19.8746 6.07861C19.7343 6.05002 19.5955 6.01905 19.4568 5.98411C19.1793 5.9174 18.9049 5.83879 18.6345 5.74746C18.5872 5.73237 18.5399 5.71649 18.4934 5.69981C18.4216 5.6744 18.3515 5.64819 18.2813 5.6204C18.2419 5.60611 18.2033 5.59022 18.1646 5.57434C18.1307 5.56084 18.0976 5.54655 18.0637 5.53225C18.0968 5.43219 18.1457 5.32578 18.2088 5.2146C18.286 5.25351 18.3641 5.29084 18.4429 5.32657C18.4492 5.32975 18.4548 5.33292 18.4611 5.33531C18.6392 5.41472 18.8213 5.48699 19.0066 5.5521L19.035 5.56163C19.2691 5.64422 19.508 5.71649 19.7493 5.78081C19.7642 5.78478 19.7792 5.78876 19.795 5.79273C19.9195 5.82529 20.0457 5.85546 20.1726 5.88405C20.2412 5.89914 20.3106 5.91423 20.38 5.92852C20.4958 5.95235 20.6117 5.97458 20.7284 5.99523C21.4253 6.11911 22.1341 6.1882 22.8302 6.22712C23.099 6.2422 23.3726 6.24856 23.6477 6.25014L23.781 6.41771Z" fill="#B99F9D"/>
</g>
<g style="mix-blend-mode:overlay">
<path d="M22.2886 4.54682C22.2342 4.53094 22.1798 4.51427 22.1254 4.496C21.9378 4.43406 21.7541 4.36338 21.5736 4.28476C21.5003 4.25379 21.4269 4.22044 21.3552 4.18629C21.2117 4.11799 21.0714 4.04573 20.9342 3.9679C20.7828 3.88373 20.6354 3.7932 20.4911 3.69711L20.4486 3.66852C20.3571 3.60816 20.2673 3.54463 20.179 3.47951C20.3477 3.40248 20.5085 3.34531 20.6567 3.30957C20.6575 3.31036 20.6575 3.30957 20.6575 3.30957C20.715 3.34769 20.7742 3.38422 20.8333 3.42075C20.8861 3.45331 20.9389 3.48507 20.9926 3.51604C21.0462 3.54702 21.1006 3.57799 21.155 3.60816C21.2622 3.66772 21.3718 3.72411 21.4829 3.77811C21.5342 3.80352 21.5862 3.82814 21.6382 3.85117C21.6871 3.8734 21.736 3.89564 21.7857 3.91629L22.2043 4.44121L22.2886 4.54682Z" fill="#B99F9D"/>
</g>
</g>
<path style="mix-blend-mode:multiply" d="M27.1552 10.6489C26.996 11.2953 26.6152 11.952 25.8623 12.527C25.1922 13.0392 24.5 13.2647 23.8394 13.3148L23.1346 12.4246L21.8716 10.8276L25.3018 8.32446L26.2699 9.53789L26.3361 9.62128L26.5301 9.86428L27.1552 10.6489Z" fill="url(#paint70_linear_4001_7477)"/>
<path style="mix-blend-mode:multiply" opacity="0.47" d="M36.7062 26.3234C36.6313 26.3798 36.5549 26.4322 36.4792 26.4823C36.4145 26.5244 36.3507 26.5641 36.286 26.6006C36.2537 26.6197 36.2214 26.6371 36.1898 26.6546C36.1575 26.6721 36.126 26.6887 36.0937 26.7046C36.07 26.7165 36.0464 26.7284 36.0227 26.7396C35.9975 26.7523 35.9723 26.7634 35.9462 26.7745C35.9257 26.784 35.9045 26.7936 35.884 26.8015C35.8595 26.8126 35.8343 26.823 35.8099 26.8325C35.7484 26.8571 35.6869 26.8785 35.6262 26.8976C35.6049 26.9047 35.5836 26.9111 35.5631 26.9167C35.5418 26.923 35.5213 26.9294 35.5008 26.9341C35.4724 26.9421 35.4448 26.9492 35.4165 26.9548C35.4141 26.9556 35.4117 26.9564 35.4094 26.9564C35.3849 26.9619 35.3613 26.9667 35.3368 26.9715C35.3203 26.9746 35.3045 26.977 35.2887 26.9794C35.2801 26.981 35.2706 26.9826 35.2612 26.9834C35.2422 26.9865 35.2233 26.9889 35.2052 26.9905C35.0853 27.004 34.9734 27.0032 34.8725 26.9881C34.6872 26.9611 34.5382 26.8865 34.4405 26.761C34.4365 26.7554 34.4286 26.7451 34.4184 26.7308C34.3545 26.6427 34.1937 26.4116 34.1598 26.3632C34.1559 26.3576 34.1535 26.3544 34.1535 26.3544C34.1535 26.3536 34.1535 26.3536 34.1535 26.3536L32.1739 23.8505L31.6788 23.2247L30.9732 22.3321L28.8888 19.698H28.888L28.0649 18.6561L24.9382 14.7037L24.7325 14.4433L23.1352 12.4246L21.8675 10.8212L21.7974 10.7331L21.0689 9.8119L20.413 8.98283L20.1418 8.63976L19.0728 7.28815L18.4176 6.45987L18.2119 6.1994H18.2111L18.2103 6.19861L18.174 6.15255L18.0274 5.96672C18.0045 5.88651 18.0037 5.79281 18.0226 5.68957L18.1653 5.57442L18.4137 5.3743L18.4618 5.33539L19.0239 4.88194L19.5316 4.47217L20.29 5.43704L20.4658 5.66098L20.7291 5.99531L20.9325 6.2542L23.0162 8.9058L23.2732 9.23298L24.7648 11.1294L25.1219 11.5844L30.9811 19.0389L32.2015 20.5906L33.5654 22.3266L34.2323 23.1747L36.707 26.3234H36.7062Z" fill="url(#paint71_linear_4001_7477)"/>
<path style="mix-blend-mode:screen" d="M36.4792 26.4822C36.4145 26.5243 36.3507 26.564 36.286 26.6005C36.2537 26.6195 36.2214 26.637 36.1898 26.6545C36.1575 26.672 36.126 26.6886 36.0937 26.7045C36.07 26.7164 36.0464 26.7283 36.0227 26.7395C35.9975 26.7522 35.9723 26.7633 35.9462 26.7744C35.9257 26.7839 35.9045 26.7935 35.884 26.8014C35.8595 26.8125 35.8343 26.8228 35.8099 26.8324C35.7484 26.857 35.6869 26.8784 35.6262 26.8975C35.6049 26.9046 35.5836 26.911 35.5631 26.9166C35.5418 26.9229 35.5213 26.9293 35.5008 26.934C35.4724 26.942 35.4448 26.9491 35.4165 26.9547C35.4141 26.9555 35.4117 26.9563 35.4094 26.9563C35.3849 26.9618 35.3613 26.9666 35.3368 26.9713C35.3203 26.9745 35.3045 26.9769 35.2887 26.9793C35.2801 26.9809 35.2706 26.9825 35.2612 26.9833C35.2422 26.9864 35.2233 26.9888 35.2052 26.9904C35.0853 27.0039 34.9734 27.0031 34.8725 26.988C34.6872 26.961 34.5382 26.8864 34.4405 26.7609C34.4365 26.7553 34.4286 26.745 34.4184 26.7307C34.3545 26.6426 34.1937 26.4115 34.1598 26.363C34.1559 26.3575 34.1535 26.3543 34.1535 26.3543C34.1535 26.3535 34.1535 26.3535 34.1535 26.3535L32.1739 23.8504L31.6788 23.2246L30.9732 22.332L28.8888 19.6979H28.888L28.0649 18.656L24.9382 14.7036L24.7325 14.4432L23.1352 12.4245L21.8675 10.8211L21.7974 10.733L21.0689 9.81179L20.413 8.98272L20.1418 8.63966L19.0728 7.28805L18.4176 6.45977L18.2119 6.1993H18.2111L18.2103 6.1985L18.174 6.15244L18.0274 5.96662C18.0045 5.88641 18.0037 5.7927 18.0226 5.68947L18.1653 5.57432L18.4137 5.3742L18.4618 5.33528L19.0239 4.88184L19.75 5.78079H19.7508L19.772 5.807L19.9526 6.03094L20.0133 6.10638L22.1971 8.80801L22.4683 9.14393L23.87 10.8783L24.1372 11.2095L31.0071 19.7098L32.2401 21.2353L33.6584 22.9904L34.3261 23.8171L36.48 26.4822H36.4792Z" fill="url(#paint72_linear_4001_7477)"/>
<path d="M38 2.69547C35.0113 3.97005 32.1211 5.37804 29.3334 6.92659C29.257 6.96948 29.1805 7.01236 29.104 7.05524C29.0757 7.07113 29.0473 7.08701 29.0197 7.10289C28.2203 7.55078 27.4477 8.19403 26.8099 8.77215C26.8099 8.77215 26.8099 8.77533 26.8107 8.78089C26.8115 8.78486 26.8115 8.78962 26.8115 8.79598C26.813 8.81424 26.813 8.84362 26.8115 8.88174C26.8107 8.88889 26.8107 8.89683 26.8099 8.90477C26.8091 8.91748 26.8083 8.93018 26.8067 8.94448L26.8044 8.9683C26.8028 8.9826 26.8004 8.99768 26.7981 9.01357C26.7957 9.02866 26.7933 9.04533 26.7902 9.0628C26.7783 9.12633 26.7618 9.20019 26.7366 9.28278C26.7326 9.29707 26.7279 9.31137 26.7232 9.32566C26.7208 9.3336 26.7184 9.34075 26.7161 9.3479C26.7113 9.36219 26.7058 9.37728 26.7003 9.39237C26.6601 9.50672 26.6049 9.63537 26.53 9.77593C26.5205 9.79499 25.9569 10.5621 25.5808 10.8702C25.3924 11.0243 24.8208 11.4714 24.7317 11.5397C24.2193 11.9336 22.9713 12.7825 22.6189 12.7984C22.6189 12.7984 22.5953 12.8206 22.5574 12.8564C22.5456 12.8675 22.5322 12.8802 22.518 12.8937C22.5109 12.9008 22.503 12.908 22.4951 12.9151C22.3327 13.0692 22.0599 13.3257 22.019 13.3638L22.0166 13.3662L22.0142 13.3686C21.9969 13.3797 21.922 13.4813 21.8873 13.5282L21.881 13.5369L21.8747 13.5457L20.7607 14.9529L13.5637 24.0425H13C13 24.0425 13.3627 20.0401 13.842 16.6944C13.9255 16.1091 14.1329 15.4063 14.4404 14.6328C14.5208 14.4295 14.6083 14.2215 14.7029 14.0094C15.0663 13.1923 15.5259 12.3148 16.0597 11.4261C16.6021 10.52 17.2217 9.60202 17.8926 8.7253C17.9533 8.64509 18.0148 8.56568 18.0771 8.48627C18.3988 8.07491 18.7314 7.67308 19.072 7.28792L19.754 8.15114L19.8557 8.279C19.8557 8.279 21.1486 8.12255 22.004 7.34669C22.0221 7.33081 22.0402 7.31413 22.0584 7.29666C22.831 6.55574 23.2054 5.69569 23.2054 5.69569L23.0052 5.44475L22.2042 4.44097C22.3351 4.35203 22.466 4.26785 22.5968 4.18685C22.7679 4.08282 22.9374 3.98514 23.1077 3.8954C27.8899 1.37324 36.6409 2.0959 36.6409 2.0959L37.3527 2.40958L38 2.69547Z" fill="#7C7C86"/>
<path d="M37.9999 2.69558C35.8067 3.63106 33.6671 4.63802 31.5818 5.71962C30.825 6.11192 30.0752 6.51455 29.3334 6.9267C29.2569 6.96958 29.1804 7.01247 29.104 7.05535C26.6742 7.90269 24.7869 8.5769 24.7277 8.62773C24.5732 8.75876 23.6272 8.17904 22.0039 7.3468C22.022 7.33091 22.0402 7.31424 22.0583 7.29676C22.8309 6.55584 23.2054 5.6958 23.2054 5.6958L22.2885 4.54669L22.2042 4.44107C22.335 4.35213 22.4659 4.26795 22.5968 4.18695C22.7678 4.08292 22.9373 3.98524 23.1076 3.89551C23.9275 3.46271 24.8649 3.126 25.8543 2.86473C26.1421 2.78849 26.4345 2.71861 26.7302 2.65428C31.3366 1.65765 36.6408 2.09601 36.6408 2.09601L37.3527 2.40969L37.9999 2.69558Z" fill="#565E98"/>
<g style="mix-blend-mode:multiply" opacity="0.37">
<path d="M25.8543 2.86475C25.8905 3.58502 24.518 5.0629 23.4955 6.05953L23.2053 5.69582L22.2885 4.54671L22.2041 4.44109C22.335 4.35215 22.4658 4.26797 22.5967 4.18697C22.7678 4.08294 22.9373 3.98526 23.1076 3.89553C23.9275 3.46273 24.8649 3.12601 25.8543 2.86475Z" fill="#812D72"/>
</g>
<path d="M22.0568 7.66218C20.9515 8.5921 19.9337 8.91611 19.7019 8.64611C19.6057 8.53413 19.5671 8.45075 19.7547 8.15136L19.8564 8.27922C19.8564 8.27922 21.2053 8.11563 22.0591 7.29688C22.8317 6.55595 23.2062 5.69591 23.2062 5.69591L23.006 5.44497C23.2992 5.33617 23.4672 5.42909 23.5563 5.53312C23.7888 5.80391 23.1629 6.73146 22.0568 7.66218Z" fill="#342D56"/>
<path d="M20.3413 5.48212C19.5238 6.14363 18.6518 6.45096 18.2647 6.24051C18.219 6.21589 18.1804 6.18413 18.1496 6.14522C18.1181 6.10551 18.0952 6.05945 18.0818 6.00863C18.059 5.92842 18.0582 5.83471 18.0771 5.73148C18.1583 5.28915 18.6029 4.66814 19.2652 4.1321C19.9306 3.59447 20.6306 3.29111 21.0776 3.31017C21.2195 3.31494 21.3362 3.35385 21.4174 3.4285C21.4316 3.44041 21.445 3.45471 21.4568 3.46979C21.4687 3.48488 21.4789 3.49997 21.4876 3.51665C21.7146 3.91371 21.2187 4.77296 20.3413 5.48212Z" fill="#FFC8B0"/>
<path d="M21.4829 3.77806C21.4702 3.90036 21.4269 4.03854 21.3551 4.18624C21.1683 4.57537 20.7915 5.0312 20.2893 5.437C20.2885 5.43859 20.2869 5.43938 20.2861 5.44018C20.1229 5.572 19.9582 5.68953 19.795 5.79277L19.7713 5.80706C19.6649 5.87298 19.56 5.93254 19.4568 5.98415C18.9341 6.25019 18.4673 6.33754 18.2111 6.19936H18.2103L18.2095 6.19857C18.1985 6.19301 18.1883 6.18666 18.178 6.17951C18.1457 6.15807 18.1181 6.13266 18.0944 6.10327C18.0629 6.06357 18.04 6.01751 18.0266 5.96668C18.0038 5.88648 18.003 5.79277 18.0219 5.68953C18.0314 5.6395 18.0448 5.58709 18.0637 5.53229C18.0968 5.43223 18.1457 5.32582 18.2088 5.21464C18.4122 4.8557 18.7614 4.45307 19.21 4.09015C19.5356 3.8265 19.8699 3.62003 20.1789 3.47947C20.3476 3.40244 20.5084 3.34526 20.6567 3.30953H20.6574C20.7915 3.27776 20.9144 3.26347 21.0225 3.26823C21.1644 3.273 21.281 3.31191 21.3622 3.38656C21.3764 3.39847 21.3898 3.41276 21.4017 3.42785C21.4135 3.44294 21.4237 3.45803 21.4324 3.4747C21.4521 3.50965 21.4671 3.54856 21.4758 3.59065C21.4884 3.64703 21.4907 3.71056 21.4829 3.77806Z" fill="url(#paint73_linear_4001_7477)"/>
<path opacity="0.47" d="M17.6782 15.7829C17.6782 15.7829 14.8424 21.1346 13.3098 24.0427H13C13 24.0427 13.3627 20.0403 13.842 16.6946C13.9255 16.1093 14.1329 15.4065 14.4404 14.633C14.6682 14.4226 14.8306 14.2773 14.8606 14.2622C14.9812 14.2018 17.6782 15.7829 17.6782 15.7829Z" fill="#63B8D4"/>
<g style="mix-blend-mode:overlay">
<path d="M20.7607 14.9529L13.5637 24.0426H13C13 24.0426 13.3627 20.0401 13.842 16.6945C13.9255 16.1092 14.1329 15.4064 14.4404 14.6329C14.5208 14.4296 14.6083 14.2216 14.7029 14.0095C15.317 15.3778 16.5256 16.2275 18.8607 15.134C19.9337 14.6313 20.5187 14.6266 20.7607 14.9529Z" fill="#7C6B86"/>
</g>
<path d="M18.8978 11.5811C18.8978 11.5811 15.0332 18.4154 15.3651 17.2734C15.6426 16.3205 15.0837 13.9881 13.8428 16.6945C14.0336 15.3636 14.8613 13.4227 16.0605 11.4263C16.0092 11.9655 16.0991 12.4229 16.4633 12.6198C17.6309 13.2504 18.8978 11.5811 18.8978 11.5811Z" fill="#63B8D4"/>
<path d="M38 2.69556C35.0113 3.97013 32.1211 5.37813 29.3334 6.92668C29.257 6.96956 29.1805 7.01245 29.104 7.05533C29.0757 7.07121 29.0473 7.08709 29.0197 7.10298C28.2203 7.55087 27.4477 8.19411 26.8099 8.77224C26.8099 8.77224 26.8099 8.77541 26.8107 8.78097C26.8107 8.78494 26.8115 8.78971 26.8115 8.79606C26.813 8.81433 26.813 8.84371 26.8115 8.88183C26.8107 8.88898 26.8107 8.89692 26.8099 8.90486C26.8091 8.91756 26.8083 8.93027 26.8067 8.94456L26.8044 8.96839C26.8028 8.98268 26.8004 8.99777 26.7981 9.01365C26.7957 9.02874 26.7933 9.04542 26.7902 9.06289C26.7783 9.12642 26.7618 9.20027 26.7366 9.28286C26.7326 9.29716 26.7279 9.31145 26.7232 9.32575C26.7208 9.33369 26.7184 9.34083 26.7161 9.34798C26.7113 9.36228 26.7058 9.37736 26.7003 9.39245C26.6601 9.50681 26.6049 9.63546 26.53 9.77602C26.5205 9.79508 25.9569 10.5622 25.5808 10.8703C25.3924 11.0244 24.8208 11.4715 24.7317 11.5398C24.2193 11.9337 22.9713 12.7826 22.6189 12.7985C22.6189 12.7985 22.5953 12.8207 22.5574 12.8564C22.5456 12.8676 22.5322 12.8803 22.518 12.8938C22.5077 12.8985 22.5006 12.9057 22.4951 12.9152C22.3327 13.0693 22.0599 13.3258 22.019 13.3639L22.0166 13.3663L22.0142 13.3687L21.8873 13.5283L21.881 13.537L21.8747 13.5458L20.7607 14.953L13.5637 24.0426H13C14.9276 14.9545 19.6073 10.6774 20.4209 9.99123C20.4998 9.92452 20.5423 9.89196 20.5423 9.89196C20.5857 10.1191 22.164 9.23442 24.0309 7.55087C24.4684 7.15539 24.7207 6.53994 24.8303 6.21435C24.8752 6.08093 24.8965 5.99596 24.8965 5.99596C29.3303 3.30545 38 2.69556 38 2.69556Z" fill="#203456"/>
<path style="mix-blend-mode:screen" d="M22.3138 13.0112C22.2917 13.0263 22.2799 13.0343 22.2799 13.0343L21.8746 13.5457L20.7607 14.9529L13.5644 24.0425H13.4099C15.328 21.0002 18.7669 16.7174 20.0322 15.3769C20.4926 14.8886 21.8817 13.2677 22.3138 13.0112Z" fill="url(#paint74_linear_4001_7477)"/>
<g style="mix-blend-mode:overlay">
<path d="M32.3024 4.46649C32.6233 3.67633 28.9132 2.98782 26.7302 2.65428C31.3367 1.65765 36.6408 2.09601 36.6408 2.09601L37.3527 2.40969L38 2.69558C35.8067 3.63106 33.6671 4.63802 31.5819 5.71962C31.8799 5.28365 32.1526 4.83496 32.3024 4.46649Z" fill="#7C6B86"/>
</g>
<path d="M26.8067 8.94457C26.7901 9.11372 26.7286 9.4012 26.53 9.77603C26.5205 9.79509 25.9568 10.5622 25.5808 10.8703C25.3924 11.0244 24.8208 11.4715 24.7317 11.5398C24.2193 11.9337 22.9713 12.7826 22.6189 12.7985C22.6189 12.7985 22.5952 12.8207 22.5574 12.8565L20.4209 9.99124C20.4997 9.92453 20.5423 9.89197 20.5423 9.89197C20.5857 10.1191 22.164 9.23443 24.0308 7.55088C24.4684 7.1554 24.7207 6.53995 24.8303 6.21436L26.8067 8.94457Z" fill="url(#paint75_linear_4001_7477)"/>
</g>
<defs>
<radialGradient id="paint0_radial_4001_7477" cx="0" cy="0" r="1" gradientTransform="matrix(-3.84698 1.89126 -3.30372 -6.79148 6.11893 29.167)" gradientUnits="userSpaceOnUse">
<stop stop-color="#FF2800"/>
<stop offset="0.34" stop-color="#981700"/>
<stop offset="0.63" stop-color="#460B00"/>
<stop offset="0.84" stop-color="#130300"/>
<stop offset="0.94"/>
</radialGradient>
<radialGradient id="paint1_radial_4001_7477" cx="0" cy="0" r="1" gradientTransform="matrix(-2.07808 -3.76419 6.57542 -3.66866 16.9904 30.2874)" gradientUnits="userSpaceOnUse">
<stop stop-color="#FF2800"/>
<stop offset="0.34" stop-color="#981700"/>
<stop offset="0.63" stop-color="#460B00"/>
<stop offset="0.84" stop-color="#130300"/>
<stop offset="0.94"/>
</radialGradient>
<radialGradient id="paint2_radial_4001_7477" cx="0" cy="0" r="1" gradientTransform="matrix(-8.95961 -0.644057 0.705224 -9.91479 12.1767 23.0189)" gradientUnits="userSpaceOnUse">
<stop stop-color="#FF2800"/>
<stop offset="0.34" stop-color="#981700"/>
<stop offset="0.63" stop-color="#460B00"/>
<stop offset="0.84" stop-color="#130300"/>
<stop offset="0.94"/>
</radialGradient>
<linearGradient id="paint3_linear_4001_7477" x1="12.5195" y1="14.3207" x2="12.5195" y2="35.6259" gradientUnits="userSpaceOnUse">
<stop offset="0.16" stop-color="#F072B1"/>
<stop offset="0.58" stop-color="#EB4168"/>
<stop offset="1" stop-color="#902C52"/>
</linearGradient>
<linearGradient id="paint4_linear_4001_7477" x1="6.12368" y1="29.7249" x2="6.12368" y2="35.2283" gradientUnits="userSpaceOnUse">
<stop offset="0.16" stop-color="#E09152"/>
<stop offset="0.58" stop-color="#9D3BDF"/>
<stop offset="1" stop-color="#7F36D8"/>
</linearGradient>
<linearGradient id="paint5_linear_4001_7477" x1="12.8764" y1="34.3208" x2="20.256" y2="28.0463" gradientUnits="userSpaceOnUse">
<stop offset="0.31" stop-color="#A62C45"/>
<stop offset="0.99" stop-color="#EA31C4"/>
</linearGradient>
<linearGradient id="paint6_linear_4001_7477" x1="17.7696" y1="29.7913" x2="13.9707" y2="32.4589" gradientUnits="userSpaceOnUse">
<stop offset="0.29" stop-color="#E076BB"/>
<stop offset="0.98" stop-color="#E59751"/>
</linearGradient>
<linearGradient id="paint7_linear_4001_7477" x1="17.0474" y1="23.3743" x2="15.3739" y2="29.8697" gradientUnits="userSpaceOnUse">
<stop offset="0.17" stop-color="#CC5F52"/>
<stop offset="1" stop-color="#BF36D1"/>
</linearGradient>
<linearGradient id="paint8_linear_4001_7477" x1="5.06909" y1="27.5995" x2="8.29652" y2="27.5995" gradientUnits="userSpaceOnUse">
<stop offset="0.16" stop-color="#CF3CCA"/>
<stop offset="0.99" stop-color="#BD2240"/>
</linearGradient>
<linearGradient id="paint9_linear_4001_7477" x1="16.0202" y1="23.1457" x2="14.1397" y2="30.4459" gradientUnits="userSpaceOnUse">
<stop offset="0.17" stop-color="#CC5F52"/>
<stop offset="1" stop-color="#BF36D1"/>
</linearGradient>
<linearGradient id="paint10_linear_4001_7477" x1="8.68696" y1="23.6216" x2="10.5054" y2="36.8107" gradientUnits="userSpaceOnUse">
<stop offset="0.16" stop-color="#8D23BA"/>
<stop offset="0.99" stop-color="#382EDC"/>
</linearGradient>
<linearGradient id="paint11_linear_4001_7477" x1="12.4646" y1="25.0363" x2="12.1032" y2="29.233" gradientUnits="userSpaceOnUse">
<stop offset="0.32" stop-color="#D6386D"/>
<stop offset="1" stop-color="#C74ADC"/>
</linearGradient>
<linearGradient id="paint12_linear_4001_7477" x1="11.2068" y1="28.0178" x2="11.2068" y2="35.5007" gradientUnits="userSpaceOnUse">
<stop offset="0.36" stop-color="#E00071"/>
<stop offset="0.99" stop-color="#DC775E"/>
</linearGradient>
<linearGradient id="paint13_linear_4001_7477" x1="12.3268" y1="32.2061" x2="12.6636" y2="34.6504" gradientUnits="userSpaceOnUse">
<stop offset="0.16" stop-color="#BA7152"/>
<stop offset="0.99" stop-color="#DC5B7F"/>
</linearGradient>
<linearGradient id="paint14_linear_4001_7477" x1="9.39343" y1="29.3022" x2="9.45386" y2="31.64" gradientUnits="userSpaceOnUse">
<stop offset="0.29" stop-color="#E0BD7C"/>
<stop offset="0.98" stop-color="#E53BBF"/>
</linearGradient>
<linearGradient id="paint15_linear_4001_7477" x1="18.811" y1="27.8887" x2="18.8638" y2="29.934" gradientUnits="userSpaceOnUse">
<stop offset="0.36" stop-color="#7600E0"/>
<stop offset="0.99" stop-color="#DC5E9F"/>
</linearGradient>
<linearGradient id="paint16_linear_4001_7477" x1="12.9873" y1="17.0142" x2="13.049" y2="19.4189" gradientUnits="userSpaceOnUse">
<stop offset="0.36" stop-color="#7600E0"/>
<stop offset="0.98" stop-color="#B797DD"/>
</linearGradient>
<radialGradient id="paint17_radial_4001_7477" cx="0" cy="0" r="1" gradientTransform="matrix(1.84807 -2.87513 -2.65372 -1.72389 9.39113 19.7564)" gradientUnits="userSpaceOnUse">
<stop stop-color="#E000FF"/>
<stop offset="0.12" stop-color="#AE00C6"/>
<stop offset="0.25" stop-color="#800092"/>
<stop offset="0.37" stop-color="#590065"/>
<stop offset="0.5" stop-color="#390040"/>
<stop offset="0.63" stop-color="#200024"/>
<stop offset="0.75" stop-color="#0E0010"/>
<stop offset="0.88" stop-color="#030004"/>
<stop offset="1"/>
</radialGradient>
<radialGradient id="paint18_radial_4001_7477" cx="0" cy="0" r="1" gradientTransform="matrix(1.39494 -2.17017 -2.25039 -1.46188 15.6262 23.6273)" gradientUnits="userSpaceOnUse">
<stop stop-color="#FF7AFF"/>
<stop offset="0.12" stop-color="#C65EC6"/>
<stop offset="0.25" stop-color="#924692"/>
<stop offset="0.37" stop-color="#653065"/>
<stop offset="0.5" stop-color="#401F40"/>
<stop offset="0.63" stop-color="#241124"/>
<stop offset="0.75" stop-color="#100710"/>
<stop offset="0.88" stop-color="#040104"/>
<stop offset="1"/>
</radialGradient>
<radialGradient id="paint19_radial_4001_7477" cx="0" cy="0" r="1" gradientTransform="matrix(1.39494 -2.17017 -2.25039 -1.46188 10.4015 30.6)" gradientUnits="userSpaceOnUse">
<stop stop-color="#FF7AFF"/>
<stop offset="0.12" stop-color="#C65EC6"/>
<stop offset="0.25" stop-color="#924692"/>
<stop offset="0.37" stop-color="#653065"/>
<stop offset="0.5" stop-color="#401F40"/>
<stop offset="0.63" stop-color="#241124"/>
<stop offset="0.75" stop-color="#100710"/>
<stop offset="0.88" stop-color="#040104"/>
<stop offset="1"/>
</radialGradient>
<linearGradient id="paint20_linear_4001_7477" x1="18.0379" y1="29.2534" x2="17.2742" y2="30.2126" gradientUnits="userSpaceOnUse">
<stop offset="0.36" stop-color="#7600E0"/>
<stop offset="0.98" stop-color="#B797DD"/>
</linearGradient>
<linearGradient id="paint21_linear_4001_7477" x1="12.687" y1="24.0744" x2="9.747" y2="27.7685" gradientUnits="userSpaceOnUse">
<stop offset="0.36" stop-color="#7600E0"/>
<stop offset="0.98" stop-color="#B797DD"/>
</linearGradient>
<linearGradient id="paint22_linear_4001_7477" x1="11.3874" y1="23.0405" x2="8.44743" y2="26.7345" gradientUnits="userSpaceOnUse">
<stop offset="0.36" stop-color="#F9EAEC"/>
<stop offset="0.99" stop-color="#DC97D8"/>
</linearGradient>
<linearGradient id="paint23_linear_4001_7477" x1="17.6299" y1="28.8244" x2="14.6003" y2="32.6307" gradientUnits="userSpaceOnUse">
<stop offset="0.36" stop-color="#D9ACF9"/>
<stop offset="0.99" stop-color="#DC97D8"/>
</linearGradient>
<linearGradient id="paint24_linear_4001_7477" x1="14.3147" y1="25.9237" x2="11.6989" y2="29.2105" gradientUnits="userSpaceOnUse">
<stop offset="0.36" stop-color="#D9ACF9"/>
<stop offset="0.99" stop-color="#DC97D8"/>
</linearGradient>
<linearGradient id="paint25_linear_4001_7477" x1="13.3343" y1="18.4194" x2="10.5323" y2="21.9407" gradientUnits="userSpaceOnUse">
<stop offset="0.36" stop-color="#F9EAEC"/>
<stop offset="0.99" stop-color="#DC97D8"/>
</linearGradient>
<linearGradient id="paint26_linear_4001_7477" x1="15.3094" y1="22.3642" x2="10.3123" y2="28.6434" gradientUnits="userSpaceOnUse">
<stop offset="0.36" stop-color="#F9EAEC"/>
<stop offset="0.99" stop-color="#DC97D8"/>
</linearGradient>
<linearGradient id="paint27_linear_4001_7477" x1="5.68526" y1="26.6238" x2="7.63584" y2="32.1094" gradientUnits="userSpaceOnUse">
<stop offset="0.36" stop-color="#7600E0"/>
<stop offset="0.98" stop-color="#B797DD"/>
</linearGradient>
<linearGradient id="paint28_linear_4001_7477" x1="12.0597" y1="28.418" x2="12.0597" y2="32.0389" gradientUnits="userSpaceOnUse">
<stop offset="0.36" stop-color="#7600E0"/>
<stop offset="0.98" stop-color="#B797DD"/>
</linearGradient>
<linearGradient id="paint29_linear_4001_7477" x1="12.8304" y1="39.8005" x2="12.8304" y2="14.421" gradientUnits="userSpaceOnUse">
<stop offset="0.36" stop-color="#0013E0"/>
<stop offset="0.98" stop-color="#1433DD"/>
</linearGradient>
<linearGradient id="paint30_linear_4001_7477" x1="12.8788" y1="39.8005" x2="12.8788" y2="14.421" gradientUnits="userSpaceOnUse">
<stop offset="0.36" stop-color="#0013E0"/>
<stop offset="0.98" stop-color="#1433DD"/>
</linearGradient>
<linearGradient id="paint31_linear_4001_7477" x1="12.4684" y1="39.8005" x2="12.4684" y2="14.421" gradientUnits="userSpaceOnUse">
<stop offset="0.36" stop-color="#0013E0"/>
<stop offset="0.98" stop-color="#1433DD"/>
</linearGradient>
<linearGradient id="paint32_linear_4001_7477" x1="12.603" y1="39.8005" x2="12.603" y2="14.421" gradientUnits="userSpaceOnUse">
<stop offset="0.36" stop-color="#0013E0"/>
<stop offset="0.98" stop-color="#1433DD"/>
</linearGradient>
<linearGradient id="paint33_linear_4001_7477" x1="12.697" y1="39.8005" x2="12.697" y2="14.421" gradientUnits="userSpaceOnUse">
<stop offset="0.36" stop-color="#0013E0"/>
<stop offset="0.98" stop-color="#1433DD"/>
</linearGradient>
<linearGradient id="paint34_linear_4001_7477" x1="9.52991" y1="39.8004" x2="9.52991" y2="14.4209" gradientUnits="userSpaceOnUse">
<stop offset="0.36" stop-color="#0013E0"/>
<stop offset="0.98" stop-color="#1433DD"/>
</linearGradient>
<linearGradient id="paint35_linear_4001_7477" x1="10.2189" y1="39.8005" x2="10.2189" y2="14.421" gradientUnits="userSpaceOnUse">
<stop offset="0.36" stop-color="#0013E0"/>
<stop offset="0.98" stop-color="#1433DD"/>
</linearGradient>
<linearGradient id="paint36_linear_4001_7477" x1="12.479" y1="39.8005" x2="12.479" y2="14.421" gradientUnits="userSpaceOnUse">
<stop offset="0.36" stop-color="#0013E0"/>
<stop offset="0.98" stop-color="#1433DD"/>
</linearGradient>
<linearGradient id="paint37_linear_4001_7477" x1="12.535" y1="30.5303" x2="9.15555" y2="34.7769" gradientUnits="userSpaceOnUse">
<stop offset="0.36" stop-color="#F9EAEC"/>
<stop offset="0.99" stop-color="#DC97D8"/>
</linearGradient>
<radialGradient id="paint38_radial_4001_7477" cx="0" cy="0" r="1" gradientTransform="matrix(0.158258 -0.287373 -0.285858 -0.159097 6.4963 20.2732)" gradientUnits="userSpaceOnUse">
<stop stop-color="#FF0079"/>
<stop offset="0.12" stop-color="#C6005E"/>
<stop offset="0.24" stop-color="#920045"/>
<stop offset="0.37" stop-color="#650030"/>
<stop offset="0.5" stop-color="#40001E"/>
<stop offset="0.62" stop-color="#240011"/>
<stop offset="0.75" stop-color="#100007"/>
<stop offset="0.88" stop-color="#040001"/>
<stop offset="1"/>
</radialGradient>
<radialGradient id="paint39_radial_4001_7477" cx="0" cy="0" r="1" gradientTransform="matrix(0.158258 -0.287373 -0.285858 -0.159097 13.8906 22.7428)" gradientUnits="userSpaceOnUse">
<stop stop-color="#DB00FF"/>
<stop offset="0.12" stop-color="#AA00C6"/>
<stop offset="0.24" stop-color="#7D0092"/>
<stop offset="0.37" stop-color="#570065"/>
<stop offset="0.5" stop-color="#370040"/>
<stop offset="0.62" stop-color="#1F0024"/>
<stop offset="0.75" stop-color="#0D0010"/>
<stop offset="0.88" stop-color="#030004"/>
<stop offset="1"/>
</radialGradient>
<radialGradient id="paint40_radial_4001_7477" cx="0" cy="0" r="1" gradientTransform="matrix(0.158258 -0.287373 -0.285858 -0.159097 18.0241 20.1181)" gradientUnits="userSpaceOnUse">
<stop stop-color="#DB00FF"/>
<stop offset="0.12" stop-color="#AA00C6"/>
<stop offset="0.24" stop-color="#7D0092"/>
<stop offset="0.37" stop-color="#570065"/>
<stop offset="0.5" stop-color="#370040"/>
<stop offset="0.62" stop-color="#1F0024"/>
<stop offset="0.75" stop-color="#0D0010"/>
<stop offset="0.88" stop-color="#030004"/>
<stop offset="1"/>
</radialGradient>
<radialGradient id="paint41_radial_4001_7477" cx="0" cy="0" r="1" gradientTransform="matrix(0.0225079 -0.327693 -0.325966 -0.0226272 10.8413 15.8795)" gradientUnits="userSpaceOnUse">
<stop stop-color="#DB00FF"/>
<stop offset="0.12" stop-color="#AA00C6"/>
<stop offset="0.24" stop-color="#7D0092"/>
<stop offset="0.37" stop-color="#570065"/>
<stop offset="0.5" stop-color="#370040"/>
<stop offset="0.62" stop-color="#1F0024"/>
<stop offset="0.75" stop-color="#0D0010"/>
<stop offset="0.88" stop-color="#030004"/>
<stop offset="1"/>
</radialGradient>
<radialGradient id="paint42_radial_4001_7477" cx="0" cy="0" r="1" gradientTransform="matrix(0.0225079 -0.327694 -0.325965 -0.0226272 19.0413 26.9672)" gradientUnits="userSpaceOnUse">
<stop stop-color="#FF0079"/>
<stop offset="0.12" stop-color="#C6005E"/>
<stop offset="0.24" stop-color="#920045"/>
<stop offset="0.37" stop-color="#650030"/>
<stop offset="0.5" stop-color="#40001E"/>
<stop offset="0.62" stop-color="#240011"/>
<stop offset="0.75" stop-color="#100007"/>
<stop offset="0.88" stop-color="#040001"/>
<stop offset="1"/>
</radialGradient>
<radialGradient id="paint43_radial_4001_7477" cx="0" cy="0" r="1" gradientTransform="matrix(0.0589923 -0.107121 -0.106556 -0.0593049 22.3361 30.8612)" gradientUnits="userSpaceOnUse">
<stop stop-color="#DB00FF"/>
<stop offset="0.12" stop-color="#AA00C6"/>
<stop offset="0.24" stop-color="#7D0092"/>
<stop offset="0.37" stop-color="#570065"/>
<stop offset="0.5" stop-color="#370040"/>
<stop offset="0.62" stop-color="#1F0024"/>
<stop offset="0.75" stop-color="#0D0010"/>
<stop offset="0.88" stop-color="#030004"/>
<stop offset="1"/>
</radialGradient>
<radialGradient id="paint44_radial_4001_7477" cx="0" cy="0" r="1" gradientTransform="matrix(0.00839004 -0.122151 -0.121507 -0.00843451 6.5388 21.2997)" gradientUnits="userSpaceOnUse">
<stop stop-color="#DB00FF"/>
<stop offset="0.12" stop-color="#AA00C6"/>
<stop offset="0.24" stop-color="#7D0092"/>
<stop offset="0.37" stop-color="#570065"/>
<stop offset="0.5" stop-color="#370040"/>
<stop offset="0.62" stop-color="#1F0024"/>
<stop offset="0.75" stop-color="#0D0010"/>
<stop offset="0.88" stop-color="#030004"/>
<stop offset="1"/>
</radialGradient>
<radialGradient id="paint45_radial_4001_7477" cx="0" cy="0" r="1" gradientTransform="matrix(0.0589922 -0.107121 -0.106556 -0.0593049 14.9385 26.1951)" gradientUnits="userSpaceOnUse">
<stop stop-color="#DB00FF"/>
<stop offset="0.12" stop-color="#AA00C6"/>
<stop offset="0.24" stop-color="#7D0092"/>
<stop offset="0.37" stop-color="#570065"/>
<stop offset="0.5" stop-color="#370040"/>
<stop offset="0.62" stop-color="#1F0024"/>
<stop offset="0.75" stop-color="#0D0010"/>
<stop offset="0.88" stop-color="#030004"/>
<stop offset="1"/>
</radialGradient>
<radialGradient id="paint46_radial_4001_7477" cx="0" cy="0" r="1" gradientTransform="matrix(0.158258 -0.287373 -0.285858 -0.159097 8.18761 26.818)" gradientUnits="userSpaceOnUse">
<stop stop-color="#DB00FF"/>
<stop offset="0.12" stop-color="#AA00C6"/>
<stop offset="0.24" stop-color="#7D0092"/>
<stop offset="0.37" stop-color="#570065"/>
<stop offset="0.5" stop-color="#370040"/>
<stop offset="0.62" stop-color="#1F0024"/>
<stop offset="0.75" stop-color="#0D0010"/>
<stop offset="0.88" stop-color="#030004"/>
<stop offset="1"/>
</radialGradient>
<radialGradient id="paint47_radial_4001_7477" cx="0" cy="0" r="1" gradientTransform="matrix(0.669229 -1.21522 -1.20881 -0.672776 10.8349 17.717)" gradientUnits="userSpaceOnUse">
<stop stop-color="#DB00FF"/>
<stop offset="0.12" stop-color="#AA00C6"/>
<stop offset="0.24" stop-color="#7D0092"/>
<stop offset="0.37" stop-color="#570065"/>
<stop offset="0.5" stop-color="#370040"/>
<stop offset="0.62" stop-color="#1F0024"/>
<stop offset="0.75" stop-color="#0D0010"/>
<stop offset="0.88" stop-color="#030004"/>
<stop offset="1"/>
</radialGradient>
<radialGradient id="paint48_radial_4001_7477" cx="0" cy="0" r="1" gradientTransform="matrix(0.669229 -1.21522 -1.20881 -0.672776 6.99841 22.4025)" gradientUnits="userSpaceOnUse">
<stop stop-color="#DB00FF"/>
<stop offset="0.12" stop-color="#AA00C6"/>
<stop offset="0.24" stop-color="#7D0092"/>
<stop offset="0.37" stop-color="#570065"/>
<stop offset="0.5" stop-color="#370040"/>
<stop offset="0.62" stop-color="#1F0024"/>
<stop offset="0.75" stop-color="#0D0010"/>
<stop offset="0.88" stop-color="#030004"/>
<stop offset="1"/>
</radialGradient>
<radialGradient id="paint49_radial_4001_7477" cx="0" cy="0" r="1" gradientTransform="matrix(0.669229 -1.21522 -1.20881 -0.672776 18.4297 25.062)" gradientUnits="userSpaceOnUse">
<stop stop-color="#DB00FF"/>
<stop offset="0.12" stop-color="#AA00C6"/>
<stop offset="0.24" stop-color="#7D0092"/>
<stop offset="0.37" stop-color="#570065"/>
<stop offset="0.5" stop-color="#370040"/>
<stop offset="0.62" stop-color="#1F0024"/>
<stop offset="0.75" stop-color="#0D0010"/>
<stop offset="0.88" stop-color="#030004"/>
<stop offset="1"/>
</radialGradient>
<radialGradient id="paint50_radial_4001_7477" cx="0" cy="0" r="1" gradientTransform="matrix(0.669229 -1.21522 -1.20881 -0.672776 20.2577 32.1987)" gradientUnits="userSpaceOnUse">
<stop stop-color="#DB00FF"/>
<stop offset="0.12" stop-color="#AA00C6"/>
<stop offset="0.24" stop-color="#7D0092"/>
<stop offset="0.37" stop-color="#570065"/>
<stop offset="0.5" stop-color="#370040"/>
<stop offset="0.62" stop-color="#1F0024"/>
<stop offset="0.75" stop-color="#0D0010"/>
<stop offset="0.88" stop-color="#030004"/>
<stop offset="1"/>
</radialGradient>
<radialGradient id="paint51_radial_4001_7477" cx="0" cy="0" r="1" gradientTransform="matrix(0.669229 -1.21522 -1.20881 -0.672777 4.12332 29.1297)" gradientUnits="userSpaceOnUse">
<stop stop-color="#DB00FF"/>
<stop offset="0.12" stop-color="#AA00C6"/>
<stop offset="0.24" stop-color="#7D0092"/>
<stop offset="0.37" stop-color="#570065"/>
<stop offset="0.5" stop-color="#370040"/>
<stop offset="0.62" stop-color="#1F0024"/>
<stop offset="0.75" stop-color="#0D0010"/>
<stop offset="0.88" stop-color="#030004"/>
<stop offset="1"/>
</radialGradient>
<radialGradient id="paint52_radial_4001_7477" cx="0" cy="0" r="1" gradientTransform="matrix(0.00839006 -0.122151 -0.121507 -0.00843451 9.01979 23.3954)" gradientUnits="userSpaceOnUse">
<stop stop-color="#DB00FF"/>
<stop offset="0.12" stop-color="#AA00C6"/>
<stop offset="0.24" stop-color="#7D0092"/>
<stop offset="0.37" stop-color="#570065"/>
<stop offset="0.5" stop-color="#370040"/>
<stop offset="0.62" stop-color="#1F0024"/>
<stop offset="0.75" stop-color="#0D0010"/>
<stop offset="0.88" stop-color="#030004"/>
<stop offset="1"/>
</radialGradient>
<radialGradient id="paint53_radial_4001_7477" cx="0" cy="0" r="1" gradientTransform="matrix(0.0191791 -0.120914 -0.120277 -0.0192808 20.1425 27.176)" gradientUnits="userSpaceOnUse">
<stop stop-color="#DB00FF"/>
<stop offset="0.12" stop-color="#AA00C6"/>
<stop offset="0.24" stop-color="#7D0092"/>
<stop offset="0.37" stop-color="#570065"/>
<stop offset="0.5" stop-color="#370040"/>
<stop offset="0.62" stop-color="#1F0024"/>
<stop offset="0.75" stop-color="#0D0010"/>
<stop offset="0.88" stop-color="#030004"/>
<stop offset="1"/>
</radialGradient>
<radialGradient id="paint54_radial_4001_7477" cx="0" cy="0" r="1" gradientTransform="matrix(0.158258 -0.287373 -0.285858 -0.159097 16.5007 21.8486)" gradientUnits="userSpaceOnUse">
<stop stop-color="#DB00FF"/>
<stop offset="0.12" stop-color="#AA00C6"/>
<stop offset="0.24" stop-color="#7D0092"/>
<stop offset="0.37" stop-color="#570065"/>
<stop offset="0.5" stop-color="#370040"/>
<stop offset="0.62" stop-color="#1F0024"/>
<stop offset="0.75" stop-color="#0D0010"/>
<stop offset="0.88" stop-color="#030004"/>
<stop offset="1"/>
</radialGradient>
<radialGradient id="paint55_radial_4001_7477" cx="0" cy="0" r="1" gradientTransform="matrix(0.218294 -0.24441 -0.243122 -0.219451 10.8545 20.7299)" gradientUnits="userSpaceOnUse">
<stop stop-color="#FF0079"/>
<stop offset="0.12" stop-color="#C6005E"/>
<stop offset="0.24" stop-color="#920045"/>
<stop offset="0.37" stop-color="#650030"/>
<stop offset="0.5" stop-color="#40001E"/>
<stop offset="0.62" stop-color="#240011"/>
<stop offset="0.75" stop-color="#100007"/>
<stop offset="0.88" stop-color="#040001"/>
<stop offset="1"/>
</radialGradient>
<radialGradient id="paint56_radial_4001_7477" cx="0" cy="0" r="1" gradientTransform="matrix(0.218294 -0.24441 -0.243121 -0.219451 17.9648 21.2873)" gradientUnits="userSpaceOnUse">
<stop stop-color="#DB00FF"/>
<stop offset="0.12" stop-color="#AA00C6"/>
<stop offset="0.24" stop-color="#7D0092"/>
<stop offset="0.37" stop-color="#570065"/>
<stop offset="0.5" stop-color="#370040"/>
<stop offset="0.62" stop-color="#1F0024"/>
<stop offset="0.75" stop-color="#0D0010"/>
<stop offset="0.88" stop-color="#030004"/>
<stop offset="1"/>
</radialGradient>
<radialGradient id="paint57_radial_4001_7477" cx="0" cy="0" r="1" gradientTransform="matrix(0.218294 -0.24441 -0.243122 -0.219451 15.5515 17.9981)" gradientUnits="userSpaceOnUse">
<stop stop-color="#FF0079"/>
<stop offset="0.12" stop-color="#C6005E"/>
<stop offset="0.24" stop-color="#920045"/>
<stop offset="0.37" stop-color="#650030"/>
<stop offset="0.5" stop-color="#40001E"/>
<stop offset="0.62" stop-color="#240011"/>
<stop offset="0.75" stop-color="#100007"/>
<stop offset="0.88" stop-color="#040001"/>
<stop offset="1"/>
</radialGradient>
<radialGradient id="paint58_radial_4001_7477" cx="0" cy="0" r="1" gradientTransform="matrix(0.0813711 -0.0911064 -0.0906259 -0.0818025 16.0457 16.9759)" gradientUnits="userSpaceOnUse">
<stop stop-color="#DB00FF"/>
<stop offset="0.12" stop-color="#AA00C6"/>
<stop offset="0.24" stop-color="#7D0092"/>
<stop offset="0.37" stop-color="#570065"/>
<stop offset="0.5" stop-color="#370040"/>
<stop offset="0.62" stop-color="#1F0024"/>
<stop offset="0.75" stop-color="#0D0010"/>
<stop offset="0.88" stop-color="#030004"/>
<stop offset="1"/>
</radialGradient>
<radialGradient id="paint59_radial_4001_7477" cx="0" cy="0" r="1" gradientTransform="matrix(-0.205618 -0.0564327 -0.0561351 0.206708 7.64145 18.0646)" gradientUnits="userSpaceOnUse">
<stop stop-color="#E000FF"/>
<stop offset="0.12" stop-color="#AE00C6"/>
<stop offset="0.24" stop-color="#800092"/>
<stop offset="0.37" stop-color="#590065"/>
<stop offset="0.5" stop-color="#390040"/>
<stop offset="0.62" stop-color="#200024"/>
<stop offset="0.75" stop-color="#0E0010"/>
<stop offset="0.88" stop-color="#030004"/>
<stop offset="1"/>
</radialGradient>
<radialGradient id="paint60_radial_4001_7477" cx="0" cy="0" r="1" gradientTransform="matrix(-0.349099 -0.0958115 -0.0953064 0.35095 4.06583 26.3047)" gradientUnits="userSpaceOnUse">
<stop stop-color="#E000FF"/>
<stop offset="0.12" stop-color="#AE00C6"/>
<stop offset="0.24" stop-color="#800092"/>
<stop offset="0.37" stop-color="#590065"/>
<stop offset="0.5" stop-color="#390040"/>
<stop offset="0.62" stop-color="#200024"/>
<stop offset="0.75" stop-color="#0E0010"/>
<stop offset="0.88" stop-color="#030004"/>
<stop offset="1"/>
</radialGradient>
<radialGradient id="paint61_radial_4001_7477" cx="0" cy="0" r="1" gradientTransform="matrix(-0.349099 -0.0958114 -0.0953064 0.350949 5.25444 33.9485)" gradientUnits="userSpaceOnUse">
<stop stop-color="#E000FF"/>
<stop offset="0.12" stop-color="#AE00C6"/>
<stop offset="0.24" stop-color="#800092"/>
<stop offset="0.37" stop-color="#590065"/>
<stop offset="0.5" stop-color="#390040"/>
<stop offset="0.62" stop-color="#200024"/>
<stop offset="0.75" stop-color="#0E0010"/>
<stop offset="0.88" stop-color="#030004"/>
<stop offset="1"/>
</radialGradient>
<radialGradient id="paint62_radial_4001_7477" cx="0" cy="0" r="1" gradientTransform="matrix(-0.349099 -0.0958115 -0.0953064 0.35095 14.2097 27.1775)" gradientUnits="userSpaceOnUse">
<stop stop-color="#E000FF"/>
<stop offset="0.12" stop-color="#AE00C6"/>
<stop offset="0.24" stop-color="#800092"/>
<stop offset="0.37" stop-color="#590065"/>
<stop offset="0.5" stop-color="#390040"/>
<stop offset="0.62" stop-color="#200024"/>
<stop offset="0.75" stop-color="#0E0010"/>
<stop offset="0.88" stop-color="#030004"/>
<stop offset="1"/>
</radialGradient>
<radialGradient id="paint63_radial_4001_7477" cx="0" cy="0" r="1" gradientTransform="matrix(-0.3491 -0.0958117 -0.0953065 0.35095 21.0576 29.5781)" gradientUnits="userSpaceOnUse">
<stop stop-color="#E000FF"/>
<stop offset="0.12" stop-color="#AE00C6"/>
<stop offset="0.24" stop-color="#800092"/>
<stop offset="0.37" stop-color="#590065"/>
<stop offset="0.5" stop-color="#390040"/>
<stop offset="0.62" stop-color="#200024"/>
<stop offset="0.75" stop-color="#0E0010"/>
<stop offset="0.88" stop-color="#030004"/>
<stop offset="1"/>
</radialGradient>
<radialGradient id="paint64_radial_4001_7477" cx="0" cy="0" r="1" gradientTransform="matrix(-0.349099 -0.0958117 -0.0953064 0.35095 12.209 33.758)" gradientUnits="userSpaceOnUse">
<stop stop-color="#E000FF"/>
<stop offset="0.12" stop-color="#AE00C6"/>
<stop offset="0.24" stop-color="#800092"/>
<stop offset="0.37" stop-color="#590065"/>
<stop offset="0.5" stop-color="#390040"/>
<stop offset="0.62" stop-color="#200024"/>
<stop offset="0.75" stop-color="#0E0010"/>
<stop offset="0.88" stop-color="#030004"/>
<stop offset="1"/>
</radialGradient>
<radialGradient id="paint65_radial_4001_7477" cx="0" cy="0" r="1" gradientTransform="matrix(-0.349099 -0.0958116 -0.0953064 0.35095 13.2694 14.8056)" gradientUnits="userSpaceOnUse">
<stop stop-color="#E000FF"/>
<stop offset="0.12" stop-color="#AE00C6"/>
<stop offset="0.24" stop-color="#800092"/>
<stop offset="0.37" stop-color="#590065"/>
<stop offset="0.5" stop-color="#390040"/>
<stop offset="0.62" stop-color="#200024"/>
<stop offset="0.75" stop-color="#0E0010"/>
<stop offset="0.88" stop-color="#030004"/>
<stop offset="1"/>
</radialGradient>
<radialGradient id="paint66_radial_4001_7477" cx="0" cy="0" r="1" gradientTransform="matrix(-0.138962 -0.0381386 -0.0379375 0.139698 3.46251 27.0824)" gradientUnits="userSpaceOnUse">
<stop stop-color="#E000FF"/>
<stop offset="0.12" stop-color="#AE00C6"/>
<stop offset="0.24" stop-color="#800092"/>
<stop offset="0.37" stop-color="#590065"/>
<stop offset="0.5" stop-color="#390040"/>
<stop offset="0.62" stop-color="#200024"/>
<stop offset="0.75" stop-color="#0E0010"/>
<stop offset="0.88" stop-color="#030004"/>
<stop offset="1"/>
</radialGradient>
<radialGradient id="paint67_radial_4001_7477" cx="0" cy="0" r="1" gradientTransform="matrix(-0.138962 -0.0381387 -0.0379375 0.139699 4.85903 32.0606)" gradientUnits="userSpaceOnUse">
<stop stop-color="#E000FF"/>
<stop offset="0.12" stop-color="#AE00C6"/>
<stop offset="0.24" stop-color="#800092"/>
<stop offset="0.37" stop-color="#590065"/>
<stop offset="0.5" stop-color="#390040"/>
<stop offset="0.62" stop-color="#200024"/>
<stop offset="0.75" stop-color="#0E0010"/>
<stop offset="0.88" stop-color="#030004"/>
<stop offset="1"/>
</radialGradient>
<radialGradient id="paint68_radial_4001_7477" cx="0" cy="0" r="1" gradientTransform="matrix(-0.138962 -0.0381387 -0.0379375 0.139699 4.41322 33.2819)" gradientUnits="userSpaceOnUse">
<stop stop-color="#E000FF"/>
<stop offset="0.12" stop-color="#AE00C6"/>
<stop offset="0.24" stop-color="#800092"/>
<stop offset="0.37" stop-color="#590065"/>
<stop offset="0.5" stop-color="#390040"/>
<stop offset="0.62" stop-color="#200024"/>
<stop offset="0.75" stop-color="#0E0010"/>
<stop offset="0.88" stop-color="#030004"/>
<stop offset="1"/>
</radialGradient>
<linearGradient id="paint69_linear_4001_7477" x1="18.282" y1="2.32623" x2="34.8251" y2="23.7396" gradientUnits="userSpaceOnUse">
<stop stop-color="#A35382"/>
<stop offset="0.95" stop-color="#91413D"/>
</linearGradient>
<linearGradient id="paint70_linear_4001_7477" x1="23.3789" y1="9.24804" x2="25.6281" y2="12.1594" gradientUnits="userSpaceOnUse">
<stop stop-color="#B9757F"/>
<stop offset="0.95" stop-color="#AD5450"/>
</linearGradient>
<linearGradient id="paint71_linear_4001_7477" x1="17.4046" y1="3.061" x2="33.9222" y2="24.442" gradientUnits="userSpaceOnUse">
<stop stop-color="#B9757F"/>
<stop offset="0.95" stop-color="#AD5450"/>
</linearGradient>
<linearGradient id="paint72_linear_4001_7477" x1="26.1878" y1="16.8764" x2="28.0313" y2="15.4884" gradientUnits="userSpaceOnUse">
<stop stop-color="#9054DF"/>
<stop offset="0.69"/>
</linearGradient>
<linearGradient id="paint73_linear_4001_7477" x1="18.0085" y1="4.76596" x2="21.4876" y2="4.76596" gradientUnits="userSpaceOnUse">
<stop offset="0.04" stop-color="#B98666"/>
<stop offset="0.39" stop-color="#B9757F"/>
<stop offset="0.95" stop-color="#AD5450"/>
</linearGradient>
<linearGradient id="paint74_linear_4001_7477" x1="18.1133" y1="18.7353" x2="17.425" y2="18.1724" gradientUnits="userSpaceOnUse">
<stop stop-color="#9054DF"/>
<stop offset="0.69"/>
</linearGradient>
<linearGradient id="paint75_linear_4001_7477" x1="28.1477" y1="6.18497" x2="19.9992" y2="12.6208" gradientUnits="userSpaceOnUse">
<stop offset="0.29" stop-color="#203456"/>
<stop offset="0.44" stop-color="#215990"/>
<stop offset="0.62" stop-color="#221F4F"/>
<stop offset="0.82" stop-color="#2D2A48"/>
</linearGradient>
<clipPath id="clip0_4001_7477">
<rect width="23" height="25" fill="white" transform="translate(1 13)"/>
</clipPath>
<clipPath id="clip1_4001_7477">
<rect width="25" height="25" fill="white" transform="translate(13 2)"/>
</clipPath>
</defs>
</svg>
