<svg width="18" height="27" viewBox="0 0 18 27" fill="none" xmlns="http://www.w3.org/2000/svg">
<g clip-path="url(#clip0_4001_6609)">
<path d="M4.74895 25.3053C4.56009 25.1458 4.37123 24.9862 4.18237 24.8266C4.44334 25.05 4.75238 25.2607 5.10607 25.4553C7.96986 27.0575 12.7119 27.1021 15.6959 25.5543C16.1457 25.3213 16.5303 25.066 16.8497 24.7915C16.6608 24.9511 16.472 25.1138 16.2865 25.2734C15.9981 25.5224 15.6444 25.7553 15.2358 25.966C12.5196 27.3734 8.19992 27.3351 5.59367 25.8766C5.27432 25.6979 4.99275 25.5032 4.75582 25.3021L4.74895 25.3053Z" fill="url(#paint0_linear_4001_6609)"/>
<path d="M15.4966 1.13615C18.1407 2.61381 18.0514 4.97232 15.294 6.4021C12.5367 7.83189 8.15859 7.7904 5.51456 6.30955C2.87053 4.83189 2.95981 2.47338 5.71716 1.04359C8.4745 -0.386193 12.8526 -0.344704 15.4966 1.13615Z" fill="url(#paint1_linear_4001_6609)"/>
<path d="M14.5319 1.52544C16.6643 2.71906 16.5922 4.62119 14.3671 5.77331C12.142 6.92544 8.61202 6.89353 6.4762 5.69991C4.34381 4.50629 4.41592 2.60417 6.64102 1.45204C8.86613 0.29991 12.3961 0.331825 14.5319 1.52544Z" fill="#FFDA05"/>
<path d="M7.05643 3.73407L7.04956 1.86705C7.04956 2.32662 7.3689 2.78939 8.01103 3.14684C9.32961 3.88407 11.5135 3.90641 12.887 3.19152C13.5944 2.8245 13.9515 2.3362 13.9481 1.8479L13.9549 3.71492C13.9549 4.20322 13.6013 4.69471 12.8939 5.06173C11.5204 5.77343 9.33647 5.75428 8.01789 5.01705C7.37921 4.6596 7.05986 4.19684 7.05643 3.73726V3.73407Z" fill="url(#paint2_linear_4001_6609)"/>
<path style="mix-blend-mode:multiply" d="M12.8939 4.83822C11.5204 5.54992 9.33647 5.53077 8.01789 4.79354C7.37921 4.43609 7.05986 3.97333 7.05643 3.51375V1.87333L7.04956 1.86694L7.05643 3.73396C7.05643 4.19673 7.37577 4.65631 8.01789 5.01375C9.33647 5.75099 11.5204 5.77333 12.8939 5.05843C13.6013 4.69141 13.9549 4.20311 13.9549 3.71162V3.49779C13.9549 3.98609 13.5978 4.4712 12.8939 4.83503V4.83822Z" fill="url(#paint3_linear_4001_6609)"/>
<g style="mix-blend-mode:overlay" opacity="0.5">
<path d="M8.0109 3.30328C9.32948 4.04052 11.5134 4.06286 12.8869 3.34796C13.632 2.96179 13.9823 2.43839 13.9411 1.92456C13.9067 2.38733 13.5565 2.84371 12.8869 3.19158C11.5134 3.90328 9.32948 3.88413 8.0109 3.1469C7.40311 2.80541 7.0872 2.37456 7.0563 1.93733C7.01509 2.42562 7.331 2.9235 8.0109 3.30328Z" fill="white"/>
</g>
<path d="M3.01814 22.6755C3.00097 16.5862 3.03531 10.5 3.01814 4.41063C3.01814 5.41276 3.71177 6.41489 5.10246 7.19042C7.96625 8.79255 12.7083 8.83723 15.6923 7.28935C17.2272 6.49467 17.9998 5.43191 17.9964 4.36914C18.0136 10.4585 17.9792 16.5447 17.9964 22.634C17.9964 23.6968 17.2272 24.7596 15.6923 25.5542C12.7083 27.1021 7.96625 27.0574 5.10246 25.4553C3.71177 24.6766 3.02157 23.6777 3.01814 22.6755Z" fill="url(#paint4_linear_4001_6609)"/>
<path d="M10.2532 11.7287C7.96633 12.0575 6.29751 11.9458 4.66988 11.3585C4.38144 12.2394 4.08614 13.1489 3.73245 14.7032C4.08957 14.9394 4.19258 14.9968 4.65615 15.2011C4.37114 16.0787 4.07583 16.9883 3.72902 18.5458C4.0827 18.7851 4.18572 18.8394 4.64585 19.0468C4.36427 19.9277 4.0724 20.8372 3.72559 22.3883C5.00639 21.3351 6.5207 20.5851 7.87362 19.6245C7.16282 19.5989 6.99113 19.5862 6.33184 19.5C7.8244 17.4404 8.72978 16.1841 9.04798 15.7309C8.33718 15.7724 8.15176 15.7755 7.41693 15.7564C8.12429 14.783 9.30552 13.1489 10.2567 11.7287" fill="url(#paint5_linear_4001_6609)"/>
<path d="M3.86298 2.53722C3.86298 2.53722 3.89731 2.49892 3.91448 2.48615C3.92135 2.47977 3.93165 2.467 3.93852 2.46062C3.95225 2.44466 3.97286 2.42232 3.99003 2.40956C4.00376 2.3936 4.02436 2.37126 4.04153 2.35849C4.0484 2.34892 4.0587 2.33935 4.06557 2.33296C4.0793 2.317 4.09991 2.29786 4.11708 2.2819C4.13081 2.26594 4.15141 2.2436 4.16858 2.22764C4.17545 2.22126 4.18575 2.20849 4.19262 2.20211C4.20636 2.18615 4.22696 2.16381 4.24413 2.15105C4.25786 2.13509 4.27847 2.11275 4.29563 2.09679C4.3025 2.09041 4.3128 2.07764 4.31967 2.07126C4.33341 2.0553 4.35401 2.03615 4.37118 2.0202C3.03886 3.39892 3.40628 5.13828 5.51463 6.31594C8.15866 7.7936 12.5368 7.83509 15.2941 6.40849C17.5707 5.23083 18.0274 3.41807 16.6333 1.98828C16.805 2.16062 16.9732 2.33615 17.1449 2.50849C18.6558 4.05637 18.1613 6.01913 15.6959 7.29573C12.7119 8.8436 7.9698 8.79892 5.10601 7.19679C2.82253 5.9202 2.42078 4.03722 3.86641 2.5436L3.86298 2.53722Z" fill="url(#paint6_linear_4001_6609)"/>
<path style="mix-blend-mode:overlay" d="M15.6925 7.28945C12.7085 8.83733 7.9664 8.79264 5.10261 7.19052C3.73596 6.42456 3.04576 5.44477 3.02173 4.4586C2.97022 5.49903 3.66041 6.54584 5.10261 7.35009C7.9664 8.95222 12.7085 8.9969 15.6925 7.44903C17.272 6.63201 18.0377 5.53094 17.9897 4.43945C17.9588 5.47669 17.193 6.50754 15.6925 7.28626V7.28945Z" fill="url(#paint7_linear_4001_6609)"/>
<path d="M12.9866 0.568152C14.3052 1.30539 14.2605 2.48305 12.887 3.19475C11.5135 3.90645 9.32959 3.8873 8.01101 3.15007C6.69243 2.41283 6.73707 1.23517 8.11059 0.523471C9.48411 -0.188231 11.668 -0.169082 12.9866 0.568152Z" fill="url(#paint8_linear_4001_6609)"/>
<path d="M11.6372 2.15093L11.2285 1.93072L11.6337 1.71051C11.8329 1.602 11.8329 1.42647 11.6337 1.31796C11.4311 1.20944 11.1049 1.20944 10.9058 1.31796L10.4971 1.53817L10.0885 1.31796C9.88592 1.20944 9.55971 1.20944 9.36055 1.31796C9.16139 1.42647 9.16139 1.602 9.36055 1.71051L9.76917 1.93072L9.36399 2.15093C9.16483 2.25944 9.16483 2.43498 9.36399 2.54349C9.56658 2.652 9.89279 2.652 10.092 2.54349L10.4971 2.32327L10.9058 2.54349C11.1084 2.652 11.4346 2.652 11.6337 2.54349C11.8363 2.43498 11.8329 2.25944 11.6337 2.15093H11.6372Z" fill="white"/>
<path d="M11.6372 2.07769L11.2285 1.85748L11.6337 1.63727C11.8329 1.52876 11.8329 1.35322 11.6337 1.24471C11.4311 1.1362 11.1049 1.1362 10.9058 1.24471L10.4971 1.46493L10.0885 1.24471C9.88592 1.1362 9.55971 1.1362 9.36055 1.24471C9.16139 1.35322 9.16139 1.52876 9.36055 1.63727L9.76917 1.85748L9.36399 2.07769C9.16483 2.1862 9.16483 2.36173 9.36399 2.47024C9.56658 2.57876 9.89279 2.57876 10.092 2.47024L10.4971 2.25003L10.9058 2.47024C11.1084 2.57876 11.4346 2.57876 11.6337 2.47024C11.8363 2.36173 11.8329 2.1862 11.6337 2.07769H11.6372Z" fill="#AAAAAA"/>
<path style="mix-blend-mode:screen" d="M0.0445654 6.2968C0.497828 4.6085 4.14796 3.99893 8.19985 4.93722C12.2517 5.87552 15.167 8.00425 14.7172 9.69254C14.2639 11.3808 10.6138 11.9872 6.56193 11.0489C2.51004 10.1138 -0.405263 7.9851 0.0445654 6.2968Z" fill="url(#paint9_radial_4001_6609)"/>
</g>
<defs>
<linearGradient id="paint0_linear_4001_6609" x1="4.17894" y1="25.8958" x2="16.8462" y2="25.8958" gradientUnits="userSpaceOnUse">
<stop stop-color="#8BD139"/>
<stop offset="0.31" stop-color="#63B331"/>
<stop offset="1" stop-color="#0E7521"/>
</linearGradient>
<linearGradient id="paint1_linear_4001_6609" x1="3.5882" y1="3.72445" x2="17.4196" y2="3.72445" gradientUnits="userSpaceOnUse">
<stop stop-color="#119129"/>
<stop offset="0.14" stop-color="#149229"/>
<stop offset="0.26" stop-color="#1E982A"/>
<stop offset="0.38" stop-color="#2FA12D"/>
<stop offset="0.48" stop-color="#48AE30"/>
<stop offset="0.58" stop-color="#67BE34"/>
<stop offset="0.68" stop-color="#8BD139"/>
<stop offset="0.73" stop-color="#7CC937"/>
<stop offset="0.84" stop-color="#57B532"/>
<stop offset="0.98" stop-color="#1B962A"/>
<stop offset="1" stop-color="#119129"/>
</linearGradient>
<linearGradient id="paint2_linear_4001_6609" x1="14.628" y1="3.71492" x2="7.0633" y2="3.71492" gradientUnits="userSpaceOnUse">
<stop stop-color="#858585"/>
<stop offset="1" stop-color="#D9D9D9"/>
</linearGradient>
<linearGradient id="paint3_linear_4001_6609" x1="14.628" y1="3.72439" x2="7.0633" y2="3.72439" gradientUnits="userSpaceOnUse">
<stop stop-color="#858585"/>
<stop offset="1" stop-color="#D9D9D9"/>
</linearGradient>
<linearGradient id="paint4_linear_4001_6609" x1="3.37526" y1="15.5266" x2="17.574" y2="15.5266" gradientUnits="userSpaceOnUse">
<stop stop-color="#119129"/>
<stop offset="0.14" stop-color="#149229"/>
<stop offset="0.26" stop-color="#1E982A"/>
<stop offset="0.38" stop-color="#2FA12D"/>
<stop offset="0.48" stop-color="#48AE30"/>
<stop offset="0.58" stop-color="#67BE34"/>
<stop offset="0.68" stop-color="#8BD139"/>
<stop offset="0.73" stop-color="#7CC937"/>
<stop offset="0.84" stop-color="#57B532"/>
<stop offset="0.98" stop-color="#1B962A"/>
<stop offset="1" stop-color="#119129"/>
</linearGradient>
<linearGradient id="paint5_linear_4001_6609" x1="6.45203" y1="10.9181" x2="7.36052" y2="22.948" gradientUnits="userSpaceOnUse">
<stop stop-color="#FFEA05"/>
<stop offset="0.59" stop-color="#FFCB05"/>
<stop offset="1" stop-color="#FFBB05"/>
</linearGradient>
<linearGradient id="paint6_linear_4001_6609" x1="1.44901" y1="5.20211" x2="19.2533" y2="5.20211" gradientUnits="userSpaceOnUse">
<stop stop-color="#19B736"/>
<stop offset="0.14" stop-color="#1CB836"/>
<stop offset="0.25" stop-color="#26BD37"/>
<stop offset="0.35" stop-color="#37C539"/>
<stop offset="0.45" stop-color="#50D03D"/>
<stop offset="0.55" stop-color="#6FDE41"/>
<stop offset="0.64" stop-color="#95EF45"/>
<stop offset="0.68" stop-color="#A6F748"/>
<stop offset="0.73" stop-color="#97F046"/>
<stop offset="0.82" stop-color="#72DF41"/>
<stop offset="0.94" stop-color="#36C439"/>
<stop offset="1" stop-color="#19B736"/>
</linearGradient>
<linearGradient id="paint7_linear_4001_6609" x1="3.01829" y1="6.51392" x2="17.9931" y2="6.51392" gradientUnits="userSpaceOnUse">
<stop stop-color="white" stop-opacity="0"/>
<stop offset="0.28" stop-color="white"/>
<stop offset="0.75" stop-color="white" stop-opacity="0"/>
</linearGradient>
<linearGradient id="paint8_linear_4001_6609" x1="10.4971" y1="-0.532911" x2="10.4971" y2="3.69581" gradientUnits="userSpaceOnUse">
<stop stop-color="white"/>
<stop offset="1" stop-color="#D9D9D9"/>
</linearGradient>
<radialGradient id="paint9_radial_4001_6609" cx="0" cy="0" r="1" gradientTransform="matrix(-7.33429 -1.69834 0.822278 -3.06753 7.1487 8.67922)" gradientUnits="userSpaceOnUse">
<stop stop-color="#CDFDA4"/>
<stop offset="0.01" stop-color="#BDFA7E"/>
<stop offset="0.02" stop-color="#AFF75C"/>
<stop offset="0.03" stop-color="#A3F53F"/>
<stop offset="0.04" stop-color="#99F327"/>
<stop offset="0.05" stop-color="#92F215"/>
<stop offset="0.06" stop-color="#8CF109"/>
<stop offset="0.08" stop-color="#89F102"/>
<stop offset="0.11" stop-color="#89F100"/>
<stop offset="0.17" stop-color="#74CC00"/>
<stop offset="0.25" stop-color="#599D00"/>
<stop offset="0.33" stop-color="#417300"/>
<stop offset="0.42" stop-color="#2D4F00"/>
<stop offset="0.51" stop-color="#1C3200"/>
<stop offset="0.61" stop-color="#0F1C00"/>
<stop offset="0.71" stop-color="#060C00"/>
<stop offset="0.83" stop-color="#010200"/>
<stop offset="1"/>
</radialGradient>
<clipPath id="clip0_4001_6609">
<rect width="18" height="27" fill="white"/>
</clipPath>
</defs>
</svg>
