<svg width="14" height="14" viewBox="0 0 14 14" fill="none" xmlns="http://www.w3.org/2000/svg">
<g clip-path="url(#clip0_4001_8561)">
<path d="M7 14C10.866 14 14 10.866 14 7C14 3.13401 10.866 0 7 0C3.13401 0 0 3.13401 0 7C0 10.866 3.13401 14 7 14Z" fill="#F3BA2F"/>
<path d="M5.30075 6.30175L7 4.6025L8.70012 6.30263L9.68888 5.31387L7 2.625L4.312 5.313L5.30075 6.30175ZM2.625 7L3.61375 6.01125L4.6025 7L3.61375 7.98875L2.625 7ZM5.30075 7.69825L7 9.3975L8.70012 7.69737L9.68888 8.68569L7 11.375L4.312 8.687L4.31069 8.68569L5.30075 7.69825ZM9.3975 7L10.3863 6.01125L11.375 7L10.3863 7.98875L9.3975 7ZM8.00275 6.99913H8.00363V7L7 8.00363L5.99769 7.00175L5.99594 7L5.99769 6.99869L6.17312 6.82281L6.25844 6.7375L7 5.99638L8.00319 6.99956L8.00275 6.99913Z" fill="white"/>
</g>
<defs>
<clipPath id="clip0_4001_8561">
<rect width="14" height="14" fill="white"/>
</clipPath>
</defs>
</svg>
