<svg width="48" height="48" viewBox="0 0 48 48" fill="none" xmlns="http://www.w3.org/2000/svg">
<path fill-rule="evenodd" clip-rule="evenodd" d="M2.5 24C2.5 12.1716 12.1716 2.5 24 2.5C35.8284 2.5 45.5 12.1716 45.5 24C45.5 35.8284 35.8284 45.5 24 45.5C12.1716 45.5 2.5 35.8284 2.5 24ZM24 5.5C13.8284 5.5 5.5 13.8284 5.5 24C5.5 34.1716 13.8284 42.5 24 42.5C34.1716 42.5 42.5 34.1716 42.5 24C42.5 13.8284 34.1716 5.5 24 5.5Z" fill="#40FF54"/>
<path fill-rule="evenodd" clip-rule="evenodd" d="M33.5616 17.2803C34.1469 17.8666 34.146 18.8163 33.5597 19.4016L22.2197 30.7216C21.6338 31.3065 20.6848 31.3061 20.0993 30.7207L14.4393 25.0607C13.8536 24.4749 13.8536 23.5251 14.4393 22.9393C15.0251 22.3535 15.9749 22.3535 16.5607 22.9393L21.1609 27.5396L31.4403 17.2784C32.0266 16.6931 32.9763 16.694 33.5616 17.2803Z" fill="#40FF54"/>
</svg>
