<svg width="23" height="21" viewBox="0 0 23 21" fill="none" xmlns="http://www.w3.org/2000/svg">
<g clip-path="url(#clip0_4001_13841)">
<path style="mix-blend-mode:screen" opacity="0.5" d="M10.9243 21C16.9576 21 21.8485 16.299 21.8485 10.5C21.8485 4.70101 16.9576 0 10.9243 0C4.89096 0 0 4.70101 0 10.5C0 16.299 4.89096 21 10.9243 21Z" fill="url(#paint0_radial_4001_13841)"/>
<path fill-rule="evenodd" clip-rule="evenodd" d="M17.3858 6.50304L21.5681 9.74307L22.2662 12.0082L19.0683 11.9738L13.8478 9.66278L9.6654 6.42849L8.96735 4.16333L12.1653 4.192L17.3858 6.50304Z" fill="url(#paint1_radial_4001_13841)"/>
<path fill-rule="evenodd" clip-rule="evenodd" d="M8.96732 4.16333L4.85059 5.54536L5.79922 8.6363L9.66537 6.42849L8.96732 4.16333Z" fill="url(#paint2_radial_4001_13841)"/>
<path fill-rule="evenodd" clip-rule="evenodd" d="M9.66534 6.42847L5.79919 8.63628L11.5089 13.0576L13.8477 9.66277L9.66534 6.42847Z" fill="url(#paint3_radial_4001_13841)"/>
<path fill-rule="evenodd" clip-rule="evenodd" d="M13.8478 9.66284L19.0682 11.9739L18.6327 16.2117L11.509 13.0577L13.8478 9.66284Z" fill="url(#paint4_radial_4001_13841)"/>
<path fill-rule="evenodd" clip-rule="evenodd" d="M22.2662 12.0083L23 16.2519L18.6327 16.2117L19.0682 11.9739L22.2662 12.0083Z" fill="url(#paint5_radial_4001_13841)"/>
<path fill-rule="evenodd" clip-rule="evenodd" d="M5.79919 8.63623L8.2931 20.2717L11.5089 13.0576L5.79919 8.63623Z" fill="url(#paint6_radial_4001_13841)"/>
<path fill-rule="evenodd" clip-rule="evenodd" d="M11.509 13.0576L18.6327 16.2116L8.29315 20.2717L11.509 13.0576Z" fill="url(#paint7_radial_4001_13841)"/>
<path fill-rule="evenodd" clip-rule="evenodd" d="M23 16.2518L8.29315 20.2717L18.6327 16.2117L23 16.2518Z" fill="url(#paint8_radial_4001_13841)"/>
<path fill-rule="evenodd" clip-rule="evenodd" d="M4.85059 5.54541L8.29313 20.2718L5.79922 8.63634L4.85059 5.54541Z" fill="#85F2FF"/>
<path style="mix-blend-mode:screen" opacity="0.5" fill-rule="evenodd" clip-rule="evenodd" d="M13.3764 4.73096C14.8143 6.07285 17.6482 10.2476 18.4 11.6813L19.0623 11.9737L20.53 11.9909H20.7805C19.9453 11.2798 16.8905 7.02479 16.5445 6.13593L13.3704 4.73096H13.3764Z" fill="url(#paint9_radial_4001_13841)"/>
<g style="mix-blend-mode:screen" opacity="0.75">
<path fill-rule="evenodd" clip-rule="evenodd" d="M6.4197 11.515C6.36601 9.43334 7.26691 10.0584 8.20959 10.9874C11.1689 13.912 10.1904 15.6037 8.90167 18.9126C9.77275 16.9571 10.6438 15.0073 11.5149 13.0519C9.61166 11.5781 7.70842 10.11 5.80518 8.63623C6.00803 9.5939 6.21685 10.5573 6.4197 11.515Z" fill="#9FDFFF"/>
</g>
<path style="mix-blend-mode:screen" opacity="0.5" fill-rule="evenodd" clip-rule="evenodd" d="M13.7225 14.0325C16.64 15.3342 15.4229 16.8424 12.9528 18.0295L8.29315 20.2717L18.6327 16.2059L13.7225 14.0325Z" fill="url(#paint10_radial_4001_13841)"/>
<g style="mix-blend-mode:screen">
<path fill-rule="evenodd" clip-rule="evenodd" d="M9.66536 6.42858L9.02697 4.3584C9.25369 5.41356 9.39688 5.78631 9.0747 6.23934C8.75252 6.6981 7.94111 7.38052 7.32062 7.76473L9.6594 6.42858H9.66536Z" fill="#8FFCFF"/>
</g>
<path fill-rule="evenodd" clip-rule="evenodd" d="M13.8477 9.66277L9.66538 6.42847L7.3266 7.76462C8.49599 7.15676 9.20001 6.93884 9.64748 7.09941C10.095 7.25998 10.6558 7.63273 11.5627 8.2922C12.5292 8.99182 12.9528 9.69717 12.9588 10.0814C12.9647 10.5516 12.5053 11.4749 11.8789 12.5186L13.8418 9.6685L13.8477 9.66277Z" fill="white"/>
<g style="mix-blend-mode:screen" opacity="0.5">
<path fill-rule="evenodd" clip-rule="evenodd" d="M13.8477 9.66284L11.8848 12.5129C12.7917 11.2685 13.4957 10.6951 13.9909 10.5861C14.6591 10.437 15.6316 10.6435 17.5289 11.2972L13.8418 9.66284H13.8477Z" fill="#8FFCFF"/>
</g>
<path style="mix-blend-mode:screen" fill-rule="evenodd" clip-rule="evenodd" d="M11.2584 4.18627L8.96735 4.16333L9.43868 5.68873L9.6654 6.42849L13.8478 9.66278L15.8703 10.5574C14.6114 9.47928 11.3837 5.12674 11.2584 4.18053V4.18627Z" fill="url(#paint11_radial_4001_13841)"/>
<path style="mix-blend-mode:screen" opacity="0.75" d="M9.2 11.5209C11.9217 11.5209 14.1281 9.40016 14.1281 6.78412C14.1281 4.16808 11.9217 2.04736 9.2 2.04736C6.47826 2.04736 4.27185 4.16808 4.27185 6.78412C4.27185 9.40016 6.47826 11.5209 9.2 11.5209Z" fill="url(#paint12_radial_4001_13841)"/>
</g>
<defs>
<radialGradient id="paint0_radial_4001_13841" cx="0" cy="0" r="1" gradientUnits="userSpaceOnUse" gradientTransform="translate(10.9243 10.5) scale(10.9243 10.5)">
<stop stop-color="#00FFFF"/>
<stop offset="0.15" stop-color="#00D2D2"/>
<stop offset="0.46" stop-color="#007979"/>
<stop offset="0.72" stop-color="#003838"/>
<stop offset="0.9" stop-color="#000F0F"/>
<stop offset="1"/>
</radialGradient>
<radialGradient id="paint1_radial_4001_13841" cx="0" cy="0" r="1" gradientUnits="userSpaceOnUse" gradientTransform="translate(9.98161 6.58905) scale(16.6996 16.0511)">
<stop stop-color="#C4EEFF"/>
<stop offset="0.33" stop-color="#4CCAFF"/>
<stop offset="1" stop-color="#003EB0"/>
</radialGradient>
<radialGradient id="paint2_radial_4001_13841" cx="0" cy="0" r="1" gradientUnits="userSpaceOnUse" gradientTransform="translate(4.39118 3.4293) scale(6.34812 6.10158)">
<stop stop-color="#A5E2FF"/>
<stop offset="1" stop-color="#218CF3"/>
</radialGradient>
<radialGradient id="paint3_radial_4001_13841" cx="0" cy="0" r="1" gradientUnits="userSpaceOnUse" gradientTransform="translate(9.7429 6.97899) scale(18.3582 17.6453)">
<stop stop-color="#A5E2FF"/>
<stop offset="1" stop-color="#0088FF"/>
</radialGradient>
<radialGradient id="paint4_radial_4001_13841" cx="0" cy="0" r="1" gradientUnits="userSpaceOnUse" gradientTransform="translate(12.7082 21.0574) scale(12.7619 12.2662)">
<stop stop-color="#A5E2FF"/>
<stop offset="1" stop-color="#0069C2"/>
</radialGradient>
<radialGradient id="paint5_radial_4001_13841" cx="0" cy="0" r="1" gradientUnits="userSpaceOnUse" gradientTransform="translate(23.8174 9.41626) scale(9.2716 8.91152)">
<stop stop-color="#4CCAFF"/>
<stop offset="1" stop-color="#003EB0"/>
</radialGradient>
<radialGradient id="paint6_radial_4001_13841" cx="0" cy="0" r="1" gradientUnits="userSpaceOnUse" gradientTransform="translate(4.40309 15.5751) scale(8.09624 7.78181)">
<stop stop-color="#A5E2FF"/>
<stop offset="1" stop-color="#218CF3"/>
</radialGradient>
<radialGradient id="paint7_radial_4001_13841" cx="0" cy="0" r="1" gradientUnits="userSpaceOnUse" gradientTransform="translate(10.5305 22.8637) scale(14.8859 14.3078)">
<stop stop-color="#77D6FF"/>
<stop offset="1" stop-color="#001FB0"/>
</radialGradient>
<radialGradient id="paint8_radial_4001_13841" cx="0" cy="0" r="1" gradientUnits="userSpaceOnUse" gradientTransform="translate(8.54374 20.8108) scale(13.5077 12.9831)">
<stop stop-color="#A5E2FF"/>
<stop offset="1" stop-color="#0081FF"/>
</radialGradient>
<radialGradient id="paint9_radial_4001_13841" cx="0" cy="0" r="1" gradientUnits="userSpaceOnUse" gradientTransform="translate(19.3785 12.3522) scale(7.88145 7.57537)">
<stop stop-color="#00000D"/>
<stop offset="1" stop-color="white"/>
</radialGradient>
<radialGradient id="paint10_radial_4001_13841" cx="0" cy="0" r="1" gradientUnits="userSpaceOnUse" gradientTransform="translate(11.4135 13.3501) scale(8.47211 8.14309)">
<stop offset="0.31" stop-color="#00000D"/>
<stop offset="1" stop-color="#1CB4FF"/>
</radialGradient>
<radialGradient id="paint11_radial_4001_13841" cx="0" cy="0" r="1" gradientUnits="userSpaceOnUse" gradientTransform="translate(19.0623 0.974909) scale(13.7523 13.2182)">
<stop offset="0.57" stop-color="#00000D"/>
<stop offset="0.6" stop-color="#030512"/>
<stop offset="0.63" stop-color="#0C1523"/>
<stop offset="0.68" stop-color="#1B2F3F"/>
<stop offset="0.72" stop-color="#305366"/>
<stop offset="0.77" stop-color="#4C8297"/>
<stop offset="0.82" stop-color="#6DBAD3"/>
<stop offset="0.86" stop-color="#85E3FF"/>
</radialGradient>
<radialGradient id="paint12_radial_4001_13841" cx="0" cy="0" r="1" gradientUnits="userSpaceOnUse" gradientTransform="translate(9.2 6.78412) scale(4.92815 4.73676)">
<stop stop-color="white"/>
<stop offset="0.2" stop-color="#6EFFFF"/>
<stop offset="0.24" stop-color="#61E1E1"/>
<stop offset="0.32" stop-color="#4AADAD"/>
<stop offset="0.41" stop-color="#367E7E"/>
<stop offset="0.5" stop-color="#255757"/>
<stop offset="0.59" stop-color="#183737"/>
<stop offset="0.68" stop-color="#0D1F1F"/>
<stop offset="0.77" stop-color="#050D0D"/>
<stop offset="0.88" stop-color="#010303"/>
<stop offset="1"/>
</radialGradient>
<clipPath id="clip0_4001_13841">
<rect width="23" height="21" fill="white"/>
</clipPath>
</defs>
</svg>
