<svg width="18" height="27" viewBox="0 0 18 27" fill="none" xmlns="http://www.w3.org/2000/svg">
<g clip-path="url(#clip0_4001_7340)">
<path d="M11.088 26.9999C8.9689 26.9999 8.34618 26.3353 8.67613 25.5082C8.7319 25.4059 8.78766 25.299 8.84343 25.1921C8.84343 25.1921 8.84343 25.1828 8.84808 25.1828C9.02467 24.8297 9.19197 24.4532 9.33603 24.0489C10.6884 20.2662 5.56718 21.177 3.76408 20.7727C2.8393 20.5682 1.96099 19.3739 1.29644 18.1052C1.29644 18.1052 1.29179 18.0959 1.28715 18.0959C0.655133 16.897 0.2183 15.6329 0.106769 15.0753C0.0277668 14.6849 0.376304 14.104 0.87355 13.4813C1.71469 12.431 2.98336 11.2739 3.30401 10.8092C3.34584 10.7441 3.37372 10.693 3.37837 10.6558C3.41555 10.2236 2.64877 8.21607 1.83551 7.80247C1.13379 7.44929 -0.181355 3.78268 0.0184725 1.8541C0.0463555 1.56133 0.116063 1.30574 0.222948 1.11056C1.0362 -0.371885 3.49455 -0.0744667 3.87562 0.450662C4.25668 0.975792 4.00109 4.27528 5.83672 6.35256C5.83672 6.35256 6.90092 8.69937 7.4214 8.93638C7.94653 9.17338 10.0145 8.78767 11.0834 9.54051C11.6131 9.91693 12.4357 9.6288 13.2582 9.59163C13.7694 9.56839 14.3085 9.86581 14.7871 10.1075C14.7871 10.1075 14.7871 10.1075 14.7918 10.1075C15.0846 10.2562 15.3541 10.3863 15.5818 10.4095C16.0093 10.456 16.2231 11.4505 16.3021 12.8121C16.3021 12.826 16.3021 12.8493 16.3021 12.8772C16.3254 13.2861 16.3393 13.723 16.3393 14.183V14.2388C16.3393 16.5484 16.093 19.267 15.8746 20.4427C15.8513 20.5589 15.8467 20.6844 15.856 20.8099C15.8932 21.3815 16.2278 22.046 16.6925 22.7431C16.883 23.0359 17.0968 23.3286 17.3198 23.6214C18.714 25.3966 13.4674 26.9999 11.0787 26.9999H11.088Z" fill="url(#paint0_linear_4001_7340)"/>
<g style="mix-blend-mode:multiply" opacity="0.5">
<path d="M1.03623 0.989918C0.380983 1.48716 1.21747 4.41488 2.13761 4.782C3.0531 5.14448 4.029 4.64723 4.17771 3.77821C4.32642 2.9092 3.96859 0.836562 3.66652 0.627439C3.36446 0.418317 1.78907 0.418317 1.03623 0.989918Z" fill="#FF9274"/>
</g>
<path d="M1.13379 3.34591C1.13379 3.34591 1.41262 4.22423 2.05393 4.675C2.69523 5.12578 3.93603 5.03748 4.21486 4.65641C4.71675 3.97793 4.21486 2.69531 4.21486 2.69531C4.21486 2.69531 4.41468 3.75951 3.95462 4.24282C3.49455 4.72612 1.98887 5.13042 1.13379 3.34127V3.34591Z" fill="#FFD636"/>
<g style="mix-blend-mode:multiply" opacity="0.3">
<path d="M3.66647 14.1878C3.66647 14.1878 3.02051 14.0112 3.05305 13.8765C3.09022 13.7417 2.68127 11.9526 0.878174 13.4861C1.84014 12.2825 3.35976 10.9441 3.38299 10.6606C3.67576 12.2174 3.66647 14.1832 3.66647 14.1832V14.1878Z" fill="#D60066"/>
</g>
<g style="mix-blend-mode:multiply" opacity="0.2">
<path d="M5.95765 6.62209C4.87486 4.98629 3.0857 5.99472 3.32736 7.74205C3.56901 9.48938 4.83304 9.96804 6.2783 9.66133C7.72357 9.35462 6.3666 7.24945 5.95765 6.62673V6.62209Z" fill="#EA4C74"/>
</g>
<g style="mix-blend-mode:multiply" opacity="0.8">
<path d="M9.33597 24.0536C10.6883 20.2708 5.56713 21.1816 3.76403 20.7773C2.83924 20.5729 1.96093 19.3785 1.29639 18.1099C2.23047 19.5877 3.11343 20.926 8.24389 20.8192C13.0583 20.7216 9.41962 24.588 8.84802 25.1828C9.02461 24.8297 9.19191 24.4532 9.33597 24.0489V24.0536Z" fill="#D42F55"/>
</g>
<path d="M11.088 27C8.96886 27 8.34614 26.3355 8.67609 25.5083C8.71327 25.4061 8.77368 25.2992 8.84339 25.1923C8.84339 25.1923 8.84339 25.183 8.84804 25.183C11.7432 20.7868 15.935 21.851 17.3291 23.6216C18.7233 25.3968 13.4766 27 11.088 27Z" fill="#D84C04"/>
<g style="mix-blend-mode:multiply" opacity="0.2">
<path d="M16.093 14.1925V14.2482C16.093 16.5579 15.8467 19.2765 15.6283 20.4522C15.6051 20.5684 15.6004 20.6939 15.6097 20.8193C14.9033 21.1911 15.9815 20.3267 11.8827 20.6381C7.7839 20.9541 5.3999 11.6784 5.3999 11.6784C5.85068 10.6049 6.37116 9.65686 7.99302 9.95427C8.39732 10.0286 9.63347 10.34 11.3343 10.34C13.0352 10.34 13.7555 10.405 14.6385 10.8651C15.5214 11.3252 16.0326 12.3522 16.0512 12.8262C16.0558 12.9424 16.0744 13.4629 16.0884 14.1925H16.093Z" fill="#EF7A98"/>
</g>
<path d="M7.42139 8.94116C7.42139 8.94116 8.61106 9.48023 9.71244 9.74512C10.8092 10.01 11.8687 9.79159 11.5852 9.72653C11.3018 9.66147 10.4839 9.15493 9.71244 9.09917C8.93636 9.0434 7.42139 8.94116 7.42139 8.94116Z" fill="url(#paint1_linear_4001_7340)"/>
<path d="M12.1569 9.71712C11.8781 9.73571 13.8996 9.80542 14.3364 9.95877C14.7779 10.1121 14.0251 9.59165 13.5232 9.52194C13.0213 9.45223 12.1569 9.71712 12.1569 9.71712Z" fill="url(#paint2_linear_4001_7340)"/>
<path d="M15.3216 10.3584C15.0428 10.377 15.6795 10.6326 15.8979 10.9672C16.1163 11.3018 15.9443 10.5954 15.7631 10.5071C15.5819 10.4188 15.3216 10.3584 15.3216 10.3584Z" fill="url(#paint3_linear_4001_7340)"/>
<path d="M0.0742063 1.5289C-0.0187369 2.1005 0.729456 0.831828 1.75648 0.390348C2.7835 -0.0511325 3.74082 0.329935 3.74082 0.329935C3.74082 0.329935 3.32722 -0.0976041 1.9656 0.0232221C0.599335 0.144048 0.125325 1.2036 0.0742063 1.5289Z" fill="url(#paint4_linear_4001_7340)"/>
<g style="mix-blend-mode:soft-light">
<path d="M2.13764 4.47514C1.48704 4.27532 3.4249 2.90905 3.95468 3.66189C4.48446 4.41473 3.35055 4.84692 2.13764 4.47514Z" fill="white"/>
</g>
<path d="M0.878257 1.43134C0.878257 1.43134 1.71475 0.808624 2.50476 0.664562C3.29478 0.5205 3.86173 0.989863 3.86173 0.989863C3.86173 0.989863 3.81991 0.608796 3.66655 0.501911C3.2576 0.213787 1.27791 0.636679 1.03626 0.845801C0.794608 1.05492 0.878257 1.43134 0.878257 1.43134Z" fill="#FFE7DB"/>
<g style="mix-blend-mode:multiply" opacity="0.5">
<path d="M0.86424 1.18042C0.86424 1.18042 0.701589 3.05787 1.90056 4.02448C3.05305 4.94927 4.06613 4.27543 4.17302 3.77354C4.28455 3.27164 4.08472 1.92861 4.08472 1.92861C4.08472 1.92861 4.42861 3.48076 4.17302 4.01983C3.91742 4.55891 2.77887 5.00968 2.00279 4.51708C1.22672 4.02448 0.622587 2.38403 0.86424 1.18042Z" fill="#D42774"/>
</g>
<g style="mix-blend-mode:screen" opacity="0.5">
<path d="M3.30869 5.79029C3.03451 6.32007 4.29854 5.79029 4.8469 5.79029C5.39992 5.79029 5.03744 4.98633 4.17307 5.05604C3.30869 5.12575 3.30405 5.79029 3.30405 5.79029H3.30869Z" fill="#FFB311"/>
</g>
<g style="mix-blend-mode:multiply" opacity="0.8">
<path d="M3.66649 14.1879C3.53637 14.1507 2.95083 14.1182 3.05307 13.8765C3.15531 13.6395 3.48525 13.5791 3.53637 13.2631C3.58749 12.9471 3.61073 11.4089 2.82536 11.367C2.86718 11.302 3.37837 10.6978 3.37837 10.6607C3.41555 10.2285 2.64877 8.2209 1.83551 7.80731C1.13379 7.44948 -0.181355 3.78287 0.0184725 1.8543C0.15324 1.64982 0.515719 5.90197 1.59851 7.26824C2.67665 8.63915 3.37837 9.17822 3.66649 10.354C3.95462 11.5343 3.79661 14.2297 3.66649 14.1925V14.1879Z" fill="#D42F55"/>
</g>
<g style="mix-blend-mode:multiply" opacity="0.3">
<path d="M3.76421 20.7774C2.84872 20.2616 4.79123 19.0441 7.42153 19.3368C10.0472 19.6296 10.8093 21.5675 10.1169 21.8974C9.4198 22.2274 9.40122 21.5442 7.42153 21.0888C5.44648 20.6334 3.76421 20.7774 3.76421 20.7774Z" fill="#D60066"/>
</g>
<g style="mix-blend-mode:multiply" opacity="0.8">
<path d="M16.0976 16.2373C16.2417 13.5419 15.7491 10.8094 14.7917 10.1169C15.0845 10.2657 15.3541 10.3958 15.5818 10.419C16.0093 10.4655 16.2231 11.46 16.3021 12.8216C16.3021 12.8355 16.3021 12.8588 16.3021 12.8867C16.3253 13.2956 16.3393 13.7324 16.3393 14.1925V14.2483C16.3393 16.5579 16.093 19.2765 15.8745 20.4522C15.8513 20.5684 15.8467 20.6939 15.8559 20.8194C15.8931 21.391 16.2277 22.0555 16.6924 22.7526C16.6274 22.6782 15.6004 21.4885 15.6189 21.0331C15.6422 20.5684 15.9442 18.9373 16.0883 16.2419L16.0976 16.2373Z" fill="#D42F55"/>
</g>
<g style="mix-blend-mode:screen" opacity="0.5">
<path d="M10.879 22.8825C10.4794 22.9569 11.1718 21.2746 12.6775 20.7355C14.1832 20.1965 16.0513 21.9113 16.0932 22.283C16.135 22.6548 14.5271 21.9159 13.3513 22.0879C12.1756 22.2598 10.8744 22.8825 10.8744 22.8825H10.879Z" fill="#FFB311"/>
</g>
<path d="M11.985 22.4504C11.3483 22.6084 11.971 21.6511 12.854 21.4977C13.7369 21.3397 14.2714 22.0089 14.0483 22.0739C13.8252 22.139 12.8168 22.2459 11.985 22.4504Z" fill="white"/>
<path d="M8.22537 9.27097C7.68165 9.36391 9.12227 9.94945 9.70781 9.95875C10.2934 9.96804 9.90299 8.97819 8.22537 9.27097Z" fill="white"/>
<path d="M12.1569 9.7173C11.7572 9.77306 12.3613 10.0984 12.8772 9.95895C13.393 9.81953 12.84 9.61971 12.1569 9.7173Z" fill="white"/>
<g style="mix-blend-mode:screen" opacity="0.5">
<path d="M0.301886 14.9034C0.469184 15.4703 2.55576 13.8903 2.36523 13.1514C2.17469 12.4125 -0.0605921 13.6812 0.301886 14.9034Z" fill="#FFB311"/>
</g>
<g style="mix-blend-mode:multiply" opacity="0.2">
<path d="M8.77834 10.6652C8.47628 10.6931 9.84719 14.8011 10.3584 15.3402C10.8696 15.8746 10.5071 10.4932 8.77834 10.6652Z" fill="#EF7A98"/>
</g>
<g style="mix-blend-mode:multiply" opacity="0.2">
<path d="M12.1337 11.0555C11.6643 11.0648 12.1337 14.4061 12.4543 14.4711C12.775 14.5362 12.7517 11.0415 12.1337 11.0555Z" fill="#EF7A98"/>
</g>
<g style="mix-blend-mode:multiply" opacity="0.2">
<path d="M14.7919 11.4599C14.4852 11.5296 14.2482 13.737 14.7919 14.0019C15.3356 14.2668 15.2381 11.3577 14.7919 11.4599Z" fill="#EF7A98"/>
</g>
<g style="mix-blend-mode:multiply" opacity="0.2">
<path d="M0.48317 15.7538C0.413462 15.0149 1.84479 14.4712 2.54186 14.4712C3.23894 14.4712 4.74926 18.7559 4.4379 19.2903C4.12654 19.8247 3.27147 20.387 2.78816 20.2058C2.30486 20.0245 0.901414 17.2409 0.487817 15.7538H0.48317Z" fill="#EA4C74"/>
</g>
<g style="mix-blend-mode:multiply" opacity="0.3">
<path d="M9.03402 24.9879C8.54606 26.5958 13.565 26.5632 14.8104 25.3503C16.0559 24.1374 15.0846 22.9292 16.3347 23.1336C17.5801 23.3428 14.9173 21.5304 12.6681 22.3064C10.4189 23.0825 9.03402 24.9879 9.03402 24.9879Z" fill="#D60066"/>
</g>
</g>
<defs>
<linearGradient id="paint0_linear_4001_7340" x1="8.77837" y1="26.9999" x2="8.77837" y2="0.0231245" gradientUnits="userSpaceOnUse">
<stop stop-color="#FFA200"/>
<stop offset="1" stop-color="#FFB82F"/>
</linearGradient>
<linearGradient id="paint1_linear_4001_7340" x1="7.42139" y1="9.40588" x2="11.6317" y2="9.40588" gradientUnits="userSpaceOnUse">
<stop stop-color="#FFDE00"/>
<stop offset="1" stop-color="#FFE834"/>
</linearGradient>
<linearGradient id="paint2_linear_4001_7340" x1="12.1337" y1="9.74965" x2="14.4712" y2="9.74965" gradientUnits="userSpaceOnUse">
<stop stop-color="#FFDE00"/>
<stop offset="1" stop-color="#FFE834"/>
</linearGradient>
<linearGradient id="paint3_linear_4001_7340" x1="15.2519" y1="10.7069" x2="16.0001" y2="10.7069" gradientUnits="userSpaceOnUse">
<stop stop-color="#FFDE00"/>
<stop offset="1" stop-color="#FFE834"/>
</linearGradient>
<linearGradient id="paint4_linear_4001_7340" x1="0.064912" y1="0.836475" x2="3.74082" y2="0.836475" gradientUnits="userSpaceOnUse">
<stop stop-color="#FFDE00"/>
<stop offset="1" stop-color="#FFE834"/>
</linearGradient>
<clipPath id="clip0_4001_7340">
<rect width="17.557" height="27" fill="white"/>
</clipPath>
</defs>
</svg>
