<svg width="37" height="38" viewBox="0 0 37 38" fill="none" xmlns="http://www.w3.org/2000/svg">
<g clip-path="url(#clip0_4001_7403)">
<path style="mix-blend-mode:screen" d="M36.3412 23.234C38.6596 13.3342 32.5136 3.42956 22.6139 1.11125C12.7141 -1.20707 2.80946 4.93888 0.49114 14.8386C-1.82718 24.7384 4.31878 34.643 14.2185 36.9614C24.1182 39.2797 34.0229 33.1337 36.3412 23.234Z" fill="url(#paint0_radial_4001_7403)"/>
<path fill-rule="evenodd" clip-rule="evenodd" d="M15.3901 27.79C18.1301 29.37 19.6801 31.83 18.8501 33.27C18.0201 34.71 15.1201 34.6 12.3701 33.01C9.63013 31.43 8.08013 28.97 8.91013 27.53C9.74013 26.09 12.6401 26.2 15.3801 27.79H15.3901Z" fill="url(#paint1_radial_4001_7403)"/>
<g style="mix-blend-mode:multiply">
<path fill-rule="evenodd" clip-rule="evenodd" d="M19.0001 33.0801C18.2501 34.3801 15.4001 34.1401 12.6501 32.5501C9.89012 30.9601 8.27012 28.6101 9.02012 27.3101C10.2701 29.7001 14.8501 32.9301 19.0101 33.0801H19.0001Z" fill="#5ACCC9"/>
</g>
<path opacity="0.15" fill-rule="evenodd" clip-rule="evenodd" d="M23.5602 8.11986L22.8402 9.32986C21.8302 10.9999 22.2802 10.5499 20.6902 11.7799C19.7302 12.5199 18.8902 12.7799 17.7202 12.9899C14.2202 13.6199 11.0102 14.9699 9.16022 18.1799C8.41022 19.4799 8.01022 20.9399 7.99022 22.4499C7.93022 26.1799 10.1102 29.5799 13.3002 31.4199C16.4902 33.2599 20.5202 33.4499 23.7202 31.5299C25.0102 30.7599 26.0802 29.6899 26.8302 28.3799C28.6802 25.1699 28.2502 21.7199 27.0502 18.3699C26.6502 17.2599 26.4602 16.3999 26.6202 15.1999C26.8902 13.2099 26.7202 13.8199 27.6702 12.1099L28.3602 10.8799C27.4802 10.6399 26.5802 10.2199 25.8102 9.76986C25.0402 9.31986 24.2302 8.75986 23.5702 8.10986L23.5602 8.11986Z" fill="white"/>
<path fill-rule="evenodd" clip-rule="evenodd" d="M17.9701 16.03C23.2901 16.03 27.6101 18.01 27.6101 20.45C27.6101 22.89 23.2901 24.87 17.9701 24.87C12.6501 24.87 8.33008 22.89 8.33008 20.45C8.33008 18.01 12.6501 16.03 17.9701 16.03Z" fill="url(#paint2_radial_4001_7403)"/>
<path fill-rule="evenodd" clip-rule="evenodd" d="M17.9702 24.8701C12.6502 24.8701 8.33022 22.8901 8.33022 20.4501C8.33022 20.2301 8.36022 20.0201 8.43022 19.8201C8.15022 20.6601 8.00022 21.5501 7.99022 22.4501C7.93022 26.1801 10.1102 29.5801 13.3002 31.4201C16.4902 33.2601 20.5202 33.4501 23.7202 31.5301C25.0102 30.7601 26.0802 29.6901 26.8302 28.3801C28.3902 25.6801 28.3302 22.8001 27.5502 19.9601C27.5902 20.1201 27.6102 20.2801 27.6102 20.4501C27.6102 22.8901 23.2902 24.8701 17.9702 24.8701Z" fill="url(#paint3_radial_4001_7403)"/>
<path style="mix-blend-mode:screen" fill-rule="evenodd" clip-rule="evenodd" d="M25.9901 22.36C25.9901 20.07 21.9401 18.22 16.9501 18.22C12.9901 18.22 9.63015 19.39 8.40015 21.01C8.99015 23.19 13.0501 24.88 17.9701 24.88C21.2501 24.88 24.1501 24.13 25.8901 22.98C25.9601 22.78 25.9901 22.57 25.9901 22.36Z" fill="url(#paint4_radial_4001_7403)"/>
<path style="mix-blend-mode:screen" fill-rule="evenodd" clip-rule="evenodd" d="M23.4901 22.82C23.4901 20.87 20.0401 19.28 15.7701 19.28C12.5201 19.28 9.7301 20.2 8.6001 21.51C9.6301 23.44 13.4301 24.87 17.9601 24.87C19.7201 24.87 21.3801 24.65 22.8001 24.27C23.2401 23.83 23.4801 23.33 23.4801 22.81L23.4901 22.82Z" fill="url(#paint5_radial_4001_7403)"/>
<path style="mix-blend-mode:screen" fill-rule="evenodd" clip-rule="evenodd" d="M17.97 24.87C13.44 24.87 9.64001 23.44 8.61001 21.51C8.53001 21.35 8.46001 21.2 8.42001 21.03C8.34001 21.47 8.29001 21.91 8.28001 22.37C8.23001 25.65 10.14 28.62 12.94 30.24C15.74 31.86 19.27 32.02 22.09 30.34C23.22 29.66 24.16 28.72 24.82 27.58C25.68 26.09 25.98 24.53 25.91 22.97C25.91 22.97 25.91 22.97 25.9 22.97C25.1 23.5 24.04 23.95 22.82 24.27C21.4 24.65 19.74 24.87 17.98 24.87H17.97Z" fill="url(#paint6_radial_4001_7403)"/>
<path style="mix-blend-mode:screen" fill-rule="evenodd" clip-rule="evenodd" d="M8.61005 21.51C8.61005 21.51 8.61005 21.5 8.61005 21.49C8.61005 21.49 8.61005 21.5 8.61005 21.51ZM17.9701 24.8701C13.4401 24.8701 9.64005 23.44 8.61005 21.51C8.63005 21.48 8.65005 21.46 8.68005 21.43C8.66005 21.39 8.65005 21.34 8.64005 21.3C8.63005 21.36 8.62005 21.43 8.61005 21.49C8.56005 21.79 8.54005 22.09 8.53005 22.39C8.49005 25.06 10.0401 27.49 12.3301 28.8C14.6101 30.12 17.4901 30.25 19.7801 28.88C20.7001 28.33 21.4701 27.56 22.0001 26.63C22.4501 25.86 22.7101 25.0701 22.8201 24.2701C21.4001 24.6501 19.7401 24.8701 17.9801 24.8701H17.9701Z" fill="url(#paint7_radial_4001_7403)"/>
<path fill-rule="evenodd" clip-rule="evenodd" d="M28.4401 12.5399L29.2601 11.0599C29.0701 11.0399 28.8901 11.0099 28.7601 10.9799C28.5901 10.9399 28.4101 10.8999 28.2301 10.8499L27.5501 12.0499C26.3101 14.2999 26.0301 15.8999 26.9301 18.4099C28.1201 21.7199 28.5601 25.1399 26.7201 28.3199C25.9801 29.6099 24.9301 30.6599 23.6501 31.4299C20.4801 33.3199 16.5001 33.1399 13.3501 31.3199C10.2001 29.4999 8.04011 26.1399 8.10011 22.4499C8.12011 20.9699 8.51011 19.5299 9.26011 18.2399C11.0901 15.0599 14.2801 13.7499 17.7401 13.1099C18.1901 13.0299 18.6001 13.0799 18.9001 13.3099C19.8201 13.9999 20.5201 15.1499 21.9901 15.8299C21.1401 15.1699 19.8501 13.6799 19.8401 12.8199C19.8401 12.6099 19.9101 12.4599 20.0401 12.3599C21.2301 11.7399 22.0601 10.8099 22.9201 9.3799L23.6301 8.1899C23.5001 8.0599 23.3701 7.9299 23.2501 7.7999C23.1601 7.6999 23.0401 7.5599 22.9301 7.3999L22.0601 8.8499C20.8901 10.7999 19.8901 11.6799 17.5501 12.0999C13.7201 12.7899 10.3501 14.3099 8.38011 17.7199C5.54011 22.6399 7.54011 29.1099 12.8401 32.1699C18.1401 35.2299 24.7501 33.7299 27.5901 28.8099C29.5601 25.3999 29.1901 21.7199 27.8701 18.0499C27.0601 15.8099 27.3301 14.5099 28.4301 12.5199L28.4401 12.5399Z" fill="url(#paint8_radial_4001_7403)"/>
<path style="mix-blend-mode:screen" fill-rule="evenodd" clip-rule="evenodd" d="M27.1002 13.05C26.6402 14.8 26.7502 15.85 26.8602 16.83C26.9802 17.94 27.2102 19 27.6802 20.99C26.9302 19.02 26.2102 17.74 26.0902 16.71C26.0202 16.13 26.3002 14.74 27.1002 13.06V13.05Z" fill="url(#paint9_linear_4001_7403)"/>
<path style="mix-blend-mode:screen" opacity="0.5" fill-rule="evenodd" clip-rule="evenodd" d="M26.1301 9.18987L28.4201 10.5099C26.6001 13.6599 24.1001 15.6199 22.8401 14.8899C21.5701 14.1599 22.0201 11.0099 23.8401 7.86987L26.1301 9.18987Z" fill="url(#paint10_radial_4001_7403)"/>
<path style="mix-blend-mode:screen" opacity="0.5" fill-rule="evenodd" clip-rule="evenodd" d="M25.3201 8.62994L26.3701 9.31994C25.1201 11.3299 23.6401 12.6499 23.0601 12.2699C22.4801 11.8899 23.0201 9.94994 24.2601 7.93994L25.3101 8.62994H25.3201Z" fill="url(#paint11_radial_4001_7403)"/>
<path style="mix-blend-mode:screen" fill-rule="evenodd" clip-rule="evenodd" d="M14.33 16.59C14.1 16.38 13.83 16.11 13.52 16.12C12.41 16.17 11.07 17.56 10.49 18.41C9.11 20.45 8.6 22.98 9.52 25.06C9.79 25.67 11.58 26.76 11.61 26.35C11.69 25.45 11.67 24.54 12.32 23.39C13.14 21.92 14.27 20.92 15.11 20.28C16.2 19.44 16.27 19.16 15.86 18.57C15.34 17.81 14.5 16.77 14.32 16.6L14.33 16.59ZM19.16 15.07C20.3 16.33 20.24 17.07 19.72 17.66C18.74 18.77 17.19 18.25 16.18 17.01C15.17 15.77 14.99 15.11 15.52 14.55C16.31 13.72 18.02 13.8 19.16 15.07Z" fill="url(#paint12_radial_4001_7403)"/>
<g style="mix-blend-mode:screen">
<path fill-rule="evenodd" clip-rule="evenodd" d="M18.4402 15.1699C17.6902 14.3799 16.6102 14.2899 16.1402 14.7599C15.8202 15.0799 15.9602 15.4799 16.6202 16.2499C17.2902 17.0199 18.2802 17.3699 18.8602 16.7299C19.1702 16.3899 19.1902 15.9499 18.4402 15.1599V15.1699ZM13.3602 16.8799C13.2302 16.7999 13.0802 16.7999 12.8402 16.9099C12.1402 17.2599 11.3302 18.1699 10.9902 18.6399C9.88019 20.1799 9.16019 22.2399 9.68019 23.9899C9.74019 24.1799 9.87019 24.5299 10.0502 24.5899C10.1302 24.6199 10.2202 24.5499 10.2702 24.3199C10.4302 23.6799 10.6702 23.0899 11.0202 22.5199C11.8302 21.1899 12.8902 20.1099 14.1102 19.1699C14.5202 18.8599 14.6002 18.6699 14.5602 18.4999C14.5102 18.2999 13.5202 16.9799 13.3502 16.8699L13.3602 16.8799Z" fill="url(#paint13_radial_4001_7403)"/>
</g>
<path style="mix-blend-mode:screen" opacity="0.5" fill-rule="evenodd" clip-rule="evenodd" d="M25.1002 8.63002L25.6402 9.00002C24.7902 10.44 23.8702 11.44 23.5702 11.24C23.2702 11.04 23.7202 9.71002 24.5602 8.27002L25.1002 8.64002V8.63002Z" fill="url(#paint14_radial_4001_7403)"/>
<g style="mix-blend-mode:multiply" opacity="0.5">
<path fill-rule="evenodd" clip-rule="evenodd" d="M28.42 12.5599C28.11 13.0899 26.64 12.3699 25.12 10.9599C23.6 9.53992 22.62 7.96992 22.93 7.43992V7.41992C23.5 8.16992 24.52 9.02992 25.8 9.76992C27.09 10.5099 28.35 10.9699 29.28 11.0699L28.42 12.5599Z" fill="#7F8E99"/>
</g>
<path fill-rule="evenodd" clip-rule="evenodd" d="M30.8202 11.18C30.2002 11.88 27.9402 11.4 25.6202 10.07C23.3102 8.72997 21.7702 7.00997 22.0602 6.12997C22.3202 5.34997 23.0802 4.27997 23.5902 3.71997L27.8702 6.17997L32.1402 8.65997C31.9102 9.37997 31.3702 10.57 30.8202 11.18ZM30.7802 8.51997L27.5902 6.66997L24.3902 4.82997C24.0302 5.36997 24.2702 4.92997 23.9502 5.49997C22.7502 7.58997 29.2102 11.32 30.4202 9.22997C30.7502 8.66997 30.4902 9.09997 30.7802 8.50997V8.51997Z" fill="url(#paint15_radial_4001_7403)"/>
<path opacity="0.15" fill-rule="evenodd" clip-rule="evenodd" d="M30.53 9.29991C30.9 8.66991 30.73 8.91991 30.94 8.46991L27.65 6.55991L24.35 4.65991C24.07 5.06991 24.2 4.79991 23.84 5.42991C22.55 7.66991 29.23 11.5299 30.53 9.28991V9.29991Z" fill="white"/>
<path fill-rule="evenodd" clip-rule="evenodd" d="M29.6101 9.33989C29.2701 9.73989 27.9001 9.42989 26.4701 8.60989C25.1001 7.81989 24.1601 6.82989 24.2501 6.30989C24.2801 6.15989 24.5201 5.58989 24.8601 4.88989L30.5001 8.14989C30.1801 8.61989 29.8701 9.04989 29.6101 9.34989V9.33989Z" fill="#8E633F"/>
<path style="mix-blend-mode:screen" fill-rule="evenodd" clip-rule="evenodd" d="M18.1101 33.1799C14.9701 33.4499 10.5501 31.1499 9.36011 28.1299C11.1601 30.6999 15.0301 32.8399 18.1101 33.1799Z" fill="url(#paint16_linear_4001_7403)"/>
<path fill-rule="evenodd" clip-rule="evenodd" d="M21.4102 32.4C24.9102 30.98 27.0302 28.25 27.9102 24.72C27.7902 28.81 25.2702 31.87 21.4102 32.4Z" fill="white"/>
<path style="mix-blend-mode:screen" fill-rule="evenodd" clip-rule="evenodd" d="M22.77 7.04997C22.63 6.27997 23.76 4.71997 24.24 4.09997L23.59 3.71997C23.08 4.26997 22.32 5.34997 22.06 6.12997C21.79 6.94997 23.09 8.47997 25.12 9.76997C24.17 9.08997 22.95 8.02997 22.77 7.04997Z" fill="url(#paint17_radial_4001_7403)"/>
<path fill-rule="evenodd" clip-rule="evenodd" d="M28.6602 4.80987C31.0202 6.16987 32.5801 7.88987 32.1402 8.64987C31.7002 9.40987 29.4302 8.91987 27.0702 7.55987C24.7102 6.19987 23.1502 4.47987 23.5902 3.71987C24.0302 2.95987 26.3002 3.44987 28.6602 4.80987Z" fill="url(#paint18_radial_4001_7403)"/>
<path fill-rule="evenodd" clip-rule="evenodd" d="M31.0101 8.99997C30.0501 9.04997 28.4801 8.55997 26.8901 7.63997C26.3301 7.31997 25.8301 6.97997 25.3801 6.62997C25.1301 6.94997 24.6901 6.97997 24.3601 6.68997C24.0101 6.37997 23.9101 5.82997 24.1001 5.41997C23.5501 4.75997 23.3301 4.16997 23.5501 3.78997C23.5601 3.76997 23.5801 3.73997 23.6001 3.71997C23.3101 4.47997 24.9201 6.13997 27.2801 7.49997C28.6701 8.29997 30.0301 8.82997 31.0101 8.99997Z" fill="white"/>
<path fill-rule="evenodd" clip-rule="evenodd" d="M30.79 7.73985C30.42 8.16985 28.95 7.83985 27.43 6.94985C25.96 6.09985 24.95 5.03985 25.05 4.48985C25.13 4.04985 26.49 1.14985 27.12 0.0998535L32.84 4.97985C32.15 5.92985 31.52 6.86985 30.79 7.72985V7.73985Z" fill="#8E633F"/>
<path style="mix-blend-mode:screen" fill-rule="evenodd" clip-rule="evenodd" d="M30.8201 7.18004C30.4901 7.57004 29.1401 7.24004 27.7301 6.43004C26.3701 5.65004 25.4301 4.68004 25.5201 4.18004C25.5901 3.78004 26.7701 1.23004 27.3401 0.290039L32.5501 4.74004C31.9301 5.59004 31.4801 6.41004 30.8201 7.18004Z" fill="url(#paint19_radial_4001_7403)"/>
<path style="mix-blend-mode:screen" fill-rule="evenodd" clip-rule="evenodd" d="M29.8301 2.72995C28.6701 4.73995 27.5601 5.74995 26.6701 5.03995C25.7901 4.31995 26.3101 2.45995 27.4701 0.449951L29.8301 2.73995V2.72995Z" fill="url(#paint20_radial_4001_7403)"/>
<path fill-rule="evenodd" clip-rule="evenodd" d="M27.46 4.30988C27.85 4.38988 28.13 4.61989 28.13 5.04989C28.13 5.47989 27.9 5.87988 27.59 5.98988C27.28 6.08988 26.92 5.56989 26.85 5.06989C26.78 4.56989 27.08 4.23988 27.46 4.30988Z" fill="url(#paint21_linear_4001_7403)"/>
<path fill-rule="evenodd" clip-rule="evenodd" d="M31.1402 5.58995C31.3302 5.87995 31.1802 6.49995 30.8102 6.72995C30.4402 6.95995 29.9502 6.77995 29.7502 6.53995C29.5602 6.29995 29.7502 5.84995 30.1002 5.58995C30.4402 5.32995 30.9502 5.29995 31.1302 5.58995H31.1402Z" fill="url(#paint22_linear_4001_7403)"/>
<g style="mix-blend-mode:screen" opacity="0.25">
<path fill-rule="evenodd" clip-rule="evenodd" d="M30.4301 1.73985C28.8001 0.479852 27.3501 -0.340148 27.0401 0.189852C26.8801 0.469852 27.0401 1.03985 27.4701 1.71985C27.2201 1.95985 27.1501 2.53985 27.4801 2.96985C27.8201 3.40985 28.3801 3.40985 28.6701 3.18985C28.8601 3.36985 29.0601 3.54985 29.2701 3.71985C30.9401 5.08985 32.4401 5.58985 32.8201 4.98985C33.1301 4.45985 32.0501 2.99985 30.4201 1.73985H30.4301Z" fill="#EDCAA6"/>
</g>
<path fill-rule="evenodd" clip-rule="evenodd" d="M30.5001 1.61997C32.1001 2.94997 33.1501 4.44997 32.8401 4.97997C32.5301 5.50997 30.9901 4.86997 29.3901 3.53997C27.7901 2.20997 26.7401 0.709967 27.0501 0.179967C27.3601 -0.350033 28.9001 0.289967 30.5001 1.61997Z" fill="#936E4E"/>
<path style="mix-blend-mode:screen" fill-rule="evenodd" clip-rule="evenodd" d="M29.9802 1.34999C31.2902 2.43999 32.1602 3.67999 31.9002 4.10999C31.6502 4.54999 30.3802 4.01999 29.0602 2.92999C27.7502 1.83999 26.8802 0.599992 27.1402 0.169992C27.3902 -0.270008 28.6602 0.259992 29.9802 1.34999Z" fill="url(#paint23_radial_4001_7403)"/>
<path fill-rule="evenodd" clip-rule="evenodd" d="M29.1301 0.919917C29.6301 1.28992 29.9501 1.71992 29.8601 1.87992C29.7701 2.03992 29.2901 1.86992 28.7901 1.49992C28.2901 1.12992 27.9701 0.699917 28.0601 0.539917C28.1501 0.379917 28.6301 0.549917 29.1301 0.919917Z" fill="url(#paint24_linear_4001_7403)"/>
<path fill-rule="evenodd" clip-rule="evenodd" d="M30.2102 2.85005C30.5702 3.12005 30.7902 3.45005 30.7102 3.59005C30.6302 3.73005 30.2702 3.63005 29.9202 3.37005C29.5602 3.10005 29.3402 2.77005 29.4202 2.63005C29.5002 2.49005 29.8602 2.59005 30.2102 2.85005Z" fill="url(#paint25_linear_4001_7403)"/>
<path fill-rule="evenodd" clip-rule="evenodd" d="M31.9902 3.51008C32.3902 3.83008 32.6302 4.22008 32.5402 4.38008C32.4502 4.54008 32.0502 4.41008 31.6502 4.09008C31.2502 3.77008 31.0102 3.38008 31.1002 3.22008C31.1902 3.06008 31.5902 3.19008 31.9902 3.51008Z" fill="url(#paint26_linear_4001_7403)"/>
<path fill-rule="evenodd" clip-rule="evenodd" d="M28.5701 3.00998C28.3101 3.18998 27.9201 3.13998 27.6301 2.75998C27.3301 2.37998 27.3301 1.93998 27.5701 1.74998C27.8101 1.55998 28.2801 1.74998 28.5801 2.10998C28.8901 2.46998 28.8301 2.81998 28.5801 2.99998L28.5701 3.00998Z" fill="url(#paint27_linear_4001_7403)"/>
<path style="mix-blend-mode:screen" fill-rule="evenodd" clip-rule="evenodd" d="M26.6901 26.45C24.7601 31.3 19.3401 33.54 14.3301 31.28C18.6101 31.23 23.2401 29.69 26.6901 26.45Z" fill="url(#paint28_radial_4001_7403)"/>
</g>
<defs>
<radialGradient id="paint0_radial_4001_7403" cx="0" cy="0" r="1" gradientUnits="userSpaceOnUse" gradientTransform="translate(18.4222 19.0385) scale(18.41)">
<stop stop-color="#03B300"/>
<stop offset="0.13" stop-color="#028E00"/>
<stop offset="0.35" stop-color="#015C00"/>
<stop offset="0.55" stop-color="#003400"/>
<stop offset="0.73" stop-color="#001700"/>
<stop offset="0.88" stop-color="#000600"/>
<stop offset="1"/>
</radialGradient>
<radialGradient id="paint1_radial_4001_7403" cx="0" cy="0" r="1" gradientUnits="userSpaceOnUse" gradientTransform="translate(5.68013 22.44) scale(17.28 17.28)">
<stop stop-color="white"/>
<stop offset="1" stop-color="#5E689E"/>
</radialGradient>
<radialGradient id="paint2_radial_4001_7403" cx="0" cy="0" r="1" gradientUnits="userSpaceOnUse" gradientTransform="translate(14.4801 25.61) scale(14.09)">
<stop stop-color="#95C11F"/>
<stop offset="1" stop-color="#3D8C00"/>
</radialGradient>
<radialGradient id="paint3_radial_4001_7403" cx="0" cy="0" r="1" gradientUnits="userSpaceOnUse" gradientTransform="translate(14.6202 23.1601) scale(18.01 18.01)">
<stop stop-color="#79A600"/>
<stop offset="0.61" stop-color="#007011"/>
<stop offset="0.89" stop-color="#95C11F"/>
</radialGradient>
<radialGradient id="paint4_radial_4001_7403" cx="0" cy="0" r="1" gradientUnits="userSpaceOnUse" gradientTransform="translate(15.4501 27.42) scale(16.91)">
<stop stop-color="#468A00"/>
<stop offset="1"/>
</radialGradient>
<radialGradient id="paint5_radial_4001_7403" cx="0" cy="0" r="1" gradientUnits="userSpaceOnUse" gradientTransform="translate(11.9101 28.03) scale(14.69)">
<stop stop-color="#64AA19"/>
<stop offset="1"/>
</radialGradient>
<radialGradient id="paint6_radial_4001_7403" cx="0" cy="0" r="1" gradientUnits="userSpaceOnUse" gradientTransform="translate(16.51 20.69) scale(12.01)">
<stop stop-color="#95C11F"/>
<stop offset="1"/>
</radialGradient>
<radialGradient id="paint7_radial_4001_7403" cx="0" cy="0" r="1" gradientUnits="userSpaceOnUse" gradientTransform="translate(13.6301 21.73) scale(11.03)">
<stop stop-color="#95C11F"/>
<stop offset="1"/>
</radialGradient>
<radialGradient id="paint8_radial_4001_7403" cx="0" cy="0" r="1" gradientUnits="userSpaceOnUse" gradientTransform="translate(16.7601 12.4299) scale(39.07 39.07)">
<stop stop-color="#CCF0EF"/>
<stop offset="1" stop-color="#5E73E6"/>
</radialGradient>
<linearGradient id="paint9_linear_4001_7403" x1="26.3202" y1="13.05" x2="28.4302" y2="27.21" gradientUnits="userSpaceOnUse">
<stop stop-color="white"/>
<stop offset="1"/>
</linearGradient>
<radialGradient id="paint10_radial_4001_7403" cx="0" cy="0" r="1" gradientUnits="userSpaceOnUse" gradientTransform="translate(18.7101 6.82987) scale(11.59)">
<stop stop-color="white"/>
<stop offset="1"/>
</radialGradient>
<radialGradient id="paint11_radial_4001_7403" cx="0" cy="0" r="1" gradientUnits="userSpaceOnUse" gradientTransform="translate(22.4001 8.36994) scale(6.23 6.23)">
<stop stop-color="white"/>
<stop offset="1"/>
</radialGradient>
<radialGradient id="paint12_radial_4001_7403" cx="0" cy="0" r="1" gradientUnits="userSpaceOnUse" gradientTransform="translate(19.23 25.13) scale(16.76 16.76)">
<stop offset="0.37"/>
<stop offset="1" stop-color="white"/>
</radialGradient>
<radialGradient id="paint13_radial_4001_7403" cx="0" cy="0" r="1" gradientUnits="userSpaceOnUse" gradientTransform="translate(17.8402 23.2699) scale(17.15 17.15)">
<stop/>
<stop offset="1" stop-color="white"/>
</radialGradient>
<radialGradient id="paint14_radial_4001_7403" cx="0" cy="0" r="1" gradientUnits="userSpaceOnUse" gradientTransform="translate(23.4502 8.89002) scale(4.48)">
<stop stop-color="white"/>
<stop offset="1"/>
</radialGradient>
<radialGradient id="paint15_radial_4001_7403" cx="0" cy="0" r="1" gradientUnits="userSpaceOnUse" gradientTransform="translate(24.1002 3.68997) scale(13.77 13.77)">
<stop stop-color="#CCF0EF"/>
<stop offset="1" stop-color="#364E82"/>
</radialGradient>
<linearGradient id="paint16_linear_4001_7403" x1="8.92011" y1="28.5699" x2="17.8201" y2="33.8899" gradientUnits="userSpaceOnUse">
<stop stop-color="white"/>
<stop offset="1"/>
</linearGradient>
<radialGradient id="paint17_radial_4001_7403" cx="0" cy="0" r="1" gradientUnits="userSpaceOnUse" gradientTransform="translate(26.24 7.53997) scale(5.37 5.37)">
<stop/>
<stop offset="1" stop-color="white"/>
</radialGradient>
<radialGradient id="paint18_radial_4001_7403" cx="0" cy="0" r="1" gradientUnits="userSpaceOnUse" gradientTransform="translate(23.6302 3.53987) scale(16.05)">
<stop stop-color="#F2FFFF"/>
<stop offset="1" stop-color="#6A79C2"/>
</radialGradient>
<radialGradient id="paint19_radial_4001_7403" cx="0" cy="0" r="1" gradientUnits="userSpaceOnUse" gradientTransform="translate(27.3101 1.54004) scale(6.75 6.75)">
<stop stop-color="#CA9E67"/>
<stop offset="1"/>
</radialGradient>
<radialGradient id="paint20_radial_4001_7403" cx="0" cy="0" r="1" gradientUnits="userSpaceOnUse" gradientTransform="translate(27.4701 0.649951) scale(4.93)">
<stop stop-color="#CA9E67"/>
<stop offset="1"/>
</radialGradient>
<linearGradient id="paint21_linear_4001_7403" x1="28.02" y1="5.64988" x2="26.92" y2="4.53989" gradientUnits="userSpaceOnUse">
<stop stop-color="#B07A38"/>
<stop offset="1" stop-color="#704824"/>
</linearGradient>
<linearGradient id="paint22_linear_4001_7403" x1="30.9802" y1="6.57995" x2="30.0402" y2="5.63995" gradientUnits="userSpaceOnUse">
<stop stop-color="#B07A38"/>
<stop offset="1" stop-color="#704824"/>
</linearGradient>
<radialGradient id="paint23_radial_4001_7403" cx="0" cy="0" r="1" gradientUnits="userSpaceOnUse" gradientTransform="translate(27.9602 -1.69001) scale(7.26)">
<stop stop-color="#CA9E67"/>
<stop offset="1"/>
</radialGradient>
<linearGradient id="paint24_linear_4001_7403" x1="28.0501" y1="1.20992" x2="29.8801" y2="1.20992" gradientUnits="userSpaceOnUse">
<stop stop-color="#6B4E35"/>
<stop offset="1" stop-color="#87643A"/>
</linearGradient>
<linearGradient id="paint25_linear_4001_7403" x1="29.4002" y1="3.10005" x2="30.7202" y2="3.10005" gradientUnits="userSpaceOnUse">
<stop stop-color="#6B4E35"/>
<stop offset="1" stop-color="#87643A"/>
</linearGradient>
<linearGradient id="paint26_linear_4001_7403" x1="31.0802" y1="3.81008" x2="32.5602" y2="3.81008" gradientUnits="userSpaceOnUse">
<stop stop-color="#6B4E35"/>
<stop offset="1" stop-color="#87643A"/>
</linearGradient>
<linearGradient id="paint27_linear_4001_7403" x1="28.6301" y1="2.96998" x2="27.4901" y2="1.82998" gradientUnits="userSpaceOnUse">
<stop stop-color="#B07A38"/>
<stop offset="1" stop-color="#704824"/>
</linearGradient>
<radialGradient id="paint28_radial_4001_7403" cx="0" cy="0" r="1" gradientUnits="userSpaceOnUse" gradientTransform="translate(19.2801 24.37) scale(11.88)">
<stop stop-color="#95C11F"/>
<stop offset="1"/>
</radialGradient>
<clipPath id="clip0_4001_7403">
<rect width="36.81" height="37.44" fill="white"/>
</clipPath>
</defs>
</svg>
