<svg width="35" height="25" viewBox="0 0 35 25" fill="none" xmlns="http://www.w3.org/2000/svg">
<g clip-path="url(#clip0_4037_1820)">
<path d="M17.2733 2.49377C17.4062 2.57497 18.4934 3.31345 18.6694 4.80587H18.6654C18.4582 3.85087 17.5548 3.19746 16.5537 3.29798C17.3867 3.21292 17.6369 2.88041 17.2733 2.49377Z" fill="#BA1C1D"/>
<path d="M1.45463 1.00521C0.641224 1.18306 0.508263 1.71276 1.19653 2.26951C0.566923 1.83261 0.109381 1.97567 0.0155259 2.58656C-0.000116525 2.44737 -0.105703 1.18306 1.45463 1.00134V1.00521Z" fill="#FF9191"/>
<path d="M6.04976 4.39226C4.97434 4.50439 4.19613 5.45165 4.30954 6.51877C4.19613 5.45552 3.42574 4.04816 2.58887 3.37927C3.42574 4.05202 4.97825 4.50825 6.04976 4.39613V4.39226Z" fill="#FF6E6E"/>
<path d="M7.25431 18.6243C5.54928 18.8215 4.80236 17.6345 4.70459 17.476C5.21297 18.0637 5.518 17.8472 5.41632 16.8999C5.518 17.8588 6.31185 18.574 7.2504 18.6243H7.25431Z" fill="#A61C1D"/>
<path d="M17.2733 2.49377C17.637 2.88427 17.3867 3.21292 16.5537 3.29798L6.05374 4.39216C4.97832 4.50429 3.42972 4.04805 2.59285 3.3753L1.34145 2.37778L1.33363 2.36618C1.29452 2.33138 1.25151 2.30432 1.2124 2.27339C1.20849 2.27339 1.20458 2.27339 1.20067 2.26179C0.512399 1.70889 0.64536 1.17533 1.45877 0.997481C1.54871 0.974283 1.64648 0.958818 1.75597 0.947219L10.6996 0.0231543C11.775 -0.0889706 13.4057 0.247404 14.3442 0.769365L16.7962 2.14193C16.9996 2.25792 17.1599 2.37391 17.2616 2.48217C17.2616 2.48217 17.2655 2.48217 17.2733 2.49377Z" fill="#FF5050"/>
<path style="mix-blend-mode:screen" d="M17.2733 2.49377C17.637 2.88427 17.3867 3.21292 16.5537 3.29798L6.05374 4.39216C4.97832 4.50429 3.42972 4.04805 2.59285 3.3753L1.34145 2.37778L1.33363 2.36618C1.29452 2.33138 1.25151 2.30432 1.2124 2.27339C1.20849 2.27339 1.20458 2.27339 1.20067 2.26179C0.512399 1.70889 0.64536 1.17533 1.45877 0.997481C1.54871 0.974283 1.64648 0.958818 1.75597 0.947219L10.6996 0.0231543C11.775 -0.0889706 13.4057 0.247404 14.3442 0.769365L16.7962 2.14193C16.9996 2.25792 17.1599 2.37391 17.2616 2.48217C17.2616 2.48217 17.2655 2.48217 17.2733 2.49377Z" fill="url(#paint0_linear_4037_1820)"/>
<g style="mix-blend-mode:screen">
<path d="M17.2733 2.49382L17.2615 2.48222C17.1599 2.37396 17.0034 2.25797 16.7962 2.14198L14.3442 0.769415C13.4018 0.243587 11.771 -0.0889211 10.6995 0.0232039L1.75203 0.951135C1.64254 0.962734 1.54477 0.978199 1.45483 1.0014C0.797844 1.14445 0.594492 1.51949 0.89952 1.94866C5.70958 0.634091 11.1766 0.970466 15.1185 3.44495L16.5537 3.29416C17.3867 3.2091 17.6369 2.87659 17.2733 2.48995V2.49382Z" fill="#302E2E"/>
</g>
<path d="M6.04976 4.39226C5.75255 4.50439 5.42797 4.53145 5.11121 4.51985C4.79445 4.50825 4.4816 4.45026 4.17658 4.3652C3.87546 4.27241 3.57825 4.15255 3.30451 3.99016C3.03468 3.83164 2.77658 3.63059 2.58887 3.37927C3.16373 3.63059 3.71512 3.82777 4.28607 3.99403C4.86093 4.16415 5.42797 4.2956 6.04976 4.39226Z" fill="#FFA8A9"/>
<path style="mix-blend-mode:screen" d="M16.5537 3.29802C16.847 3.26709 17.066 3.20523 17.2107 3.12404C13.3979 1.99506 9.49507 1.14059 5.56881 0.556763L1.75205 0.951133C1.64255 0.962732 1.54479 0.978198 1.45484 1.0014C1.09116 1.08259 0.868251 1.23338 0.790039 1.4267C4.02803 2.05692 7.21909 2.91139 10.3671 3.93984L16.5498 3.29416L16.5537 3.29802Z" fill="url(#paint1_linear_4037_1820)"/>
<path d="M18.7006 5.01853L19.8073 15.3998C19.9207 16.4591 19.1386 17.4141 18.0671 17.5263L7.5671 18.6205C7.46542 18.632 7.36766 18.632 7.26989 18.6243C7.26598 18.6243 7.25816 18.6243 7.25425 18.6243C6.31179 18.5741 5.52185 17.8549 5.42017 16.8999L4.31347 6.51869C4.20006 5.45543 4.97827 4.5043 6.05369 4.39218L16.5537 3.29799C17.5548 3.1936 18.4582 3.85089 18.6654 4.80588C18.685 4.87548 18.6967 4.94507 18.7045 5.01853H18.7006Z" fill="#8A0310"/>
<path style="mix-blend-mode:screen" d="M18.7006 5.01853L19.8073 15.3998C19.9207 16.4591 19.1386 17.4141 18.0671 17.5263L7.5671 18.6205C7.46542 18.632 7.36766 18.632 7.26989 18.6243C7.26598 18.6243 7.25816 18.6243 7.25425 18.6243C6.31179 18.5741 5.52185 17.8549 5.42017 16.8999L4.31347 6.51869C4.20006 5.45543 4.97827 4.5043 6.05369 4.39218L16.5537 3.29799C17.5548 3.1936 18.4582 3.85089 18.6654 4.80588C18.685 4.87548 18.6967 4.94507 18.7045 5.01853H18.7006Z" fill="url(#paint2_linear_4037_1820)"/>
<path d="M4.31346 6.51869C4.18832 5.84594 4.48943 5.10359 5.06429 4.67056C5.34977 4.45404 5.70172 4.31485 6.0615 4.27232L7.08217 4.14086C8.44307 3.96301 9.81178 3.81609 11.1766 3.66917C12.5414 3.52998 13.9101 3.39465 15.2788 3.28639L16.3073 3.2052C16.6436 3.16654 17.0308 3.16267 17.3671 3.28639C18.0475 3.52224 18.5716 4.12926 18.6693 4.80975C18.4855 4.15246 17.9498 3.62664 17.3123 3.46811C16.9917 3.37532 16.6749 3.39079 16.3347 3.44878L15.314 3.58024C13.9531 3.75809 12.5883 3.90501 11.2196 4.05194C9.8548 4.19113 8.48608 4.32645 7.11737 4.43471L6.08888 4.5159C5.76429 4.5391 5.45145 4.64349 5.1777 4.82521C4.6224 5.17319 4.28217 5.84207 4.31737 6.52255L4.31346 6.51869Z" fill="#A81B1C"/>
<path style="mix-blend-mode:screen" d="M19.5296 12.7784C16.3542 9.51901 12.8464 6.5883 8.94748 4.09448L6.05363 4.39606C4.98994 4.50818 4.21955 5.43998 4.3134 6.49164C9.3972 9.57701 13.9531 13.3854 18.2195 17.4992C19.2128 17.3175 19.9168 16.4128 19.8073 15.4036L19.5296 12.7784Z" fill="url(#paint3_linear_4037_1820)"/>
<path style="mix-blend-mode:screen" d="M4.72803 10.4431L4.96657 12.674C6.92188 14.5144 8.81853 16.4089 10.7347 18.2919L12.4358 18.114C9.9878 15.423 7.4811 12.7823 4.73194 10.4431H4.72803Z" fill="url(#paint4_linear_4037_1820)"/>
<path style="mix-blend-mode:multiply" d="M18.7278 5.26221C17.5429 5.45166 16.3619 5.65271 15.1848 5.84216C14.5474 5.94656 13.8943 6.53038 13.7457 7.15287C12.8697 10.7911 12.291 14.4449 11.8921 18.1682L18.067 17.5264C19.1385 17.4142 19.9206 16.4631 19.8072 15.3998L18.7278 5.26221Z" fill="url(#paint5_linear_4037_1820)"/>
<path d="M2.58873 3.37922C3.4256 4.05197 4.19599 5.45547 4.3094 6.51872L5.4161 16.8999C5.51778 17.8472 5.20884 18.0637 4.70437 17.476C4.64571 17.3987 4.58314 17.3214 4.51666 17.2286L2.08035 13.7063C1.47029 12.8248 0.883702 11.255 0.770294 10.1918L0.0116345 3.07764C-0.00791859 2.89592 -0.00400798 2.7374 0.0155451 2.59821C0.0155451 2.59821 0.0155451 2.59821 0.0155451 2.58661C0.1094 1.97573 0.566942 1.83267 1.19655 2.2657C1.20046 2.27344 1.20437 2.27344 1.20828 2.2773C1.2513 2.3121 1.29432 2.3469 1.33733 2.3817L2.58873 3.37922Z" fill="#D80002"/>
<path style="mix-blend-mode:screen" d="M2.58873 3.37922C3.4256 4.05197 4.19599 5.45547 4.3094 6.51872L5.4161 16.8999C5.51778 17.8472 5.20884 18.0637 4.70437 17.476C4.64571 17.3987 4.58314 17.3214 4.51666 17.2286L2.08035 13.7063C1.47029 12.8248 0.883702 11.255 0.770294 10.1918L0.0116345 3.07764C-0.00791859 2.89592 -0.00400798 2.7374 0.0155451 2.59821C0.0155451 2.59821 0.0155451 2.59821 0.0155451 2.58661C0.1094 1.97573 0.566942 1.83267 1.19655 2.2657C1.20046 2.27344 1.20437 2.27344 1.20828 2.2773C1.2513 2.3121 1.29432 2.3469 1.33733 2.3817L2.58873 3.37922Z" fill="url(#paint6_linear_4037_1820)"/>
<path d="M4.31348 6.51876C4.48555 7.37709 4.6146 8.23543 4.73974 9.09763C4.86879 9.95984 4.96655 10.822 5.06041 11.6881C5.14644 12.5542 5.23639 13.4202 5.29113 14.2863L5.37326 15.5893C5.3889 16.0262 5.41236 16.4592 5.41627 16.8961C5.32633 16.4669 5.25985 16.0378 5.18164 15.6086L4.99002 14.3172C4.86097 13.455 4.76711 12.5928 4.66935 11.7268C4.58331 10.8607 4.49337 9.99463 4.43862 9.1247C4.37605 8.25476 4.3213 7.38869 4.30957 6.51489L4.31348 6.51876Z" fill="#FF2628"/>
<path d="M0.0156337 2.58663C0.0156337 2.45904 0.0390974 2.31985 0.109488 2.19612C0.175969 2.0724 0.305019 1.97187 0.457533 1.93708C0.610047 1.89841 0.762561 1.92548 0.895522 1.96801C1.03239 2.01054 1.15753 2.07627 1.27876 2.14586L1.31005 2.16519L1.31787 2.18452L1.28267 2.14973L1.30614 2.16519L1.32178 2.17679L1.35697 2.19999L1.42737 2.25025L1.56424 2.35078L1.83798 2.55183C2.01787 2.68715 2.20558 2.82248 2.38156 2.96553C2.56144 3.10859 2.74133 3.23231 2.92122 3.4063C3.09329 3.57255 3.2458 3.75427 3.38658 3.93986C3.66424 4.31876 3.88714 4.73247 4.05139 5.16163C4.21172 5.59467 4.31731 6.05477 4.30949 6.511C4.19999 6.07023 4.0201 5.6604 3.80893 5.26989C3.60167 4.87939 3.35921 4.50435 3.08547 4.16411C2.81563 3.8084 2.50278 3.54549 2.1391 3.25551C1.96312 3.11245 1.79105 2.96553 1.61507 2.81861L1.35697 2.59823L1.22792 2.4861L1.16535 2.42811L1.13407 2.40104L1.11843 2.38558C1.11843 2.38558 1.11843 2.38558 1.12234 2.38558C1.11843 2.38558 1.08323 2.35464 1.0715 2.33918L1.1067 2.37784C0.915075 2.23479 0.696081 2.0956 0.473176 2.10333C0.363678 2.10333 0.254181 2.15359 0.175969 2.24639C0.0977566 2.33918 0.043008 2.45517 0.0078125 2.58276L0.0156337 2.58663Z" fill="#F53B3C"/>
<path style="mix-blend-mode:screen" d="M4.95078 12.5155L4.83346 11.4097C3.94184 12.2255 3.0776 13.0645 2.23682 13.9305L2.7452 14.669C3.46475 13.9383 4.19994 13.2191 4.95078 12.5193V12.5155Z" fill="url(#paint7_linear_4037_1820)"/>
<path style="mix-blend-mode:screen" d="M1.45085 12.5387C2.44806 11.3324 3.48829 10.1609 4.57935 9.04347L4.30951 6.52259C4.20784 5.55986 3.5665 4.32649 2.82348 3.59961C1.92013 4.65513 1.11063 5.78025 0.422363 6.95949L0.766497 10.1957C0.836888 10.8723 1.10672 11.7577 1.44694 12.5425L1.45085 12.5387Z" fill="url(#paint8_linear_4037_1820)"/>
<path d="M7.60621 6.5419C7.66487 7.0716 7.2738 7.54716 6.73805 7.60516C6.20229 7.65929 5.72129 7.27652 5.66263 6.74682C5.60788 6.21713 5.99503 5.74156 6.53079 5.68357C7.06654 5.62944 7.54755 6.01221 7.60621 6.5419Z" fill="#AB6A6A"/>
<path d="M2.9564 9.16716C3.05417 10.1918 2.60836 10.2497 2.3307 9.86311C2.18601 9.66206 2.08042 9.33342 2.04132 9.05117C2.00221 8.76506 2.02567 8.42868 2.12735 8.23536C2.33461 7.85259 2.84299 8.04978 2.95249 9.1633L2.9564 9.16716Z" fill="#E8B3B3"/>
<path d="M13.21 10.6751C13.2647 11.2048 12.8776 11.6804 12.3418 11.7384C11.8061 11.7964 11.325 11.4097 11.2664 10.88C11.2116 10.3504 11.5988 9.87479 12.1345 9.8168C12.6703 9.7588 13.1513 10.1454 13.21 10.6751Z" fill="#AB6A6A"/>
<path d="M18.2585 15.0712C18.3133 15.6009 17.9261 16.0765 17.3904 16.1345C16.8546 16.1886 16.3736 15.8058 16.315 15.2761C16.2602 14.7464 16.6474 14.2709 17.1831 14.2129C17.7189 14.1587 18.1999 14.5415 18.2585 15.0712Z" fill="#AB6A6A"/>
<path d="M6.29601 3.04666C6.29992 3.30184 5.84629 3.51449 5.27925 3.52222C4.71221 3.52996 4.25076 3.33277 4.24685 3.07759C4.24294 2.82241 4.69657 2.60976 5.26361 2.60203C5.83065 2.59429 6.2921 2.79148 6.29601 3.04666Z" fill="white"/>
<path d="M15.662 2.26956C15.6659 2.52474 15.2123 2.73739 14.6413 2.74512C14.0743 2.75286 13.6128 2.55567 13.6089 2.30049C13.605 2.04531 14.0586 1.83266 14.6257 1.82493C15.1927 1.81719 15.6542 2.01438 15.6581 2.26956H15.662Z" fill="white"/>
<path d="M12.3927 0.688259C12.3927 0.850647 12.029 0.989836 11.5754 0.997569C11.1218 1.0053 10.7542 0.877711 10.7502 0.715324C10.7502 0.552936 11.1139 0.413746 11.5676 0.40988C12.0212 0.402147 12.3888 0.529737 12.3927 0.692125V0.688259Z" fill="white"/>
<path d="M3.1676 1.62002C3.1676 1.78241 2.80392 1.9216 2.35029 1.92933C1.89665 1.93706 1.52906 1.80947 1.52515 1.64709C1.52515 1.4847 1.88883 1.34551 2.34246 1.34164C2.7961 1.33391 3.16369 1.4615 3.1676 1.62389V1.62002Z" fill="white"/>
<path d="M26.0367 23.4805C25.9897 24.4471 26.592 24.8762 27.4093 24.5051C26.3221 25.1043 25.5635 25.1894 24.2534 24.5863C25.1881 25 25.9858 24.5089 26.0367 23.4805Z" fill="#A61C1D"/>
<path d="M33.7564 7.62838C35.0547 8.1658 35.0156 8.99708 34.9804 9.72395C35.0273 8.6955 34.2648 8.08848 33.2832 8.36299C34.0614 8.14261 34.2218 7.84876 33.7564 7.62451V7.62838Z" fill="#BA1C1D"/>
<path d="M16.6083 7.42343C15.6815 7.17211 14.8798 7.69021 14.7507 8.60654H14.739C14.7507 7.14505 15.6306 6.64629 16.6513 6.65402C15.6424 6.80481 15.6189 7.15278 16.6083 7.42343Z" fill="#FF9191"/>
<path d="M28.4495 9.7124C27.4641 9.98692 26.6233 11.0463 26.5764 12.0709C26.6233 11.0424 25.8646 9.99078 24.8752 9.71627C25.8646 9.99078 27.4641 9.98692 28.4495 9.7124Z" fill="#FF9696"/>
<path d="M27.4094 24.5051C26.592 24.8763 25.9898 24.4471 26.0367 23.4805L26.5764 12.0708C26.6233 11.0424 27.4641 9.98684 28.4496 9.71233L33.2831 8.36296C34.2686 8.08845 35.0272 8.69547 34.9803 9.72393L34.558 18.6553C34.511 19.6837 33.7446 20.9248 32.8529 21.4313L27.5658 24.4278C27.515 24.4548 27.4602 24.4858 27.4094 24.5051Z" fill="#8A0310"/>
<path style="mix-blend-mode:screen" d="M27.4094 24.5051C26.592 24.8763 25.9898 24.4471 26.0367 23.4805L26.5764 12.0708C26.6233 11.0424 27.4641 9.98684 28.4496 9.71233L33.2831 8.36296C34.2686 8.08845 35.0272 8.69547 34.9803 9.72393L34.558 18.6553C34.511 19.6837 33.7446 20.9248 32.8529 21.4313L27.5658 24.4278C27.515 24.4548 27.4602 24.4858 27.4094 24.5051Z" fill="url(#paint9_linear_4037_1820)"/>
<path style="mix-blend-mode:screen" d="M28.4457 9.71619C27.4642 9.99457 26.6273 11.0501 26.5804 12.0747L26.5295 13.1263C29.3921 14.6304 32.0513 16.4862 34.5619 18.5663L34.7888 13.8107C32.7279 12.3685 30.5927 11.0308 28.4457 9.71619Z" fill="url(#paint10_linear_4037_1820)"/>
<path style="mix-blend-mode:screen" d="M26.1501 21.1492C27.2099 21.8838 28.2462 22.6648 29.2278 23.4883L32.3055 21.7446C30.3541 20.2792 28.3596 18.8757 26.3222 17.5728L26.1541 21.1492H26.1501Z" fill="url(#paint11_linear_4037_1820)"/>
<path d="M33.7562 7.62833C34.2177 7.85258 34.0613 8.14642 33.2831 8.3668L28.4495 9.71617C27.4641 9.99068 25.8646 9.99455 24.8752 9.72004L16.6043 7.42727C15.6149 7.15663 15.6384 6.80865 16.6473 6.65787L22.4507 5.7802C23.4635 5.62941 25.0942 5.68354 26.0954 5.90392L33.2557 7.47367C33.3378 7.493 33.4121 7.51234 33.4747 7.53167C33.5255 7.551 33.5724 7.5626 33.6155 7.58193C33.6585 7.60126 33.7093 7.61673 33.7484 7.63606L33.7562 7.62833Z" fill="#FF5050"/>
<path style="mix-blend-mode:screen" d="M33.7562 7.62833C34.2177 7.85258 34.0613 8.14642 33.2831 8.3668L28.4495 9.71617C27.4641 9.99068 25.8646 9.99455 24.8752 9.72004L16.6043 7.42727C15.6149 7.15663 15.6384 6.80865 16.6473 6.65787L22.4507 5.7802C23.4635 5.62941 25.0942 5.68354 26.0954 5.90392L33.2557 7.47367C33.3378 7.493 33.4121 7.51234 33.4747 7.53167C33.5255 7.551 33.5724 7.5626 33.6155 7.58193C33.6585 7.60126 33.7093 7.61673 33.7484 7.63606L33.7562 7.62833Z" fill="url(#paint12_linear_4037_1820)"/>
<g style="mix-blend-mode:screen">
<path d="M33.7562 7.62837C33.7132 7.60904 33.6663 7.59357 33.6233 7.57424C33.5803 7.55491 33.5294 7.54331 33.4825 7.52398C33.416 7.50464 33.3417 7.48531 33.2635 7.46598L26.1032 5.89623C25.102 5.67585 23.4752 5.62172 22.4585 5.77251L16.6551 6.65018C15.6462 6.80096 15.6227 7.14894 16.6121 7.41958L17.2456 7.59357C21.911 6.61151 27.2803 6.87829 31.2026 8.94294L33.2909 8.35911C34.0691 8.13873 34.2294 7.84489 33.7641 7.62064L33.7562 7.62837Z" fill="#302E2E"/>
</g>
<path style="mix-blend-mode:screen" d="M33.7563 7.62835C33.7133 7.60902 33.6664 7.59355 33.6234 7.57422C33.5803 7.55489 33.5295 7.54329 33.4826 7.52396C33.4161 7.50462 33.3418 7.48529 33.2636 7.46596L28.7312 6.4723C24.4725 6.38724 20.2295 6.57669 16.0686 7.21078C16.1898 7.28037 16.3697 7.35384 16.6122 7.41956L21.0937 8.66454C25.1686 8.33976 29.306 8.13484 33.4004 8.3243C34.0731 8.10778 34.1982 7.83327 33.7602 7.62448L33.7563 7.62835Z" fill="url(#paint13_linear_4037_1820)"/>
<path d="M26.5764 12.0747L26.0368 23.4844C25.9899 24.5128 25.1921 25.0039 24.2535 24.5902L15.8848 20.8823C14.9502 20.4686 14.2306 19.3009 14.2776 18.2725L14.7273 8.79213C14.7273 8.73027 14.7351 8.66841 14.7468 8.61041C14.8759 7.69408 15.6776 7.17599 16.6044 7.4273L24.8753 9.72006C25.8647 9.99458 26.6234 11.0462 26.5764 12.0747Z" fill="#D80002"/>
<path style="mix-blend-mode:screen" d="M26.5764 12.0747L26.0368 23.4844C25.9899 24.5128 25.1921 25.0039 24.2535 24.5902L15.8848 20.8823C14.9502 20.4686 14.2306 19.3009 14.2776 18.2725L14.7273 8.79213C14.7273 8.73027 14.7351 8.66841 14.7468 8.61041C14.8759 7.69408 15.6776 7.17599 16.6044 7.4273L24.8753 9.72006C25.8647 9.99458 26.6234 11.0462 26.5764 12.0747Z" fill="url(#paint14_linear_4037_1820)"/>
<path style="mix-blend-mode:screen" d="M26.1463 21.2303L26.3536 16.8535C24.3279 18.8176 22.3374 20.8282 20.3782 22.8696L23.2173 24.1262C24.1871 23.1557 25.1609 22.1891 26.1463 21.2303Z" fill="url(#paint15_linear_4037_1820)"/>
<path style="mix-blend-mode:screen" d="M15.8887 20.8784L17.3435 21.5241C20.1513 17.9941 23.2642 14.6458 26.51 11.4831C26.3144 10.6712 25.6731 9.94043 24.8753 9.71618L20.863 8.60266C18.6614 10.7253 16.5144 12.9137 14.4262 15.16L14.2776 18.2647C14.2306 19.2932 14.9502 20.4608 15.8848 20.8745L15.8887 20.8784Z" fill="url(#paint16_linear_4037_1820)"/>
<path d="M24.8441 12.1482C24.8129 12.7823 24.4179 13.2772 23.9564 13.2579C23.495 13.2385 23.1469 12.705 23.1782 12.0709C23.2095 11.4368 23.6045 10.9419 24.0659 10.9612C24.5274 10.9806 24.8754 11.5141 24.8441 12.1482Z" fill="#E8B3B3"/>
<path d="M24.0659 10.9612C23.6045 10.938 23.2056 11.4368 23.1782 12.0709C23.1587 12.4652 23.2877 12.8248 23.5028 13.0375C23.4637 12.2294 23.9173 11.4677 24.5587 11.2203C24.4257 11.0656 24.2575 10.969 24.0698 10.9612H24.0659Z" fill="#E8B3B3"/>
<path style="mix-blend-mode:screen" d="M23.4988 13.0413C23.6278 13.1728 23.7842 13.2501 23.9563 13.2578C24.4177 13.281 24.8127 12.7823 24.844 12.1482C24.8636 11.777 24.7462 11.4406 24.5546 11.2241C23.9133 11.4716 23.4636 12.2332 23.4988 13.0413Z" fill="url(#paint17_linear_4037_1820)"/>
<path d="M30.757 8.28563C30.1743 8.25856 29.7129 8.05365 29.7246 7.82553C29.7363 7.59741 30.2173 7.43889 30.7961 7.46209C31.3788 7.48915 31.8402 7.69407 31.8324 7.92219C31.8207 8.15031 31.3397 8.30883 30.757 8.28176V8.28563Z" fill="white"/>
<path d="M18.9469 7.52014C18.4072 7.49694 17.977 7.30362 17.9888 7.09483C18.0005 6.88605 18.4463 6.73526 18.9821 6.75846C19.5217 6.78552 19.9519 6.97498 19.9402 7.18376C19.9284 7.39254 19.4865 7.54333 18.9469 7.52014Z" fill="white"/>
<path d="M24.6093 17.0778C24.578 17.7119 24.183 18.2068 23.7216 18.1874C23.2601 18.1642 22.9121 17.6345 22.9434 17.0005C22.9746 16.3664 23.3696 15.8715 23.8311 15.8908C24.2925 15.914 24.6406 16.4437 24.6093 17.0778Z" fill="#E8B3B3"/>
<path style="mix-blend-mode:screen" d="M23.1233 17.7737C23.2641 18.0135 23.4752 18.1758 23.7255 18.1874C24.187 18.2106 24.5819 17.7119 24.6132 17.0778C24.6289 16.7143 24.5194 16.3857 24.3356 16.1692C23.7998 16.3896 23.2875 16.9927 23.1233 17.7737Z" fill="url(#paint18_linear_4037_1820)"/>
<path d="M23.8313 15.8908C23.3698 15.8676 22.9748 16.3664 22.9436 17.0004C22.9279 17.2943 22.9983 17.5649 23.1235 17.7737C23.2877 16.9927 23.8039 16.3896 24.3357 16.1692C24.2028 16.0068 24.0268 15.9024 23.8313 15.8947V15.8908Z" fill="#E8B3B3"/>
<path d="M24.3905 21.76C24.3592 22.3941 23.9643 22.889 23.5028 22.8697C23.0414 22.8465 22.6933 22.3168 22.7246 21.6827C22.7559 21.0486 23.1509 20.5537 23.6123 20.5731C24.0738 20.5963 24.4218 21.1259 24.3905 21.76Z" fill="#E8B3B3"/>
<path style="mix-blend-mode:screen" d="M22.873 22.4017C23.0138 22.6724 23.2367 22.8541 23.5027 22.8657C23.9641 22.8889 24.3591 22.3901 24.3904 21.7561C24.4021 21.4815 24.3434 21.2302 24.2339 21.0292C24.1284 21.0524 24.0189 21.0794 23.9015 21.1142C23.6317 21.1142 22.9825 21.6749 22.873 22.4017Z" fill="url(#paint19_linear_4037_1820)"/>
<path d="M23.6082 20.573C23.1467 20.5498 22.7518 21.0486 22.7205 21.6827C22.7087 21.9533 22.7674 22.2008 22.873 22.4057C22.9825 21.675 23.6277 21.1182 23.9015 21.1182C24.0188 21.0834 24.1283 21.0563 24.2339 21.0331C24.0931 20.7664 23.8702 20.5885 23.6121 20.5769L23.6082 20.573Z" fill="#E8B3B3"/>
<g style="mix-blend-mode:screen">
<path d="M28.6101 22.2433C28.3637 22.8271 27.824 23.1596 27.3978 22.9779C26.9715 22.8 26.8268 22.1814 27.0732 21.5937C27.3196 21.0099 27.8592 20.6812 28.2855 20.8591C28.7118 21.0369 28.8564 21.6556 28.6101 22.2433Z" fill="#635E5E"/>
</g>
<path style="mix-blend-mode:screen" d="M27.8669 20.8359C27.5502 20.9133 27.2412 21.1916 27.0692 21.5937C26.8228 22.1776 26.9714 22.7962 27.3938 22.9779C27.4954 23.0204 27.6088 23.032 27.7183 23.0204C28.2893 22.7189 28.6491 21.2651 27.863 20.8359H27.8669Z" fill="url(#paint20_linear_4037_1820)"/>
<g style="mix-blend-mode:screen">
<path d="M34.0536 10.2768C33.8581 10.7408 33.4318 10.9998 33.0955 10.8606C32.7592 10.7176 32.6419 10.2304 32.8374 9.76643C33.0329 9.30247 33.4592 9.04342 33.7994 9.18261C34.1357 9.32567 34.2531 9.81283 34.0575 10.2768H34.0536Z" fill="#635E5E"/>
</g>
<path style="mix-blend-mode:screen" d="M33.596 9.14783C33.3027 9.14783 32.9898 9.38754 32.8334 9.76645C32.6418 10.2265 32.7552 10.706 33.0798 10.8568C33.4396 10.7756 34.1435 9.91724 33.596 9.15169V9.14783Z" fill="url(#paint21_linear_4037_1820)"/>
<g style="mix-blend-mode:screen">
<path d="M31.762 15.8561C31.5626 16.3355 31.1168 16.6061 30.7687 16.4592C30.4207 16.3123 30.2995 15.8058 30.4989 15.3264C30.6983 14.8469 31.1442 14.5763 31.4922 14.7232C31.8402 14.8701 31.9615 15.3766 31.7581 15.8561H31.762Z" fill="#635E5E"/>
</g>
<path style="mix-blend-mode:screen" d="M31.1714 14.7C30.9055 14.7579 30.6396 14.9861 30.4988 15.3263C30.2993 15.8057 30.4166 16.3122 30.7686 16.4592C31.6602 16.0493 31.6094 14.7889 31.1714 14.7Z" fill="url(#paint22_linear_4037_1820)"/>
<path d="M17.2731 9.77418C17.2457 10.3541 16.8821 10.8104 16.4597 10.791C16.0374 10.7717 15.7167 10.2845 15.7441 9.70458C15.7714 9.12463 16.1351 8.66839 16.5575 8.68773C16.9798 8.70706 17.3005 9.19422 17.2731 9.77418Z" fill="#E8B3B3"/>
<path style="mix-blend-mode:screen" d="M16.2133 10.7176C16.2876 10.7562 16.3698 10.7872 16.4597 10.791C16.8821 10.8103 17.2457 10.3541 17.2731 9.77416C17.2927 9.39139 17.1558 9.05501 16.9446 8.86169C16.272 9.2058 15.8066 9.99068 16.2133 10.7176Z" fill="url(#paint23_linear_4037_1820)"/>
<path d="M15.7441 9.70458C15.7206 10.1647 15.92 10.5629 16.2133 10.7176C15.8066 9.9907 16.272 9.20582 16.9446 8.86171C16.8351 8.76119 16.7022 8.69546 16.5575 8.68773C16.1351 8.66839 15.7714 9.12463 15.7441 9.70458Z" fill="#E8B3B3"/>
<path d="M17.058 14.294C17.0306 14.8739 16.667 15.3301 16.2446 15.3108C15.8223 15.2915 15.5016 14.8043 15.529 14.2244C15.5563 13.6444 15.92 13.1882 16.3424 13.2075C16.7647 13.2268 17.0854 13.714 17.058 14.294Z" fill="#E8B3B3"/>
<path style="mix-blend-mode:screen" d="M16.0687 15.2723C16.1234 15.2955 16.1821 15.3109 16.2447 15.3109C16.667 15.3302 17.0307 14.874 17.0581 14.2941C17.0776 13.9074 16.9368 13.5633 16.7179 13.37C16.1508 13.6948 15.8536 14.4642 16.0687 15.2684V15.2723Z" fill="url(#paint24_linear_4037_1820)"/>
<path d="M15.5291 14.2244C15.5056 14.7193 15.7363 15.1446 16.0648 15.2722C15.8497 14.4641 16.1508 13.6986 16.714 13.3738C16.6045 13.2771 16.4793 13.2153 16.3386 13.2114C15.9162 13.1921 15.5525 13.6483 15.5251 14.2283L15.5291 14.2244Z" fill="#E8B3B3"/>
<path d="M16.8547 18.5857C16.8273 19.1657 16.4636 19.6219 16.0412 19.6026C15.6189 19.5832 15.2982 19.0961 15.3256 18.5161C15.353 17.9362 15.7167 17.4799 16.139 17.4992C16.5614 17.5186 16.882 18.0057 16.8547 18.5857Z" fill="#E8B3B3"/>
<path style="mix-blend-mode:screen" d="M15.6423 19.4209C15.7557 19.5291 15.8886 19.5949 16.0411 19.6026C16.4635 19.6219 16.8272 19.1657 16.8545 18.5857C16.8702 18.2687 16.7802 17.9864 16.6277 17.7854C15.8769 17.5727 15.5249 18.6824 15.6423 19.4209Z" fill="url(#paint25_linear_4037_1820)"/>
<path d="M28.4495 9.7124C28.1836 9.86706 27.8786 9.95985 27.5814 10.0217C27.2803 10.0836 26.9713 10.1106 26.6663 10.1145C26.3574 10.1145 26.0523 10.0874 25.7512 10.0256C25.4501 9.96372 25.149 9.87479 24.8792 9.71627C25.497 9.72013 26.0758 9.72787 26.6663 9.72787H27.5501L28.4535 9.7124H28.4495Z" fill="#FFA8A9"/>
<path d="M14.7507 8.60657C14.7703 8.31272 14.872 8.01501 15.0675 7.77916C15.2591 7.53945 15.5407 7.36546 15.8496 7.292C16.1586 7.21854 16.4949 7.26107 16.7803 7.34226L17.6446 7.55491C18.7982 7.83716 19.944 8.15033 21.0898 8.46351C22.2317 8.78442 23.3736 9.1092 24.5116 9.45717C24.7854 9.5461 25.0943 9.61569 25.3681 9.78195C25.6379 9.94047 25.8725 10.1493 26.0641 10.3851C26.4317 10.8684 26.6507 11.4793 26.5803 12.067C26.5608 11.4793 26.3105 10.9187 25.9195 10.505C25.7278 10.2962 25.501 10.1183 25.2507 9.99073C25.0044 9.85927 24.7228 9.81288 24.4295 9.73942C23.2759 9.45717 22.1301 9.14399 20.9843 8.83082C19.8424 8.50991 18.7005 8.18513 17.5625 7.83329L16.71 7.57038C16.4323 7.47372 16.1625 7.42732 15.8809 7.46985C15.6072 7.50465 15.3412 7.63224 15.1418 7.83716C14.9424 8.04208 14.8094 8.31272 14.7468 8.59883L14.7507 8.60657Z" fill="#F53B3C"/>
<path d="M26.5764 12.0747C26.553 11.1661 27.1004 10.2729 27.9139 9.77805C28.1133 9.65433 28.3636 9.56153 28.5708 9.5074L29.22 9.31408L30.5222 8.93905C31.3943 8.69933 32.2664 8.46348 33.1463 8.2547C33.5921 8.12324 34.1552 8.14257 34.5423 8.46348C34.9256 8.78439 35.0468 9.29475 34.9764 9.73165C34.9569 9.28702 34.7887 8.83852 34.425 8.61427C34.077 8.37842 33.6312 8.39002 33.2284 8.54081C32.368 8.81919 31.4999 9.06664 30.6278 9.31408L29.3178 9.66979L28.6608 9.83991C28.434 9.89404 28.2502 9.94817 28.0546 10.0448C27.6753 10.2343 27.3429 10.532 27.0848 10.88C26.8189 11.2241 26.6351 11.6378 26.5686 12.0824L26.5764 12.0747Z" fill="#A81B1C"/>
<path d="M26.5766 12.0747C26.6118 13.0297 26.6039 13.9808 26.5922 14.9319C26.5844 15.883 26.5414 16.8342 26.5023 17.7853C26.4514 18.7364 26.4045 19.6876 26.3224 20.6348L26.2011 22.0577C26.1464 22.5332 26.1034 23.0049 26.0369 23.4805C26.0134 23.0049 26.0173 22.5255 26.0095 22.0499L26.0213 20.6194C26.0291 19.6682 26.0721 18.7171 26.1112 17.766C26.162 16.8148 26.2129 15.8637 26.2911 14.9165C26.3693 13.9653 26.4514 13.0181 26.5766 12.0708V12.0747Z" fill="#FF2628"/>
</g>
<defs>
<linearGradient id="paint0_linear_4037_1820" x1="1.52525" y1="6.42588" x2="14.0351" y2="-0.78753" gradientUnits="userSpaceOnUse">
<stop stop-color="#AD9E80"/>
<stop offset="1"/>
</linearGradient>
<linearGradient id="paint1_linear_4037_1820" x1="-4.76694" y1="-1.84812" x2="10.2599" y2="2.75492" gradientUnits="userSpaceOnUse">
<stop stop-color="#AD9E80"/>
<stop offset="1"/>
</linearGradient>
<linearGradient id="paint2_linear_4037_1820" x1="19.1269" y1="18.7094" x2="6.76977" y2="4.84777" gradientUnits="userSpaceOnUse">
<stop stop-color="#9E8A62"/>
<stop offset="1"/>
</linearGradient>
<linearGradient id="paint3_linear_4037_1820" x1="26.5726" y1="23.8285" x2="9.2989" y2="6.68566" gradientUnits="userSpaceOnUse">
<stop stop-color="#2B261B"/>
<stop offset="1"/>
</linearGradient>
<linearGradient id="paint4_linear_4037_1820" x1="22.5252" y1="30.5599" x2="6.11355" y2="12.1403" gradientUnits="userSpaceOnUse">
<stop stop-color="#2B261B"/>
<stop offset="1"/>
</linearGradient>
<linearGradient id="paint5_linear_4037_1820" x1="6.82784" y1="25.2707" x2="19.1896" y2="7.90103" gradientUnits="userSpaceOnUse">
<stop stop-color="#FFDF9E"/>
<stop offset="1" stop-color="#A1A1A1"/>
</linearGradient>
<linearGradient id="paint6_linear_4037_1820" x1="1.69711" y1="14.4139" x2="2.81459" y2="9.5096" gradientUnits="userSpaceOnUse">
<stop stop-color="#594418"/>
<stop offset="1"/>
</linearGradient>
<linearGradient id="paint7_linear_4037_1820" x1="-5.56486" y1="23.4844" x2="5.78934" y2="10.4696" gradientUnits="userSpaceOnUse">
<stop stop-color="#9E8A62"/>
<stop offset="1"/>
</linearGradient>
<linearGradient id="paint8_linear_4037_1820" x1="-8.3335" y1="19.9621" x2="5.94909" y2="3.39996" gradientUnits="userSpaceOnUse">
<stop stop-color="#9E8A62"/>
<stop offset="1"/>
</linearGradient>
<linearGradient id="paint9_linear_4037_1820" x1="34.2256" y1="25.7501" x2="29.3364" y2="13.4358" gradientUnits="userSpaceOnUse">
<stop stop-color="#9E8A62"/>
<stop offset="1"/>
</linearGradient>
<linearGradient id="paint10_linear_4037_1820" x1="37.9759" y1="19.5407" x2="30.2788" y2="13.0014" gradientUnits="userSpaceOnUse">
<stop stop-color="#1F1B13"/>
<stop offset="1"/>
</linearGradient>
<linearGradient id="paint11_linear_4037_1820" x1="33.4513" y1="24.4974" x2="28.2129" y2="20.6983" gradientUnits="userSpaceOnUse">
<stop stop-color="#1F1B13"/>
<stop offset="1"/>
</linearGradient>
<linearGradient id="paint12_linear_4037_1820" x1="25.7121" y1="12.0437" x2="24.6603" y2="5.56372" gradientUnits="userSpaceOnUse">
<stop stop-color="#AD9E80"/>
<stop offset="1"/>
</linearGradient>
<linearGradient id="paint13_linear_4037_1820" x1="15.9747" y1="9.57314" x2="27.0781" y2="7.23775" gradientUnits="userSpaceOnUse">
<stop stop-color="#AD9E80"/>
<stop offset="1"/>
</linearGradient>
<linearGradient id="paint14_linear_4037_1820" x1="18.2664" y1="23.4302" x2="20.4452" y2="15.7539" gradientUnits="userSpaceOnUse">
<stop stop-color="#594418"/>
<stop offset="1"/>
</linearGradient>
<linearGradient id="paint15_linear_4037_1820" x1="18.7435" y1="25.085" x2="25.4631" y2="19.8534" gradientUnits="userSpaceOnUse">
<stop stop-color="#9E8A62"/>
<stop offset="1"/>
</linearGradient>
<linearGradient id="paint16_linear_4037_1820" x1="9.78818" y1="20.7276" x2="25.589" y2="10.9013" gradientUnits="userSpaceOnUse">
<stop stop-color="#9E8A62"/>
<stop offset="1"/>
</linearGradient>
<linearGradient id="paint17_linear_4037_1820" x1="24.1205" y1="13.3661" x2="24.2811" y2="10.5976" gradientUnits="userSpaceOnUse">
<stop stop-color="white"/>
<stop offset="1"/>
</linearGradient>
<linearGradient id="paint18_linear_4037_1820" x1="23.9719" y1="18.9646" x2="23.7502" y2="15.4845" gradientUnits="userSpaceOnUse">
<stop stop-color="white"/>
<stop offset="1"/>
</linearGradient>
<linearGradient id="paint19_linear_4037_1820" x1="23.4088" y1="23.3993" x2="24.235" y2="18.5322" gradientUnits="userSpaceOnUse">
<stop stop-color="white"/>
<stop offset="1"/>
</linearGradient>
<linearGradient id="paint20_linear_4037_1820" x1="26.6507" y1="24.6211" x2="27.9271" y2="21.1319" gradientUnits="userSpaceOnUse">
<stop stop-color="white"/>
<stop offset="1"/>
</linearGradient>
<linearGradient id="paint21_linear_4037_1820" x1="31.9887" y1="12.9253" x2="33.7802" y2="8.71931" gradientUnits="userSpaceOnUse">
<stop stop-color="white"/>
<stop offset="1"/>
</linearGradient>
<linearGradient id="paint22_linear_4037_1820" x1="29.7518" y1="18.0676" x2="31.479" y2="14.3446" gradientUnits="userSpaceOnUse">
<stop stop-color="white"/>
<stop offset="1"/>
</linearGradient>
<linearGradient id="paint23_linear_4037_1820" x1="16.667" y1="11.0307" x2="16.667" y2="8.06522" gradientUnits="userSpaceOnUse">
<stop stop-color="white"/>
<stop offset="1"/>
</linearGradient>
<linearGradient id="paint24_linear_4037_1820" x1="16.538" y1="15.4114" x2="16.5074" y2="12.5117" gradientUnits="userSpaceOnUse">
<stop stop-color="white"/>
<stop offset="1"/>
</linearGradient>
<linearGradient id="paint25_linear_4037_1820" x1="15.9707" y1="20.0279" x2="16.5141" y2="17.4465" gradientUnits="userSpaceOnUse">
<stop stop-color="white"/>
<stop offset="1"/>
</linearGradient>
<clipPath id="clip0_4037_1820">
<rect width="35" height="25" fill="white"/>
</clipPath>
</defs>
</svg>
