<svg width="9" height="10" viewBox="0 0 9 10" fill="none" xmlns="http://www.w3.org/2000/svg">
<g clip-path="url(#clip0_4316_5638)">
<path d="M8.96378 5.57814C8.69181 8.10833 6.97706 9.94316 5.10801 9.94316C5.00771 9.94316 4.90741 9.93926 4.81097 9.92758C4.70488 9.91784 4.60265 9.90031 4.50043 9.87888C2.90527 9.54581 1.56665 7.84148 1.39691 5.57814C1.20788 3.03626 2.52529 0.669688 4.50043 0.149625C4.74925 0.0834002 5.00771 0.0483398 5.27196 0.0483398C7.53064 0.0483398 9.13159 2.46751 8.99464 5.20222C8.99464 5.20222 8.99464 5.20222 8.99464 5.20806C8.99078 5.33077 8.97921 5.45543 8.96571 5.57814H8.96378Z" fill="url(#paint0_linear_4316_5638)"/>
<path d="M3.89262 9.94338C3.89262 9.94338 5.13287 10.1167 5.8234 9.85573L6.16673 0.221917C6.16673 0.221917 5.74625 -0.128687 3.58594 0.0505105L3.89262 9.94338Z" fill="url(#paint1_linear_4316_5638)"/>
<path d="M7.60376 5.57814C7.43402 7.84343 6.0954 9.54581 4.50024 9.87888C4.3035 9.92173 4.09904 9.94316 3.89265 9.94316C2.63119 9.94316 1.46809 9.12898 0.752492 7.85317C0.73899 7.8298 0.725488 7.80837 0.715844 7.79084C0.690769 7.74604 0.677267 7.71877 0.677267 7.71877C0.35322 7.10132 0.125617 6.37869 0.0388184 5.57814C-0.271726 2.69735 1.36201 0.0483398 3.7287 0.0483398C3.99103 0.0483398 4.24949 0.0834002 4.50024 0.149625C6.47538 0.669688 7.79471 3.03626 7.60376 5.57814Z" fill="url(#paint2_linear_4316_5638)"/>
<path d="M5.97562 5.57816C5.91776 7.18314 4.93212 8.40441 3.74395 8.48038C3.70344 8.48427 3.66101 8.48622 3.61857 8.48622C2.37254 8.48622 1.26345 7.23768 1.1265 5.57816C0.97991 3.77644 2.02535 2.19678 3.47391 2.19678C3.52213 2.19678 3.57228 2.19678 3.6205 2.20457C4.99963 2.3078 6.03735 3.84072 5.97562 5.5801V5.57816Z" fill="url(#paint3_linear_4316_5638)"/>
<path d="M5.97561 5.57817C5.91775 7.18316 4.93211 8.40443 3.74394 8.48039C2.55384 8.40443 1.51805 7.18316 1.39653 5.57817C1.26537 3.83879 2.24522 2.30587 3.62049 2.20264C4.99962 2.30587 6.03734 3.83879 5.97561 5.57817Z" fill="url(#paint4_linear_4316_5638)"/>
<g style="mix-blend-mode:multiply" opacity="0.5">
<path d="M1.31006 4.02206C1.31006 4.02206 1.46244 4.25969 1.55116 4.14088C1.63989 4.02011 2.05845 2.73846 3.44143 2.58459C4.83599 2.42876 5.76762 4.14282 5.76762 4.14282C5.76762 4.14282 5.02888 2.11127 3.42408 2.19697C1.82506 2.28073 1.31006 4.02206 1.31006 4.02206Z" fill="#D42F55"/>
</g>
<g style="mix-blend-mode:soft-light">
<path d="M0.310858 3.43969C0.293498 4.11947 1.0091 3.98117 1.10554 3.95196C1.20198 3.92079 1.7247 2.6742 2.84343 2.1483C3.98917 1.60876 5.02496 2.59434 5.39144 3.08519C5.75021 3.56435 6.77249 2.72874 6.85158 2.32555C6.93066 1.91456 5.09826 -0.307878 2.95531 0.276461C0.866365 0.847166 0.310858 3.43969 0.310858 3.43969Z" fill="white"/>
</g>
<g style="mix-blend-mode:multiply" opacity="0.2">
<path d="M0.281729 3.82331C-0.0210999 3.83889 0.0406232 5.29195 0.152496 5.84123C0.260512 6.37492 0.856526 6.15677 0.96647 5.97173C1.07641 5.78474 1.13042 4.24598 1.14778 4.12911C1.16707 4.01224 0.958754 4.0473 0.671356 4.02198C0.382029 3.99666 0.355025 3.81941 0.281729 3.82331Z" fill="#DA0553"/>
</g>
<g style="mix-blend-mode:multiply" opacity="0.2">
<path d="M5.79076 3.36153C5.59016 3.45503 5.92192 4.57112 6.11481 5.27427C6.30191 5.95405 7.03873 5.05612 7.32998 5.10092C7.62124 5.14377 7.27597 2.88432 7.07537 2.69149C6.87285 2.49671 6.46586 3.18818 5.79076 3.36348V3.36153Z" fill="#DA0553"/>
</g>
<g style="mix-blend-mode:soft-light">
<path d="M2.47279 9.45664C1.82663 8.62298 3.30027 8.89762 4.23383 8.48079C5.18861 8.05422 5.58209 7.39197 5.83284 7.16992C6.08745 6.94593 6.82813 7.68609 6.74905 8.01721C6.66996 8.3425 5.15968 10.6857 2.47086 9.45664H2.47279Z" fill="#FF973B"/>
</g>
<g style="mix-blend-mode:multiply" opacity="0.3">
<path d="M5.37386 0.276439C5.2292 0.276439 6.68162 1.52303 7.04617 2.16386C7.40301 2.78715 7.60168 3.53316 7.74634 3.68119C7.89101 3.82728 8.80914 3.61886 8.80914 3.61886C8.80914 3.61886 8.62011 2.22424 7.7502 1.25813C6.83979 0.24917 5.37386 0.276439 5.37386 0.276439Z" fill="#B30053"/>
</g>
<g style="mix-blend-mode:multiply" opacity="0.3">
<path d="M5.84255 9.33932C5.65545 9.52631 6.4945 9.49125 6.58901 9.45619C6.68545 9.42113 7.82347 8.79199 8.15716 8.01677C8.50435 7.20843 7.60358 7.18506 7.43577 7.18311C7.26796 7.18116 6.99407 7.96612 6.42699 8.6537C5.87919 9.31595 5.84255 9.33932 5.84255 9.33932Z" fill="#B30053"/>
</g>
<g style="mix-blend-mode:soft-light">
<path d="M7.64231 3.82354C7.49572 3.82743 7.67703 4.91041 7.69246 5.7577C7.7079 6.57188 8.8517 6.27582 8.87099 6.17843C8.89028 6.08104 8.97515 5.06234 8.94429 4.58513C8.9115 4.09818 9.03494 3.7203 8.65882 3.71641C8.28269 3.71251 7.64424 3.82354 7.64424 3.82354H7.64231Z" fill="white"/>
</g>
<path d="M2.10838 7.82035C1.93286 7.27692 2.18361 7.89632 2.98022 8.27029C3.75947 8.63648 4.73547 8.27029 5.14439 7.77361C5.14439 7.77361 4.61781 8.45339 3.7074 8.4865C2.67353 8.52546 2.10838 7.82035 2.10838 7.82035Z" fill="#FFE016"/>
<g style="mix-blend-mode:soft-light">
<path d="M3.42762 0.182919C2.64836 0.249144 2.63486 2.00411 3.25017 2.01775C3.86547 2.03138 4.48848 2.08007 5.33332 3.01112C6.14151 3.90516 6.81274 2.37419 6.78381 2.07228C6.75488 1.76453 5.57828 -0.120938 3.42762 0.182919Z" fill="white"/>
</g>
<g style="mix-blend-mode:soft-light">
<path d="M1.4468 8.80763C0.603894 7.84931 1.64933 7.67401 1.8345 7.72465C2.01967 7.7753 2.49802 8.42586 3.4798 8.52325C4.45773 8.62064 3.83857 9.83607 3.47016 9.86334C3.10175 9.89255 2.01388 9.4504 1.4468 8.80568V8.80763Z" fill="white"/>
</g>
<path d="M4.7376 0.276367C4.37498 0.293897 4.8842 1.54049 5.33169 1.98069C5.76954 2.4131 6.48321 1.79565 6.45814 1.57555C6.43306 1.3535 5.45513 0.510103 4.7376 0.276367Z" fill="white"/>
<path d="M1.79962 8.77463C1.64146 8.43377 2.46122 8.94215 2.36478 9.12134C2.27026 9.29859 1.95393 9.10966 1.79962 8.77463Z" fill="white"/>
<g style="mix-blend-mode:soft-light">
<path d="M6.24972 5.75741C6.05877 5.87818 6.06069 6.59886 5.29687 7.75196C4.57548 8.84078 5.35667 9.24592 5.52448 9.25761C5.69229 9.2693 6.79559 8.21748 7.22765 6.97284C7.68864 5.64444 7.32988 5.4185 7.20836 5.36006C7.08491 5.30358 6.40789 5.65808 6.24972 5.75741Z" fill="white"/>
</g>
<g style="mix-blend-mode:soft-light">
<path d="M5.26807 0.276225C4.73956 0.276225 6.02996 0.91705 6.47938 1.14494C6.92495 1.36894 7.43609 0.967693 7.43609 0.967693C7.43609 0.967693 6.84972 0.114557 5.26807 0.278172V0.276225Z" fill="white"/>
</g>
<g style="mix-blend-mode:soft-light">
<path d="M1.11911 5.43633C1.08053 5.13248 1.26185 4.52282 1.312 4.44296C1.36215 4.3631 1.54539 5.89407 1.48752 6.18039C1.42966 6.46088 1.14226 5.61748 1.11911 5.43828V5.43633Z" fill="white"/>
</g>
<path d="M6.46387 1.51514C6.46387 1.51514 8.04938 3.51358 7.39164 6.71186C7.39164 6.71186 8.46215 3.59539 6.46387 1.51514Z" fill="#FFE016"/>
<g style="mix-blend-mode:multiply" opacity="0.5">
<path d="M3.47217 9.91233C3.47217 9.91233 4.04311 10.0311 4.63912 9.97856C5.23513 9.92597 6.19184 8.92285 6.19184 8.92285C6.19184 8.92285 5.25442 10.0915 3.47217 9.91039V9.91233Z" fill="#D42F55"/>
</g>
<g style="mix-blend-mode:multiply" opacity="0.8">
<path d="M3.8926 9.9435C2.63114 9.9435 1.46804 9.12932 0.752441 7.85352C1.03212 8.32683 1.89625 9.56953 3.8926 9.9435Z" fill="#D42F55"/>
</g>
<g style="mix-blend-mode:multiply" opacity="0.5">
<path d="M0.713867 7.79102C0.72544 7.81244 0.738942 7.83387 0.750515 7.85335C0.737013 7.82997 0.723511 7.80855 0.713867 7.79102Z" fill="#D42F55"/>
</g>
<g style="mix-blend-mode:multiply" opacity="0.5">
<path d="M8.96335 5.57858C8.69139 8.10877 6.97664 9.9436 5.10759 9.9436C5.00729 9.9436 4.90699 9.9397 4.81055 9.92801C6.41149 9.75855 7.41642 8.84114 7.96807 8.21785C8.62002 7.47963 8.97107 5.34484 8.99229 5.2085C8.98843 5.33121 8.97686 5.45587 8.96335 5.57858Z" fill="#D42F55"/>
</g>
<g style="mix-blend-mode:multiply" opacity="0.8">
<path d="M0.164062 3.45732C0.164062 3.45732 0.474607 2.12307 1.46025 1.22319C2.48639 0.286299 4.35738 0.0486674 4.35738 0.0486674L5.21571 0.0175027C5.21571 0.0175027 3.89831 -0.00392313 3.53376 0.0486674C3.16921 0.101258 0.941388 0.297986 0.164062 3.45732Z" fill="#D42F55"/>
</g>
<path d="M2.60206 7.10744C2.57698 6.91266 2.58663 6.7432 2.62906 6.60101C2.75444 6.54063 2.83738 6.50946 2.87596 6.50946C2.94925 6.50946 3.06498 6.53478 3.22508 6.59127C3.24629 6.64581 3.26558 6.72567 3.28487 6.8289C3.40639 6.92435 3.53562 6.98473 3.67064 7.01005C3.59927 6.54063 3.54719 6.18223 3.51633 5.94071C3.36202 5.91733 3.23279 5.88812 3.12285 5.85306C3.01483 5.81799 2.90489 5.76151 2.79109 5.68554C2.67921 5.60958 2.58663 5.50245 2.51526 5.36221C2.44389 5.22392 2.39567 5.05251 2.3706 4.84799C2.31659 4.41168 2.38024 4.01628 2.56541 3.65789C2.7583 3.2878 3.01483 3.05991 3.33502 2.98784L3.2868 2.33338C3.30416 2.28858 3.59541 2.30611 3.59541 2.30611L3.70343 2.97226C3.84424 2.98395 4.00433 3.03459 4.18178 3.12419C4.19336 2.96837 4.22422 2.85344 4.2763 2.78138C4.34574 2.7171 4.43639 2.67425 4.55019 2.65477C4.73151 2.6236 4.79709 2.69762 4.87617 2.78138C4.9051 2.87292 4.99769 3.05796 5.0189 3.42999C5.03434 3.67931 5.02662 3.85461 4.99962 3.95979C4.97261 4.06498 4.91282 4.1351 4.82216 4.17016C4.75851 4.20327 4.69679 4.2208 4.63506 4.22859C4.50004 4.24417 4.38624 4.21885 4.29559 4.15457C4.26858 4.08251 4.25122 4.00265 4.24351 3.91305C4.13935 3.8663 4.00626 3.84293 3.84617 3.84293C3.91175 4.2656 3.96382 4.68438 4.0024 5.09731C4.40939 5.12653 4.71608 5.21418 4.91475 5.36026C5.11535 5.5083 5.22529 5.7693 5.24651 6.13549C5.27158 6.57374 5.17128 6.94967 4.95139 7.26131C4.73922 7.56322 4.45954 7.72684 4.1162 7.758L4.12006 8.34039C4.08341 8.36572 3.85002 8.41441 3.74008 8.41831L3.79602 7.75995C3.62049 7.72684 3.46618 7.65477 3.33116 7.53985C3.34081 7.63724 3.33309 7.70736 3.30802 7.75216C3.25787 7.78917 3.17107 7.80475 3.04762 7.80085C2.91646 7.79696 2.82581 7.76579 2.7718 7.70736C2.68886 7.55543 2.63292 7.35481 2.60013 7.10354L2.60206 7.10744ZM3.02448 4.64932C3.05341 4.92785 3.1865 5.07978 3.42761 5.11094C3.40639 4.85189 3.38324 4.46427 3.35817 3.93837C3.09584 4.05329 2.9859 4.29092 3.02448 4.64932ZM4.10077 6.9633C4.21458 6.90292 4.30716 6.81722 4.37853 6.7023C4.45182 6.58738 4.48269 6.46661 4.47304 6.34195C4.45568 6.12575 4.31873 6.00109 4.06027 5.96798C4.07956 6.303 4.09113 6.63607 4.10077 6.9633Z" fill="url(#paint5_linear_4316_5638)"/>
<path d="M4.98634 6.1531C4.96512 5.78496 4.85132 5.52396 4.65072 5.37787C4.61214 5.34866 4.56778 5.32334 4.52149 5.29996C4.32667 5.19868 4.06435 5.13829 3.73838 5.11297C3.73838 5.10713 3.73838 5.09934 3.73645 5.09544C3.73066 5.04675 3.7268 5.00195 3.72102 4.95325C3.68051 4.59096 3.63229 4.22672 3.57249 3.86054C3.73452 3.86054 3.86568 3.88391 3.96984 3.93066C3.97755 4.02026 3.99684 4.10012 4.02577 4.17219C4.11643 4.23646 4.23023 4.26178 4.36525 4.2462C4.42505 4.24036 4.4887 4.22088 4.55235 4.18972C4.64108 4.15271 4.7028 4.08454 4.72787 3.97741C4.75295 3.87223 4.76066 3.69692 4.7433 3.44955C4.72016 3.07558 4.69315 2.84379 4.66036 2.75029C4.58321 2.66849 4.45205 2.64122 4.27074 2.67238C4.15694 2.69381 4.06628 2.73471 3.99684 2.79899C3.94669 2.87106 3.91583 2.98403 3.90426 3.1418C3.72873 3.05025 3.56671 3.00156 3.4259 2.98792L3.31403 2.32178C3.15779 2.38021 3.06907 2.43085 3.05363 2.47371L3.05749 3.00351C2.7373 3.07752 2.4827 3.30347 2.29174 3.6755C2.1085 4.03389 2.04871 4.42735 2.10464 4.86365C2.10464 4.87145 2.1085 4.87924 2.1085 4.88508C2.1355 5.07791 2.18372 5.24153 2.25316 5.37593C2.32453 5.51422 2.41712 5.6233 2.52899 5.69731C2.64279 5.77522 2.75273 5.82976 2.86075 5.86677C2.97069 5.90183 3.10186 5.933 3.25424 5.95442C3.26967 6.06739 3.28895 6.20569 3.31403 6.37125C3.34103 6.55629 3.37382 6.77445 3.41433 7.02182C3.27931 6.99844 3.15201 6.93806 3.02856 6.84262C3.00927 6.73744 2.98998 6.65758 2.96684 6.60304C2.80674 6.5485 2.69294 6.52123 2.61964 6.52318C2.57914 6.52318 2.49813 6.55629 2.37275 6.61473C2.33225 6.75692 2.3226 6.92637 2.34961 7.12115C2.3824 7.37242 2.44026 7.57304 2.52513 7.72302C2.57721 7.78146 2.66979 7.81067 2.80096 7.81652C2.92247 7.82041 3.00927 7.80288 3.05942 7.76782C3.0845 7.72302 3.09221 7.65095 3.08257 7.55357C3.21759 7.66849 3.37189 7.7425 3.54742 7.77561L3.65544 8.40086C3.76345 8.39696 3.83868 8.38138 3.87339 8.35606L3.86568 7.77367C4.20901 7.7425 4.48677 7.58083 4.69701 7.27893C4.91497 6.96533 5.01334 6.5894 4.98441 6.15115L4.98634 6.1531ZM3.04206 5.09739C2.87618 5.03896 2.78167 4.89482 2.75466 4.66498C2.71416 4.30853 2.82217 4.06895 3.0845 3.95403C3.10957 4.45072 3.13272 4.8247 3.15586 5.08181V5.09739C3.15586 5.09739 3.15972 5.11492 3.15972 5.12466C3.11729 5.11882 3.07871 5.10908 3.04013 5.09544L3.04206 5.09739ZM4.12222 6.71991C4.05085 6.83288 3.95826 6.92053 3.84639 6.97896C3.83868 6.73549 3.8271 6.49007 3.8136 6.24075C3.80781 6.15505 3.80396 6.06934 3.8001 5.98364C3.91004 5.99727 4.0007 6.02844 4.06628 6.07908C4.15501 6.13946 4.20323 6.23491 4.21287 6.35762C4.22445 6.48228 4.19358 6.60304 4.12222 6.71796V6.71991Z" fill="url(#paint6_linear_4316_5638)"/>
<g style="mix-blend-mode:soft-light">
<path d="M4.72765 3.97741C4.70257 4.08259 4.64085 4.15271 4.55212 4.18972C4.48847 4.22283 4.42482 4.24231 4.36502 4.2462C4.23 4.26179 4.1162 4.23646 4.02555 4.17219C3.99854 4.10207 3.97733 4.02026 3.96961 3.93066C3.86545 3.88391 3.73429 3.86054 3.57227 3.86054C3.63206 4.22672 3.68028 4.59291 3.72079 4.95325C3.53176 5.01169 3.34274 5.05649 3.15949 5.07986C3.13635 4.82275 3.1132 4.45072 3.08813 3.95209C2.82388 4.06506 2.71779 4.30464 2.75829 4.66303C2.78337 4.89287 2.87981 5.03701 3.04569 5.09544C2.67921 5.12661 2.34359 5.07207 2.1102 4.88508C2.1102 4.87729 2.10634 4.8695 2.10634 4.86365C2.05041 4.42735 2.11213 4.03389 2.29344 3.6755C2.4844 3.30347 2.73901 3.07947 3.05919 3.00351L3.05534 2.47371C3.07077 2.43085 3.1595 2.38021 3.31573 2.32178L3.4276 2.98792C3.56841 2.99961 3.73043 3.05025 3.90596 3.1418C3.91753 2.98403 3.94646 2.87106 3.99854 2.79899C4.06798 2.73276 4.15864 2.69186 4.27244 2.67238C4.45375 2.64122 4.58491 2.66849 4.66207 2.75029C4.69486 2.84184 4.71993 3.07558 4.74501 3.44955C4.76237 3.69692 4.75465 3.87417 4.72958 3.97741H4.72765Z" fill="white"/>
</g>
<g style="mix-blend-mode:multiply" opacity="0.2">
<path d="M4.35931 5.77339C4.27637 5.88831 4.17607 5.99155 4.06806 6.0792C4.00248 6.02855 3.91182 5.99739 3.80188 5.98375C3.80766 6.06946 3.81152 6.15516 3.81538 6.24086C3.65721 6.32072 3.48555 6.36747 3.31388 6.37137C3.2888 6.20775 3.26952 6.06751 3.25409 5.95454C3.10171 5.93116 2.97054 5.90195 2.8606 5.86689C2.75258 5.83183 2.64264 5.77729 2.52884 5.69743C2.41697 5.62146 2.32438 5.51433 2.25301 5.37604C2.18357 5.24164 2.13535 5.07803 2.10835 4.8852C2.10835 4.8774 2.10449 4.86961 2.10449 4.86377C2.10449 4.86377 2.14307 5.07218 3.04191 5.09556C3.08049 5.09556 3.11907 5.09556 3.15764 5.09556C3.35246 5.09556 3.55306 5.09556 3.73437 5.09556C3.7363 5.1014 3.7363 5.10919 3.7363 5.11309C4.06227 5.13646 4.3246 5.19684 4.51941 5.30008C4.56184 5.40136 4.51748 5.55329 4.35739 5.77339H4.35931Z" fill="#DA0553"/>
</g>
<path d="M3.02857 6.84231C3.017 6.77998 3.41434 7.02151 3.41434 7.02151C3.41434 7.02151 3.06907 7.01761 3.02857 6.84231Z" fill="white"/>
<path d="M4.18956 2.69188C4.04104 2.70941 4.35544 3.42815 4.53676 3.57229C4.71614 3.71448 4.73157 2.88861 4.65827 2.75032C4.58498 2.61202 4.18763 2.69188 4.18763 2.69188H4.18956Z" fill="white"/>
<g style="mix-blend-mode:soft-light">
<path d="M3.2081 2.36476C3.05186 2.47384 3.36626 2.74069 3.36626 2.74069C3.36626 2.74069 3.3489 2.35307 3.28718 2.33165C3.22546 2.31022 3.2081 2.36476 3.2081 2.36476Z" fill="white"/>
</g>
<path d="M7.48607 3.34045C7.36455 2.82818 7.38384 3.79624 7.49378 4.31825C7.6018 4.82857 7.67124 4.69028 7.67124 4.69028C7.67124 4.69028 7.68474 3.69495 7.48607 3.34045Z" fill="white"/>
<g style="mix-blend-mode:soft-light">
<path d="M4.75296 9.97673C4.15309 9.97089 5.28725 9.68066 5.53415 9.52873C5.7849 9.37681 6.45035 9.56379 6.45035 9.56379C6.45035 9.56379 5.85626 10.0196 4.75296 9.97673Z" fill="white"/>
</g>
<path d="M7.39165 6.714C7.09847 6.67505 6.79371 7.67037 6.95573 7.87879C7.11776 8.08525 7.5016 7.49702 7.57682 7.30419C7.65398 7.10941 7.39165 6.714 7.39165 6.714Z" fill="#ED4800"/>
<path d="M6.19184 8.92463C5.97774 8.89151 6.47924 8.49806 6.57375 8.48053C6.66827 8.463 6.63355 8.67141 6.55446 8.82334C6.47731 8.97332 6.27092 8.93826 6.19184 8.92463Z" fill="#ED4800"/>
<path d="M6.19745 8.76904C6.13959 8.88396 6.25339 8.95214 6.42506 8.91123C6.47521 8.89955 6.54271 8.84111 6.54271 8.84111C6.54271 8.84111 6.37298 9.01836 6.20517 9.03005C6.03736 9.04173 6.08365 8.88202 6.19745 8.76904Z" fill="#FFBA00"/>
<path d="M6.93425 7.45229C6.93425 7.45229 6.94003 7.575 7.12713 7.575C7.36631 7.575 7.56498 7.32568 7.56498 7.32568C7.56498 7.32568 7.33931 7.87886 7.06155 7.98793C6.78573 8.09701 6.89181 7.62175 6.93425 7.45229Z" fill="#FFBA00"/>
<g style="mix-blend-mode:multiply" opacity="0.5">
<path d="M7.03092 7.12867C6.92097 7.60393 7.35496 7.24748 7.43597 7.18321C7.51699 7.11698 7.59221 7.22216 7.59221 7.22216C7.59221 7.22216 7.51891 6.75274 7.39161 6.71379C7.26431 6.67483 7.03092 7.13062 7.03092 7.13062V7.12867Z" fill="#D42F55"/>
</g>
<g style="mix-blend-mode:multiply" opacity="0.5">
<path d="M6.34809 8.62462C6.28829 8.79213 6.44646 8.84862 6.54676 8.78824C6.64706 8.72786 6.61041 8.4649 6.57183 8.47854C6.53326 8.49217 6.34616 8.62268 6.34616 8.62268L6.34809 8.62462Z" fill="#D42F55"/>
</g>
<path d="M7.14076 7.94503C7.02118 7.96646 7.1967 7.8379 7.30086 7.73857C7.40694 7.63923 7.24492 7.89439 7.14076 7.94503Z" fill="white"/>
<path d="M6.22059 9.02582C6.2013 9.01414 6.39419 8.91869 6.42312 8.93622C6.40962 8.99466 6.22059 9.02582 6.22059 9.02582Z" fill="white"/>
</g>
<defs>
<linearGradient id="paint0_linear_4316_5638" x1="5.19095" y1="9.94316" x2="5.19095" y2="0.0483398" gradientUnits="userSpaceOnUse">
<stop stop-color="#FF5900"/>
<stop offset="0.23" stop-color="#FE6800"/>
<stop offset="0.66" stop-color="#FA9300"/>
<stop offset="0.85" stop-color="#F66A00"/>
<stop offset="1" stop-color="#F63F00"/>
</linearGradient>
<linearGradient id="paint1_linear_4316_5638" x1="4.87634" y1="9.99987" x2="4.87634" y2="-0.000131845" gradientUnits="userSpaceOnUse">
<stop stop-color="#FF5900"/>
<stop offset="0.23" stop-color="#FE6800"/>
<stop offset="0.66" stop-color="#FA9300"/>
<stop offset="0.85" stop-color="#F66A00"/>
<stop offset="1" stop-color="#F63F00"/>
</linearGradient>
<linearGradient id="paint2_linear_4316_5638" x1="5.45888" y1="9.55944" x2="2.10905" y2="0.441416" gradientUnits="userSpaceOnUse">
<stop stop-color="#FFEA34"/>
<stop offset="0.63" stop-color="#FF8100"/>
<stop offset="0.7" stop-color="#FFA400"/>
<stop offset="1" stop-color="#FFBA00"/>
</linearGradient>
<linearGradient id="paint3_linear_4316_5638" x1="4.5965" y1="8.24859" x2="2.46141" y2="2.44199" gradientUnits="userSpaceOnUse">
<stop stop-color="#FFBA00"/>
<stop offset="0.21" stop-color="#FE6800"/>
<stop offset="1" stop-color="#D41B00"/>
</linearGradient>
<linearGradient id="paint4_linear_4316_5638" x1="3.68221" y1="8.48039" x2="3.68221" y2="2.20264" gradientUnits="userSpaceOnUse">
<stop offset="0.04" stop-color="#EF6300"/>
<stop offset="1" stop-color="#E13E00"/>
</linearGradient>
<linearGradient id="paint5_linear_4316_5638" x1="3.99676" y1="8.40547" x2="3.58884" y2="2.29155" gradientUnits="userSpaceOnUse">
<stop stop-color="#C82400"/>
<stop offset="0.51" stop-color="#D84400"/>
<stop offset="1" stop-color="#D42F00"/>
</linearGradient>
<linearGradient id="paint6_linear_4316_5638" x1="3.73165" y1="8.39788" x2="3.3262" y2="2.32089" gradientUnits="userSpaceOnUse">
<stop stop-color="#FFAB00"/>
<stop offset="0.49" stop-color="#FFBA00"/>
<stop offset="1" stop-color="#EF6C00"/>
</linearGradient>
<clipPath id="clip0_4316_5638">
<rect width="9" height="10" fill="white"/>
</clipPath>
</defs>
</svg>
