<svg width="22" height="24" viewBox="0 0 22 24" fill="none" xmlns="http://www.w3.org/2000/svg">
<g clip-path="url(#clip0_4037_1677)">
<path fill-rule="evenodd" clip-rule="evenodd" d="M14.6313 6.89978C15.1263 7.3806 15.6214 7.86143 16.1199 8.34569C16.6149 8.82651 17.1135 9.31077 17.6085 9.79159C15.2925 11.8111 12.6159 14.2598 10.01 16.7429C7.46417 19.1642 4.98555 21.6233 2.94537 23.7698C2.712 23.9931 2.34781 24.0515 1.9518 23.9587C1.65125 23.89 1.33302 23.7355 1.03248 23.5088L0.770825 22.9765L0.463207 22.9421C0.254593 22.6674 0.113159 22.3789 0.0459781 22.1076C-0.0494896 21.7229 0.0106197 21.3726 0.240449 21.1459C2.45035 19.1677 4.98201 16.7567 7.47831 14.2839C10.0347 11.7527 12.5558 9.14935 14.6349 6.90321L14.6313 6.89978Z" fill="url(#paint0_linear_4037_1677)"/>
<path style="mix-blend-mode:multiply" opacity="0.5" fill-rule="evenodd" clip-rule="evenodd" d="M7.0541 17.8558C7.26979 16.6365 7.36525 15.407 7.57033 14.1843C7.53851 14.2152 7.50669 14.2461 7.4784 14.2771C7.25918 14.4934 7.04349 14.7098 6.82427 14.9227C6.4919 15.9531 6.22318 17.1448 5.85191 18.1305C5.58673 18.8346 5.27911 19.3532 4.66034 19.8134C3.69152 20.5312 2.66966 20.466 1.90592 19.6279C1.53112 19.9748 1.16339 20.3114 0.802734 20.6377C0.940632 21.0601 1.36847 21.4997 1.80691 21.6371C4.21836 22.4099 6.65455 20.15 7.06117 17.8523L7.0541 17.8558Z" fill="url(#paint1_radial_4037_1677)"/>
<path style="mix-blend-mode:multiply" opacity="0.5" fill-rule="evenodd" clip-rule="evenodd" d="M8.60282 16.0457C8.56746 16.9112 8.76547 17.4813 8.52856 18.1579C9.01651 17.684 9.51153 17.2135 10.0065 16.7395C10.3884 16.3755 10.7738 16.0114 11.1557 15.6508C10.7314 15.716 10.2929 15.6508 10.1055 15.2455C9.62114 14.2083 9.96765 12.4876 10.5334 11.1963C10.1904 11.5466 9.8439 11.8969 9.49738 12.2507C8.83972 13.4493 8.66293 14.4556 8.60282 16.0457Z" fill="url(#paint2_radial_4037_1677)"/>
<g style="mix-blend-mode:multiply" opacity="0.35">
<path d="M11.3361 10.3721C10.5405 11.5536 9.63178 13.9577 10.2117 15.2009C10.392 15.589 11.0108 15.5375 11.4351 15.3898C11.3431 15.4757 11.2512 15.5616 11.1593 15.6509C10.735 15.7161 10.2965 15.6509 10.1091 15.2456C9.62471 14.2084 9.97122 12.4877 10.537 11.1964C10.8057 10.9216 11.0744 10.6469 11.3361 10.3755V10.3721ZM9.50095 12.2507C8.84329 13.4494 8.6665 14.4557 8.60639 16.0458C8.57103 16.9113 8.76903 17.4814 8.53213 18.158C8.3412 18.3435 8.14673 18.5289 7.95579 18.7144C8.52506 17.8661 8.41899 17.0899 8.46142 16.039C8.51445 14.6686 8.5286 13.8718 8.9529 12.8037C9.13676 12.6182 9.32063 12.4328 9.50449 12.2473L9.50095 12.2507ZM8.00529 13.755C7.7401 15.091 7.46431 16.5404 7.23094 17.8661C6.80311 20.2977 4.32802 22.5679 1.78575 21.7539C1.2978 21.5959 0.894717 21.2902 0.640137 20.7819C0.693174 20.7339 0.742676 20.6892 0.795714 20.6411C0.933611 21.0636 1.36145 21.5032 1.79989 21.6406C4.21134 22.4133 6.64753 20.1534 7.05415 17.8558C7.26984 16.6365 7.36531 15.407 7.57038 14.1843C7.71535 14.0401 7.86032 13.8959 8.00529 13.7516V13.755ZM6.82432 14.9262C6.49195 15.9565 6.22323 17.1483 5.85197 18.134C5.58678 18.838 5.27916 19.3566 4.66039 19.8169C3.69157 20.5347 2.66971 20.4694 1.90597 19.6314C1.95901 19.5799 2.01558 19.5318 2.06862 19.4803C2.76164 20.2462 3.69864 20.3904 4.57199 19.7413C5.15894 19.3051 5.39231 18.7213 5.64335 18.0584C5.96158 17.2135 6.11715 16.2828 6.35759 15.3898C6.51317 15.2353 6.67228 15.0807 6.82786 14.9262H6.82432ZM3.23898 18.3847C3.6951 18.4362 4.12648 18.2782 4.39873 17.9691C4.66039 17.6703 4.89729 17.162 5.04933 16.6572C5.16601 16.5438 5.2827 16.4305 5.40291 16.3171C5.13419 17.0384 4.87961 17.6428 4.52249 18.0447C4.16183 18.4534 3.70925 18.6526 3.05865 18.5564C3.11876 18.498 3.17887 18.4431 3.23898 18.3847ZM3.39102 23.3063C3.10462 23.4299 2.83236 23.5055 2.53888 23.5501C2.1464 23.6119 1.71503 23.6154 1.15283 23.5913C1.11394 23.5639 1.07505 23.5364 1.03969 23.5089L0.986649 23.399C1.57006 23.4849 2.09337 23.4952 2.49999 23.4333C2.89954 23.3715 3.44052 23.1449 3.76936 22.9147C3.64207 23.0453 3.51831 23.1758 3.39456 23.3063H3.39102ZM13.7192 7.87868C13.0439 8.87124 12.0291 11.0762 11.9407 12.1752C11.8841 12.893 12.1422 14.1122 13.1782 13.7688C13.0792 13.8615 12.9802 13.9508 12.8812 14.0435C11.9937 14.0676 11.7568 12.9445 11.8169 12.1477C11.8841 11.2685 12.4357 9.77107 12.9908 8.64456C13.2383 8.38698 13.4788 8.12939 13.7157 7.87524L13.7192 7.87868Z" fill="#99826A"/>
</g>
<path style="mix-blend-mode:multiply" fill-rule="evenodd" clip-rule="evenodd" d="M0.067311 22.2003C5.12003 17.2925 10.3 12.1339 15.1194 7.37717C15.0699 7.32909 14.6314 6.89978 14.6279 6.90322C12.5488 9.14936 10.0278 11.7492 7.4749 14.2804C4.97859 16.7532 2.44693 19.1642 0.237031 21.1425C0.00720169 21.3692 -0.0529076 21.7229 0.0425601 22.1041C0.0496318 22.135 0.0602393 22.166 0.067311 22.1969V22.2003Z" fill="url(#paint3_linear_4037_1677)"/>
<path style="mix-blend-mode:multiply" fill-rule="evenodd" clip-rule="evenodd" d="M16.958 9.16309C12.1811 13.542 6.54498 18.8277 1.45337 23.7733C1.61955 23.8591 1.78927 23.921 1.95192 23.9587C2.34794 24.0515 2.70859 23.9931 2.94549 23.7698C4.98214 21.6233 7.4643 19.1642 10.0101 16.7429C12.616 14.2598 15.2962 11.8145 17.6086 9.79159C17.3151 9.50653 17.255 9.44815 16.9616 9.16309H16.958Z" fill="url(#paint4_linear_4037_1677)"/>
<path fill-rule="evenodd" clip-rule="evenodd" d="M3.30607 20.6548C2.39029 21.4413 1.38257 22.2827 0.459717 22.9387L0.767335 22.973L1.02899 23.5054C1.71494 22.5746 2.50343 21.5649 3.30253 20.6548H3.30607Z" fill="#421A07"/>
<path fill-rule="evenodd" clip-rule="evenodd" d="M3.30619 20.6548L0.770996 22.973L1.03265 23.5054C1.7186 22.5746 2.50709 21.5649 3.30619 20.6548Z" fill="url(#paint5_linear_4037_1677)"/>
<path fill-rule="evenodd" clip-rule="evenodd" d="M12.5098 10.6262L12.9059 11.0109C11.9689 11.7184 11.0071 12.577 10.208 13.2467C10.8657 12.4774 11.785 11.5535 12.5098 10.6262Z" fill="#421A07"/>
<path fill-rule="evenodd" clip-rule="evenodd" d="M13.3408 11.447C13.5211 11.6222 13.7049 11.8008 13.8853 11.9759C12.3967 13.1402 10.8586 14.5346 9.58569 15.6233C10.6641 14.4007 12.1456 12.9135 13.3408 11.447Z" fill="#421A07"/>
<path style="mix-blend-mode:screen" fill-rule="evenodd" clip-rule="evenodd" d="M10.9188 11.5741C11.3926 11.1071 11.5305 10.8426 11.534 10.166C10.2329 11.5123 8.86095 12.9033 7.4749 14.2771C4.97859 16.7499 2.44693 19.1609 0.237031 21.1391C0.00720169 21.3658 -0.0529076 21.7195 0.0425601 22.1008C0.0602393 22.1729 0.0849902 22.2484 0.113277 22.3206C0.180458 22.1076 0.336035 21.9668 0.601223 21.7058C1.13513 21.1838 1.66551 20.6617 2.19942 20.1397C2.22064 20.1191 2.6803 20.3698 3.40161 20.3045C2.68737 20.2805 2.31257 20.0263 2.33732 20.0023C3.51829 18.8415 4.7028 17.6806 5.89084 16.5163C5.93327 16.4751 5.89084 16.9697 5.71405 17.8317C6.0146 16.9147 6.09238 16.3171 6.12774 16.2794C6.4884 15.9256 6.84905 15.5719 7.20971 15.2181C7.2486 15.1803 7.31578 15.6199 7.16728 17.1345C7.36529 16.063 7.40772 15.0258 7.44661 14.9846C7.76837 14.6686 8.09013 14.3526 8.41189 14.0367C8.45079 13.9989 8.39422 14.6961 8.48261 15.4104C8.52858 14.4694 8.60637 13.8478 8.64526 13.81C9.0837 13.3807 9.51861 12.9514 9.95706 12.5186C9.98181 12.4946 9.87573 13.0716 9.87927 13.8821C9.95352 13.0681 10.095 12.3847 10.1232 12.3538C10.3884 12.0927 10.6536 11.8317 10.9188 11.5707V11.5741Z" fill="url(#paint6_linear_4037_1677)"/>
<path fill-rule="evenodd" clip-rule="evenodd" d="M10.208 13.2468C11.0071 12.577 11.9653 11.7184 12.9059 11.0109C12.8387 10.9457 12.775 10.8839 12.7078 10.8186L10.208 13.2468Z" fill="url(#paint7_linear_4037_1677)"/>
<path fill-rule="evenodd" clip-rule="evenodd" d="M13.613 11.715L9.58569 15.6268C10.8586 14.5381 12.4002 13.1437 13.8853 11.9794C13.7933 11.8901 13.7049 11.8043 13.613 11.715Z" fill="url(#paint8_linear_4037_1677)"/>
<path fill-rule="evenodd" clip-rule="evenodd" d="M12.4886 6.8689C11.7885 5.56037 10.9646 4.24154 9.95691 3.00514C9.98519 2.77846 9.92508 2.593 9.87912 2.52431C9.81547 2.42815 9.5715 2.30794 9.27449 2.21521C8.66279 1.54549 7.99098 0.906681 7.24492 0.312519L7.0752 0.0961484L7.30502 0.00341797C7.84954 0.0102869 8.41174 0.0515004 8.99162 0.127059C9.66697 0.552931 10.2256 0.824254 10.3034 0.772737C10.3423 0.745261 10.1443 0.52889 9.99226 0.288478C10.406 0.370905 10.9788 0.49798 11.4137 0.611317C11.746 0.837992 12.1597 1.07153 12.2092 1.0578C12.234 1.04749 12.2092 0.958198 12.1668 0.824254C12.2198 0.841426 12.2729 0.855164 12.3259 0.872336C13.5458 1.34286 15.0096 2.59987 16.0987 3.87062C16.035 3.98739 16.0209 4.07669 16.0421 4.1179C16.0845 4.19002 16.3851 4.37892 16.6255 4.5266C16.9543 4.96621 17.2266 5.38865 17.4105 5.75957L12.4956 6.87234L12.4886 6.8689Z" fill="#323A3F"/>
<path fill-rule="evenodd" clip-rule="evenodd" d="M12.0714 0.793335C12.3436 0.896369 12.6124 1.01314 12.8776 1.13678L12.4992 1.50427C12.3401 1.36689 12.1775 1.23295 12.0113 1.10244L11.8416 0.886065L12.0714 0.793335Z" fill="url(#paint9_linear_4037_1677)"/>
<path fill-rule="evenodd" clip-rule="evenodd" d="M9.98886 0.285034C10.2611 0.388068 10.5298 0.50484 10.795 0.62848L10.4167 0.995967C10.2576 0.858589 10.0949 0.724645 9.92875 0.594135L9.75903 0.377765L9.98886 0.285034Z" fill="url(#paint10_linear_4037_1677)"/>
<path fill-rule="evenodd" clip-rule="evenodd" d="M7.30161 0C9.90399 0.989124 12.0644 2.92272 14.0303 5.26846L12.4851 6.86892C11.7851 5.56039 10.9612 4.24156 9.95349 3.00515C9.98177 2.77848 9.92166 2.59302 9.8757 2.52433C9.81205 2.42816 9.56808 2.30796 9.27107 2.21523C8.65937 1.54551 7.98756 0.906697 7.2415 0.312536L7.07178 0.0961649L7.30161 0.00343446V0Z" fill="url(#paint11_linear_4037_1677)"/>
<path style="mix-blend-mode:screen" opacity="0.5" fill-rule="evenodd" clip-rule="evenodd" d="M7.30161 0C9.90399 0.989124 12.0644 2.92272 14.0303 5.26846L12.4851 6.86892C11.7851 5.56039 10.9612 4.24156 9.95349 3.00515C9.98177 2.77848 9.92166 2.59302 9.8757 2.52433C9.81205 2.42816 9.56808 2.30796 9.27107 2.21523C8.65937 1.54551 7.98756 0.906697 7.2415 0.312536L7.07178 0.0961649L7.30161 0.00343446V0Z" fill="url(#paint12_radial_4037_1677)"/>
<g opacity="0.5">
<path fill-rule="evenodd" clip-rule="evenodd" d="M14.0302 5.26844L17.4034 5.75614C17.2195 5.38178 16.9508 4.95934 16.6185 4.52317C16.378 4.37548 16.0775 4.19002 16.035 4.11447C16.0138 4.07325 16.028 3.98396 16.0916 3.86718C15.0026 2.59987 13.5387 1.33942 12.3189 0.868902C12.234 0.841426 12.1527 0.817385 12.0678 0.793344C12.089 0.837991 12.1067 0.886074 12.1279 0.934156C12.0113 0.889508 11.7744 0.779606 11.5092 0.635358C10.9894 0.494546 10.4838 0.377774 9.98875 0.285044C10.0595 0.40525 10.1267 0.539194 10.1691 0.652531C9.89329 0.549497 9.49727 0.339995 9.15076 0.147665C8.51077 0.0583693 7.89553 0.0102869 7.30151 0.00341797C9.90389 0.992542 12.0643 2.92614 14.0302 5.27188V5.26844Z" fill="url(#paint13_linear_4037_1677)"/>
<mask id="mask0_4037_1677" style="mask-type:luminance" maskUnits="userSpaceOnUse" x="7" y="0" width="11" height="6">
<path d="M14.0302 5.26844L17.4034 5.75614C17.2195 5.38178 16.9508 4.95934 16.6185 4.52317C16.378 4.37548 16.0775 4.19002 16.035 4.11447C16.0138 4.07325 16.028 3.98396 16.0916 3.86718C15.0026 2.59987 13.5387 1.33942 12.3189 0.868902C12.234 0.841426 12.1527 0.817385 12.0678 0.793344C12.089 0.837991 12.1067 0.886074 12.1279 0.934156C12.0113 0.889508 11.7744 0.779606 11.5092 0.635358C10.9894 0.494546 10.4838 0.377774 9.98875 0.285044C10.0595 0.40525 10.1267 0.539194 10.1691 0.652531C9.89329 0.549497 9.49727 0.339995 9.15076 0.147665C8.51077 0.0583693 7.89553 0.0102869 7.30151 0.00341797C9.90389 0.992542 12.0643 2.92614 14.0302 5.27188V5.26844Z" fill="white"/>
</mask>
<g mask="url(#mask0_4037_1677)">
<g style="mix-blend-mode:screen" opacity="0.8">
<path d="M10.4696 2.23931C10.4095 2.23244 10.3635 2.2187 10.3635 2.20496C10.3635 2.19466 10.413 2.18779 10.4731 2.19466C10.5332 2.20153 10.5792 2.21527 10.5792 2.229C10.5792 2.23931 10.5297 2.24618 10.4696 2.23931Z" fill="#6A89A5"/>
</g>
</g>
</g>
<path fill-rule="evenodd" clip-rule="evenodd" d="M13.9206 1.80651C13.3761 1.39437 12.8245 1.06467 12.3189 0.868902C12.234 0.841426 12.1527 0.817385 12.0678 0.793344C12.089 0.837992 12.1067 0.886074 12.1279 0.934156C12.0113 0.889508 11.7744 0.779606 11.5092 0.635359C10.9894 0.494546 10.4838 0.377774 9.98875 0.285044C10.0595 0.40525 10.1267 0.539194 10.1691 0.652531C9.89329 0.549497 9.49727 0.339995 9.15076 0.147665C8.51077 0.0583693 7.89553 0.0102869 7.30151 0.00341797C7.96625 0.254133 8.59917 0.570104 9.21087 0.934156C10.6287 0.927288 12.7927 1.3772 13.9206 1.80994V1.80651Z" fill="url(#paint14_radial_4037_1677)"/>
<path style="mix-blend-mode:screen" opacity="0.1" fill-rule="evenodd" clip-rule="evenodd" d="M12.0079 3.09445C12.2979 2.88152 15.1654 3.27648 15.9504 3.70235C15.4801 3.17001 14.9462 2.64454 14.3981 2.18776C14.2709 2.45221 11.2689 2.01603 10.042 1.47339C10.7244 1.95421 11.3785 2.50029 12.0079 3.09445Z" fill="url(#paint15_linear_4037_1677)"/>
<path style="mix-blend-mode:screen" fill-rule="evenodd" clip-rule="evenodd" d="M15.8937 3.86726C15.9078 3.96343 15.678 4.23818 15.7735 4.28283C16.0457 4.40304 16.3887 4.45455 16.6221 4.51981C16.3816 4.37213 16.0811 4.18667 16.0387 4.11111C16.0175 4.06989 16.0316 3.9806 16.0952 3.86383C15.0062 2.59651 13.5424 1.33606 12.3225 0.865544C12.2376 0.838068 12.1563 0.814027 12.0715 0.789986C12.0927 0.834634 12.1103 0.882716 12.1316 0.930799C12.0149 0.886151 11.778 0.776248 11.5128 0.632001C11.2971 0.573615 11.085 0.518663 10.8728 0.470581C11.3219 0.632001 11.7391 0.814027 12.1775 0.996053C12.1775 0.978881 12.1598 0.913626 12.1669 0.899888C12.2094 0.827765 12.9802 1.24677 13.0756 1.30859C14.3309 2.12256 15.8654 3.66463 15.8972 3.86383L15.8937 3.86726Z" fill="url(#paint16_radial_4037_1677)"/>
<path fill-rule="evenodd" clip-rule="evenodd" d="M16.0917 3.86719C15.8654 4.06295 15.7523 4.2175 15.7629 4.24841C15.7806 4.3068 16.166 4.427 16.6221 4.52317C16.3817 4.37549 16.0811 4.19003 16.0387 4.11447C16.0175 4.07325 16.0316 3.98396 16.0953 3.86719H16.0917Z" fill="url(#paint17_radial_4037_1677)"/>
<path style="mix-blend-mode:screen" fill-rule="evenodd" clip-rule="evenodd" d="M9.87911 2.52094C9.92507 2.58963 9.98518 2.77509 9.9569 3.00176C10.8409 4.08705 11.5834 5.23416 12.2234 6.38127C11.6329 4.98344 10.8232 3.93937 10.116 3.02924C10.0948 3.00176 10.0983 2.96055 10.0983 2.9262C10.0983 2.77852 10.1337 2.52781 10.0877 2.43507C10.0205 2.2977 9.4442 2.18436 9.38409 2.1191C8.72996 1.40474 7.54192 0.391571 7.06812 0.0927734L7.23784 0.309144C7.9839 0.899871 8.65571 1.53868 9.26741 2.21183C9.56442 2.308 9.80839 2.42477 9.87204 2.52094H9.87911Z" fill="url(#paint18_radial_4037_1677)"/>
<path fill-rule="evenodd" clip-rule="evenodd" d="M10.0773 2.43505C10.0455 2.34232 9.70603 2.22898 9.27466 2.20837C9.57167 2.30454 9.81564 2.42131 9.87929 2.51748C9.92525 2.58616 9.98536 2.77163 9.95708 2.9983C10.0702 2.72698 10.1091 2.52778 10.0773 2.43161V2.43505Z" fill="url(#paint19_radial_4037_1677)"/>
<path fill-rule="evenodd" clip-rule="evenodd" d="M14.0481 5.25134C14.8684 6.52896 15.9291 8.09507 17.0146 9.20784L14.7411 11.3956C15.4306 9.52038 14.8825 8.0676 12.4888 6.86897L14.0481 5.25134Z" fill="url(#paint20_linear_4037_1677)"/>
<path fill-rule="evenodd" clip-rule="evenodd" d="M19.9493 9.44817C18.3369 8.92957 16.569 7.39436 17.4035 5.75613L14.0303 5.26843C14.8506 6.54605 15.9113 8.11216 16.9968 9.22493L19.9493 9.44817Z" fill="url(#paint21_linear_4037_1677)"/>
<path style="mix-blend-mode:multiply" fill-rule="evenodd" clip-rule="evenodd" d="M11.884 9.80533C11.7426 11.1929 12.4922 12.5495 13.6626 13.3222C15.0345 12.0618 16.371 10.8666 17.605 9.79159C17.11 9.31077 16.6114 8.82651 16.1164 8.34569C15.6214 7.86486 15.1264 7.38404 14.6278 6.89978C13.7757 7.81678 12.8528 8.7956 11.884 9.80533Z" fill="url(#paint22_radial_4037_1677)"/>
<path fill-rule="evenodd" clip-rule="evenodd" d="M21.6501 22.8632L21.7491 22.7395C22.1098 18.7315 21.6395 14.4041 20.5752 11.0761C20.3984 10.9284 20.2747 10.7739 20.2676 10.743C20.2499 10.664 20.2181 10.4545 20.2605 10.166C20.1651 9.91183 20.0661 9.66798 19.9635 9.431L17.0111 9.20776L15.0381 11.107C15.8549 12.1442 16.6434 13.2982 17.3823 14.5312C17.5839 14.6308 17.7253 14.7338 17.7678 14.7819C17.842 14.8609 17.9764 15.249 18.0153 15.6336C19.2493 17.8557 20.3242 20.2805 21.1374 22.7155L21.2435 22.8082L21.643 22.8666L21.6501 22.8632Z" fill="#363C42"/>
<path fill-rule="evenodd" clip-rule="evenodd" d="M15.2361 12.2782L19.3766 8.36294L16.0989 5.1792L12.068 9.20095C11.6048 9.66117 11.9266 10.7155 12.8035 11.5639C13.6768 12.4122 14.7659 12.7316 15.2361 12.2782Z" fill="url(#paint23_linear_4037_1677)"/>
<path style="mix-blend-mode:multiply" fill-rule="evenodd" clip-rule="evenodd" d="M11.8875 10.0699C13.0756 8.8884 14.7904 7.19521 15.9785 6.01376C15.883 5.66344 15.9148 5.36464 16.0952 5.18262L12.0643 9.20437C11.8628 9.407 11.8097 9.7161 11.8875 10.0733V10.0699Z" fill="url(#paint24_linear_4037_1677)"/>
<path style="mix-blend-mode:screen" opacity="0.4" fill-rule="evenodd" clip-rule="evenodd" d="M16.2508 6.63196C15.0487 7.81685 13.3267 9.5066 12.1245 10.6915C12.2836 10.9869 12.5099 11.2856 12.7963 11.5638C14.0091 10.3858 15.7452 8.6995 16.9615 7.52148C16.6645 7.23299 16.4241 6.92732 16.2508 6.63196Z" fill="url(#paint25_linear_4037_1677)"/>
<path style="mix-blend-mode:multiply" fill-rule="evenodd" clip-rule="evenodd" d="M17.8809 8.21181C16.661 9.37609 14.9179 11.0521 13.698 12.2164C14.3132 12.5324 14.9037 12.5804 15.2219 12.2885L19.3766 8.35949C19.0831 8.63425 18.5032 8.55525 17.8809 8.20837V8.21181Z" fill="url(#paint26_linear_4037_1677)"/>
<path style="mix-blend-mode:multiply" opacity="0.5" fill-rule="evenodd" clip-rule="evenodd" d="M15.0096 10.19C14.5889 11.0177 14.6773 11.7184 15.1263 12.3641C15.1652 12.34 15.2006 12.3125 15.2324 12.2782L18.1353 9.53406L15.0096 10.19Z" fill="url(#paint27_radial_4037_1677)"/>
<g opacity="0.5">
<path fill-rule="evenodd" clip-rule="evenodd" d="M16.9968 9.22498C18.7258 12.3572 20.8155 18.1305 21.5404 22.7705L21.6464 22.8632L21.7455 22.7396C22.1061 18.7316 21.6358 14.4041 20.5716 11.0761C20.3948 10.9285 20.271 10.7739 20.2639 10.743C20.2463 10.664 20.2144 10.4545 20.2569 10.166C20.1614 9.91187 20.0624 9.66802 19.9599 9.43104L16.9897 9.22498H16.9968Z" fill="url(#paint28_linear_4037_1677)"/>
<mask id="mask1_4037_1677" style="mask-type:luminance" maskUnits="userSpaceOnUse" x="16" y="9" width="6" height="14">
<path d="M16.9968 9.22498C18.7258 12.3572 20.8155 18.1305 21.5404 22.7705L21.6464 22.8632L21.7455 22.7396C22.1061 18.7316 21.6358 14.4041 20.5716 11.0761C20.3948 10.9285 20.271 10.7739 20.2639 10.743C20.2463 10.664 20.2144 10.4545 20.2569 10.166C20.1614 9.91187 20.0624 9.66802 19.9599 9.43104L16.9897 9.22498H16.9968Z" fill="white"/>
</mask>
<g mask="url(#mask1_4037_1677)">
<g style="mix-blend-mode:screen" opacity="0.8">
<path d="M17.6298 15.0773C17.5591 15.0807 17.499 15.0636 17.499 15.0395C17.499 15.012 17.5521 14.988 17.6228 14.9846C17.6935 14.9811 17.7536 14.9983 17.7536 15.0223C17.7536 15.0498 17.7006 15.0739 17.6298 15.0773Z" fill="#6A89A5"/>
</g>
</g>
</g>
<path fill-rule="evenodd" clip-rule="evenodd" d="M16.53 8.71663C16.6856 8.89523 16.8412 9.06352 16.9968 9.22494H17.025L19.9669 9.42757C19.5638 9.29706 19.1395 9.11503 18.7965 8.90553C18.3651 9.27302 17.17 8.95705 16.5477 8.69946L16.53 8.71663Z" fill="url(#paint29_linear_4037_1677)"/>
<path fill-rule="evenodd" clip-rule="evenodd" d="M16.5479 8.69946L15.0098 10.1866C15.0593 10.451 15.0911 10.7739 15.0381 11.1036L16.9934 9.2215C16.8378 9.06008 16.6398 8.84028 16.5443 8.69946H16.5479Z" fill="url(#paint30_linear_4037_1677)"/>
<path style="mix-blend-mode:screen" opacity="0.1" fill-rule="evenodd" clip-rule="evenodd" d="M19.9634 16.3893C20.1791 16.1592 21.4944 16.2038 21.6818 16.5095C21.5474 15.249 21.3388 14.0229 21.0701 12.8758C20.8862 13.1574 19.0334 13.0098 18.6233 12.7075C19.09 13.8546 19.5497 15.1082 19.9634 16.3927V16.3893Z" fill="url(#paint31_linear_4037_1677)"/>
<path style="mix-blend-mode:multiply" fill-rule="evenodd" clip-rule="evenodd" d="M17.1594 8.90895C17.5165 9.08754 17.9479 9.23523 18.3899 9.29018C18.7293 9.33139 19.0723 9.32109 19.3835 9.22149C19.3905 9.22149 19.3976 9.21805 19.4047 9.21462C19.189 9.12189 18.9804 9.01542 18.7965 8.90552C18.4818 9.16997 17.7641 9.07724 17.1594 8.90552V8.90895Z" fill="url(#paint32_radial_4037_1677)"/>
<path fill-rule="evenodd" clip-rule="evenodd" d="M21.544 22.7705C20.8157 18.1305 18.726 12.3572 17.0005 9.22498L15.0452 11.1071C15.8619 12.1443 16.6504 13.2982 17.3894 14.5312C17.591 14.6308 17.7324 14.7338 17.7748 14.7819C17.8491 14.8609 17.9835 15.249 18.0223 15.6337C19.2564 17.8558 20.3312 20.2805 21.1445 22.7155L21.2506 22.8083L21.6501 22.8666L21.544 22.7739V22.7705Z" fill="url(#paint33_linear_4037_1677)"/>
<path style="mix-blend-mode:screen" opacity="0.5" fill-rule="evenodd" clip-rule="evenodd" d="M21.544 22.7705C20.8157 18.1305 18.726 12.3572 17.0005 9.22498L15.0452 11.1071C15.8619 12.1443 16.6504 13.2982 17.3894 14.5312C17.591 14.6308 17.7324 14.7338 17.7748 14.7819C17.8491 14.8609 17.9835 15.249 18.0223 15.6337C19.2564 17.8558 20.3312 20.2805 21.1445 22.7155L21.2506 22.8083L21.6501 22.8666L21.544 22.7739V22.7705Z" fill="url(#paint34_radial_4037_1677)"/>
<path style="mix-blend-mode:screen" fill-rule="evenodd" clip-rule="evenodd" d="M16.615 8.79565C16.7034 8.87465 16.9297 9.10819 17.0181 9.15284C17.1136 9.20435 17.7677 9.27304 17.9233 9.29365C17.8384 9.29365 17.1772 9.30052 17.156 9.33486C17.1454 9.35204 17.1666 9.38638 17.1772 9.40699C17.5096 10.0389 17.8243 10.6915 18.1248 11.3578C18.3829 11.5913 18.6375 11.8592 18.7188 12.0824C18.8072 12.3331 18.8532 12.6079 18.8072 12.9651C19.0618 13.6039 19.3058 14.2496 19.5321 14.8987C19.6912 15.1013 19.8291 15.3829 19.9175 15.6474C20.0094 15.9256 20.1049 16.3549 20.0624 16.5232C20.3984 17.6222 20.6918 18.7281 20.9358 19.8168C20.6388 18.7281 20.317 17.6291 19.9599 16.5369C19.677 16.2725 19.38 15.8432 19.3093 15.6405C19.2563 15.4963 19.3022 15.1494 19.3977 14.885C19.1714 14.2564 18.9487 13.652 18.6976 13.0338C18.4536 12.996 18.1566 12.8071 18.1036 12.7281C18.0258 12.6113 17.9409 11.9794 17.994 11.423C17.6899 10.7602 17.3717 10.1076 17.0322 9.47568C17.0181 9.4482 16.9898 9.40699 16.9615 9.40012C16.912 9.39325 15.3562 10.8082 15.1865 10.9594C15.3598 10.7842 16.8625 9.27648 16.8731 9.21466C16.8802 9.16314 16.6504 8.85404 16.6115 8.79565H16.615Z" fill="url(#paint35_radial_4037_1677)"/>
<path style="mix-blend-mode:screen" fill-rule="evenodd" clip-rule="evenodd" d="M20.2603 10.1695C20.1649 10.3274 19.9174 10.7396 19.8961 10.8392C19.8891 10.8701 19.9103 10.9079 19.9386 10.925C20.0835 11.0281 20.278 11.0727 20.3806 11.1551C20.4159 11.186 20.4407 11.2307 20.4548 11.2719C21.3883 14.3458 21.6924 16.6846 21.8691 19.7069C21.8409 16.6365 21.3777 13.573 20.5786 11.0727C20.4018 10.925 20.278 10.7705 20.2709 10.7396C20.2533 10.6606 20.2214 10.4511 20.2639 10.166L20.2603 10.1695Z" fill="url(#paint36_radial_4037_1677)"/>
<path fill-rule="evenodd" clip-rule="evenodd" d="M20.2604 10.166C20.0554 10.5129 19.967 10.7567 20.0094 10.8151C20.0448 10.8666 20.2392 10.9903 20.5751 11.0761C20.3983 10.9285 20.2746 10.7739 20.2675 10.743C20.2498 10.664 20.218 10.4545 20.2604 10.166Z" fill="url(#paint37_radial_4037_1677)"/>
<path style="mix-blend-mode:screen" fill-rule="evenodd" clip-rule="evenodd" d="M17.9481 14.6034C17.8632 14.5106 17.598 14.4523 17.5167 14.3492C17.1914 13.9543 16.9474 13.5044 16.6539 13.0888C16.113 12.3298 15.7205 11.8249 15.1194 11.1998C15.9114 12.213 16.6716 13.3326 17.3894 14.5278C17.5909 14.6274 17.7324 14.7305 17.7748 14.7785C17.8491 14.8575 17.9834 15.2456 18.0223 15.6303C19.2139 17.7699 20.2534 20.1019 21.0561 22.4477C20.3454 19.8409 19.3695 17.8902 18.2239 15.7058C18.1178 15.4483 18.1178 14.7923 17.9516 14.6034H17.9481Z" fill="url(#paint38_radial_4037_1677)"/>
<path fill-rule="evenodd" clip-rule="evenodd" d="M18.0222 15.6302C18.1035 15.146 18.0257 14.6926 17.955 14.6102C17.902 14.5518 17.7004 14.5175 17.3857 14.5312C17.5873 14.6308 17.7287 14.7338 17.7711 14.7819C17.8454 14.8609 17.9798 15.249 18.0187 15.6337L18.0222 15.6302Z" fill="url(#paint39_radial_4037_1677)"/>
<path style="mix-blend-mode:screen" fill-rule="evenodd" clip-rule="evenodd" d="M12.0501 10.537C12.0218 10.2107 12.1067 10.0699 12.4638 9.71955L15.388 6.76935C15.7592 6.4053 15.8512 6.5049 16.0103 6.68693C16.2861 7.0029 16.8553 7.6211 17.4069 7.90273C17.2584 7.78939 17.1099 7.66231 16.965 7.5215C16.0633 6.64571 15.6779 5.60164 16.0987 5.1792L12.0678 9.20095C11.7849 9.48601 11.7956 9.99088 12.0501 10.537Z" fill="url(#paint40_linear_4037_1677)"/>
<path fill-rule="evenodd" clip-rule="evenodd" d="M19.2316 6.32629L19.0407 6.51175C18.9841 6.3572 19.115 6.32629 19.2316 6.32629Z" fill="url(#paint41_radial_4037_1677)"/>
<path style="mix-blend-mode:screen" fill-rule="evenodd" clip-rule="evenodd" d="M18.4607 5.99653C19.334 6.84484 19.6805 7.87862 19.2386 8.31136C18.7966 8.74067 17.7287 8.40409 16.8554 7.55578C15.982 6.70747 15.6355 5.67369 16.0775 5.24095C16.5195 4.81164 17.5873 5.14822 18.4607 5.99653Z" fill="url(#paint42_radial_4037_1677)"/>
<path fill-rule="evenodd" clip-rule="evenodd" d="M18.5242 6.00689C19.4294 6.88611 19.8148 7.93706 19.3835 8.35606C18.9521 8.77506 17.8701 8.40071 16.9649 7.52149C16.0598 6.64226 15.6744 5.59132 16.1057 5.17232C16.5371 4.75331 17.6191 5.12767 18.5242 6.00689Z" fill="url(#paint43_radial_4037_1677)"/>
<path fill-rule="evenodd" clip-rule="evenodd" d="M19.433 7.69322C19.3092 7.79282 19.1325 7.95767 19.0052 8.03666C18.6339 8.26334 17.856 7.96454 17.1983 7.32573C16.5371 6.68349 16.2295 5.92447 16.47 5.56385C16.5548 5.44021 16.7139 5.27536 16.82 5.15515L19.4295 7.68978L19.433 7.69322Z" fill="url(#paint44_linear_4037_1677)"/>
<path fill-rule="evenodd" clip-rule="evenodd" d="M18.7788 5.79395C18.9556 5.96567 19.1077 6.1477 19.2314 6.32629C19.143 6.37094 19.0688 6.41902 19.0758 6.44306C19.09 6.48084 19.3163 6.61135 19.4329 6.6663C19.6486 7.09217 19.6734 7.46996 19.4648 7.66573C19.1218 7.99544 18.2626 7.69664 17.5413 6.99601C16.82 6.29538 16.5088 5.45737 16.8518 5.12766C17.1912 4.79796 18.054 5.09675 18.7753 5.79738L18.7788 5.79395Z" fill="url(#paint45_linear_4037_1677)"/>
<g style="mix-blend-mode:multiply" opacity="0.75">
<path d="M18.2628 5.6875C17.9905 5.50547 17.3399 5.1792 17.149 5.60507C17.0712 5.78023 17.1667 5.99317 17.2586 6.15115C17.4177 6.42247 17.6192 6.68693 17.8455 6.88612C18.0824 7.09563 18.7861 7.58332 19.0265 7.33604C19.1397 7.21927 19.1184 6.98229 19.0654 6.80713C18.9593 6.44308 18.6729 5.95882 18.2592 5.68406L18.2628 5.6875ZM18.2875 5.64285C18.7189 5.93135 19.0619 6.4156 19.175 6.80026C19.2387 7.02007 19.2422 7.27422 19.1008 7.41847C18.8285 7.69666 18.093 7.17805 17.8243 6.94108C17.5874 6.73157 17.3611 6.48773 17.1985 6.2061C17.0853 6.01034 16.9863 5.71841 17.0959 5.52264C17.3222 5.10364 17.9799 5.43335 18.291 5.63942L18.2875 5.64285ZM18.7578 6.48429C18.6446 6.28853 18.5032 6.07216 18.3512 5.96569C18.1461 5.82488 17.8809 5.74245 17.7253 5.72528C17.499 5.70124 17.446 5.97599 17.6051 6.19236C17.7501 6.39156 17.9799 6.63884 18.1355 6.76935C18.2875 6.89643 18.4502 6.95481 18.5881 6.99259C18.8497 7.06128 18.9027 6.73844 18.7578 6.48429ZM18.3653 5.91074C18.5279 6.02408 18.6977 6.21297 18.8144 6.42591C19.0901 6.93077 18.9275 7.19523 18.581 7.07159C18.4325 7.02007 18.2804 6.94795 18.1213 6.814C17.9587 6.68006 17.7112 6.44995 17.5627 6.24388C17.354 5.95882 17.4177 5.61538 17.7076 5.64629C17.8738 5.66346 18.1567 5.76306 18.3653 5.9073V5.91074ZM18.086 6.06185C18.0046 6.05499 17.8915 6.11681 17.9516 6.25762C18.04 6.46025 18.2804 6.63884 18.4431 6.7041C18.5598 6.74875 18.6376 6.68693 18.5845 6.52551C18.5067 6.28509 18.2663 6.07559 18.0895 6.06529L18.086 6.06185ZM18.0754 6.01034C18.2804 6.02408 18.5456 6.23014 18.6376 6.5049C18.7507 6.83117 18.6057 6.86208 18.436 6.79339C18.2522 6.72127 18.0046 6.51177 17.9056 6.28166C17.8137 6.06529 17.9339 5.9966 18.0754 6.0069V6.01034Z" fill="#BCA486"/>
</g>
<path style="mix-blend-mode:screen" fill-rule="evenodd" clip-rule="evenodd" d="M16.7528 5.27528C16.6079 5.97248 17.1595 6.5426 17.6297 6.97878C17.7499 7.08868 17.8101 7.20889 17.9197 7.08868L18.047 6.95474C18.1601 7.21232 18.1672 7.45617 18.3616 7.5592C18.5278 7.6485 18.7188 7.73092 18.8991 7.78244C18.6162 7.72405 18.4642 7.68628 18.2131 7.59011C18.1071 7.5489 18.0611 7.56263 17.955 7.59354C17.7535 7.65537 17.7181 7.69314 17.7358 7.47677L17.7464 7.36C17.757 7.24323 17.7252 7.22262 17.6368 7.13676C17.1312 6.6422 16.4947 5.97935 16.7458 5.27185L16.7528 5.27528Z" fill="url(#paint46_radial_4037_1677)"/>
<path fill-rule="evenodd" clip-rule="evenodd" d="M17.8384 7.25014C17.8985 7.08185 18.0222 6.79679 18.0611 6.7384C18.1 6.86204 18.1672 7.25014 18.1849 7.49055C18.0045 7.56954 17.7995 7.62793 17.7712 7.61076C17.7358 7.59358 17.7818 7.45621 17.8384 7.25014Z" fill="url(#paint47_radial_4037_1677)"/>
<path style="mix-blend-mode:screen" fill-rule="evenodd" clip-rule="evenodd" d="M17.987 7.01316L17.9092 7.30852C17.8491 7.53863 17.9162 7.59015 17.9799 7.57298C18.0435 7.55237 18.1143 7.52489 18.185 7.49398C18.1779 7.40125 18.1638 7.28448 18.1461 7.16771C18.1213 6.98912 18.086 6.81396 18.0612 6.7384L17.987 7.01316Z" fill="url(#paint48_radial_4037_1677)"/>
<path style="mix-blend-mode:screen" fill-rule="evenodd" clip-rule="evenodd" d="M8.16076 0.367448C9.8615 1.16768 11.1556 2.13963 12.379 3.34169C12.8033 3.60614 13.1463 3.93585 13.362 4.36859C13.5352 4.56092 13.712 4.76012 13.8888 4.96275C13.9631 5.04518 14.0692 5.16195 14.1293 5.19286C14.2 5.23408 14.299 5.23751 14.3944 5.25468L15.5188 5.48479L14.3449 5.37146C14.3096 5.36802 14.2353 5.35772 14.2141 5.38863C14.1929 5.41954 14.2353 5.47792 14.253 5.50883L14.6455 6.20259L14.1151 5.50883C14.0904 5.47449 14.055 5.42641 14.0126 5.42297C13.9701 5.42297 13.9277 5.46419 13.8994 5.49166L12.7786 6.56321L13.7721 5.4161C13.8181 5.36115 13.8676 5.3062 13.8747 5.27872C13.8853 5.22721 13.8429 5.15165 13.804 5.0967C13.6378 4.8872 13.4645 4.68113 13.2913 4.47506C12.9624 4.55749 12.5912 4.51971 12.5346 4.47506C12.425 4.38577 12.2659 3.90494 12.2022 3.30735C11.0743 2.19458 9.76957 1.20202 8.15723 0.364014L8.16076 0.367448Z" fill="url(#paint49_radial_4037_1677)"/>
<path fill-rule="evenodd" clip-rule="evenodd" d="M12.3438 3.42078C12.5913 3.5032 12.7964 3.66119 12.9661 3.85352C13.1075 4.01494 13.249 4.26909 13.2808 4.40647C12.9979 4.50607 12.5666 4.49576 12.5383 4.45111C12.4251 4.27252 12.3544 4.02181 12.3261 3.8913C12.3014 3.76766 12.3191 3.51694 12.3438 3.42078Z" fill="url(#paint50_radial_4037_1677)"/>
<path style="mix-blend-mode:screen" fill-rule="evenodd" clip-rule="evenodd" d="M12.3932 4.13515C12.4285 4.24162 12.478 4.35495 12.5381 4.45112C12.5593 4.48546 12.8458 4.4992 13.1039 4.45112C13.1675 4.44081 13.2276 4.42364 13.2807 4.40647C13.2594 4.31717 13.1887 4.17293 13.1039 4.04242C13.0544 3.96342 12.3543 4.02868 12.3932 4.13858V4.13515Z" fill="url(#paint51_radial_4037_1677)"/>
<path fill-rule="evenodd" clip-rule="evenodd" d="M18.1001 11.4677C18.4466 11.6909 18.6871 12.0412 18.7224 12.1236C18.7613 12.2232 18.832 12.5942 18.7224 12.9445C18.3229 12.8655 18.1708 12.7762 18.1461 12.7075C18.0754 12.5186 18.0011 11.8557 18.1037 11.4677H18.1001Z" fill="url(#paint52_radial_4037_1677)"/>
<path style="mix-blend-mode:screen" fill-rule="evenodd" clip-rule="evenodd" d="M18.1425 12.7075C18.1637 12.7693 18.2874 12.8449 18.5986 12.917C18.6375 12.9239 18.6764 12.9342 18.7188 12.941C18.7436 12.8552 18.7612 12.7693 18.7683 12.6869C18.7931 12.4259 18.7471 12.1958 18.7188 12.1202C18.6198 11.8729 18.1036 12.6045 18.1425 12.7041V12.7075Z" fill="url(#paint53_radial_4037_1677)"/>
<path fill-rule="evenodd" clip-rule="evenodd" d="M19.479 14.9536C19.3941 15.0773 19.3163 15.407 19.3411 15.5787C19.3623 15.7264 19.7336 16.324 19.9917 16.4819C20.073 16.3617 20.0023 16.0801 19.9068 15.7813C19.7795 15.3864 19.5921 14.9674 19.479 14.9536Z" fill="url(#paint54_radial_4037_1677)"/>
<path style="mix-blend-mode:screen" fill-rule="evenodd" clip-rule="evenodd" d="M19.8043 15.4826C19.8432 15.5787 19.8785 15.6783 19.9104 15.7779C20.0058 16.0802 20.0765 16.3618 19.9952 16.4786C19.9563 16.4545 19.9174 16.4236 19.875 16.3824C19.7477 16.2622 19.6133 16.0802 19.5108 15.9153C19.4648 15.8432 19.6982 15.2112 19.8043 15.4791V15.4826Z" fill="url(#paint55_radial_4037_1677)"/>
<g style="mix-blend-mode:screen" opacity="0.8">
<path d="M14.292 7.52143C14.2602 7.55578 14.2213 7.57295 14.2107 7.56265C14.2001 7.55234 14.2143 7.51456 14.2496 7.48022C14.2814 7.44587 14.3203 7.4287 14.3309 7.439C14.3415 7.44931 14.3274 7.48709 14.292 7.52143Z" fill="#00FFFF"/>
</g>
</g>
<defs>
<linearGradient id="paint0_linear_4037_1677" x1="6.95842" y1="14.3546" x2="9.84715" y2="17.3286" gradientUnits="userSpaceOnUse">
<stop stop-color="#6B3F24"/>
<stop offset="0.29" stop-color="#A36544"/>
<stop offset="0.37" stop-color="#90583B"/>
<stop offset="0.55" stop-color="#613823"/>
<stop offset="0.61" stop-color="#4F2C1B"/>
<stop offset="0.65" stop-color="#4A2C22"/>
<stop offset="0.72" stop-color="#3F2E38"/>
<stop offset="0.79" stop-color="#303257"/>
<stop offset="0.84" stop-color="#303051"/>
<stop offset="0.89" stop-color="#332D43"/>
<stop offset="0.95" stop-color="#38272B"/>
<stop offset="1" stop-color="#3D2215"/>
</linearGradient>
<radialGradient id="paint1_radial_4037_1677" cx="0" cy="0" r="1" gradientTransform="matrix(11.736 11.3995 -11.736 11.3995 5.46838 25.5939)" gradientUnits="userSpaceOnUse">
<stop stop-color="#DBBD95"/>
<stop offset="0.25" stop-color="#E4CFB2"/>
<stop offset="0.75" stop-color="#F7F1E9"/>
<stop offset="1" stop-color="white"/>
</radialGradient>
<radialGradient id="paint2_radial_4037_1677" cx="0" cy="0" r="1" gradientTransform="matrix(9.38581 9.1167 -9.38581 9.1167 11.0089 20.4794)" gradientUnits="userSpaceOnUse">
<stop stop-color="#DBBD95"/>
<stop offset="0.25" stop-color="#E4CFB2"/>
<stop offset="0.75" stop-color="#F7F1E9"/>
<stop offset="1" stop-color="white"/>
</radialGradient>
<linearGradient id="paint3_linear_4037_1677" x1="7.05355" y1="14.2623" x2="7.63129" y2="14.8571" gradientUnits="userSpaceOnUse">
<stop stop-color="#EDC68E"/>
<stop offset="1" stop-color="white"/>
</linearGradient>
<linearGradient id="paint4_linear_4037_1677" x1="9.09123" y1="16.3533" x2="9.94571" y2="17.233" gradientUnits="userSpaceOnUse">
<stop stop-color="white"/>
<stop offset="1" stop-color="#EDC68E"/>
</linearGradient>
<linearGradient id="paint5_linear_4037_1677" x1="1.93066" y1="21.8466" x2="2.32391" y2="22.2515" gradientUnits="userSpaceOnUse">
<stop stop-color="#4F2A16"/>
<stop offset="0.1" stop-color="#4D2C1B"/>
<stop offset="0.23" stop-color="#47322C"/>
<stop offset="0.38" stop-color="#3E3D47"/>
<stop offset="0.54" stop-color="#314C6E"/>
<stop offset="0.72" stop-color="#20609F"/>
<stop offset="0.9" stop-color="#0C77DA"/>
<stop offset="1" stop-color="#0086FF"/>
</linearGradient>
<linearGradient id="paint6_linear_4037_1677" x1="5.55092" y1="15.9842" x2="6.91517" y2="17.3887" gradientUnits="userSpaceOnUse">
<stop offset="0.05" stop-color="#00FFFF"/>
<stop offset="0.1" stop-color="#00D3D3"/>
<stop offset="0.17" stop-color="#00A1A1"/>
<stop offset="0.25" stop-color="#007777"/>
<stop offset="0.32" stop-color="#005454"/>
<stop offset="0.4" stop-color="#003939"/>
<stop offset="0.47" stop-color="#002626"/>
<stop offset="0.55" stop-color="#001A1A"/>
<stop offset="0.63" stop-color="#001717"/>
<stop offset="0.71" stop-color="#000B0B"/>
<stop offset="0.82" stop-color="#000202"/>
<stop offset="1"/>
</linearGradient>
<linearGradient id="paint7_linear_4037_1677" x1="11.4588" y1="12.033" x2="11.6506" y2="12.2305" gradientUnits="userSpaceOnUse">
<stop stop-color="#4F2A16"/>
<stop offset="0.1" stop-color="#4D2C1B"/>
<stop offset="0.23" stop-color="#47322C"/>
<stop offset="0.38" stop-color="#3E3D47"/>
<stop offset="0.54" stop-color="#314C6E"/>
<stop offset="0.72" stop-color="#20609F"/>
<stop offset="0.9" stop-color="#0C77DA"/>
<stop offset="1" stop-color="#0086FF"/>
</linearGradient>
<linearGradient id="paint8_linear_4037_1677" x1="11.5988" y1="13.6698" x2="11.8634" y2="13.9422" gradientUnits="userSpaceOnUse">
<stop stop-color="#4F2A16"/>
<stop offset="0.1" stop-color="#4D2C1B"/>
<stop offset="0.23" stop-color="#47322C"/>
<stop offset="0.38" stop-color="#3E3D47"/>
<stop offset="0.54" stop-color="#314C6E"/>
<stop offset="0.72" stop-color="#20609F"/>
<stop offset="0.9" stop-color="#0C77DA"/>
<stop offset="1" stop-color="#0086FF"/>
</linearGradient>
<linearGradient id="paint9_linear_4037_1677" x1="12.0239" y1="0.711154" x2="12.6526" y2="1.35844" gradientUnits="userSpaceOnUse">
<stop stop-color="#677887"/>
<stop offset="0.44" stop-color="#464252"/>
<stop offset="0.69" stop-color="#433F4E"/>
<stop offset="0.92" stop-color="#393543"/>
<stop offset="1" stop-color="#35313D"/>
</linearGradient>
<linearGradient id="paint10_linear_4037_1677" x1="9.94378" y1="0.201162" x2="10.5725" y2="0.848444" gradientUnits="userSpaceOnUse">
<stop stop-color="#677887"/>
<stop offset="0.44" stop-color="#464252"/>
<stop offset="0.69" stop-color="#433F4E"/>
<stop offset="0.92" stop-color="#393543"/>
<stop offset="1" stop-color="#35313D"/>
</linearGradient>
<linearGradient id="paint11_linear_4037_1677" x1="7.14602" y1="0.0239052" x2="13.1614" y2="6.21682" gradientUnits="userSpaceOnUse">
<stop stop-color="#424352"/>
<stop offset="0.11" stop-color="#434652"/>
<stop offset="0.44" stop-color="#464A54"/>
<stop offset="0.82" stop-color="#54616E"/>
<stop offset="1" stop-color="#375D6E"/>
</linearGradient>
<radialGradient id="paint12_radial_4037_1677" cx="0" cy="0" r="1" gradientTransform="matrix(12.6661 12.3029 -12.6661 12.3029 -1.90476 14.3717)" gradientUnits="userSpaceOnUse">
<stop offset="0.89" stop-color="#1A4FB0"/>
<stop offset="0.94" stop-color="#0D295C"/>
<stop offset="0.98" stop-color="#030B19"/>
<stop offset="1"/>
</radialGradient>
<linearGradient id="paint13_linear_4037_1677" x1="9.05175" y1="-2.69607" x2="14.5335" y2="7.07915" gradientUnits="userSpaceOnUse">
<stop stop-color="#49505C"/>
<stop offset="0.18" stop-color="#4D5A68"/>
<stop offset="0.43" stop-color="#526575"/>
<stop offset="0.67" stop-color="#475562"/>
<stop offset="1" stop-color="#363B42"/>
</linearGradient>
<radialGradient id="paint14_radial_4037_1677" cx="0" cy="0" r="1" gradientTransform="matrix(6.13803 5.96204 -6.13803 5.96204 9.49363 8.68645)" gradientUnits="userSpaceOnUse">
<stop offset="0.81" stop-color="#272F36"/>
<stop offset="1" stop-color="#9BB7CF"/>
</radialGradient>
<linearGradient id="paint15_linear_4037_1677" x1="13.0991" y1="1.89145" x2="12.9079" y2="3.28939" gradientUnits="userSpaceOnUse">
<stop stop-color="#000800"/>
<stop offset="0.03" stop-color="#07100C"/>
<stop offset="0.14" stop-color="#273441"/>
<stop offset="0.26" stop-color="#41506B"/>
<stop offset="0.36" stop-color="#53658A"/>
<stop offset="0.44" stop-color="#5F719C"/>
<stop offset="0.5" stop-color="#6376A3"/>
<stop offset="0.56" stop-color="#5E719B"/>
<stop offset="0.65" stop-color="#526387"/>
<stop offset="0.75" stop-color="#3E4D66"/>
<stop offset="0.87" stop-color="#222E38"/>
<stop offset="1" stop-color="#000800"/>
</linearGradient>
<radialGradient id="paint16_radial_4037_1677" cx="0" cy="0" r="1" gradientTransform="matrix(11.131 10.8118 -11.131 10.8118 6.58347 14.2187)" gradientUnits="userSpaceOnUse">
<stop offset="0.83"/>
<stop offset="0.85" stop-color="#003131"/>
<stop offset="0.88" stop-color="#006E6E"/>
<stop offset="0.91" stop-color="#00A2A2"/>
<stop offset="0.94" stop-color="#00CACA"/>
<stop offset="0.96" stop-color="#00E7E7"/>
<stop offset="0.98" stop-color="#00F8F8"/>
<stop offset="1" stop-color="#00FFFF"/>
</radialGradient>
<radialGradient id="paint17_radial_4037_1677" cx="0" cy="0" r="1" gradientTransform="matrix(0.750064 0.728559 -0.750064 0.728559 16.4543 4.86395)" gradientUnits="userSpaceOnUse">
<stop stop-color="#6CC4FF"/>
<stop offset="1" stop-color="#272329"/>
</radialGradient>
<radialGradient id="paint18_radial_4037_1677" cx="0" cy="0" r="1" gradientTransform="matrix(10.8259 10.5155 -10.8259 10.5155 -0.704784 12.4192)" gradientUnits="userSpaceOnUse">
<stop offset="0.89" stop-color="#215DA1"/>
<stop offset="0.91" stop-color="#1F599A"/>
<stop offset="0.93" stop-color="#1C4F89"/>
<stop offset="0.95" stop-color="#163E6C"/>
<stop offset="0.97" stop-color="#0E2744"/>
<stop offset="0.99" stop-color="#030A11"/>
<stop offset="1"/>
</radialGradient>
<radialGradient id="paint19_radial_4037_1677" cx="0" cy="0" r="1" gradientTransform="matrix(0.902578 0.876699 -0.902578 0.876699 10.0488 3.25629)" gradientUnits="userSpaceOnUse">
<stop stop-color="#6CC4FF"/>
<stop offset="1" stop-color="#272329"/>
</radialGradient>
<linearGradient id="paint20_linear_4037_1677" x1="12.6416" y1="6.61985" x2="16.0595" y2="10.1387" gradientUnits="userSpaceOnUse">
<stop stop-color="#437E9C"/>
<stop offset="0.02" stop-color="#417995"/>
<stop offset="0.12" stop-color="#3B5D74"/>
<stop offset="0.22" stop-color="#364859"/>
<stop offset="0.33" stop-color="#323946"/>
<stop offset="0.44" stop-color="#302F3B"/>
<stop offset="0.56" stop-color="#302D38"/>
<stop offset="1" stop-color="#677887"/>
</linearGradient>
<linearGradient id="paint21_linear_4037_1677" x1="14.4741" y1="4.83965" x2="19.4359" y2="9.94793" gradientUnits="userSpaceOnUse">
<stop stop-color="#35313D"/>
<stop offset="0.29" stop-color="#464956"/>
<stop offset="0.75" stop-color="#5D6B79"/>
<stop offset="1" stop-color="#677887"/>
</linearGradient>
<radialGradient id="paint22_radial_4037_1677" cx="0" cy="0" r="1" gradientTransform="matrix(4.15786 4.03864 -4.15786 4.03864 17.1669 8.80056)" gradientUnits="userSpaceOnUse">
<stop offset="0.78" stop-color="#AD9E87"/>
<stop offset="0.83" stop-color="#AFA08A"/>
<stop offset="0.87" stop-color="#B5A893"/>
<stop offset="0.91" stop-color="#C0B5A3"/>
<stop offset="0.94" stop-color="#D0C7BA"/>
<stop offset="0.97" stop-color="#E4DFD8"/>
<stop offset="1" stop-color="white"/>
</radialGradient>
<linearGradient id="paint23_linear_4037_1677" x1="13.6317" y1="7.57667" x2="16.8141" y2="10.8531" gradientUnits="userSpaceOnUse">
<stop stop-color="#434152"/>
<stop offset="0.29" stop-color="#696F7D"/>
<stop offset="0.44" stop-color="#5C5F6A"/>
<stop offset="0.71" stop-color="#423E42"/>
<stop offset="0.86" stop-color="#3C3B41"/>
<stop offset="1" stop-color="#323840"/>
</linearGradient>
<linearGradient id="paint24_linear_4037_1677" x1="13.789" y1="7.42365" x2="14.1896" y2="7.83601" gradientUnits="userSpaceOnUse">
<stop stop-color="#635C73"/>
<stop offset="1" stop-color="white"/>
</linearGradient>
<linearGradient id="paint25_linear_4037_1677" x1="14.1216" y1="8.70349" x2="14.9106" y2="9.51571" gradientUnits="userSpaceOnUse">
<stop stop-color="#040C05"/>
<stop offset="0.06" stop-color="#242B29"/>
<stop offset="0.18" stop-color="#585E64"/>
<stop offset="0.28" stop-color="#818793"/>
<stop offset="0.37" stop-color="#9FA4B5"/>
<stop offset="0.45" stop-color="#B1B6C9"/>
<stop offset="0.5" stop-color="#B8BDD1"/>
<stop offset="0.55" stop-color="#A0A6B6"/>
<stop offset="0.67" stop-color="#686E76"/>
<stop offset="0.78" stop-color="#3B4243"/>
<stop offset="0.87" stop-color="#1B221E"/>
<stop offset="0.95" stop-color="#070F08"/>
<stop offset="1" stop-color="#000800"/>
</linearGradient>
<linearGradient id="paint26_linear_4037_1677" x1="16.1094" y1="9.87647" x2="16.9396" y2="10.7312" gradientUnits="userSpaceOnUse">
<stop stop-color="white"/>
<stop offset="1" stop-color="#635C73"/>
</linearGradient>
<radialGradient id="paint27_radial_4037_1677" cx="0" cy="0" r="1" gradientTransform="matrix(2.87275 2.79038 -2.87275 2.79038 18.0369 10.2334)" gradientUnits="userSpaceOnUse">
<stop offset="0.73" stop-color="#635C73"/>
<stop offset="0.76" stop-color="#686178"/>
<stop offset="0.81" stop-color="#787286"/>
<stop offset="0.86" stop-color="#928D9D"/>
<stop offset="0.91" stop-color="#B7B4BE"/>
<stop offset="0.97" stop-color="#E5E4E8"/>
<stop offset="1" stop-color="white"/>
</radialGradient>
<linearGradient id="paint28_linear_4037_1677" x1="16.7493" y1="9.36235" x2="23.6793" y2="21.7224" gradientUnits="userSpaceOnUse">
<stop stop-color="#343840"/>
<stop offset="0.19" stop-color="#414953"/>
<stop offset="0.41" stop-color="#4E5966"/>
<stop offset="0.62" stop-color="#414D5E"/>
<stop offset="1" stop-color="#20314A"/>
</linearGradient>
<linearGradient id="paint29_linear_4037_1677" x1="17.1943" y1="8.07446" x2="19.2188" y2="10.1588" gradientUnits="userSpaceOnUse">
<stop stop-color="#677887"/>
<stop offset="0.25" stop-color="#5D6B79"/>
<stop offset="0.71" stop-color="#464956"/>
<stop offset="1" stop-color="#35313D"/>
</linearGradient>
<linearGradient id="paint30_linear_4037_1677" x1="15.5518" y1="9.66514" x2="16.0349" y2="10.1625" gradientUnits="userSpaceOnUse">
<stop stop-color="#35313D"/>
<stop offset="0.13" stop-color="#383743"/>
<stop offset="0.67" stop-color="#424F5C"/>
<stop offset="1" stop-color="#475866"/>
</linearGradient>
<linearGradient id="paint31_linear_4037_1677" x1="20.4196" y1="12.7858" x2="19.9284" y2="16.384" gradientUnits="userSpaceOnUse">
<stop stop-color="#000800"/>
<stop offset="0.03" stop-color="#07100C"/>
<stop offset="0.14" stop-color="#273441"/>
<stop offset="0.26" stop-color="#41506B"/>
<stop offset="0.36" stop-color="#53658A"/>
<stop offset="0.44" stop-color="#5F719C"/>
<stop offset="0.5" stop-color="#6376A3"/>
<stop offset="0.56" stop-color="#5E719B"/>
<stop offset="0.65" stop-color="#526387"/>
<stop offset="0.75" stop-color="#3E4D66"/>
<stop offset="0.87" stop-color="#222E38"/>
<stop offset="1" stop-color="#000800"/>
</linearGradient>
<radialGradient id="paint32_radial_4037_1677" cx="0" cy="0" r="1" gradientTransform="matrix(1.51763 1.47412 -1.51763 1.47412 18.5544 7.40417)" gradientUnits="userSpaceOnUse">
<stop offset="0.73" stop-color="#635C73"/>
<stop offset="0.76" stop-color="#686178"/>
<stop offset="0.81" stop-color="#787286"/>
<stop offset="0.86" stop-color="#928D9D"/>
<stop offset="0.91" stop-color="#B7B4BE"/>
<stop offset="0.97" stop-color="#E5E4E8"/>
<stop offset="1" stop-color="white"/>
</radialGradient>
<linearGradient id="paint33_linear_4037_1677" x1="14.5542" y1="11.5813" x2="23.6379" y2="20.9331" gradientUnits="userSpaceOnUse">
<stop stop-color="#424352"/>
<stop offset="0.11" stop-color="#434652"/>
<stop offset="0.44" stop-color="#464A54"/>
<stop offset="1" stop-color="#4A657A"/>
</linearGradient>
<radialGradient id="paint34_radial_4037_1677" cx="0" cy="0" r="1" gradientTransform="matrix(21.2743 20.6644 -21.2743 20.6644 -7.40267 26.0893)" gradientUnits="userSpaceOnUse">
<stop offset="0.89" stop-color="#1A4FB0"/>
<stop offset="0.94" stop-color="#0D295C"/>
<stop offset="0.98" stop-color="#030B19"/>
<stop offset="1"/>
</radialGradient>
<radialGradient id="paint35_radial_4037_1677" cx="0" cy="0" r="1" gradientTransform="matrix(7.04061 6.83874 -7.04061 6.83874 18.412 16.8779)" gradientUnits="userSpaceOnUse">
<stop stop-color="#2E9FDB"/>
<stop offset="0.17" stop-color="#237BA7"/>
<stop offset="0.39" stop-color="#16526C"/>
<stop offset="0.58" stop-color="#0C323D"/>
<stop offset="0.76" stop-color="#051B1B"/>
<stop offset="0.9" stop-color="#010D07"/>
<stop offset="1" stop-color="#000800"/>
</radialGradient>
<radialGradient id="paint36_radial_4037_1677" cx="0" cy="0" r="1" gradientTransform="matrix(13.3061 12.9246 -13.3061 12.9246 6.20582 19.6853)" gradientUnits="userSpaceOnUse">
<stop offset="0.83"/>
<stop offset="0.85" stop-color="#003131"/>
<stop offset="0.88" stop-color="#006E6E"/>
<stop offset="0.91" stop-color="#00A2A2"/>
<stop offset="0.94" stop-color="#00CACA"/>
<stop offset="0.96" stop-color="#00E7E7"/>
<stop offset="0.98" stop-color="#00F8F8"/>
<stop offset="1" stop-color="#00FFFF"/>
</radialGradient>
<radialGradient id="paint37_radial_4037_1677" cx="0" cy="0" r="1" gradientTransform="matrix(0.832571 0.8087 -0.832571 0.8087 20.8297 10.979)" gradientUnits="userSpaceOnUse">
<stop stop-color="#6CC4FF"/>
<stop offset="1" stop-color="#272329"/>
</radialGradient>
<radialGradient id="paint38_radial_4037_1677" cx="0" cy="0" r="1" gradientTransform="matrix(12.6286 12.2665 -12.6286 12.2665 4.89336 25.3122)" gradientUnits="userSpaceOnUse">
<stop offset="0.89" stop-color="#215DA1"/>
<stop offset="0.91" stop-color="#1F599A"/>
<stop offset="0.93" stop-color="#1C4F89"/>
<stop offset="0.95" stop-color="#163E6C"/>
<stop offset="0.97" stop-color="#0E2744"/>
<stop offset="0.99" stop-color="#030A11"/>
<stop offset="1"/>
</radialGradient>
<radialGradient id="paint39_radial_4037_1677" cx="0" cy="0" r="1" gradientTransform="matrix(0.827573 0.803843 -0.827573 0.803843 17.7294 15.6758)" gradientUnits="userSpaceOnUse">
<stop stop-color="#6CC4FF"/>
<stop offset="1" stop-color="#272329"/>
</radialGradient>
<linearGradient id="paint40_linear_4037_1677" x1="13.709" y1="7.50138" x2="15.7044" y2="9.55569" gradientUnits="userSpaceOnUse">
<stop/>
<stop offset="0.01" stop-color="#000B0B"/>
<stop offset="0.04" stop-color="#002B2B"/>
<stop offset="0.07" stop-color="#005E5E"/>
<stop offset="0.11" stop-color="#00A4A4"/>
<stop offset="0.15" stop-color="#00FFFF"/>
<stop offset="0.21" stop-color="#00D5D5"/>
<stop offset="0.29" stop-color="#00A3A3"/>
<stop offset="0.37" stop-color="#007777"/>
<stop offset="0.46" stop-color="#005252"/>
<stop offset="0.55" stop-color="#003434"/>
<stop offset="0.64" stop-color="#001D1D"/>
<stop offset="0.74" stop-color="#000C0C"/>
<stop offset="0.86" stop-color="#000303"/>
<stop offset="1"/>
</linearGradient>
<radialGradient id="paint41_radial_4037_1677" cx="0" cy="0" r="1" gradientTransform="matrix(0.387534 0.376421 -0.387534 0.376421 19.3947 6.68052)" gradientUnits="userSpaceOnUse">
<stop stop-color="#784D36"/>
<stop offset="0.3" stop-color="#65412E"/>
<stop offset="0.9" stop-color="#362319"/>
<stop offset="1" stop-color="#2E1E16"/>
</radialGradient>
<radialGradient id="paint42_radial_4037_1677" cx="0" cy="0" r="1" gradientTransform="matrix(3.71032 3.60394 -3.71032 3.60394 15.5667 6.85775)" gradientUnits="userSpaceOnUse">
<stop stop-color="#B8BDD1"/>
<stop offset="0.14" stop-color="#9399A7"/>
<stop offset="0.36" stop-color="#5F656C"/>
<stop offset="0.57" stop-color="#363D3D"/>
<stop offset="0.75" stop-color="#18201B"/>
<stop offset="0.9" stop-color="#060E07"/>
<stop offset="1" stop-color="#000800"/>
</radialGradient>
<radialGradient id="paint43_radial_4037_1677" cx="0" cy="0" r="1" gradientTransform="matrix(2.79024 2.71024 -2.79024 2.71024 15.9242 6.26282)" gradientUnits="userSpaceOnUse">
<stop stop-color="#575E73"/>
<stop offset="1" stop-color="#393040"/>
</radialGradient>
<linearGradient id="paint44_linear_4037_1677" x1="16.3567" y1="5.60955" x2="18.8935" y2="8.22117" gradientUnits="userSpaceOnUse">
<stop stop-color="#6B3F24"/>
<stop offset="0.29" stop-color="#A36544"/>
<stop offset="0.37" stop-color="#90583B"/>
<stop offset="0.55" stop-color="#613823"/>
<stop offset="0.61" stop-color="#4F2C1B"/>
<stop offset="0.65" stop-color="#4A2C22"/>
<stop offset="0.72" stop-color="#3F2E38"/>
<stop offset="0.79" stop-color="#303257"/>
<stop offset="0.84" stop-color="#303051"/>
<stop offset="0.89" stop-color="#332D43"/>
<stop offset="0.95" stop-color="#38272B"/>
<stop offset="1" stop-color="#3D2215"/>
</linearGradient>
<linearGradient id="paint45_linear_4037_1677" x1="16.8542" y1="5.12626" x2="19.391" y2="7.73788" gradientUnits="userSpaceOnUse">
<stop stop-color="#A36B4F"/>
<stop offset="1" stop-color="#6E4731"/>
</linearGradient>
<radialGradient id="paint46_radial_4037_1677" cx="0" cy="0" r="1" gradientTransform="matrix(2.13018 2.06911 -2.13018 2.06911 16.9343 6.62218)" gradientUnits="userSpaceOnUse">
<stop stop-color="#66421E"/>
<stop offset="1"/>
</radialGradient>
<radialGradient id="paint47_radial_4037_1677" cx="0" cy="0" r="1" gradientTransform="matrix(0.632556 0.614418 -0.632556 0.614418 18.4619 7.38234)" gradientUnits="userSpaceOnUse">
<stop stop-color="#784D36"/>
<stop offset="0.3" stop-color="#65412E"/>
<stop offset="0.9" stop-color="#362319"/>
<stop offset="1" stop-color="#2E1E16"/>
</radialGradient>
<radialGradient id="paint48_radial_4037_1677" cx="0" cy="0" r="1" gradientTransform="matrix(0.777567 0.755272 -0.777567 0.755272 18.3545 7.60334)" gradientUnits="userSpaceOnUse">
<stop stop-color="#00FFFF"/>
<stop offset="0.29" stop-color="#00A6A6"/>
<stop offset="0.54" stop-color="#005F5F"/>
<stop offset="0.75" stop-color="#002B2B"/>
<stop offset="0.91" stop-color="#000B0B"/>
<stop offset="1"/>
</radialGradient>
<radialGradient id="paint49_radial_4037_1677" cx="0" cy="0" r="1" gradientTransform="matrix(5.51548 5.35734 -5.51548 5.35734 13.7465 0.524143)" gradientUnits="userSpaceOnUse">
<stop stop-color="#2E9FDB"/>
<stop offset="0.17" stop-color="#237BA7"/>
<stop offset="0.39" stop-color="#16526C"/>
<stop offset="0.58" stop-color="#0C323D"/>
<stop offset="0.76" stop-color="#051B1B"/>
<stop offset="0.9" stop-color="#010D07"/>
<stop offset="1" stop-color="#000800"/>
</radialGradient>
<radialGradient id="paint50_radial_4037_1677" cx="0" cy="0" r="1" gradientTransform="matrix(1.36262 1.32355 -1.36262 1.32355 13.9642 4.60174)" gradientUnits="userSpaceOnUse">
<stop stop-color="#7F99A1"/>
<stop offset="1" stop-color="#303238"/>
</radialGradient>
<radialGradient id="paint51_radial_4037_1677" cx="0" cy="0" r="1" gradientTransform="matrix(1.36012 1.32112 -1.36012 1.32112 13.1965 5.72129)" gradientUnits="userSpaceOnUse">
<stop stop-color="#0095FF"/>
<stop offset="0.04" stop-color="#008CF0"/>
<stop offset="0.25" stop-color="#0065A8"/>
<stop offset="0.45" stop-color="#00436C"/>
<stop offset="0.63" stop-color="#002A3D"/>
<stop offset="0.78" stop-color="#00171B"/>
<stop offset="0.91" stop-color="#000C07"/>
<stop offset="1" stop-color="#000800"/>
</radialGradient>
<radialGradient id="paint52_radial_4037_1677" cx="0" cy="0" r="1" gradientTransform="matrix(1.37762 1.33812 -1.37762 1.33812 19.4871 12.9874)" gradientUnits="userSpaceOnUse">
<stop stop-color="#7F99A1"/>
<stop offset="1" stop-color="#303238"/>
</radialGradient>
<radialGradient id="paint53_radial_4037_1677" cx="0" cy="0" r="1" gradientTransform="matrix(1.05509 1.02484 -1.05509 1.02484 19.4721 13.2011)" gradientUnits="userSpaceOnUse">
<stop stop-color="#0095FF"/>
<stop offset="0.04" stop-color="#008CF0"/>
<stop offset="0.25" stop-color="#0065A8"/>
<stop offset="0.45" stop-color="#00436C"/>
<stop offset="0.63" stop-color="#002A3D"/>
<stop offset="0.78" stop-color="#00171B"/>
<stop offset="0.91" stop-color="#000C07"/>
<stop offset="1" stop-color="#000800"/>
</radialGradient>
<radialGradient id="paint54_radial_4037_1677" cx="0" cy="0" r="1" gradientTransform="matrix(1.1601 1.12684 -1.1601 1.12684 20.6071 16.2222)" gradientUnits="userSpaceOnUse">
<stop stop-color="#7F99A1"/>
<stop offset="1" stop-color="#303238"/>
</radialGradient>
<radialGradient id="paint55_radial_4037_1677" cx="0" cy="0" r="1" gradientTransform="matrix(1.71015 1.66111 -1.71015 1.66111 21.5247 16.8658)" gradientUnits="userSpaceOnUse">
<stop stop-color="#0095FF"/>
<stop offset="0.04" stop-color="#008CF0"/>
<stop offset="0.25" stop-color="#0065A8"/>
<stop offset="0.45" stop-color="#00436C"/>
<stop offset="0.63" stop-color="#002A3D"/>
<stop offset="0.78" stop-color="#00171B"/>
<stop offset="0.91" stop-color="#000C07"/>
<stop offset="1" stop-color="#000800"/>
</radialGradient>
<clipPath id="clip0_4037_1677">
<rect width="22" height="24" fill="white"/>
</clipPath>
</defs>
</svg>
