<svg width="73" height="23" viewBox="0 0 73 23" fill="none" xmlns="http://www.w3.org/2000/svg">
<g filter="url(#filter0_d_4001_13871)">
<path d="M35.9539 9.52063C35.6929 9.5159 35.2291 9.94759 35.0456 10.8517C34.862 11.7559 35.2389 12.4045 36.0699 12.4817C36.9012 12.5592 37.1618 11.6205 37.0749 11.2525C36.9881 10.8849 36.4952 9.52973 35.9539 9.52026V9.52063Z" fill="white"/>
<path d="M38.4668 7.1882C38.1818 7.16345 37.8677 7.23661 37.4326 8.0301C36.9979 8.8236 37.0073 9.61709 37.626 9.95596C38.2447 10.2948 39.0465 10.0044 39.1821 9.34628C39.3177 8.68819 38.9793 7.77859 38.8343 7.56565C38.6892 7.35272 38.6125 7.20094 38.4671 7.1882H38.4668Z" fill="white"/>
<path d="M40.9984 7.18435C40.6891 7.18071 40.3703 7.59456 40.2736 8.21407C40.1769 8.83358 39.9548 9.48184 40.5731 9.93683C41.1918 10.3918 41.9166 10.0238 42.0903 9.61761C42.2641 9.2114 42.2931 8.8627 42.0903 8.34984C41.8875 7.83698 41.4913 7.19054 40.9984 7.18471V7.18435Z" fill="white"/>
<path d="M43.5113 9.54C43.1496 9.47048 42.8639 9.83046 42.5837 10.498C42.3034 11.1659 42.1006 11.8433 42.7672 12.3463C43.4342 12.8497 44.3713 12.1334 44.4004 11.4946C44.4295 10.8558 43.9657 9.62699 43.5113 9.53964V9.54Z" fill="white"/>
<path d="M36.205 8.31069C36.0618 8.25173 35.7023 9.2203 35.7605 9.26871C35.8186 9.31712 35.8797 9.20101 35.9796 9.2203C36.0796 9.23959 36.1279 9.27198 36.1567 9.25888C36.1854 9.24578 36.108 9.09654 36.1236 8.98516C36.1392 8.87378 36.2457 8.32743 36.205 8.31069Z" fill="white"/>
<path d="M38.8101 6.0009C38.7239 5.96777 38.1671 6.86282 38.3001 6.88866C38.3444 6.88866 38.4346 6.84426 38.5447 6.91087C38.6549 6.97748 38.6916 6.97384 38.673 6.91087C38.6545 6.8479 38.6916 6.54106 38.7359 6.38563C38.7803 6.23021 38.8577 6.01946 38.8097 6.0009H38.8101Z" fill="white"/>
<path d="M40.5534 6.01591C40.5054 6.02792 40.5276 6.10836 40.5792 6.22302C40.6308 6.33768 40.7086 6.69657 40.705 6.81851C40.7013 6.94044 40.6901 6.96264 40.7457 6.94044C40.8013 6.91824 40.8751 6.85891 40.9711 6.88111C41.067 6.90331 41.1077 6.91059 41.1005 6.86619C41.0932 6.82178 40.9896 6.57026 40.8678 6.37772C40.7461 6.18517 40.6276 5.99662 40.5538 6.01518L40.5534 6.01591Z" fill="white"/>
<path d="M43.1846 8.3005C43.1133 8.27684 43.2475 8.47449 43.2329 8.77441C43.2184 9.07434 43.1722 9.24832 43.234 9.26288C43.2958 9.27744 43.3972 9.16606 43.5034 9.22903C43.6095 9.292 43.6288 9.26762 43.5808 9.10819C43.5328 8.94876 43.3296 8.34891 43.1849 8.3005H43.1846Z" fill="white"/>
<path d="M39.6848 16.9341C39.1392 16.8955 38.9786 16.6771 38.5271 16.3844C38.0756 16.0918 37.084 15.7726 36.6148 15.4712C36.1455 15.1698 35.5345 14.5314 35.9507 13.6094C36.3669 12.6874 37.4911 12.6961 38.0666 12.0668C38.642 11.4375 38.7972 10.4711 39.6845 10.4088C40.5721 10.347 40.7491 11.5259 41.3067 11.9693C41.8643 12.4126 42.0948 12.5276 42.7589 12.8647C43.423 13.2017 43.7239 13.7688 43.5378 14.416C43.3521 15.0632 42.7854 15.5862 42.1391 15.7813C41.4928 15.9764 41.121 16.1624 40.8022 16.4285C40.4834 16.6946 40.1872 16.9694 39.6845 16.9337L39.6848 16.9341Z" fill="white"/>
</g>
<defs>
<filter id="filter0_d_4001_13871" x="0.599998" y="-24.4" width="78.2017" height="79.7368" filterUnits="userSpaceOnUse" color-interpolation-filters="sRGB">
<feFlood flood-opacity="0" result="BackgroundImageFix"/>
<feColorMatrix in="SourceAlpha" type="matrix" values="0 0 0 0 0 0 0 0 0 0 0 0 0 0 0 0 0 0 127 0" result="hardAlpha"/>
<feOffset dy="4"/>
<feGaussianBlur stdDeviation="17.2"/>
<feComposite in2="hardAlpha" operator="out"/>
<feColorMatrix type="matrix" values="0 0 0 0 1 0 0 0 0 0.75 0 0 0 0 0 0 0 0 0.69 0"/>
<feBlend mode="normal" in2="BackgroundImageFix" result="effect1_dropShadow_4001_13871"/>
<feBlend mode="normal" in="SourceGraphic" in2="effect1_dropShadow_4001_13871" result="shape"/>
</filter>
</defs>
</svg>
