<svg width="30" height="31" viewBox="0 0 30 31" fill="none" xmlns="http://www.w3.org/2000/svg">
<circle cx="15" cy="15.25" r="15" fill="url(#paint0_linear_4001_22364)"/>
<path fill-rule="evenodd" clip-rule="evenodd" d="M25.7384 15.4327H23.094C23.094 10.0439 18.7102 5.67554 13.3021 5.67554C7.96102 5.67554 3.61863 9.93692 3.51235 15.2335C3.4024 20.7085 8.55722 25.4628 14.0524 25.4628H14.7436C19.5883 25.4628 26.0816 21.6838 27.0961 17.0793C27.2834 16.2306 26.6107 15.4327 25.7384 15.4327ZM9.37257 15.6728C9.37257 16.3935 8.78105 16.9829 8.05785 16.9829C7.33464 16.9829 6.74316 16.3932 6.74316 15.6728V13.5535C6.74316 12.8329 7.33464 12.2435 8.05785 12.2435C8.78105 12.2435 9.37257 12.8329 9.37257 13.5535V15.6728ZM12.6231 16.9829C13.3462 16.9829 13.9377 16.3935 13.9377 15.6728V13.5535C13.9377 12.8329 13.3462 12.2435 12.6231 12.2435C11.9001 12.2435 11.3084 12.8329 11.3084 13.5535V15.6728C11.3084 16.3932 11.8998 16.9829 12.6231 16.9829Z" fill="url(#paint1_linear_4001_22364)"/>
<defs>
<linearGradient id="paint0_linear_4001_22364" x1="0" y1="0.25" x2="0" y2="30.25" gradientUnits="userSpaceOnUse">
<stop stop-color="#534BB1"/>
<stop offset="1" stop-color="#551BF9"/>
</linearGradient>
<linearGradient id="paint1_linear_4001_22364" x1="3.51059" y1="5.67554" x2="3.51059" y2="25.4628" gradientUnits="userSpaceOnUse">
<stop stop-color="white"/>
<stop offset="1" stop-color="white" stop-opacity="0.82"/>
</linearGradient>
</defs>
</svg>
