<svg width="23" height="27" viewBox="0 0 23 27" fill="none" xmlns="http://www.w3.org/2000/svg">
<g clip-path="url(#clip0_4037_1763)">
<path d="M16.5998 19.0979C16.4521 19.3237 13.8339 17.606 11.9755 19.151C10.117 20.696 9.02718 19.7442 10.078 18.2568C11.1287 16.7693 15.3058 16.4373 16.8603 18.1195C17.8069 19.1422 16.5998 19.0935 16.5998 19.0935V19.0979Z" fill="url(#paint0_linear_4037_1763)"/>
<path d="M18.9185 19.7044C17.4422 20.7359 16.7214 21.8648 17.2077 22.883C18.2151 24.9902 22.5181 26.6238 22.8742 25.9199C23.4039 24.8751 22.288 17.3493 18.9229 19.7L18.9185 19.7044ZM18.7405 22.6749C18.0631 21.6877 19.1704 19.9435 20.1734 20.55C20.6206 20.8244 21.4282 21.8781 21.0592 22.6262C20.6944 23.3744 19.4179 23.6621 18.7405 22.6749Z" fill="url(#paint1_linear_4037_1763)"/>
<path d="M21.4153 26.2696C21.3024 26.2652 21.2329 26.2563 21.2329 26.2563C21.2329 26.2563 21.2329 26.1722 21.2329 26.0217C21.2199 25.2647 21.1287 22.852 20.599 21.5992C19.9607 20.1073 17.9417 19.7487 17.9417 19.7487C17.9417 19.7487 17.946 19.7487 17.946 19.7443C18.0415 19.6646 19.1878 18.7438 20.8812 19.4123C22.6485 20.1073 22.9915 25.4329 22.8743 25.9199C22.7831 26.3006 21.8235 26.2917 21.4197 26.2696H21.4153Z" fill="url(#paint2_linear_4037_1763)"/>
<path d="M21.6976 26.0393C22.1318 24.7732 21.0593 17.9424 17.946 19.7486C17.946 19.7486 17.9417 19.7486 17.9417 19.753C17.8635 19.7973 17.7897 19.846 17.7115 19.8991C16.9169 20.4569 16.5044 21.0413 16.3698 21.6212C16.3698 21.6212 16.3655 21.6345 16.3611 21.661C15.8531 24.1136 20.2603 26.4776 21.4153 26.2695C21.5369 26.2474 21.6194 26.1987 21.6628 26.1146C21.6759 26.0924 21.6845 26.0659 21.6932 26.0349L21.6976 26.0393ZM17.5335 22.874C16.8561 21.8868 17.9634 20.1426 18.9664 20.7491C19.4136 21.0236 20.2213 22.0772 19.8522 22.8253C19.4874 23.5735 18.2109 23.8612 17.5335 22.874Z" fill="url(#paint3_linear_4037_1763)"/>
<g style="mix-blend-mode:screen" opacity="0.3">
<path d="M19.9868 19.3414C19.5873 19.4166 21.2286 21.0546 21.3719 22.0108C21.5109 22.9715 22.4097 22.9051 22.579 22.7147C22.7484 22.5288 22.1144 20.6252 21.5326 19.9346C20.9507 19.244 19.9868 19.3369 19.9868 19.3369V19.3414Z" fill="#FF8390"/>
</g>
<g style="mix-blend-mode:multiply" opacity="0.8">
<path d="M17.5683 21.298C17.1254 22.4889 17.7246 22.449 18.1718 21.7761C18.6191 21.1032 18.9664 20.7447 18.9664 20.7447C18.9664 20.7447 18.2457 20.2178 17.5683 21.298Z" fill="#D42F55"/>
</g>
<g style="mix-blend-mode:multiply" opacity="0.8">
<path d="M21.4153 26.2696C20.2603 26.4777 15.8531 24.1137 16.3611 21.6611C16.3221 21.8958 16.2309 23.153 18.0502 24.5785C19.4788 25.6941 20.5686 25.9686 21.2286 26.0217C21.4197 26.0394 21.576 26.0394 21.6932 26.035C21.7453 26.035 21.7887 26.0305 21.8235 26.0305C22.2273 26.0173 22.8699 25.9199 22.8699 25.9199C22.7787 26.3006 21.8191 26.2917 21.4153 26.2696Z" fill="#D42F55"/>
</g>
<g style="mix-blend-mode:multiply" opacity="0.8">
<path d="M17.2251 20.4083C16.6042 21.1963 16.5825 21.3999 16.8517 21.7009C17.1253 22.002 17.464 20.1913 18.8882 20.6163C20.3124 21.0413 20.2646 22.4358 19.7696 23.3345C19.2746 24.2331 21.0418 25.9154 21.5195 25.9198C21.9971 25.9198 21.8017 22.7457 20.8291 20.997C19.8564 19.2484 18.3107 19.0359 17.2251 20.4127V20.4083Z" fill="#D42F55"/>
</g>
<path d="M19.0791 19.4255C19.0791 19.4255 20.1863 19.5495 20.7421 20.4083C21.2979 21.2671 21.6149 23.3877 21.6149 23.3877C21.6149 23.3877 21.1676 19.9346 19.0791 19.4255Z" fill="#FF7A7A"/>
<path d="M19.2876 21.0192C19.2876 21.0192 18.7405 22.5023 17.5551 22.064C16.6823 21.7408 16.057 20.6695 16.222 19.6823C16.2828 19.3281 16.4435 18.9828 16.7344 18.6862C17.4161 17.9956 18.2107 18.3631 18.7187 18.7438C19.027 18.974 19.2268 19.2086 19.2268 19.2086C19.2268 19.2086 18.0284 19.6026 17.7852 19.9125C17.542 20.2268 17.7982 20.6784 18.3062 20.55C18.8099 20.426 19.2876 21.0148 19.2876 21.0148V21.0192Z" fill="url(#paint4_linear_4037_1763)"/>
<g style="mix-blend-mode:multiply" opacity="0.8">
<path d="M14.533 17.4024C16.2568 17.8406 16.0223 18.3719 15.5273 18.5135C15.0323 18.6552 14.6285 18.3099 13.556 18.5135C12.4835 18.7172 13.2651 17.0792 14.533 17.4024Z" fill="#B32A55"/>
</g>
<g style="mix-blend-mode:multiply" opacity="0.8">
<path d="M19.2876 21.0192C19.2876 21.0192 18.7405 22.5022 17.5551 22.0639C16.6823 21.7408 16.057 20.6694 16.222 19.6822C16.3306 20.758 16.7518 20.2577 17.5247 19.1112C17.8981 18.5489 18.354 18.5711 18.7187 18.7437C19.027 18.9739 19.2268 19.2086 19.2268 19.2086C19.2268 19.2086 18.0284 19.6026 17.7852 19.9124C17.542 20.2268 17.7982 20.6783 18.3062 20.5499C18.8099 20.426 19.2876 21.0148 19.2876 21.0148V21.0192Z" fill="#B32A55"/>
</g>
<path d="M16.4697 4.28093C16.3351 5.44079 15.6577 7.54359 14.976 9.88102C14.976 9.88102 14.976 9.89431 14.9717 9.89431C14.7893 10.5274 14.6026 11.1781 14.4289 11.8289C14.2639 12.4487 14.1033 13.0729 13.9643 13.6838C13.9643 13.6838 13.96 13.7015 13.9513 13.7413C13.947 13.7635 13.9426 13.7812 13.9383 13.8077C13.9383 13.8077 13.9383 13.8122 13.9383 13.8166C13.8601 14.1707 13.7863 14.5249 13.7212 14.8702C13.7081 14.9366 13.6951 15.003 13.6864 15.0606C13.6604 15.1934 13.6387 15.3262 13.617 15.4546C13.617 15.4678 13.6126 15.4855 13.6126 15.4988C13.5996 15.5785 13.5866 15.6626 13.5735 15.7423C13.5605 15.822 13.5475 15.9061 13.5388 15.9858C13.5388 15.9991 13.5345 16.0124 13.5345 16.0212C13.5041 16.2337 13.4824 16.4418 13.4606 16.6454C13.4433 16.8491 13.4259 17.0527 13.4172 17.2475C13.3868 17.8628 13.3781 18.4428 13.3868 18.9828C13.3868 19.0802 13.3868 19.1776 13.3912 19.2706V19.3149C13.4042 19.7708 13.4259 20.1958 13.4563 20.5898C13.4563 20.5898 13.4563 20.6075 13.4606 20.643C13.478 20.9307 13.5084 21.2008 13.5345 21.4575C13.7472 23.3611 14.1076 24.4191 14.1076 24.5874C14.1076 24.8574 13.4129 27.1417 10.3604 26.9956C10.3387 26.9956 10.317 26.9956 10.2953 26.9912C9.80027 26.9646 9.32264 26.8805 8.87107 26.7566C6.55239 26.1324 4.86333 24.5165 4.84161 24.1668C4.83293 23.9897 5.02398 23.3522 5.20201 22.4093C5.38003 21.4531 5.53201 20.1781 5.43214 18.7482C5.41911 18.5623 5.40174 18.3719 5.37569 18.1771C5.34095 17.854 5.28451 17.5308 5.21938 17.1988C5.17596 16.9907 5.12385 16.7605 5.05438 16.5126C4.9024 15.9415 4.68964 15.2775 4.44214 14.5559V14.5515C4.39438 14.4054 4.34228 14.2593 4.28583 14.1088C4.22938 13.9538 4.17293 13.7989 4.11649 13.6395C2.57505 9.43833 0.117432 4.01531 0.117432 4.01531C1.97584 -0.429355 6.78252 0.433901 6.78252 0.433901L7.06042 1.34143L7.182 1.73985C10.1867 1.06696 13.0178 1.38127 14.7502 2.11172C14.7416 2.16041 14.7416 2.22239 14.7502 2.28437C14.7502 2.35077 14.7589 2.41718 14.7676 2.48801C14.7676 2.50572 14.772 2.52785 14.7763 2.54999C14.8458 2.98383 15.0108 3.46194 15.0108 3.46194C15.1627 3.62574 15.3842 3.50621 15.5883 3.32028C15.6143 3.30257 15.636 3.27601 15.6621 3.24944C15.6664 3.24944 15.6708 3.24502 15.6751 3.24059C15.8054 3.10778 15.9226 2.96169 15.9964 2.8643C16.2613 3.11221 16.4306 3.38225 16.4827 3.6523C16.4871 3.68771 16.4914 3.72756 16.4958 3.77183C16.5044 3.90906 16.4958 4.08171 16.474 4.2765L16.4697 4.28093Z" fill="url(#paint5_linear_4037_1763)"/>
<path d="M4.67666 5.54697C4.68535 5.59567 4.7939 6.16232 5.011 6.36596C2.93549 5.9941 1.16392 5.35219 0.373663 4.40482C-1.62804 2.01426 5.08048 0 5.08048 0L6.78257 0.433842C6.78257 0.433842 1.51563 1.17314 0.933791 3.21397C0.664582 4.16134 2.34497 4.99803 4.67666 5.54697Z" fill="#FFC59F"/>
<path d="M6.83888 4.94932C2.11035 4.65272 0.9597 2.31528 7.05598 1.34135C7.68124 1.23953 8.389 1.15542 9.17492 1.08902C11.9321 0.849962 13.834 1.22625 15.0063 1.87259C14.8413 1.82832 14.7675 1.93899 14.7501 2.11164C14.7415 2.16034 14.7415 2.22232 14.7501 2.2843C13.7124 1.64239 11.8931 1.2661 9.10544 1.55385C4.78942 1.99654 3.00048 3.03688 4.19455 3.68764C4.21192 3.70092 4.22929 3.70978 4.251 3.71863C4.25534 3.72306 4.25968 3.72748 4.26837 3.72748C4.30744 3.74519 4.35521 3.76733 4.39863 3.78503C4.81113 3.95326 5.44941 4.09049 6.32651 4.16575C6.36125 4.17018 6.39599 4.17461 6.42638 4.17461C6.83019 4.21002 7.28177 4.23216 7.78979 4.24544C8.67558 4.26314 9.33991 4.22773 9.83057 4.1569C11.4371 3.93112 11.2548 3.37775 11.2548 3.37775L13.035 3.6478C12.9786 3.74076 11.9148 5.26806 6.84756 4.95375L6.83888 4.94932Z" fill="#FFC59F"/>
<path d="M16.4697 4.2809C16.3091 5.16186 15.5015 5.96314 14.1901 6.31287C12.4229 6.78213 9.4703 6.90165 6.70874 6.60948C6.78256 6.28631 6.839 5.98527 6.84769 5.95429C8.61926 6.2022 10.5254 6.30402 12.145 6.18891C12.145 6.18891 12.1581 6.18891 12.1841 6.18891C12.2188 6.18891 12.2579 6.18449 12.2927 6.18006C12.3057 6.18006 12.3231 6.18006 12.3404 6.18006C12.6965 6.1535 13.0395 6.11366 13.3608 6.06053C13.6908 6.00741 13.9948 5.9233 14.264 5.81705C14.277 5.81262 14.29 5.8082 14.303 5.80377C14.8849 5.56471 15.3191 5.21056 15.5709 4.80328C15.7316 4.54209 15.8184 4.26319 15.8271 3.97986C15.8271 3.97544 15.8271 3.97101 15.8271 3.96658C15.8271 3.9533 15.8271 3.94445 15.8271 3.93117C15.8271 3.76737 15.8011 3.59915 15.7403 3.43092C15.7229 3.37337 15.7012 3.31582 15.6708 3.25384C15.8011 3.12103 15.9183 2.97495 15.9921 2.87755C16.0442 2.80672 16.0703 2.76245 16.0703 2.76245C16.2917 3.0502 16.422 3.35566 16.4741 3.66555C16.4784 3.70097 16.4828 3.74081 16.4871 3.78508C16.5045 3.9533 16.5001 4.12153 16.4654 4.28975L16.4697 4.2809Z" fill="#FFC59F"/>
<path d="M14.481 16.3266C14.3247 17.2031 14.0033 18.1947 13.3868 18.9783C13.3824 18.9872 13.3781 18.9916 13.3737 18.996C12.7094 19.8327 11.702 20.4171 10.204 20.3329C8.30654 20.2311 6.54366 19.2793 5.37564 18.177C4.90669 17.7343 4.52893 17.2606 4.28143 16.8091C3.92538 16.1672 3.92972 15.5518 4.0513 15.1268C4.14249 14.8125 4.30314 14.6 4.43775 14.5558C4.43775 14.5558 4.43775 14.5558 4.43775 14.5602C4.4638 14.6089 4.67656 15.0162 4.8459 15.2198C4.86761 15.2464 4.9284 15.3261 5.02393 15.4456C5.26274 15.7422 5.70998 16.2823 6.3005 16.8489C6.383 16.9286 6.4655 17.0083 6.55668 17.088C6.878 17.3846 7.23839 17.6768 7.62049 17.938C8.54101 18.571 9.60048 19.0226 10.6599 18.8721C12.2969 18.6418 13.009 17.6148 13.3347 16.7206C13.4259 16.4682 13.4866 16.2247 13.5301 16.0167C13.5301 16.0167 13.5344 15.9901 13.5387 15.9768C13.5561 15.8839 13.5691 15.8042 13.5778 15.7289C13.5909 15.6359 13.5995 15.5607 13.6082 15.4899C13.6082 15.4766 13.6082 15.4589 13.6126 15.4456C13.6169 15.4057 13.6212 15.3703 13.6256 15.3438C13.6386 15.2729 13.656 15.1755 13.682 15.0516C13.6907 14.994 13.7081 14.9276 13.7168 14.8612C13.7906 14.4849 13.8905 14.029 13.9339 13.8076C13.9339 13.8076 13.9339 13.8032 13.9339 13.7988C13.9426 13.7722 13.9469 13.7501 13.9469 13.7324C13.9556 13.6969 13.9599 13.6748 13.9599 13.6748C13.9599 13.6748 14.2682 13.7766 14.5114 14.2149C14.5114 14.2149 14.5114 14.2193 14.5114 14.2237C14.5505 14.299 14.5808 14.5115 14.5895 14.817C14.6026 15.2021 14.5722 15.7378 14.4723 16.3221L14.481 16.3266Z" fill="url(#paint6_linear_4037_1763)"/>
<path d="M14.5983 14.8258C14.3377 15.2552 13.9947 15.6581 13.5344 16.0167C11.6109 17.5218 8.5975 17.5838 6.56541 17.088C5.95752 16.9419 5.43647 16.7427 5.05871 16.5169C4.86331 16.4018 4.71134 16.2823 4.60279 16.1583C4.26411 15.7776 4.11213 15.4279 4.06003 15.1313C3.95148 14.5071 4.29016 14.1131 4.29016 14.1131C4.42476 14.4805 4.65489 14.8568 5.04134 15.1667C5.76212 15.7422 7.02133 16.061 9.17934 15.5873C12.4837 14.8657 14.138 12.5238 14.2292 12.1475L14.2552 12.059L14.29 11.9395L14.3117 11.8686C14.5027 11.2621 14.9283 10.0359 14.9847 9.88535C14.9847 9.88535 14.989 9.8765 14.989 9.87207C14.989 9.87207 15.9356 12.6345 14.6113 14.817L14.5983 14.8258Z" fill="url(#paint7_linear_4037_1763)"/>
<g style="mix-blend-mode:multiply" opacity="0.3">
<path d="M15.827 3.91788C15.827 3.91788 15.827 3.94002 15.827 3.9533C15.827 3.95772 15.827 3.96215 15.827 3.96658C15.8183 4.12595 15.7879 4.27204 15.7358 4.40485C15.7314 4.4137 15.7271 4.42255 15.7271 4.43141C15.3189 5.52929 13.8122 5.94543 12.8874 6.10037H12.8787C12.6573 6.13579 12.4662 6.15792 12.3403 6.1712C12.3229 6.1712 12.3099 6.1712 12.2925 6.1712C12.2448 6.17563 12.21 6.18005 12.184 6.18005C12.1579 6.18005 12.1449 6.18005 12.1449 6.18005L12.1709 6.10922L13.035 3.64341L11.2548 3.36894C11.2548 3.36894 11.2678 3.33352 11.2548 3.31581C11.2461 3.30253 11.2244 3.30253 11.1723 3.33795C11.1506 3.35123 11.1332 3.36451 11.1202 3.37779C11.1202 3.37779 11.1187 3.37927 11.1158 3.38222C11.0811 3.40878 11.0377 3.44862 10.9856 3.49732C10.9856 3.49732 10.9856 3.49732 10.9812 3.49732C10.9031 3.57258 10.7988 3.67883 10.6642 3.82049C10.5253 3.971 10.2257 4.08168 9.83056 4.14808C8.9578 4.30745 7.60307 4.28974 6.42637 4.16579C6.39163 4.16579 6.35689 4.16136 6.3265 4.15694C5.52322 4.0684 4.81111 3.93559 4.39862 3.77622C4.35085 3.75851 4.30743 3.7408 4.26835 3.71867C4.25967 3.71867 4.25533 3.71424 4.25099 3.70981C4.22928 3.70096 4.21191 3.69211 4.19454 3.67883C3.26099 3.12988 5.19322 2.10283 8.43241 1.8018C9.07504 1.74425 9.71766 1.71326 10.3386 1.71326H10.3907C10.8162 1.71326 11.2591 1.72654 11.6933 1.76638C11.7802 1.77081 11.867 1.77966 11.9495 1.78852C11.9799 1.78852 12.0103 1.79294 12.045 1.79737C13.1392 1.90804 14.0945 2.13382 14.7675 2.48355C14.7675 2.50125 14.7718 2.52339 14.7762 2.54552C14.8457 2.97937 15.0107 3.45748 15.0107 3.45748C15.1626 3.62127 15.3841 3.50175 15.5882 3.31581C15.6142 3.29811 15.6359 3.27155 15.662 3.24498C15.6967 3.29811 15.7228 3.35566 15.7401 3.40878C15.8053 3.56372 15.8357 3.73195 15.827 3.90903V3.91788Z" fill="#C60055"/>
</g>
<g style="mix-blend-mode:multiply" opacity="0.3">
<path d="M3.10048 4.7678C3.10048 4.7678 2.70101 4.05506 2.88338 3.25821C3.06574 2.46136 4.73744 1.77961 5.89678 1.56269C7.05612 1.34134 6.64362 0.185906 5.2281 0.743702C3.81258 1.3015 0.634179 2.0895 1.18128 4.0285C1.37233 4.71025 3.10048 4.76338 3.10048 4.76338V4.7678Z" fill="#C60055"/>
</g>
<g style="mix-blend-mode:multiply" opacity="0.2">
<path d="M2.09723 5.8391C0.994339 6.38362 4.38985 13.4402 5.15839 14.9055C5.92694 16.3708 9.74797 15.0604 12.2577 13.3472C14.7674 11.634 15.3666 6.98568 15.3189 6.42346C15.2711 5.86124 11.068 7.8268 7.54654 7.60988C4.02511 7.39296 2.29696 5.74171 2.10157 5.8391H2.09723Z" fill="#EF7A98"/>
</g>
<g style="mix-blend-mode:screen" opacity="0.3">
<path d="M7.90708 25.4904C7.538 23.8923 7.31221 21.5991 7.90708 20.9439C8.50194 20.2887 10.0868 21.3202 11.6717 20.665C13.2565 20.0098 14.012 23.7063 13.9643 24.5961C13.9165 25.486 10.825 28.1554 7.90708 25.4948V25.4904Z" fill="#FF8390"/>
</g>
<g style="mix-blend-mode:multiply" opacity="0.3">
<path d="M15.7446 4.3694C15.7446 4.3694 15.7359 4.39596 15.7359 4.40481C15.7315 4.41367 15.7272 4.42252 15.7272 4.43138C15.6881 4.55976 15.6317 4.67928 15.5709 4.78996C15.2886 5.28578 14.811 5.59566 14.303 5.79045C14.29 5.79488 14.2769 5.7993 14.2639 5.80373C13.7863 5.98524 13.2826 6.06492 12.8918 6.09591H12.8831C12.4663 6.13133 12.1754 6.11362 12.1754 6.11362L13.0394 3.6478C13.0394 3.6478 11.7238 3.2361 11.2635 3.32021C11.2331 3.32464 11.2027 3.33349 11.181 3.34234C11.1593 3.35562 11.1419 3.36891 11.1289 3.38219C11.1289 3.38219 11.1275 3.38366 11.1246 3.38661C11.0942 3.42203 11.0508 3.45744 10.9943 3.50171C10.9943 3.50171 10.9943 3.50171 10.99 3.50171C10.6079 3.77176 9.69604 4.09935 9.30091 3.70978C8.84933 3.25823 7.78552 1.73979 10.3473 1.71765H10.3995C10.825 1.71765 11.2679 1.73093 11.7021 1.77077C11.7889 1.7752 11.8758 1.78406 11.9583 1.79291C11.9887 1.79291 12.019 1.79734 12.0538 1.80176C13.0959 1.91244 14.0902 2.14264 14.785 2.54549C14.8544 2.97933 15.0194 3.45744 15.0194 3.45744C15.1714 3.62124 15.3928 3.50171 15.5969 3.31578C15.7619 3.61239 15.8271 3.96212 15.7532 4.36497L15.7446 4.3694Z" fill="#C60055"/>
</g>
<g style="mix-blend-mode:multiply" opacity="0.3">
<path d="M0.912057 3.51061C0.955478 4.15695 1.42876 4.34731 2.47086 4.70146C3.20468 4.94937 3.1352 5.10432 3.1352 5.10432C3.1352 5.10432 2.4535 3.84263 2.95283 3.07234C3.45652 2.30205 2.49692 2.05414 1.99758 2.16482C1.11613 2.3596 0.907715 3.51061 0.907715 3.51061H0.912057Z" fill="#C60055"/>
</g>
<g style="mix-blend-mode:multiply" opacity="0.7">
<path d="M4.67651 5.5426C4.67651 5.5426 6.5219 6.91939 6.63479 6.91496C6.63479 6.91496 6.51321 7.45062 6.44374 7.42406C6.37427 7.3975 5.11506 6.50768 4.92835 6.37487C4.74599 6.23763 4.67651 5.54703 4.67651 5.54703V5.5426Z" fill="#C60055"/>
</g>
<g style="mix-blend-mode:multiply" opacity="0.3">
<path d="M3.95136 6.18445C5.00649 6.36595 6.11806 7.33103 6.39161 7.68961C6.66516 8.0482 6.70424 6.60501 6.70424 6.60501L6.73029 6.48548C6.73029 6.48548 6.62174 7.26905 6.43503 7.30004C6.25267 7.33103 4.91965 6.37481 4.91965 6.37481L3.94702 6.18445H3.95136Z" fill="#C60055"/>
</g>
<g style="mix-blend-mode:multiply" opacity="0.2">
<path d="M6.89969 9.00446C6.94311 8.10137 8.06337 8.17662 8.24573 8.5839C8.4281 8.99118 8.046 9.86329 7.48153 10.005C6.91706 10.1466 6.88232 9.44716 6.89969 9.00889V9.00446Z" fill="#C60055"/>
</g>
<g style="mix-blend-mode:multiply" opacity="0.3">
<path d="M6.95607 8.72995C7.08634 9.91638 7.03857 8.71225 7.59436 8.45548C8.15015 8.19872 8.28909 8.91589 8.28475 8.9513C8.28041 8.98672 8.45409 8.25184 7.66383 8.29611C6.87357 8.34038 6.95607 8.72995 6.95607 8.72995Z" fill="#C60055"/>
</g>
<g style="mix-blend-mode:multiply" opacity="0.2">
<path d="M6.08326 23.1618C6.10931 22.6085 6.79536 22.6572 6.90825 22.9051C7.02114 23.153 6.78667 23.6886 6.43931 23.7727C6.09194 23.8569 6.07023 23.4319 6.08326 23.1618Z" fill="#C60055"/>
</g>
<g style="mix-blend-mode:multiply" opacity="0.3">
<path d="M6.11801 22.9936C6.19616 23.7196 6.17011 22.9847 6.50879 22.8253C6.84748 22.666 6.93432 23.1087 6.92998 23.1308C6.92998 23.1529 7.03419 22.7014 6.55221 22.7279C6.07024 22.7545 6.11801 22.9936 6.11801 22.9936Z" fill="#C60055"/>
</g>
<g style="mix-blend-mode:multiply" opacity="0.2">
<path d="M6.0443 11.8421C6.60443 11.1559 5.90101 8.85829 4.33352 8.98225C2.76603 9.1062 3.54326 11.4126 4.33352 11.9616C5.12378 12.5061 5.74036 12.2183 6.0443 11.8465V11.8421Z" fill="#C60055"/>
</g>
<g style="mix-blend-mode:multiply" opacity="0.3">
<path d="M3.46508 10.3369C3.53889 10.7176 3.52587 9.42936 4.26402 9.11505C5.00218 8.80073 5.31915 9.79237 5.87493 10.3369C6.43506 10.877 5.75336 8.76089 4.32915 8.98224C3.096 9.1726 3.46508 10.3369 3.46508 10.3369Z" fill="#C60055"/>
</g>
<g style="mix-blend-mode:multiply" opacity="0.2">
<path d="M8.90131 6.76436C8.90131 6.76436 12.8873 6.92816 13.3693 6.96358C13.8513 6.99899 14.2855 7.72501 14.9281 7.21149C15.5708 6.69796 16.1613 5.6532 16.1439 5.36545C16.1309 5.07327 15.3406 6.32609 13.7558 6.56072C12.1709 6.79535 8.89697 6.76879 8.89697 6.76879L8.90131 6.76436Z" fill="#EF7A98"/>
</g>
<g style="mix-blend-mode:multiply" opacity="0.7">
<path d="M8.871 26.7565C6.55233 26.1323 4.86326 24.5165 4.84155 24.1667C4.94142 24.3527 6.98654 26.1058 8.871 26.7565Z" fill="#C60055"/>
</g>
<g style="mix-blend-mode:multiply" opacity="0.7">
<path d="M14.1075 24.5873C14.1075 24.8573 13.4128 27.1416 10.3603 26.9955C10.3386 26.9955 10.3169 26.9955 10.2952 26.9911C10.382 26.9867 10.4645 26.9778 10.547 26.9601C12.6095 26.544 13.4171 24.7865 13.5561 23.7107C13.6342 23.0865 13.5908 22.1436 13.5387 21.4574C13.7515 23.361 14.1119 24.419 14.1119 24.5873H14.1075Z" fill="#C60055"/>
</g>
<path d="M15.0063 1.87261C15.206 1.81063 15.1712 3.53714 15.1712 3.53714C15.1712 3.53714 15.0236 3.70537 14.8152 3.18299C14.6068 2.6606 14.7327 2.14708 14.7588 2.04083C14.8195 1.77521 15.0063 1.86818 15.0063 1.86818V1.87261Z" fill="#DB6345"/>
<path d="M15.1714 3.53711C15.3841 3.47513 16.0702 2.75354 16.0702 2.75354C16.0702 2.75354 15.9139 3.25821 15.7402 3.41758C15.5665 3.57695 15.1714 3.53711 15.1714 3.53711Z" fill="#FFDBB1"/>
<g style="mix-blend-mode:multiply" opacity="0.3">
<path d="M3.42604 11.8289C3.42604 11.8289 3.24801 7.46833 2.88328 6.67147C2.51854 5.87462 0.395264 4.62622 0.395264 4.62622L3.42604 11.8289Z" fill="#C60055"/>
</g>
<g style="mix-blend-mode:multiply" opacity="0.3">
<path d="M4.84155 24.1668C4.84155 24.1668 6.02694 21.369 6.23536 20.5898C6.44378 19.8107 5.40168 18.3099 5.40168 18.3099C5.40168 18.3099 5.81418 20.4791 4.84155 24.1668Z" fill="#C60055"/>
</g>
<g style="mix-blend-mode:multiply" opacity="0.3">
<path d="M14.7459 2.27993C14.4941 2.01874 12.6791 1.6336 12.3621 1.71771C12.0451 1.80182 12.9657 3.17418 13.0308 3.64786C13.0959 4.12154 12.1841 6.18008 12.1841 6.18008C12.1841 6.18008 14.6026 6.10925 15.3408 5.10433C16.0789 4.09941 15.7402 3.41766 15.7402 3.41766C15.7402 3.41766 15.2452 3.59474 15.0108 3.46193C14.7763 3.32912 14.7503 2.27993 14.7503 2.27993H14.7459Z" fill="#C60055"/>
</g>
<g style="mix-blend-mode:multiply" opacity="0.8">
<path d="M14.5982 14.8259C14.6113 15.2111 14.5809 15.7467 14.481 16.3311C14.3811 16.3931 14.2595 16.4285 14.1119 16.4462C13.847 16.4728 13.6386 16.5392 13.4649 16.6454C13.4215 16.672 13.5214 16.1806 13.4823 16.2116C12.9917 16.5657 12.7572 17.1545 11.7976 17.6459C10.9769 18.0665 8.95787 18.1904 7.62485 17.9469C6.75643 17.7876 6.10078 17.7079 6.07472 17.9823C6.00525 18.6818 7.61182 19.9922 9.66997 20.1338C11.7281 20.2755 13.3738 18.9873 13.3738 18.9873V19.005L13.3955 19.275V19.3149C13.3955 19.3149 13.3955 19.3149 13.3955 19.3193C13.3564 19.4432 12.5748 21.7054 10.2996 21.0015C8.24576 20.364 6.25709 18.9031 5.4321 18.7571C5.41907 18.5711 5.4017 18.3808 5.37565 18.186C4.9067 17.7433 4.52894 17.2696 4.28144 16.8181C3.92539 16.1761 3.92974 15.5608 4.05131 15.1358C3.94276 14.5116 4.28144 14.1176 4.28144 14.1176C4.225 13.9627 4.16855 13.8077 4.1121 13.6484L3.8125 12.8426L5.03262 15.1668C5.03262 15.1668 5.01091 15.2775 5.02828 15.4501C5.06302 15.822 5.28447 16.4683 6.30485 16.8535C6.60012 16.9686 6.96051 17.0571 7.4034 17.1102C9.61352 17.3803 12.2535 16.8092 13.5735 15.7334C13.5735 15.7334 13.5778 15.7334 13.5822 15.729C13.8601 15.5032 14.0772 15.2509 14.2205 14.9809C14.342 14.7507 14.4419 14.4939 14.5201 14.2327C14.9239 12.9223 14.8414 11.4127 14.4289 11.8289C14.3681 11.8864 14.2986 11.9927 14.2205 12.152L14.2465 12.0635L14.2813 11.944L14.303 11.8731C14.494 11.2667 14.9195 10.0404 14.976 9.88987C14.976 9.88987 14.9803 9.88101 14.9803 9.87659C14.9803 9.87659 15.9269 12.639 14.6026 14.8215L14.5982 14.8259Z" fill="#D42F55"/>
</g>
<g style="mix-blend-mode:screen" opacity="0.2">
<path d="M6.71732 16.7825C6.53495 17.088 10.026 17.2695 12.1319 16.0122C14.2378 14.7506 14.8587 12.9709 14.6807 12.2715C14.507 11.5676 13.4171 14.6886 11.5501 15.4146C9.68296 16.1406 6.86061 16.5435 6.71298 16.787L6.71732 16.7825Z" fill="#FF6D42"/>
</g>
<g style="mix-blend-mode:screen" opacity="0.2">
<path d="M7.95057 18.9252C7.12558 19.213 9.57017 20.1249 11.1333 19.7663C12.6965 19.4078 13.5475 18.9961 13.8384 17.7299C14.1294 16.4638 13.0829 18.9075 10.8511 19.2927C8.61925 19.6778 8.28925 18.8101 7.95057 18.9252Z" fill="#FF6D42"/>
</g>
<g style="mix-blend-mode:multiply" opacity="0.5">
<path d="M4.28138 14.1131C4.28138 14.1131 5.24532 16.2911 9.0099 15.543C12.7745 14.7948 14.6937 10.691 14.6937 10.691C14.6937 10.691 14.4636 11.7181 14.2204 12.1519C13.9772 12.5858 12.7137 15.1091 9.07069 15.7068C5.42769 16.3044 4.86756 15.3571 4.51151 14.9586C4.15546 14.5602 4.28138 14.1175 4.28138 14.1175V14.1131Z" fill="#D42F55"/>
</g>
<g style="mix-blend-mode:multiply" opacity="0.8">
<path d="M4.05122 15.1314C4.05122 15.1314 3.84714 16.5392 6.5566 17.0881C6.5566 17.0881 5.16713 17.6813 4.6374 17.3626C4.11201 17.0438 4.04688 15.127 4.04688 15.127L4.05122 15.1314Z" fill="#D42F55"/>
</g>
<path d="M9.66555 6.76433C9.17055 6.53413 13.378 6.30836 14.4679 5.8391C15.5577 5.36984 15.4231 4.59955 15.8877 4.63497C16.3523 4.67038 15.3667 6.21539 13.7601 6.56069C12.1536 6.906 9.66555 6.76876 9.66555 6.76876V6.76433Z" fill="#FFDEC8"/>
<path d="M6.42194 4.17457C5.13234 4.31181 7.34246 5.15293 8.94035 4.97585C10.5426 4.79877 11.5499 4.78549 12.0145 4.17457C12.4791 3.56365 11.4457 3.81599 9.66547 4.18343C7.88522 4.55086 6.42194 4.17457 6.42194 4.17457Z" fill="#FFDEC8"/>
<path d="M2.98302 5.05113C1.46763 4.97587 3.20881 5.92324 3.61696 6.06047C4.02512 6.19771 4.6417 6.3615 4.7459 6.31723C4.85011 6.26854 4.67643 5.54252 4.67643 5.54252L2.98736 5.05113H2.98302Z" fill="#FFDEC8"/>
</g>
<defs>
<linearGradient id="paint0_linear_4037_1763" x1="12.6416" y1="20.9671" x2="14.3611" y2="16.8054" gradientUnits="userSpaceOnUse">
<stop stop-color="#A71100"/>
<stop offset="1" stop-color="#B32203"/>
</linearGradient>
<linearGradient id="paint1_linear_4037_1763" x1="17.5507" y1="20.8592" x2="23.8285" y2="24.0469" gradientUnits="userSpaceOnUse">
<stop stop-color="#F4002B"/>
<stop offset="1" stop-color="#FF4234"/>
</linearGradient>
<linearGradient id="paint2_linear_4037_1763" x1="17.3678" y1="20.8923" x2="23.7856" y2="24.151" gradientUnits="userSpaceOnUse">
<stop stop-color="#F4002B"/>
<stop offset="1" stop-color="#FF4234"/>
</linearGradient>
<linearGradient id="paint3_linear_4037_1763" x1="16.5746" y1="21.0966" x2="22.6503" y2="24.1816" gradientUnits="userSpaceOnUse">
<stop stop-color="#B6002B"/>
<stop offset="1" stop-color="#CC0034"/>
</linearGradient>
<linearGradient id="paint4_linear_4037_1763" x1="16.196" y1="20.2224" x2="19.2876" y2="20.2224" gradientUnits="userSpaceOnUse">
<stop stop-color="#A71100"/>
<stop offset="1" stop-color="#B32203"/>
</linearGradient>
<linearGradient id="paint5_linear_4037_1763" x1="8.30659" y1="27.0001" x2="8.30659" y2="0.367498" gradientUnits="userSpaceOnUse">
<stop stop-color="#FFA274"/>
<stop offset="1" stop-color="#E47745"/>
</linearGradient>
<linearGradient id="paint6_linear_4037_1763" x1="3.97749" y1="17.0127" x2="14.6026" y2="17.0127" gradientUnits="userSpaceOnUse">
<stop stop-color="#A71100"/>
<stop offset="1" stop-color="#B32203"/>
</linearGradient>
<linearGradient id="paint7_linear_4037_1763" x1="4.02963" y1="13.6217" x2="15.3017" y2="13.6217" gradientUnits="userSpaceOnUse">
<stop stop-color="#A71100"/>
<stop offset="1" stop-color="#B32203"/>
</linearGradient>
<clipPath id="clip0_4037_1763">
<rect width="23" height="27" fill="white"/>
</clipPath>
</defs>
</svg>
