<svg width="28" height="27" viewBox="0 0 28 27" fill="none" xmlns="http://www.w3.org/2000/svg">
<g clip-path="url(#clip0_4001_10179)">
<path d="M24.4399 26.1993C24.4642 26.5166 23.8909 26.7119 22.9728 26.834C22.6571 26.8731 22.3024 26.9072 21.9187 26.9317H21.9138C19.3149 27.0977 15.244 26.9317 12.8151 26.9317C10.9205 26.9317 7.95235 27.0293 5.33397 27C3.32768 26.9805 1.53514 26.8779 0.626722 26.5996H0.612149C0.213805 26.4727 -0.00965569 26.3165 6.00039e-05 26.1163C0.0340649 25.3546 0.31582 24.9689 0.544139 24.676C0.621864 24.5783 0.689874 24.4904 0.74331 24.4025C0.806462 24.3 0.850183 24.2024 0.845325 24.0852C0.845325 23.9387 0.728737 23.509 0.597575 22.8841C0.242952 21.2436 -0.286553 18.2555 0.524707 15.6678C0.932766 14.3642 1.49628 13.4512 2.02092 12.7774H2.02578C2.22981 12.5186 2.42412 12.294 2.60872 12.0987C2.75932 11.9425 2.89534 11.8009 3.01678 11.674C3.49771 11.1711 3.73574 10.8781 3.38112 10.5071C3.33254 10.4631 3.30825 10.4387 3.30825 10.4387C2.78846 9.97975 1.98206 9.29621 1.47685 8.56384C1.47685 8.56384 1.47685 8.56221 1.47685 8.55896C0.937624 7.768 0.748168 6.9331 1.65659 6.28861C5.42142 3.60814 18.4307 4.8434 22.351 8.05606C22.8271 8.44666 22.968 8.89096 22.9145 9.34503C22.8805 9.61845 22.7785 9.89187 22.6279 10.1604C22.6279 10.1604 22.6279 10.1604 22.6279 10.1653C22.2053 10.9172 21.4377 11.6154 20.9811 11.9962C20.7091 12.2257 20.7479 12.4161 20.9665 12.6798C21.0588 12.7969 21.19 12.9239 21.3406 13.0752C21.8895 13.6318 22.7396 14.496 23.3614 16.117C23.4392 16.3123 23.512 16.5174 23.5752 16.742C24.4836 19.6763 23.7744 23.011 23.6043 24.0705C23.5849 24.2024 23.5703 24.3 23.5703 24.3537C23.5752 24.8322 24.3524 25.0177 24.4399 26.209V26.1993Z" fill="url(#paint0_radial_4001_10179)"/>
<g style="mix-blend-mode:multiply" opacity="0.7">
<path d="M21.3357 13.0655C20.6604 12.504 20.3107 13.0118 19.65 13.8027C18.3044 15.4237 14.9768 17.6403 11.0613 17.2595C7.5637 16.9177 5.72743 12.9776 2.61841 12.089C3.35194 11.3078 3.83287 10.9611 3.39081 10.4973C3.96889 11.0246 7.77744 14.3691 12.6159 15.3407C17.5563 16.3367 22.4821 10.3264 22.623 10.1555C22.2004 10.9074 21.4328 11.6056 20.9762 11.9864C20.5827 12.3136 20.8353 12.5626 21.3405 13.0655H21.3357Z" fill="#E37478"/>
</g>
<g style="mix-blend-mode:multiply" opacity="0.3">
<path d="M23.7647 22.6351L23.5996 24.0608L23.5656 24.344C23.5656 24.344 20.0874 25.3595 19.1789 26.1798C18.2705 27 22.9729 26.834 22.9729 26.834C20.5537 27.1465 15.6036 26.9268 12.8152 26.9268C9.48268 26.9268 2.73513 27.2393 0.626828 26.5948C0.850289 26.6241 3.799 27.0293 5.32436 26.463C6.70399 25.9552 2.56997 25.2521 0.748274 24.3977C0.811426 24.2952 0.855147 24.1975 0.850289 24.0803C0.850289 23.9339 0.733701 23.5042 0.602539 22.8793C0.602539 22.8793 3.72128 26.5118 13.1892 26.1603C21.9479 25.8331 23.7647 22.64 23.7647 22.64V22.6351Z" fill="#BE2F55"/>
</g>
<g style="mix-blend-mode:multiply" opacity="0.3">
<path d="M15.1664 15.6433C14.4669 15.4773 17.6876 14.3934 18.9555 13.5244C20.4177 12.5186 20.8258 12.2549 20.6655 12.5039C20.5052 12.7529 18.222 16.3659 15.1712 15.6433H15.1664Z" fill="#BE2F55"/>
</g>
<g style="mix-blend-mode:multiply" opacity="0.3">
<path d="M3.61925 10.7072C3.4978 10.6486 4.18276 12.1671 4.49366 12.7188C4.80456 13.2656 7.22377 15.9266 8.92402 16.5662C10.5951 17.196 10.5951 15.9363 9.99274 14.9501C9.38551 13.9589 7.78242 13.9931 3.61925 10.7072Z" fill="#BE2F55"/>
</g>
<g style="mix-blend-mode:multiply" opacity="0.5">
<path d="M23.6044 24.0607C23.585 24.1925 23.5704 24.2902 23.5704 24.3439C23.5704 24.3439 19.9319 25.2081 19.4607 25.9697C19.1255 26.5117 20.8694 26.7998 21.9139 26.9267C19.3149 27.0927 15.244 26.9267 12.8151 26.9267C10.9206 26.9267 7.95241 27.0244 5.33403 26.9951C5.43605 26.8242 5.50406 26.6435 5.52835 26.4629C5.65951 25.4766 2.03556 24.8712 0.553915 24.671C0.631641 24.5734 0.69965 24.4855 0.753087 24.3976C0.816239 24.2951 0.859959 24.1974 0.855101 24.0802C0.855101 23.9338 0.738513 23.5041 0.607351 22.8792C0.252729 21.2386 -0.276777 18.2506 0.534484 15.6629C0.942543 14.3593 1.50605 13.4462 2.0307 12.7725H2.03556C-0.126183 15.4676 3.38118 25.2667 13.1892 25.916C22.215 26.5166 23.5801 19.0611 23.3566 16.1121C23.4344 16.3074 23.5072 16.5124 23.5704 16.737C24.4788 19.6714 23.7696 23.0061 23.5995 24.0656L23.6044 24.0607Z" fill="#E37478"/>
</g>
<g style="mix-blend-mode:soft-light" opacity="0.3">
<path d="M5.14935 13.5391C2.59898 11.6007 2.8613 20.1157 6.21322 23.4065C9.44854 26.5801 17.8089 26.795 20.3884 23.6799C22.9291 20.6089 22.8756 16.742 21.7778 14.6376C20.6604 12.4991 17.7409 17.1277 12.9025 17.1423C7.85517 17.1521 5.82459 14.0517 5.14935 13.5391Z" fill="white"/>
</g>
<g style="mix-blend-mode:multiply" opacity="0.5">
<path d="M5.6061 26.9951C5.6061 26.9951 5.45551 26.4434 11.1003 26.1455C16.4877 25.8624 19.689 26.9951 19.689 26.9951C19.689 26.9951 16.6723 26.9463 13.0726 26.9267C9.36121 26.9072 5.6061 26.9951 5.6061 26.9951Z" fill="#BE2F55"/>
</g>
<g style="mix-blend-mode:multiply" opacity="0.5">
<path d="M3.16749 6.95756C2.57969 7.3921 5.17378 8.93496 7.661 11.2395C10.0851 13.4854 15.3024 13.1339 18.2317 11.9426C21.0978 10.7805 20.7237 7.70458 18.6349 6.8648C16.4974 6.00548 15.487 6.98686 10.838 6.09337C5.9899 5.16082 4.3528 6.07872 3.17235 6.95268L3.16749 6.95756Z" fill="#BE2F55"/>
</g>
<g style="mix-blend-mode:multiply" opacity="0.3">
<path d="M3.17724 7.35786C2.55058 6.33255 6.94207 5.58065 9.27869 6.62061C11.5667 7.63617 9.95393 12.4942 9.57016 12.3477C9.18639 12.1964 7.87477 11.3224 6.23768 9.99928C4.57144 8.65172 3.58044 8.01211 3.1821 7.35786H3.17724Z" fill="#BE2F55"/>
</g>
<g style="mix-blend-mode:multiply" opacity="0.3">
<path d="M16.1573 6.64497C14.457 6.81586 13.6506 11.4249 13.947 12.3672C14.2433 13.2998 18.3093 12.25 19.6598 10.9513C21.0006 9.66722 20.7722 6.18114 16.1573 6.64497Z" fill="#BE2F55"/>
</g>
<g style="mix-blend-mode:soft-light" opacity="0.5">
<path d="M1.1272 6.8892C1.29236 8.24653 5.8053 12.8458 12.1254 14.1152C18.1054 15.3163 22.8515 10.5803 22.6183 8.92031C22.2394 6.22031 15.827 5.61488 10.8137 5.03875C5.57213 4.43333 1.94817 5.90783 2.10848 6.49861C2.26879 7.08938 2.47282 7.01615 3.15778 6.58649C3.83788 6.16172 6.63599 5.3317 9.26895 5.89318C11.8387 6.44002 18.8583 6.20078 20.374 7.75828C21.8653 9.28649 18.9312 12.9972 13.5244 12.88C7.85531 12.753 4.42567 9.6185 3.45411 8.27582C2.46796 6.9185 1.1272 6.89408 1.1272 6.89408V6.8892Z" fill="white"/>
</g>
<g style="mix-blend-mode:multiply" opacity="0.5">
<path d="M22.9097 9.33527C22.8757 9.60869 22.7737 9.88211 22.6231 10.1458C22.6231 10.1458 22.6231 10.1458 22.6231 10.1506C22.2004 10.9025 21.4329 11.6007 20.9762 11.9816C20.7042 12.211 20.7431 12.4015 20.9617 12.6651C20.6653 12.4991 16.9685 18.0163 11.8775 17.0935C7.00509 16.2098 4.06123 13.2901 3.02651 11.6642C3.50744 11.1613 3.74547 10.8684 3.39085 10.4973C3.34227 10.4534 3.31798 10.4289 3.31798 10.4289C2.79819 9.96999 1.99179 9.28645 1.48657 8.55408C1.48657 8.55408 1.48657 8.55245 1.48657 8.54919C1.65174 8.72496 7.01966 14.2568 13.3349 14.2812C19.3294 14.3007 22.8077 9.48663 22.9145 9.33527H22.9097Z" fill="#BE2F55"/>
</g>
<g style="mix-blend-mode:multiply" opacity="0.3">
<path d="M19.1789 25.9357C17.9547 25.5597 21.326 23.3089 22.6522 19.7691C23.9784 16.2342 23.9736 21.3413 23.9736 21.3413C23.9736 21.3413 23.5849 23.929 23.3275 24.2366C23.07 24.5442 19.1789 25.9357 19.1789 25.9357Z" fill="#BE2F55"/>
</g>
<g style="mix-blend-mode:multiply" opacity="0.3">
<path d="M5.78082 26.131C4.3769 25.9747 0.956976 24.0657 0.689794 23.0355C0.422613 21.9955 0.208868 17.5525 0.791809 17.157C1.36989 16.7664 4.43519 23.636 9.81283 25.5744C14.9233 27.4199 5.78082 26.131 5.78082 26.131Z" fill="#BE2F55"/>
</g>
<path d="M12.8394 21.2778C12.4167 20.7847 12.7908 20.4283 13.2037 20.3257C13.6166 20.2232 14.9428 21.5268 15.1809 21.5317C15.1809 21.5317 15.6181 20.4966 15.5743 20.1792C15.5403 19.94 14.9185 19.0221 14.0635 18.4997C14.0538 17.8503 14.0295 17.4207 13.9955 17.3865C13.8304 17.2205 12.6159 17.2644 12.3682 17.3181C12.3147 17.3279 12.3099 17.738 12.339 18.3776C11.4792 18.9684 10.9497 20.5601 11.3577 21.5854C11.8872 22.9085 13.9421 22.3519 14.2384 22.6937C14.5299 23.0355 13.7575 23.8948 13.2717 23.8606C13.2377 23.8509 13.2086 23.846 13.1746 23.8411C12.7519 23.6897 12.5285 22.7718 12.2661 22.6595C11.9892 22.5424 11.28 22.85 11.1634 23.2698C11.0614 23.6409 12.1496 24.4172 12.9705 24.7639C13.0385 25.1935 13.0968 25.4669 13.1357 25.4816C13.1357 25.4816 13.8207 25.6232 13.9227 25.4865C13.9421 25.4621 13.9615 25.1789 13.9761 24.7297C14.6854 24.3 15.4335 23.1868 15.6132 22.6058C15.8561 21.8295 13.262 21.766 12.8442 21.2778H12.8394Z" fill="url(#paint1_linear_4001_10179)"/>
<g style="mix-blend-mode:soft-light">
<path d="M11.3093 21.2436C11.4647 22.5814 12.2517 20.4722 13.2038 20.3257C14.1511 20.1793 14.6466 21.0825 14.9526 21.019C15.2587 20.9556 15.4238 20.3941 15.419 20.0377C15.419 19.6813 13.8645 17.9968 13.0484 17.9822C12.2274 17.9675 11.1052 19.5104 11.3093 21.2436Z" fill="white"/>
</g>
<g style="mix-blend-mode:multiply" opacity="0.2">
<path d="M11.9601 21.8393C11.8532 22.1859 14.2044 22.4935 14.3793 22.6546C14.5542 22.8158 14.0004 23.6751 14.0975 23.885C14.1947 24.0901 15.346 23.0355 15.4529 22.5228C15.5597 22.0053 13.5729 21.7709 13.0045 21.4731C12.4313 21.1752 11.9601 21.8393 11.9601 21.8393Z" fill="#E02774"/>
</g>
<path d="M14.355 18.7096C13.7284 18.3092 13.9081 19.3785 14.6174 19.9839C15.3266 20.5893 15.4529 19.4029 14.355 18.7096Z" fill="white"/>
<g style="mix-blend-mode:multiply" opacity="0.5">
<path d="M19.106 21.9271C18.9311 22.7034 17.6389 25.9893 18.0324 26.5508C18.4259 27.1123 21.6855 27.0293 22.7542 26.8584C23.823 26.6875 24.1533 23.2649 24.1533 23.2649L19.106 21.9271Z" fill="#BE2F55"/>
</g>
<path d="M22.0888 26.6876C21.535 26.5118 21.0395 26.2677 20.6023 25.9699C20.4615 25.8722 20.3254 25.7746 20.204 25.6671C19.9417 25.4474 19.7133 25.2082 19.5239 24.9592C19.5239 24.9592 19.5239 24.9543 19.519 24.9494C19.4364 24.8371 19.3587 24.7248 19.2956 24.6125C19.2956 24.6125 19.2907 24.6028 19.2859 24.5979C19.1936 24.4368 19.111 24.2708 19.0478 24.0999C19.0478 24.095 19.0478 24.0901 19.043 24.0852C18.8584 23.5872 18.8244 23.0746 18.9555 22.5863V22.5765C18.9555 22.5765 18.9701 22.5326 18.9798 22.5082C18.9895 22.474 19.0041 22.4398 19.0138 22.4057C19.0187 22.3861 19.0284 22.3715 19.0332 22.352C19.0381 22.3373 19.0478 22.3178 19.0527 22.3031C19.0575 22.2836 19.0673 22.269 19.077 22.2494C19.077 22.2397 19.0867 22.2299 19.0915 22.2201C19.1644 22.0639 19.2518 21.9223 19.3587 21.7905C19.4267 21.7026 19.5045 21.6196 19.5822 21.5415C20.51 20.6431 22.2103 20.3404 23.9154 20.8823C24.2117 20.9751 24.4886 21.0923 24.7509 21.2192C26.0431 21.8637 26.9224 22.9232 27.0924 24.0022C27.1313 24.2415 27.1361 24.4807 27.0973 24.7199C27.0973 24.7297 27.0973 24.7346 27.0973 24.7444C27.0973 24.7492 27.0973 24.7541 27.0973 24.759C27.0827 24.8518 27.0584 24.9494 27.0293 25.0422V25.0617C27.0293 25.0617 27.0147 25.0959 27.005 25.1154C26.7426 25.8917 26.0674 26.4581 25.1881 26.7462C25.1736 26.751 25.159 26.7559 25.1493 26.7608C25.1396 26.7608 25.1347 26.7657 25.1347 26.7657C24.2554 27.0391 23.1721 27.0391 22.0888 26.6925V26.6876Z" fill="url(#paint2_linear_4001_10179)"/>
<path d="M18.9312 22.7035L18.9554 22.5815L18.9603 22.5717L19.106 21.9272L19.1109 21.9126L19.174 21.6245V21.6196L19.2178 21.4292V21.4194L19.2372 21.4243L19.3052 21.4487L19.4267 21.4878L19.5821 21.5366L24.2699 23.0746L27.0972 24.0023L27.2818 24.0608L27.4178 24.1048L27.4227 24.1097L27.2721 24.4759L27.0097 25.1106H27.0049L26.9515 25.0959L26.932 25.091L26.8592 25.0666L26.8203 25.0569L26.8106 25.052L24.7994 24.4514L19.4364 22.8549L19.1595 22.7719L19.1303 22.7621H19.1206L19.0137 22.7279L18.9603 22.7133L18.9312 22.7035Z" fill="url(#paint3_linear_4001_10179)"/>
<path d="M22.3755 25.7746C21.8071 25.5939 21.2922 25.34 20.8453 25.0324C20.8453 25.0324 20.7821 24.9885 20.7141 24.9348C20.6801 24.9104 20.6461 24.8859 20.6121 24.8566C20.2915 24.6076 20.0146 24.3342 19.7911 24.0413C19.7571 24.0022 19.728 23.9583 19.6988 23.9143C19.4414 23.553 19.2616 23.1673 19.1693 22.7718C19.1256 22.5863 19.1013 22.4057 19.1013 22.2201C19.1013 22.1713 19.1013 22.1176 19.1013 22.0688C19.1013 22.0248 19.1013 21.9858 19.111 21.9418C19.111 21.9369 19.111 21.9321 19.111 21.9272C19.1256 21.7807 19.1548 21.6391 19.2033 21.4975C19.2082 21.478 19.2179 21.4536 19.2228 21.434V21.4243C19.3248 21.146 19.4754 20.897 19.6697 20.6773C19.694 20.648 19.7183 20.6187 19.7426 20.5894C19.7426 20.5845 19.7523 20.5796 19.7571 20.5698C19.9952 20.3257 20.2818 20.1207 20.6121 19.9644C20.6121 19.9644 20.6121 19.9644 20.617 19.9644C20.8744 19.8424 21.1562 19.7447 21.4574 19.6764C22.2929 19.4908 23.2645 19.5299 24.2409 19.8375C24.955 20.0621 25.5817 20.4087 26.0966 20.8237C26.0966 20.8237 26.116 20.8384 26.1501 20.8677C26.9565 21.5415 27.4617 22.3959 27.5248 23.2503C27.5248 23.2503 27.5248 23.2503 27.5248 23.2552C27.5248 23.304 27.5297 23.3577 27.5297 23.4066C27.5297 23.4359 27.5297 23.4603 27.5297 23.4847C27.5297 23.5335 27.5297 23.5774 27.52 23.6263C27.52 23.6507 27.5151 23.68 27.5102 23.7044C27.4957 23.8411 27.4665 23.9778 27.4228 24.1096C27.3839 24.2366 27.3305 24.3586 27.2722 24.4758C27.2188 24.5783 27.1653 24.6711 27.0973 24.759C27.0973 24.7639 27.0973 24.7688 27.0876 24.7688C27.0633 24.8029 27.039 24.8371 27.0099 24.8713C27.0099 24.8713 27.0099 24.8713 27.0099 24.8762C26.9565 24.9397 26.903 24.9982 26.8447 25.0568C25.9072 26.004 24.1486 26.3312 22.3804 25.7697L22.3755 25.7746Z" fill="url(#paint4_linear_4001_10179)"/>
<g style="mix-blend-mode:soft-light" opacity="0.5">
<path d="M22.5941 19.6031C22.2929 19.647 22.7447 21.9906 22.7689 23.0159C22.7932 24.0413 22.0063 25.3742 22.0937 25.5402C22.1811 25.7062 24.0611 26.1456 25.1007 25.8917C26.1403 25.6378 25.2124 25.3644 24.9501 24.6906C24.6829 24.0168 24.6052 21.5707 24.8092 21.1215C25.0133 20.6724 25.3096 20.5991 25.3339 20.4136C25.3582 20.2281 24.0223 19.3932 22.5892 19.5982L22.5941 19.6031Z" fill="white"/>
</g>
<path d="M22.7107 24.7052C21.2825 24.2512 20.3644 23.094 20.5732 22.0638C20.583 22.015 20.5975 21.9662 20.6121 21.9173C20.9473 20.8481 22.4289 20.3696 23.9252 20.8432C25.4214 21.3168 26.3589 22.5667 26.0238 23.6311C26.0092 23.6799 25.9897 23.7287 25.9703 23.7727C25.5525 24.7394 24.1389 25.1544 22.7107 24.7003V24.7052Z" fill="url(#paint5_linear_4001_10179)"/>
<path d="M22.7107 24.7053C21.2825 24.2512 20.3644 23.0941 20.5732 22.0639C20.991 21.0972 22.4047 20.6822 23.8329 21.1313C25.2611 21.5854 26.1792 22.7425 25.9703 23.7727C25.5525 24.7395 24.1389 25.1545 22.7107 24.7004V24.7053Z" fill="#FF9304"/>
<path d="M23.5608 19.7008C24.4692 19.8473 22.8661 21.1021 22.1763 19.6422C22.1763 19.6422 22.8272 19.5836 23.5608 19.7008Z" fill="white"/>
<g style="mix-blend-mode:soft-light" opacity="0.5">
<path d="M20.8403 25.0276C20.8403 25.0276 20.7772 24.9836 20.7092 24.9299C20.51 24.7786 20.1311 24.4661 19.7862 24.0364C19.4996 23.68 19.2421 23.2504 19.1352 22.7621C19.0964 22.5961 19.0769 22.4252 19.0818 22.2495C19.0818 22.2104 19.0818 22.1713 19.0866 22.1323C19.0866 22.1323 19.0866 22.1323 19.0866 22.1274C19.0866 22.0688 19.0964 22.0053 19.1061 21.9419C19.1061 21.9321 19.1061 21.9223 19.1061 21.9126C19.1061 21.9028 19.1061 21.8979 19.1061 21.8882C19.1255 21.7954 19.1449 21.7075 19.1692 21.6245C19.1887 21.5513 19.2081 21.4878 19.2324 21.4243C19.3587 21.0728 19.5433 20.7945 19.7327 20.5845C19.7327 20.5797 19.7425 20.5748 19.7473 20.565C20.1262 20.15 20.5294 19.984 20.6023 19.9596C20.6023 19.9596 20.6023 19.9596 20.6072 19.9596H20.612C20.7043 19.9156 20.2137 20.1939 19.8056 20.7359C19.6502 20.941 19.5044 21.1997 19.4121 21.4927C19.383 21.5903 19.3587 21.688 19.3441 21.7954C19.3441 21.8247 19.3344 21.8491 19.3344 21.8784C19.3004 22.2202 19.3393 22.5522 19.4218 22.8647C19.7473 24.0609 20.7432 24.9592 20.8258 25.0373L20.8403 25.0276Z" fill="white"/>
</g>
<path d="M21.7586 20.8286C21.7586 20.8286 19.9369 21.8344 20.8744 23.387C20.8744 23.387 19.66 21.6245 21.7586 20.8286Z" fill="#FFE016"/>
<g style="mix-blend-mode:multiply" opacity="0.5">
<path d="M24.7656 21.2046C24.2895 21.1216 25.6351 21.9272 25.7031 23.2699C25.7711 24.6125 23.5171 24.8762 23.5171 24.8762C23.5171 24.8762 25.5282 25.2521 26.048 23.597C26.4561 22.2983 24.7656 21.2095 24.7656 21.2095V21.2046Z" fill="#D42F55"/>
</g>
<g style="mix-blend-mode:multiply" opacity="0.8">
<path d="M25.1541 26.756C25.1541 26.756 25.1788 26.7462 25.1936 26.7413C25.1788 26.7462 25.1639 26.7511 25.1541 26.756Z" fill="#D42F55"/>
</g>
<g style="mix-blend-mode:multiply" opacity="0.8">
<path d="M25.1931 26.7413C25.3 26.7022 25.5575 26.5997 25.8586 26.3849C26.2181 26.131 26.6408 25.7257 26.9468 25.0959C26.9517 25.0861 26.9565 25.0764 26.9614 25.0715C27.0051 24.9787 27.0488 24.8762 27.0877 24.7736C27.0877 24.7639 27.0925 24.7541 27.0974 24.7443C27.1022 24.7297 27.1071 24.7199 27.112 24.7053C27.1703 24.5442 27.2188 24.3733 27.2577 24.1877C27.2674 24.1438 27.2771 24.1047 27.282 24.0608C27.4569 23.0794 27.1848 22.2836 26.8545 21.727C26.5825 21.268 26.2716 20.9653 26.1501 20.8579C26.9565 21.5317 27.4617 22.3861 27.5249 23.2405C27.5249 23.2405 27.5249 23.2405 27.5249 23.2454C27.5249 23.2943 27.5297 23.348 27.5297 23.3968C27.5297 23.4163 27.5297 23.431 27.5297 23.4505C27.5297 23.4603 27.5297 23.4651 27.5297 23.4749C27.5297 23.5237 27.5297 23.5677 27.52 23.6165C27.52 23.6409 27.5152 23.6702 27.5103 23.6946C27.4957 23.8313 27.4666 23.968 27.4229 24.0999C27.384 24.2268 27.3306 24.3489 27.2723 24.466L27.0099 25.1056C26.7476 25.882 26.0724 26.4483 25.1931 26.7364V26.7413Z" fill="#D42F55"/>
</g>
<g style="mix-blend-mode:multiply" opacity="0.8">
<path d="M19.519 24.9446C19.4364 24.8323 19.3587 24.72 19.2956 24.6077C19.2956 24.6077 19.2907 24.5979 19.2859 24.593C19.179 24.4221 19.0915 24.2513 19.0478 24.095C19.0478 24.0901 19.0478 24.0853 19.043 24.0804C18.8584 23.5824 18.8244 23.0697 18.9555 22.5815V22.5717L19.1061 21.9223C19.1207 21.7758 19.1498 21.6343 19.1984 21.4927C19.2033 21.4731 19.213 21.4487 19.2178 21.4292V21.4145C19.315 21.1362 19.4705 20.8872 19.6599 20.6675C19.6842 20.6382 19.7085 20.6089 19.7328 20.5796C19.7328 20.5748 19.7425 20.5699 19.7473 20.5601C20.1263 20.1451 20.5295 19.9791 20.6023 19.9547C20.6023 19.9547 20.6023 19.9547 20.6072 19.9547C20.8647 19.8326 21.1464 19.735 21.4476 19.6666C21.4039 19.6813 20.4955 20.0084 19.8105 20.731C19.6113 20.9361 19.4364 21.1753 19.3004 21.4487C19.2033 21.6391 19.1304 21.8442 19.0867 22.0688C19.0867 22.0688 19.077 22.1079 19.077 22.1274C19.077 22.1274 19.077 22.1274 19.077 22.1323C19.0673 22.1909 19.0575 22.2446 19.0478 22.3032C19.0478 22.3129 19.0478 22.3227 19.043 22.3324C19.0235 22.4692 19.0138 22.601 19.009 22.7279C18.9555 23.8167 19.3344 24.6126 19.4705 24.8664C19.4899 24.9055 19.5045 24.9299 19.5093 24.9397L19.519 24.9446Z" fill="#D42F55"/>
</g>
<path d="M23.5169 25.9357C22.5405 25.6281 25.0229 24.759 25.6787 24.7688C26.3345 24.7785 26.1499 25.4767 25.6787 25.7355C25.2075 25.9943 24.0027 26.087 23.5169 25.9357Z" fill="white"/>
<mask id="mask0_4001_10179" style="mask-type:luminance" maskUnits="userSpaceOnUse" x="0" y="0" width="23" height="13">
<path d="M3.43952 7.69964C3.43952 7.69964 9.15235 13.9394 15.8319 12.7237C22.5114 11.508 22.9049 3.11013 22.9049 3.11013L17.1338 0L0.602539 1.27432L3.43952 7.69964Z" fill="white"/>
</mask>
<g mask="url(#mask0_4001_10179)">
<path d="M15.8852 13.0899C15.3265 13.2315 14.7679 13.2803 14.2481 13.2559C14.0781 13.2461 13.9129 13.2315 13.7477 13.207C13.4125 13.1582 13.0919 13.0752 12.8005 12.958C12.8005 12.958 12.7956 12.958 12.7907 12.9532C12.6644 12.9043 12.5381 12.8457 12.4215 12.7823C12.4215 12.7823 12.4118 12.7823 12.407 12.7774C12.2418 12.6895 12.0864 12.587 11.9455 12.4796C11.9455 12.4796 11.9358 12.4747 11.9309 12.4698C11.518 12.1427 11.2168 11.7277 11.0759 11.2345V11.2248C11.0759 11.2248 11.0613 11.1808 11.0565 11.1564C11.0468 11.1222 11.0419 11.0881 11.0322 11.0539C11.0322 11.0343 11.0273 11.0148 11.0225 10.9953C11.0225 10.9806 11.0176 10.9611 11.0128 10.9465C11.0128 10.9269 11.0079 10.9074 11.0031 10.8879C11.0031 10.8781 11.0031 10.8635 11.0031 10.8537C10.9836 10.6828 10.9885 10.5168 11.0031 10.3459C11.0176 10.2336 11.0371 10.1262 11.0662 10.0139C11.3868 8.764 12.679 7.61174 14.4133 7.17232C14.7144 7.09908 15.0108 7.04538 15.3022 7.02096C16.7402 6.88914 18.0421 7.33344 18.7465 8.16346C18.9019 8.34899 19.0331 8.54917 19.1254 8.77377C19.1254 8.78353 19.1302 8.78841 19.1351 8.79818C19.1351 8.79818 19.1399 8.80794 19.1399 8.81283C19.1739 8.90071 19.208 8.99348 19.2322 9.08624V9.10577C19.2322 9.10577 19.2468 9.13995 19.2468 9.15948C19.4266 9.9602 19.1448 10.8 18.5473 11.5031C18.5376 11.5177 18.5279 11.5275 18.523 11.5324C18.5133 11.5421 18.5133 11.547 18.5133 11.547C17.906 12.2452 16.9831 12.8116 15.8803 13.0899H15.8852Z" fill="url(#paint6_linear_4001_10179)"/>
<path d="M11.1197 11.3517L11.0759 11.2345V11.2247L10.8622 10.5949L10.8573 10.5851L10.765 10.302L10.7019 10.1164L10.697 10.1067L10.7165 10.1018L10.7845 10.0823L10.9059 10.053L11.0662 10.0139L15.8609 8.86164L18.7513 8.16345L18.9456 8.1195L19.0817 8.08533H19.0865L19.1497 8.47592L19.2565 9.15947H19.2517L19.1983 9.17412L19.1788 9.179L19.106 9.19853L19.0671 9.20829L19.0574 9.21318L17.0317 9.76001L11.6297 11.215L11.348 11.2882L11.3237 11.298L11.3091 11.3029L11.2022 11.3322L11.1488 11.3419L11.1197 11.3517Z" fill="url(#paint7_linear_4001_10179)"/>
<path d="M15.6521 12.1573C15.074 12.3037 14.5008 12.3574 13.9616 12.3282C13.9616 12.3282 13.9616 12.3282 13.9567 12.3282C13.9567 12.3282 13.879 12.3282 13.7915 12.3184C13.7478 12.3184 13.709 12.3135 13.6652 12.3086C13.262 12.2647 12.8831 12.1768 12.5382 12.045C12.4896 12.0254 12.4411 12.0059 12.3925 11.9864C11.9844 11.8106 11.6298 11.5811 11.348 11.2931C11.2169 11.1612 11.1003 11.0148 11.0031 10.8585C10.974 10.8146 10.9497 10.7706 10.9254 10.7267C10.906 10.6876 10.8866 10.6535 10.8671 10.6144C10.8671 10.6144 10.8671 10.6046 10.8623 10.5998C10.7991 10.4679 10.7505 10.3312 10.7165 10.1848C10.7117 10.1603 10.7068 10.1408 10.702 10.1164V10.1066C10.6388 9.81857 10.6388 9.52562 10.6874 9.23267C10.6922 9.19361 10.6971 9.15455 10.7068 9.12038C10.7068 9.11061 10.7068 9.10573 10.7068 9.09596C10.7797 8.76396 10.9206 8.43683 11.1197 8.12924C11.1197 8.12924 11.1197 8.12924 11.1197 8.12435C11.2752 7.88511 11.4646 7.65564 11.6881 7.43593C12.3002 6.84027 13.1552 6.36179 14.1462 6.11278C14.87 5.93213 15.5889 5.89307 16.2399 5.98096C16.2399 5.98096 16.2642 5.98096 16.3079 5.99072C17.3475 6.14208 18.2219 6.60591 18.7174 7.29922C18.7174 7.29922 18.7174 7.29922 18.7174 7.3041C18.7465 7.34316 18.7757 7.3871 18.8 7.43105C18.8146 7.45546 18.8291 7.47499 18.8388 7.4994C18.8631 7.53846 18.8826 7.5824 18.902 7.62146C18.9117 7.64587 18.9263 7.67029 18.936 7.6947C18.9943 7.82164 19.038 7.94859 19.072 8.08529C19.106 8.21712 19.1255 8.34895 19.1352 8.47589C19.1449 8.58819 19.1449 8.70048 19.1352 8.81278C19.1352 8.81766 19.1352 8.82255 19.1352 8.82743C19.1352 8.87137 19.1255 8.91531 19.1206 8.95437C19.1206 8.95437 19.1206 8.95437 19.1206 8.96414C19.1109 9.04226 19.0963 9.12526 19.0769 9.20338C18.7708 10.5021 17.4398 11.7081 15.6424 12.1573H15.6521Z" fill="url(#paint8_linear_4001_10179)"/>
<g style="mix-blend-mode:soft-light" opacity="0.5">
<path d="M12.6304 6.78658C12.3973 6.98188 14.0003 8.74445 14.5541 9.60376C15.1079 10.4631 15.1322 12.0157 15.2925 12.1133C15.4528 12.2061 17.2842 11.5958 18.0421 10.8341C18.795 10.0725 17.8623 10.3215 17.2891 9.88694C16.7159 9.4524 15.3703 7.41154 15.312 6.91841C15.2537 6.42528 15.4674 6.21045 15.3945 6.03957C15.3217 5.86868 13.7477 5.85891 12.6353 6.78658H12.6304Z" fill="white"/>
</g>
<path d="M15.3848 11.0733C13.9323 11.4395 12.5478 10.9366 12.1883 9.94547C12.1689 9.89664 12.1543 9.84782 12.1446 9.79899C11.8774 8.71509 12.8879 7.52377 14.4132 7.14294C15.9337 6.7621 17.3862 7.33335 17.6534 8.41726C17.668 8.46608 17.6729 8.51491 17.6826 8.56861C17.8283 9.61346 16.8373 10.7071 15.3897 11.0733H15.3848Z" fill="url(#paint9_linear_4001_10179)"/>
<path d="M15.3848 11.0733C13.9323 11.4395 12.5478 10.9366 12.1883 9.94547C12.0426 8.90551 13.0287 7.80207 14.4812 7.44077C15.9337 7.07459 17.3231 7.58236 17.6777 8.56862C17.8234 9.61347 16.8324 10.7071 15.3848 11.0733Z" fill="#FF9304"/>
<path d="M13.5001 6.35686C14.3551 6.00533 13.6362 7.91437 12.2905 7.03064C12.2905 7.03064 12.8152 6.64005 13.5001 6.35686Z" fill="white"/>
<g style="mix-blend-mode:soft-light" opacity="0.5">
<path d="M13.957 12.3281C13.957 12.3281 13.8792 12.3281 13.7918 12.3184C13.544 12.2939 13.0583 12.2256 12.5385 12.0449C12.111 11.8936 11.6641 11.6592 11.3191 11.3028C11.2026 11.1807 11.0957 11.044 11.0034 10.8927C10.984 10.8585 10.9645 10.8243 10.9451 10.7901C10.9159 10.7364 10.8917 10.6779 10.8674 10.6193C10.8674 10.6095 10.8577 10.5997 10.8577 10.59C10.8577 10.5802 10.8528 10.5753 10.8479 10.5656C10.8139 10.4777 10.7848 10.3947 10.7654 10.3117C10.7459 10.2384 10.7313 10.175 10.7168 10.1066C10.6439 9.73554 10.6536 9.40841 10.7071 9.12523C10.7071 9.11547 10.7071 9.11058 10.7071 9.10082C10.8139 8.5491 11.0714 8.19756 11.12 8.13409C11.12 8.13409 11.12 8.13409 11.12 8.12921C11.1783 8.04132 10.9062 8.53934 10.8382 9.21311C10.8139 9.47188 10.8188 9.76483 10.8965 10.0627C10.9208 10.1603 10.9548 10.258 10.9985 10.3556C11.0082 10.38 11.0228 10.4044 11.0325 10.4337C11.1831 10.7413 11.3872 11.005 11.6203 11.2247C12.519 12.0742 13.8355 12.3184 13.9472 12.3379L13.957 12.3281Z" fill="white"/>
</g>
<path d="M12.5528 8.26599C12.5528 8.26599 11.5229 10.0823 13.1309 10.9123C13.1309 10.9123 11.178 10.0481 12.5528 8.26599Z" fill="#FFE016"/>
<g style="mix-blend-mode:multiply" opacity="0.5">
<path d="M15.312 7.00623C14.8602 7.18688 16.4293 7.16246 17.1822 8.27078C17.9352 9.3791 16.1572 10.7852 16.1572 10.7852C16.1572 10.7852 18.0664 10.048 17.6486 8.36355C17.3231 7.04528 15.312 7.00623 15.312 7.00623Z" fill="#D42F55"/>
</g>
<g style="mix-blend-mode:multiply" opacity="0.8">
<path d="M18.5327 11.5323C18.5327 11.5323 18.5475 11.5128 18.5574 11.5031C18.5475 11.5177 18.5377 11.5275 18.5327 11.5323Z" fill="#D42F55"/>
</g>
<g style="mix-blend-mode:multiply" opacity="0.8">
<path d="M18.5571 11.503C18.6299 11.4151 18.7951 11.1905 18.9408 10.8488C19.1157 10.4435 19.2663 9.87228 19.1983 9.17897C19.1983 9.1692 19.1983 9.15944 19.1983 9.14967C19.1886 9.04714 19.174 8.93973 19.1497 8.83231C19.1497 8.82255 19.1497 8.81279 19.1449 8.80302C19.1449 8.78837 19.14 8.77861 19.1352 8.76396C19.1011 8.59796 19.0526 8.42219 18.9894 8.24642C18.9748 8.20736 18.9603 8.1683 18.9457 8.12924C18.5862 7.19669 17.9353 6.6645 17.3669 6.36667C16.8957 6.11767 16.4731 6.0249 16.3127 6.00049C17.3523 6.15184 18.2267 6.61568 18.7222 7.30899C18.7222 7.30899 18.7222 7.30899 18.7222 7.31387C18.7514 7.35293 18.7805 7.39687 18.8048 7.44081C18.8145 7.45546 18.8242 7.47011 18.834 7.48964C18.834 7.4994 18.8437 7.50429 18.8437 7.50917C18.868 7.54823 18.8874 7.59217 18.9068 7.63123C18.9165 7.65564 18.9311 7.68005 18.9408 7.70447C18.9991 7.83141 19.0429 7.95835 19.0769 8.09506C19.1109 8.22689 19.1303 8.35872 19.14 8.48566L19.2469 9.1692C19.4266 9.96993 19.1449 10.8097 18.5474 11.5128L18.5571 11.503Z" fill="#D42F55"/>
</g>
<g style="mix-blend-mode:multiply" opacity="0.8">
<path d="M12.786 12.9531C12.6597 12.9043 12.5333 12.8457 12.4168 12.7822C12.4168 12.7822 12.407 12.7822 12.4022 12.7773C12.2224 12.6894 12.0621 12.5869 11.9407 12.4795C11.9407 12.4795 11.931 12.4746 11.9261 12.4697C11.5132 12.1426 11.212 11.7276 11.0711 11.2345V11.2247L10.8574 10.5949C10.7942 10.463 10.7457 10.3263 10.7117 10.1799C10.7068 10.1554 10.7019 10.1359 10.6971 10.1115V10.1017C10.6388 9.81367 10.6339 9.52072 10.6874 9.22777C10.6922 9.18872 10.6971 9.14966 10.7068 9.11548C10.7068 9.10571 10.7068 9.10083 10.7068 9.09107C10.8137 8.53935 11.0711 8.18781 11.1197 8.12434C11.1197 8.12434 11.1197 8.12434 11.1197 8.11946C11.2752 7.88022 11.4646 7.65074 11.6881 7.43103C11.6589 7.46521 11.0566 8.22199 10.8428 9.19848C10.7797 9.47678 10.7554 9.77461 10.7797 10.0773C10.7991 10.2873 10.8428 10.5021 10.9205 10.7169C10.9205 10.7169 10.9351 10.756 10.94 10.7755C10.9594 10.8292 10.9837 10.8829 11.0031 10.9366C11.0031 10.9464 11.008 10.9562 11.0128 10.961C11.0663 11.088 11.1294 11.2052 11.1877 11.3175C11.7124 12.2744 12.4459 12.7529 12.6937 12.8994C12.7277 12.9189 12.752 12.9336 12.7665 12.9384L12.786 12.9531Z" fill="#D42F55"/>
</g>
<path d="M7.16055 10.5363C6.59704 10.4045 6.08211 10.1945 5.62547 9.93575C5.47974 9.85275 5.33886 9.75998 5.20284 9.66234C4.92594 9.46215 4.67819 9.24244 4.47416 9.00809C4.47416 9.00809 4.47416 9.0032 4.46931 8.99832C4.37701 8.89579 4.29442 8.78837 4.2167 8.68096C4.2167 8.68096 4.21184 8.6712 4.20698 8.6712C4.10011 8.51496 4.00781 8.35872 3.93009 8.19271C3.93009 8.19271 3.92523 8.18295 3.92523 8.17807C3.70663 7.69959 3.6289 7.18693 3.72606 6.68892V6.67915C3.72606 6.67915 3.73577 6.63521 3.74063 6.6108C3.75035 6.57662 3.76006 6.54244 3.76492 6.50827C3.76978 6.48874 3.77464 6.46921 3.77949 6.45456C3.78435 6.43991 3.78921 6.42038 3.79407 6.40573C3.79892 6.3862 3.80864 6.36667 3.8135 6.35203C3.8135 6.34226 3.82321 6.3325 3.82807 6.31785C3.88637 6.15673 3.96895 6.01026 4.06125 5.86866C4.1244 5.7759 4.19241 5.68801 4.26528 5.60013C5.12026 4.6334 6.79136 4.19886 8.53532 4.60899C8.83651 4.67734 9.12312 4.77011 9.39516 4.88241C10.7311 5.42436 11.6929 6.4155 11.9455 7.47988C12.0038 7.71423 12.0233 7.95347 12.0087 8.19271C12.0087 8.20248 12.0087 8.20736 12.0087 8.21713C12.0087 8.22201 12.0087 8.22689 12.0087 8.23177C11.999 8.32942 11.9844 8.42219 11.965 8.51984V8.53937C11.965 8.53937 11.9504 8.57355 11.9455 8.59308C11.7415 9.38892 11.1148 10.0041 10.2599 10.3556C10.2453 10.3605 10.2307 10.3703 10.221 10.3703C10.2113 10.3752 10.2064 10.3752 10.2064 10.3752C9.34658 10.7169 8.26814 10.7999 7.16055 10.5363Z" fill="url(#paint10_linear_4001_10179)"/>
<path d="M3.70654 6.80618L3.72112 6.68412L3.72597 6.67435L3.82313 6.01522V6.00546L3.86685 5.71251V5.70763L3.896 5.51721V5.50256L3.91543 5.50745L3.98344 5.52698L4.10489 5.55627L4.2652 5.59533L9.05503 6.76712L11.9454 7.47019L12.1398 7.51902L12.2758 7.5532H12.2806L12.1592 7.92915V7.93403L11.9454 8.58828H11.9406L11.8823 8.57363L11.8677 8.56875L11.79 8.5541L11.7511 8.54434H11.7414L9.69141 8.10003L4.22147 6.91848L3.93972 6.85989L3.91057 6.85012H3.90086L3.78913 6.82571L3.73569 6.81594L3.70654 6.80618Z" fill="url(#paint11_linear_4001_10179)"/>
<path d="M7.37433 9.60384C6.79139 9.46713 6.26188 9.25231 5.79553 8.97889C5.79553 8.97889 5.72752 8.93983 5.65465 8.89589C5.61579 8.87636 5.58178 8.85194 5.54778 8.82753C5.21259 8.60294 4.9114 8.34905 4.66365 8.07563C4.62964 8.03657 4.59564 7.99751 4.56163 7.95845C4.27502 7.61668 4.06613 7.24561 3.94469 6.8599C3.88639 6.67925 3.85239 6.4986 3.83296 6.31306C3.83296 6.26424 3.82324 6.21053 3.82324 6.16171C3.82324 6.11777 3.82324 6.07871 3.82324 6.03476C3.82324 6.02988 3.82324 6.025 3.82324 6.02012C3.8281 5.87364 3.84753 5.72717 3.88154 5.58558C3.88639 5.56117 3.89125 5.54164 3.89611 5.51722V5.50746C3.97384 5.22428 4.10985 4.96062 4.28474 4.72627C4.30903 4.69209 4.32846 4.66279 4.35275 4.6335C4.35275 4.62862 4.36246 4.61885 4.36732 4.61397C4.58592 4.35032 4.85796 4.12572 5.17372 3.94019C5.17372 3.94019 5.17372 3.94019 5.17858 3.94019C5.42633 3.7986 5.69837 3.68142 5.9947 3.58865C6.81082 3.33965 7.78724 3.30547 8.7831 3.53494C9.51178 3.70583 10.1676 3.99878 10.7068 4.37473C10.7068 4.37473 10.7262 4.38938 10.7651 4.41379C11.6249 5.0241 12.1885 5.83947 12.3148 6.68413C12.3148 6.68413 12.3148 6.68413 12.3148 6.68901C12.3245 6.73784 12.3293 6.79155 12.3342 6.84037C12.3342 6.86967 12.3342 6.89408 12.339 6.91849C12.339 6.96731 12.339 7.01126 12.339 7.06008C12.339 7.08449 12.339 7.11379 12.339 7.14308C12.3342 7.27979 12.3148 7.4165 12.2856 7.55321C12.2565 7.68504 12.2127 7.81198 12.1642 7.92916C12.1204 8.03169 12.0719 8.13422 12.0087 8.22699C12.0087 8.23187 12.0087 8.23675 12.0039 8.24164C11.9796 8.27581 11.9601 8.31487 11.931 8.34905C11.931 8.34905 11.931 8.34905 11.931 8.35393C11.8824 8.42229 11.8338 8.48576 11.7804 8.54923C10.9157 9.56478 9.1863 10.0237 7.38404 9.60384H7.37433Z" fill="url(#paint12_linear_4001_10179)"/>
<g style="mix-blend-mode:soft-light" opacity="0.5">
<path d="M7.12649 3.43725C6.83016 3.5056 7.45682 5.80524 7.55884 6.82568C7.66085 7.84611 6.9759 9.23761 7.07791 9.39385C7.17993 9.55497 9.0842 9.84792 10.1043 9.51591C11.1245 9.1839 10.1772 8.97884 9.86146 8.32947C9.5457 7.67522 9.27852 5.24864 9.44854 4.78481C9.61856 4.32097 9.90518 4.22332 9.91975 4.03779C9.92947 3.85226 8.53526 3.11989 7.12163 3.43725H7.12649Z" fill="white"/>
</g>
<path d="M7.62694 8.51505C6.16959 8.17327 5.16402 7.08937 5.29518 6.04452C5.30003 5.9957 5.30975 5.94199 5.31947 5.89317C5.57207 4.80438 7.01485 4.20872 8.54022 4.57002C10.0656 4.92644 11.1003 6.10311 10.8477 7.1919C10.838 7.24072 10.8234 7.28955 10.804 7.33837C10.4591 8.3344 9.07944 8.85682 7.62694 8.51505Z" fill="url(#paint13_linear_4001_10179)"/>
<path d="M7.62694 8.515C6.16959 8.17322 5.16402 7.08932 5.29518 6.04447C5.63523 5.04845 7.01971 4.52603 8.47707 4.8678C9.93442 5.20957 10.94 6.29348 10.8088 7.33832C10.4639 8.33435 9.0843 8.85677 7.6318 8.515H7.62694Z" fill="#FF9304"/>
<path d="M8.09323 3.45683C9.01136 3.53495 7.50543 4.90692 6.70874 3.50077C6.70874 3.50077 7.35483 3.39336 8.09323 3.45683Z" fill="white"/>
<g style="mix-blend-mode:soft-light" opacity="0.5">
<path d="M5.78576 8.97398C5.78576 8.97398 5.71775 8.93492 5.64488 8.89097C5.436 8.75426 5.0328 8.47108 4.65388 8.07072C4.34298 7.73871 4.05151 7.32859 3.90578 6.85011C3.8572 6.68899 3.82319 6.5181 3.81348 6.34233C3.81348 6.30327 3.81348 6.26421 3.81348 6.22515C3.81348 6.22515 3.81348 6.22515 3.81348 6.22027C3.81348 6.1568 3.81348 6.09821 3.82319 6.03474C3.82319 6.02497 3.82319 6.01521 3.82319 6.00544C3.82319 5.99568 3.82319 5.99079 3.82319 5.98103C3.83291 5.88826 3.84748 5.80038 3.86205 5.71249C3.87663 5.63926 3.8912 5.5709 3.91063 5.50743C4.01265 5.14613 4.17296 4.85318 4.34784 4.62859C4.34784 4.6237 4.35756 4.61394 4.36241 4.60906C4.70732 4.16475 5.10081 3.96946 5.16882 3.93528C5.16882 3.93528 5.16882 3.93528 5.17367 3.93528H5.17853C5.27083 3.88645 4.79962 4.19893 4.43528 4.77018C4.2944 4.98989 4.1681 5.25354 4.10009 5.55137C4.08066 5.64902 4.06123 5.75155 4.05637 5.85897C4.05637 5.88826 4.05637 5.91267 4.05637 5.94197C4.04665 6.28374 4.11466 6.61087 4.22154 6.91846C4.63931 8.08537 5.69832 8.90562 5.78576 8.97398Z" fill="white"/>
</g>
<path d="M6.38337 4.72131C6.38337 4.72131 4.64426 5.86381 5.69356 7.34319C5.69356 7.34319 4.34793 5.67828 6.38337 4.72131Z" fill="#FFE016"/>
<g style="mix-blend-mode:multiply" opacity="0.5">
<path d="M9.40983 4.86287C8.9289 4.81405 10.3328 5.51224 10.498 6.85003C10.668 8.18294 8.44312 8.61748 8.44312 8.61748C8.44312 8.61748 10.4786 8.83719 10.872 7.14786C11.1781 5.82472 9.40983 4.86775 9.40983 4.86775V4.86287Z" fill="#D42F55"/>
</g>
<g style="mix-blend-mode:multiply" opacity="0.8">
<path d="M10.2209 10.3655C10.2209 10.3655 10.2457 10.3557 10.2605 10.3508C10.2457 10.3557 10.2308 10.3655 10.2209 10.3655Z" fill="#D42F55"/>
</g>
<g style="mix-blend-mode:multiply" opacity="0.8">
<path d="M10.2549 10.3508C10.3618 10.3019 10.6095 10.1799 10.8913 9.94552C11.2313 9.66722 11.6199 9.2278 11.8774 8.57355C11.8774 8.56379 11.8871 8.55402 11.8871 8.54426C11.926 8.44661 11.96 8.34408 11.9891 8.23666C11.9891 8.2269 11.994 8.21713 11.9988 8.20737C11.9988 8.19272 12.0086 8.18295 12.0086 8.16831C12.0523 8.0023 12.0911 7.82653 12.1154 7.641C12.1203 7.59706 12.1252 7.558 12.13 7.51406C12.232 6.52292 11.8968 5.75149 11.5276 5.2193C11.2216 4.77988 10.8864 4.50646 10.7601 4.40881C11.6199 5.01912 12.1834 5.83449 12.3098 6.67916C12.3098 6.67916 12.3098 6.67916 12.3098 6.68404C12.3195 6.73286 12.3243 6.78657 12.3292 6.8354C12.3292 6.85493 12.3292 6.86957 12.3292 6.8891C12.3292 6.89887 12.3292 6.90375 12.3292 6.91352C12.3292 6.96234 12.3292 7.00628 12.3292 7.05511C12.3292 7.07952 12.3292 7.10881 12.3292 7.13811C12.3243 7.27482 12.3049 7.41153 12.2757 7.54823C12.2466 7.68006 12.2029 7.80701 12.1543 7.92418L11.9406 8.57843C11.7365 9.37427 11.1099 9.98946 10.2549 10.341V10.3508Z" fill="#D42F55"/>
</g>
<g style="mix-blend-mode:multiply" opacity="0.8">
<path d="M4.46442 8.99351C4.37212 8.89097 4.28954 8.78356 4.21182 8.67615C4.21182 8.67615 4.20696 8.66638 4.2021 8.66638C4.08065 8.50526 3.9835 8.33926 3.9252 8.1879C3.9252 8.1879 3.92035 8.17813 3.92035 8.17325C3.70174 7.69477 3.62402 7.18211 3.72117 6.6841V6.67434L3.81833 6.02009C3.82319 5.87361 3.84262 5.72714 3.87662 5.58555C3.88148 5.56114 3.88634 5.54161 3.8912 5.51719V5.50255C3.96892 5.21936 4.10009 4.95571 4.27497 4.72135C4.29926 4.68718 4.31869 4.65788 4.34298 4.62859C4.34298 4.6237 4.35269 4.61394 4.35755 4.60906C4.70246 4.16475 5.09594 3.96945 5.16395 3.93528C5.16395 3.93528 5.16395 3.93528 5.16881 3.93528C5.41656 3.79369 5.6886 3.67651 5.98493 3.58374C5.94607 3.60327 5.06194 3.99875 4.43042 4.77018C4.25068 4.98989 4.09037 5.24378 3.97378 5.52208C3.8912 5.71738 3.83776 5.9322 3.80862 6.1568C3.80862 6.1568 3.80862 6.20074 3.80376 6.22027C3.80376 6.22027 3.80376 6.22027 3.80376 6.22515C3.7989 6.28374 3.79404 6.34233 3.78918 6.39604C3.78918 6.4058 3.78918 6.41557 3.78918 6.42533C3.77947 6.56204 3.77947 6.69387 3.78433 6.82569C3.81833 7.91936 4.25068 8.68103 4.41099 8.92515C4.43042 8.95933 4.44985 8.98374 4.45957 8.99839L4.46442 8.99351Z" fill="#D42F55"/>
</g>
<path d="M8.78311 13.2314C8.2196 13.0995 7.70467 12.8896 7.24803 12.6308C7.1023 12.5478 6.96142 12.4551 6.8254 12.3574C6.5485 12.1572 6.30075 11.9375 6.09672 11.7032C6.09672 11.7032 6.09672 11.6983 6.09187 11.6934C5.99957 11.5909 5.91698 11.4834 5.83926 11.376C5.83926 11.376 5.8344 11.3663 5.82954 11.3663C5.72267 11.21 5.63037 11.0538 5.55264 10.8878C5.55264 10.8878 5.54779 10.878 5.54779 10.8731C5.32918 10.3947 5.25146 9.882 5.34862 9.38398V9.37422C5.34862 9.37422 5.35833 9.33028 5.36319 9.30587C5.3729 9.27169 5.38262 9.23751 5.38748 9.20333C5.39234 9.1838 5.39719 9.16427 5.40205 9.14963C5.40691 9.13498 5.41177 9.11545 5.41662 9.1008C5.42148 9.08127 5.4312 9.06174 5.43606 9.0471C5.43606 9.03733 5.44577 9.02757 5.45063 9.01292C5.50892 8.8518 5.59151 8.70532 5.68381 8.56373C5.74696 8.47097 5.81497 8.38308 5.88784 8.2952C6.74282 7.32847 8.41392 6.89393 10.1579 7.30406C10.4591 7.37241 10.7457 7.46518 11.0177 7.57748C12.3536 8.11943 13.3155 9.11057 13.5681 10.1749C13.6264 10.4093 13.6458 10.6485 13.6312 10.8878C13.6312 10.8975 13.6312 10.9024 13.6312 10.9122C13.6312 10.9171 13.6312 10.922 13.6312 10.9268C13.6215 11.0245 13.607 11.1173 13.5875 11.2149V11.2344C13.5875 11.2344 13.5729 11.2686 13.5681 11.2881C13.3641 12.084 12.7374 12.6992 11.8824 13.0507C11.8678 13.0556 11.8533 13.0654 11.8436 13.0654C11.8338 13.0702 11.829 13.0702 11.829 13.0702C10.9691 13.412 9.8907 13.495 8.78311 13.2314Z" fill="url(#paint14_linear_4001_10179)"/>
<path d="M5.3291 9.50125L5.34853 9.37919V9.36942L5.44569 8.71029L5.45055 8.69564L5.48941 8.40758L5.49427 8.40269L5.51856 8.21228L5.52342 8.19763L5.53799 8.20251L5.61086 8.22204L5.7323 8.25134L5.89261 8.2904L10.6824 9.46219L13.5729 10.1653L13.7623 10.2141L13.8983 10.2483H13.9081L13.7818 10.6242V10.6291L13.568 11.2833L13.5632 11.2785L13.5097 11.2687L13.4903 11.2638L13.4126 11.2492L13.3786 11.2394H13.3688L11.3188 10.7951L5.84889 9.61354L5.56714 9.55496L5.53799 9.54519H5.52827L5.41654 9.52078L5.36311 9.51101L5.3291 9.50125Z" fill="url(#paint15_linear_4001_10179)"/>
<path d="M9.00177 12.2989C8.41883 12.1622 7.88932 11.9474 7.42297 11.674C7.42297 11.674 7.35496 11.6349 7.28209 11.591C7.24323 11.5714 7.20922 11.547 7.17522 11.5226C6.84003 11.298 6.53884 11.0441 6.29109 10.7707C6.25709 10.7316 6.22308 10.6926 6.18908 10.6535C5.90246 10.3117 5.69358 9.94068 5.57213 9.55497C5.51384 9.37432 5.47983 9.19367 5.4604 9.00813C5.4604 8.95931 5.45068 8.9056 5.45068 8.85678C5.45068 8.81283 5.45068 8.77377 5.45068 8.72983V8.71519C5.45554 8.56871 5.47497 8.42224 5.50898 8.28065C5.51384 8.25623 5.51869 8.2367 5.52355 8.21229V8.20253C5.60128 7.91934 5.7373 7.65569 5.91218 7.42133C5.93647 7.38716 5.9559 7.35786 5.98019 7.32857C5.98019 7.32368 5.9899 7.31392 5.99476 7.30904C6.21337 7.04538 6.4854 6.82079 6.80116 6.63526C6.80116 6.63526 6.80116 6.63526 6.80602 6.63526C7.05377 6.49367 7.32581 6.37649 7.62214 6.28372C8.43826 6.03471 9.41469 6.00054 10.4105 6.23001C11.1392 6.4009 11.795 6.69385 12.3342 7.0698C12.3342 7.0698 12.3537 7.08444 12.3925 7.10886C13.2524 7.71916 13.8159 8.53453 13.9422 9.3792C13.9422 9.3792 13.9422 9.3792 13.9422 9.38408C13.9519 9.43291 13.9568 9.48661 13.9616 9.53544C13.9616 9.56473 13.9616 9.58915 13.9665 9.61356C13.9665 9.66238 13.9665 9.70632 13.9665 9.75515C13.9665 9.77956 13.9665 9.80886 13.9665 9.83815C13.9616 9.97486 13.9422 10.1116 13.913 10.2483C13.8839 10.3801 13.8402 10.507 13.7916 10.6242C13.7479 10.7268 13.6993 10.8293 13.6362 10.9221C13.6362 10.9269 13.6362 10.9318 13.6313 10.9367C13.607 10.9709 13.5876 11.0099 13.5584 11.0441C13.5584 11.0441 13.5584 11.0441 13.5584 11.049C13.5098 11.1174 13.4613 11.1808 13.4078 11.2443C12.5431 12.2599 10.8137 12.7188 9.01148 12.2989H9.00177Z" fill="url(#paint16_linear_4001_10179)"/>
<g style="mix-blend-mode:soft-light" opacity="0.5">
<path d="M8.74905 6.13232C8.45272 6.20067 9.07938 8.50031 9.1814 9.52074C9.28341 10.5412 8.59845 11.9327 8.70047 12.0889C8.80248 12.25 10.7068 12.543 11.7269 12.211C12.7422 11.879 11.7998 11.6739 11.484 11.0245C11.1683 10.3752 10.9011 7.94371 11.0711 7.47988C11.2411 7.01604 11.5277 6.91839 11.5423 6.73286C11.5569 6.54733 10.1578 5.81496 8.74419 6.13232H8.74905Z" fill="white"/>
</g>
<path d="M9.25438 11.2101C7.79703 10.8683 6.79146 9.78444 6.92262 8.73959C6.92748 8.69077 6.93719 8.63706 6.94691 8.58823C7.19952 7.49945 8.6423 6.90379 10.1677 7.26509C11.693 7.62151 12.7277 8.79818 12.4751 9.88697C12.4654 9.93579 12.4508 9.98462 12.4314 10.0334C12.0865 11.0295 10.7069 11.5519 9.25438 11.2101Z" fill="url(#paint17_linear_4001_10179)"/>
<path d="M9.25438 11.2101C7.79703 10.8683 6.79146 9.78439 6.92262 8.73954C7.26267 7.74352 8.64715 7.2211 10.1045 7.56287C11.5619 7.90464 12.5674 8.98855 12.4363 10.0334C12.0914 11.0294 10.7117 11.5518 9.25924 11.2101H9.25438Z" fill="#FF9304"/>
<path d="M9.72067 6.1519C10.6388 6.23002 9.13287 7.60199 8.33618 6.19584C8.33618 6.19584 8.98228 6.08843 9.72067 6.1519Z" fill="white"/>
<g style="mix-blend-mode:soft-light" opacity="0.5">
<path d="M7.4132 11.669C7.4132 11.669 7.34519 11.63 7.27233 11.586C7.06344 11.4493 6.66024 11.1662 6.28133 10.7658C5.97042 10.4338 5.67895 10.0237 5.53322 9.54517C5.48464 9.38405 5.45063 9.21317 5.44092 9.0374C5.44092 8.99834 5.44092 8.95928 5.44092 8.92022C5.44092 8.92022 5.44092 8.92022 5.44092 8.91534C5.44092 8.85187 5.44092 8.79328 5.45063 8.7298C5.45063 8.72004 5.45063 8.71027 5.45063 8.70051C5.45063 8.69074 5.45063 8.68586 5.45063 8.6761C5.46035 8.58333 5.47492 8.49545 5.4895 8.40756C5.50407 8.33432 5.51864 8.26597 5.53807 8.2025C5.64009 7.8412 5.8004 7.54825 5.97528 7.32366C5.97528 7.31877 5.985 7.30901 5.98985 7.30413C6.33476 6.85982 6.72825 6.66452 6.79626 6.63035C6.79626 6.63035 6.79626 6.63035 6.80111 6.63035H6.80597C6.89827 6.58152 6.42706 6.894 6.06272 7.46525C5.92184 7.68496 5.79554 7.94861 5.72753 8.24644C5.7081 8.34409 5.68867 8.44662 5.68381 8.55404C5.68381 8.58333 5.68381 8.60774 5.68381 8.63704C5.67409 8.97881 5.7421 9.30593 5.84898 9.61353C6.26675 10.7804 7.32576 11.6007 7.4132 11.669Z" fill="white"/>
</g>
<path d="M8.01081 7.41638C8.01081 7.41638 6.2717 8.55888 7.321 10.0383C7.321 10.0383 5.97537 8.37334 8.01081 7.41638Z" fill="#FFE016"/>
<g style="mix-blend-mode:multiply" opacity="0.5">
<path d="M11.0324 7.55794C10.5515 7.50911 11.9554 8.20731 12.1205 9.5451C12.2906 10.878 10.0657 11.3126 10.0657 11.3126C10.0657 11.3126 12.1011 11.5323 12.4946 9.84293C12.8006 8.51978 11.0324 7.56282 11.0324 7.56282V7.55794Z" fill="#D42F55"/>
</g>
<g style="mix-blend-mode:multiply" opacity="0.8">
<path d="M11.8823 13.0458C11.9892 12.997 12.2369 12.8749 12.5187 12.6406C12.8588 12.3623 13.2474 11.9229 13.5048 11.2686C13.5048 11.2589 13.5146 11.2491 13.5146 11.2393C13.5534 11.1417 13.5874 11.0391 13.6166 10.9317C13.6166 10.922 13.6214 10.9122 13.6263 10.9024C13.6263 10.8878 13.6311 10.878 13.636 10.8634C13.6797 10.6974 13.7186 10.5216 13.7429 10.3361C13.7477 10.2921 13.7526 10.2531 13.7575 10.2091C13.8595 9.21799 13.5243 8.44656 13.1551 7.91437C12.849 7.47495 12.5138 7.20153 12.3875 7.10388C13.2474 7.71419 13.8109 8.52956 13.9372 9.37423C13.9372 9.37423 13.9372 9.37422 13.9372 9.37911C13.9469 9.42793 13.9518 9.48164 13.9566 9.53046C13.9566 9.54999 13.9566 9.56464 13.9566 9.58417C13.9566 9.59394 13.9566 9.59882 13.9566 9.60858C13.9566 9.65741 13.9566 9.70135 13.9566 9.75017C13.9566 9.77459 13.9566 9.80388 13.9566 9.83318C13.9518 9.96989 13.9323 10.1066 13.9032 10.2433C13.874 10.3751 13.8303 10.5021 13.7817 10.6193L13.568 11.2735C13.364 12.0693 12.7373 12.6845 11.8823 13.0361V13.0458Z" fill="#D42F55"/>
</g>
<g style="mix-blend-mode:multiply" opacity="0.8">
<path d="M6.08698 11.6886C5.99468 11.586 5.9121 11.4786 5.83437 11.3712C5.83437 11.3712 5.82952 11.3614 5.82466 11.3614C5.70321 11.2003 5.60606 11.0343 5.54776 10.883C5.54776 10.883 5.5429 10.8732 5.5429 10.8683C5.3243 10.3898 5.24658 9.87718 5.34373 9.37917V9.36941L5.44089 8.71516C5.44575 8.56868 5.46518 8.42221 5.49918 8.28062C5.50404 8.2562 5.5089 8.23667 5.51376 8.21226V8.19762C5.59148 7.91443 5.72264 7.65078 5.89753 7.41642C5.92182 7.38224 5.94125 7.35295 5.96554 7.32366C5.96554 7.31877 5.97525 7.30901 5.98011 7.30413C6.32502 6.85982 6.7185 6.66452 6.78651 6.63035C6.78651 6.63035 6.78651 6.63035 6.79137 6.63035C7.03912 6.48875 7.31116 6.37158 7.60749 6.27881C7.56863 6.29834 6.6845 6.69382 6.05298 7.46525C5.87324 7.68496 5.71293 7.93884 5.59634 8.21715C5.51376 8.41244 5.46032 8.62727 5.43117 8.85186C5.43117 8.85186 5.43117 8.89581 5.42632 8.91534C5.42632 8.91534 5.42632 8.91534 5.42632 8.92022C5.42146 8.97881 5.4166 9.0374 5.41174 9.09111C5.41174 9.10087 5.41174 9.11064 5.41174 9.1204C5.40203 9.25711 5.40203 9.38894 5.40688 9.52076C5.44089 10.6144 5.87324 11.3761 6.03355 11.6202C6.05298 11.6544 6.07241 11.6788 6.08213 11.6935L6.08698 11.6886Z" fill="#D42F55"/>
</g>
<path d="M15.8803 11.4201C15.3217 11.5617 14.763 11.6105 14.2432 11.5861C14.0732 11.5763 13.908 11.5617 13.7429 11.5372C13.4077 11.4884 13.087 11.4054 12.7956 11.2882C12.7956 11.2882 12.7907 11.2882 12.7859 11.2834C12.6596 11.2345 12.5332 11.1759 12.4167 11.1125H12.4021C12.2369 11.0197 12.0815 10.9172 11.9406 10.8049C11.9406 10.8049 11.9309 10.8 11.926 10.7951C11.5131 10.468 11.2119 10.053 11.071 9.55984V9.55008C11.071 9.55008 11.0565 9.50614 11.0516 9.48172C11.0419 9.44755 11.037 9.41337 11.0273 9.37919C11.0273 9.35966 11.0225 9.34013 11.0176 9.3206C11.0176 9.30595 11.0127 9.28643 11.0079 9.27178C11.0079 9.25225 11.003 9.23272 10.9982 9.21319C10.9982 9.20342 10.9982 9.18878 10.9982 9.17901C10.9787 9.00812 10.9836 8.84212 10.9982 8.67124C11.0127 8.55894 11.0322 8.45152 11.0613 8.33923C11.3819 7.08932 12.6741 5.93706 14.4084 5.49764C14.7096 5.4244 15.0059 5.37069 15.2974 5.34628C16.7353 5.21445 18.0372 5.65876 18.7416 6.48878C18.897 6.67431 19.0282 6.87449 19.1205 7.09908C19.1205 7.10885 19.1253 7.11373 19.1302 7.1235C19.1302 7.1235 19.1351 7.13326 19.1351 7.13814C19.1691 7.22603 19.2031 7.31879 19.2274 7.41156V7.43109C19.2274 7.43109 19.2419 7.46527 19.2419 7.4848C19.4217 8.28552 19.1399 9.1253 18.5424 9.82838C18.5327 9.84303 18.523 9.85279 18.5181 9.85767C18.5084 9.86744 18.5084 9.87232 18.5084 9.87232C17.9012 10.5705 16.9782 11.1369 15.8754 11.4152L15.8803 11.4201Z" fill="url(#paint18_linear_4001_10179)"/>
<path d="M11.1148 9.68189L11.0711 9.56471V9.55495L10.8573 8.92511L10.8524 8.91535L10.7601 8.63216L10.697 8.44663L10.6921 8.43687L10.7116 8.43198L10.7844 8.41245L10.9059 8.38316L11.0662 8.3441L15.856 7.19184L18.7513 6.49365L18.9408 6.4497L19.0768 6.41553H19.0865L19.1448 6.80612L19.2517 7.48967L19.1934 7.50432L19.1788 7.5092L19.1011 7.52873L19.0622 7.53849L19.0525 7.54338L17.0268 8.09021L11.6248 9.54518L11.3479 9.61842L11.3188 9.62819L11.3091 9.63307L11.1974 9.66236L11.1488 9.67213L11.1148 9.68189Z" fill="url(#paint19_linear_4001_10179)"/>
<path d="M15.6521 10.4875C15.074 10.6339 14.5008 10.6876 13.9616 10.6584C13.9616 10.6584 13.9616 10.6584 13.9567 10.6584C13.9567 10.6584 13.879 10.6584 13.7915 10.6486C13.7478 10.6486 13.709 10.6437 13.6652 10.6388C13.262 10.5949 12.8831 10.507 12.5382 10.3752C12.4896 10.3556 12.4411 10.3361 12.3925 10.3166C11.9844 10.1408 11.6298 9.91134 11.348 9.62327C11.2169 9.49144 11.1003 9.34497 11.0031 9.18873C10.974 9.14479 10.9497 9.10085 10.9254 9.05691C10.906 9.01785 10.8866 8.98367 10.8671 8.94461C10.8671 8.94461 10.8671 8.93484 10.8623 8.92996C10.7991 8.79814 10.7505 8.66143 10.7165 8.51495C10.7117 8.49054 10.7068 8.47101 10.702 8.4466V8.43683C10.6388 8.14877 10.6388 7.85582 10.6874 7.56287C10.6922 7.52381 10.6971 7.48475 10.7068 7.45058C10.7068 7.44081 10.7068 7.43593 10.7068 7.42616C10.7797 7.09416 10.9206 6.76703 11.1197 6.45944C11.1197 6.45944 11.1197 6.45944 11.1197 6.45456C11.2752 6.21531 11.4646 5.98584 11.6881 5.76613C12.3002 5.17047 13.1552 4.69199 14.1462 4.44298C14.87 4.26233 15.5889 4.22327 16.2399 4.31116C16.2399 4.31116 16.2642 4.31116 16.3079 4.32092C17.3475 4.47228 18.2219 4.93611 18.7174 5.62942C18.7174 5.62942 18.7174 5.62942 18.7174 5.6343C18.7465 5.67336 18.7757 5.7173 18.8 5.76125C18.8146 5.78566 18.8291 5.80519 18.8388 5.8296C18.8631 5.86866 18.8826 5.9126 18.902 5.95166C18.9117 5.97607 18.9263 6.00049 18.936 6.0249C18.9943 6.15184 19.038 6.27879 19.072 6.4155C19.106 6.54732 19.1255 6.67915 19.1352 6.80609C19.1449 6.91839 19.1449 7.03069 19.1352 7.14298C19.1352 7.14786 19.1352 7.15275 19.1352 7.15763C19.1352 7.20157 19.1255 7.24551 19.1206 7.28457C19.1206 7.28457 19.1206 7.28457 19.1206 7.29434C19.1109 7.37246 19.0963 7.45546 19.0769 7.53358C18.7708 8.83231 17.4398 10.0383 15.6424 10.4875H15.6521Z" fill="url(#paint20_linear_4001_10179)"/>
<g style="mix-blend-mode:soft-light" opacity="0.5">
<path d="M12.6255 5.11678C12.3924 5.31208 13.9955 7.07465 14.5493 7.93396C15.103 8.79327 15.1273 10.3459 15.2876 10.4435C15.448 10.5363 17.2794 9.926 18.0372 9.16434C18.7902 8.40268 17.8574 8.65168 17.2842 8.21714C16.7061 7.78261 15.3654 5.74174 15.3071 5.24861C15.2488 4.75548 15.4625 4.54065 15.3897 4.36977C15.3168 4.19888 13.7429 4.18911 12.6304 5.11678H12.6255Z" fill="white"/>
</g>
<path d="M15.3799 9.40352C13.9274 9.7697 12.5429 9.26681 12.1835 8.27567C12.164 8.22684 12.1495 8.17802 12.1397 8.12919C11.8726 7.04529 12.883 5.85397 14.4084 5.47314C15.9289 5.0923 17.3814 5.66355 17.6485 6.74746C17.6631 6.79628 17.668 6.84511 17.6777 6.89881C17.8234 7.94366 16.8324 9.03733 15.3848 9.40352H15.3799Z" fill="url(#paint21_linear_4001_10179)"/>
<path d="M15.3799 9.40352C13.9274 9.76971 12.5429 9.26681 12.1834 8.27567C12.0377 7.23571 13.0239 6.13227 14.4763 5.77097C15.9288 5.40479 17.3133 5.91256 17.6728 6.89882C17.8185 7.94367 16.8275 9.03734 15.3799 9.40352Z" fill="#FF9304"/>
<path d="M13.5001 4.68706C14.3551 4.33553 13.6362 6.24457 12.2905 5.36084C12.2905 5.36084 12.8152 4.97025 13.5001 4.68706Z" fill="white"/>
<g style="mix-blend-mode:soft-light" opacity="0.5">
<path d="M13.9521 10.6583C13.9521 10.6583 13.8743 10.6583 13.7869 10.6486C13.5392 10.6241 13.0534 10.5558 12.5336 10.3751C12.1061 10.2238 11.6592 9.98943 11.3143 9.63301C11.1977 9.51095 11.0908 9.37424 10.9985 9.22288C10.9791 9.1887 10.9596 9.15453 10.9402 9.12035C10.9111 9.06664 10.8868 9.00805 10.8625 8.94946C10.8625 8.9397 10.8528 8.92993 10.8528 8.92017C10.8528 8.9104 10.8479 8.90552 10.8431 8.89576C10.809 8.80787 10.7799 8.72487 10.7605 8.64187C10.741 8.56863 10.7265 8.50516 10.7119 8.4368C10.639 8.06574 10.6487 7.73861 10.7022 7.45543C10.7022 7.44567 10.7022 7.44078 10.7022 7.43102C10.809 6.8793 11.0665 6.52776 11.1151 6.46429C11.1151 6.46429 11.1151 6.46429 11.1151 6.45941C11.1734 6.37152 10.9013 6.86953 10.8333 7.54331C10.809 7.80208 10.8139 8.09503 10.8916 8.39286C10.9159 8.49051 10.9499 8.58816 10.9936 8.68581C11.0034 8.71022 11.0179 8.73463 11.0277 8.76393C11.1782 9.07152 11.3823 9.33518 11.6154 9.55489C12.5142 10.4044 13.8306 10.6486 13.9424 10.6681L13.9521 10.6583Z" fill="white"/>
</g>
<path d="M12.5528 6.59619C12.5528 6.59619 11.5229 8.41247 13.1309 9.24248C13.1309 9.24248 11.178 8.37829 12.5528 6.59619Z" fill="#FFE016"/>
<g style="mix-blend-mode:multiply" opacity="0.5">
<path d="M15.3071 5.33643C14.8553 5.51708 16.4244 5.49266 17.1773 6.60098C17.9303 7.7093 16.1523 9.11545 16.1523 9.11545C16.1523 9.11545 18.0615 8.3782 17.6437 6.69375C17.3182 5.37549 15.3071 5.33154 15.3071 5.33154V5.33643Z" fill="#D42F55"/>
</g>
<g style="mix-blend-mode:multiply" opacity="0.8">
<path d="M18.5278 9.86255C18.5278 9.86255 18.5427 9.84302 18.5525 9.83325C18.5427 9.8479 18.5328 9.85766 18.5278 9.86255Z" fill="#D42F55"/>
</g>
<g style="mix-blend-mode:multiply" opacity="0.8">
<path d="M18.5522 9.83322C18.6251 9.74534 18.7902 9.52074 18.936 9.17897C19.1108 8.77373 19.2614 8.20248 19.1934 7.50917C19.1934 7.4994 19.1934 7.48964 19.1934 7.47987C19.1837 7.37734 19.1691 7.26993 19.1448 7.16251C19.1448 7.15275 19.1448 7.14298 19.14 7.13322C19.14 7.11857 19.1351 7.10881 19.1303 7.09416C19.0963 6.92816 19.0477 6.75239 18.9845 6.57662C18.97 6.53756 18.9554 6.4985 18.9408 6.45944C18.5813 5.52689 17.9304 4.9947 17.362 4.69687C16.8908 4.44787 16.4682 4.3551 16.3079 4.33069C17.3474 4.48204 18.2219 4.94588 18.7174 5.63919C18.7174 5.63919 18.7174 5.63919 18.7174 5.64407C18.7465 5.68313 18.7756 5.72707 18.7999 5.77101C18.8097 5.78566 18.8194 5.80031 18.8291 5.81984C18.8291 5.8296 18.8388 5.83449 18.8388 5.83937C18.8631 5.87843 18.8825 5.92237 18.902 5.96143C18.9117 5.98584 18.9262 6.01025 18.936 6.03467C18.9942 6.16161 19.038 6.28855 19.072 6.42526C19.106 6.55709 19.1254 6.68892 19.1351 6.81586L19.242 7.4994C19.4217 8.30013 19.14 9.13991 18.5425 9.84299L18.5522 9.83322Z" fill="#D42F55"/>
</g>
<g style="mix-blend-mode:multiply" opacity="0.8">
<path d="M12.7811 11.2833C12.6548 11.2345 12.5285 11.1759 12.4119 11.1124H12.3973C12.2176 11.0148 12.0573 10.9171 11.9358 10.8048C11.9358 10.8048 11.9261 10.7999 11.9212 10.795C11.5083 10.4679 11.2071 10.0529 11.0663 9.55978V9.55002L10.8525 8.92018C10.7894 8.78836 10.7408 8.65165 10.7068 8.50517C10.7019 8.48076 10.6971 8.46123 10.6922 8.43682V8.42705C10.6339 8.13899 10.629 7.84604 10.6825 7.55309C10.6873 7.51403 10.6922 7.47497 10.7019 7.4408C10.7019 7.43103 10.7019 7.42615 10.7019 7.41638C10.8088 6.86467 11.0663 6.51313 11.1148 6.44966C11.1148 6.44966 11.1148 6.44966 11.1148 6.44477C11.2703 6.20553 11.4597 5.97606 11.6832 5.75635C11.6541 5.79052 11.0517 6.54731 10.8379 7.5238C10.7748 7.8021 10.7505 8.09993 10.7748 8.40264C10.7942 8.61259 10.8379 8.82741 10.9157 9.04224C10.9157 9.04224 10.9302 9.0813 10.9351 9.10083C10.9545 9.15454 10.9788 9.20825 10.9982 9.26195C10.9982 9.27172 11.0031 9.28148 11.008 9.28637C11.0614 9.41331 11.1245 9.53049 11.1828 9.64279C11.7075 10.5997 12.441 11.0782 12.6888 11.2247C12.7228 11.2442 12.7471 11.2589 12.7616 11.2638L12.7811 11.2833Z" fill="#D42F55"/>
</g>
<path d="M14.9526 10.2434C14.3988 10.0676 13.9033 9.82347 13.4661 9.52564C13.3252 9.42799 13.1892 9.33034 13.0678 9.22293C12.8054 9.00322 12.5771 8.76398 12.3877 8.51497C12.3877 8.51497 12.3877 8.51009 12.3828 8.50521C12.3002 8.39291 12.2225 8.28061 12.1593 8.16832C12.1593 8.16832 12.1545 8.15855 12.1496 8.15855C12.0573 7.99743 11.9747 7.83143 11.9116 7.66054C11.9116 7.65566 11.9116 7.65078 11.9067 7.6459C11.7221 7.14788 11.6881 6.63523 11.8193 6.14698V6.13722C11.8193 6.13722 11.8339 6.09327 11.8436 6.06886C11.8533 6.03468 11.8679 6.00051 11.8776 5.96633C11.8824 5.9468 11.8922 5.93215 11.897 5.91262C11.9019 5.89797 11.9116 5.87844 11.9164 5.8638C11.9213 5.84427 11.931 5.82962 11.9407 5.81009C11.9407 5.80033 11.9505 5.79056 11.9553 5.7808C12.0282 5.62456 12.1156 5.48297 12.2225 5.35114C12.2905 5.26325 12.3682 5.18025 12.446 5.10213C13.3738 4.20376 15.074 3.90105 16.7792 4.443C17.0755 4.53577 17.3524 4.65295 17.6147 4.77989C18.9069 5.42438 19.7862 6.48387 19.9562 7.56289C19.995 7.80213 19.9999 8.04137 19.961 8.28061C19.961 8.29038 19.961 8.29526 19.961 8.30503C19.961 8.30991 19.961 8.31479 19.961 8.31967C19.9465 8.41244 19.9222 8.51009 19.893 8.60286V8.62239C19.893 8.62239 19.8785 8.65656 19.8687 8.67121C19.6064 9.44752 18.9312 10.0139 18.0519 10.302C18.0373 10.3068 18.0228 10.3117 18.013 10.3166C18.0033 10.3166 17.9985 10.3215 17.9985 10.3215C17.1192 10.5949 16.0359 10.5949 14.9526 10.2482V10.2434Z" fill="url(#paint22_linear_4001_10179)"/>
<path d="M11.79 6.25931L11.8143 6.13725L11.8192 6.12748L11.9649 5.47811L11.9698 5.46347L12.0329 5.1754L12.0767 4.98498L12.0815 4.97522L12.0961 4.9801L12.169 4.99963L12.2855 5.03869L12.441 5.0924L17.1288 6.62549L19.9561 7.55316L20.1455 7.61663L20.2767 7.66057H20.2864L20.131 8.02676L19.8686 8.66636H19.8638L19.8103 8.64683L19.7958 8.64195L19.718 8.62242L19.6792 8.60777H19.6695L17.6632 8.00723L12.3001 6.41066L12.0184 6.32766L11.9941 6.3179H11.9795L11.8726 6.28372L11.824 6.26907L11.79 6.25931Z" fill="url(#paint23_linear_4001_10179)"/>
<path d="M15.2393 9.32545C14.6709 9.1448 14.156 8.89091 13.7091 8.58332C13.7091 8.58332 13.6459 8.53938 13.5779 8.48567C13.5439 8.46126 13.5099 8.43685 13.4759 8.40755C13.1553 8.15855 12.8784 7.88513 12.6549 7.59218C12.6209 7.55312 12.5918 7.50918 12.5626 7.46524C12.3051 7.10393 12.1254 6.71822 12.0331 6.32274C11.9894 6.13721 11.9651 5.95656 11.9651 5.77102C11.9651 5.7222 11.9651 5.66849 11.9651 5.61967C11.9651 5.57572 11.9651 5.53666 11.9748 5.49272C11.9748 5.48784 11.9748 5.48296 11.9748 5.47808C11.9894 5.3316 12.0185 5.19001 12.0671 5.04842C12.072 5.02889 12.0817 5.00448 12.0865 4.98495V4.97518C12.1885 4.69688 12.3391 4.44788 12.5335 4.22817C12.5577 4.19887 12.582 4.16958 12.6063 4.14028C12.6063 4.1354 12.616 4.13052 12.6209 4.12075C12.8589 3.87663 13.1455 3.67157 13.4759 3.51533C13.4759 3.51533 13.4759 3.51533 13.4807 3.51533C13.7382 3.39327 14.02 3.29562 14.3211 3.22726C15.1567 3.04173 16.1283 3.08079 17.1047 3.38838C17.8188 3.61298 18.4455 3.95963 18.9604 4.37464C18.9604 4.37464 18.9798 4.38929 19.0138 4.41858C19.8202 5.09236 20.3254 5.95167 20.3886 6.80122C20.3886 6.80122 20.3886 6.80122 20.3886 6.8061C20.3886 6.85493 20.3934 6.90864 20.3934 6.95746C20.3934 6.98676 20.3934 7.01117 20.3934 7.03558C20.3934 7.0844 20.3934 7.12835 20.3837 7.17717C20.3837 7.20158 20.3789 7.23088 20.374 7.25529C20.3594 7.392 20.3303 7.52871 20.2866 7.66053C20.2477 7.78748 20.1943 7.90954 20.136 8.02672C20.0825 8.12925 20.0291 8.22202 19.9611 8.3099C19.9611 8.31478 19.9611 8.31967 19.9514 8.31967C19.9271 8.35384 19.9028 8.38802 19.8737 8.4222C19.8737 8.4222 19.8737 8.4222 19.8737 8.42708C19.8202 8.49055 19.7668 8.54914 19.7085 8.60773C18.7709 9.55493 17.0124 9.88205 15.2441 9.32057L15.2393 9.32545Z" fill="url(#paint24_linear_4001_10179)"/>
<g style="mix-blend-mode:soft-light" opacity="0.5">
<path d="M15.4578 3.15889C15.1566 3.20283 15.6084 5.54641 15.6327 6.57173C15.657 7.59704 14.87 8.92995 14.9575 9.09596C15.0449 9.26196 16.9249 9.70138 17.9645 9.44749C19.0041 9.19361 18.0762 8.92019 17.8139 8.24641C17.5467 7.57263 17.469 5.12652 17.673 4.67733C17.877 4.22815 18.1734 4.15491 18.1977 3.96938C18.2219 3.78384 16.886 2.94894 15.453 3.154L15.4578 3.15889Z" fill="white"/>
</g>
<path d="M15.5745 8.26102C14.1463 7.80695 13.2281 6.64981 13.437 5.61961C13.4467 5.57078 13.4613 5.52196 13.4759 5.47313C13.8111 4.40387 15.2927 3.92539 16.7889 4.39899C18.2851 4.87259 19.2227 6.1225 18.8875 7.18688C18.8729 7.2357 18.8535 7.28452 18.8341 7.32847C18.4163 8.29519 17.0027 8.7102 15.5745 8.25613V8.26102Z" fill="url(#paint25_linear_4001_10179)"/>
<path d="M15.5745 8.26108C14.1463 7.80701 13.2281 6.64987 13.437 5.61967C13.8548 4.65295 15.2684 4.23794 16.6966 4.68712C18.1248 5.14119 19.043 6.29833 18.8341 7.32853C18.4163 8.29526 17.0027 8.71027 15.5745 8.2562V8.26108Z" fill="#FF9304"/>
<path d="M16.4196 3.2517C17.3281 3.39818 15.725 4.65297 15.0352 3.19311C15.0352 3.19311 15.6861 3.13452 16.4196 3.2517Z" fill="white"/>
<g style="mix-blend-mode:soft-light" opacity="0.5">
<path d="M13.7041 8.57849C13.7041 8.57849 13.6409 8.53454 13.5729 8.48084C13.3738 8.32948 12.9949 8.017 12.6499 7.58735C12.3633 7.23093 12.1059 6.80127 11.999 6.31303C11.9601 6.14702 11.9407 5.97614 11.9456 5.80037C11.9456 5.76131 11.9456 5.72225 11.9504 5.68319C11.9504 5.68319 11.9504 5.68319 11.9504 5.67831C11.9504 5.61972 11.9601 5.55624 11.9698 5.49277C11.9698 5.48301 11.9698 5.47324 11.9698 5.46348C11.9698 5.45371 11.9698 5.44883 11.9698 5.43907C11.9893 5.3463 12.0087 5.25841 12.033 5.17541C12.0524 5.10218 12.0719 5.0387 12.0962 4.97523C12.2225 4.62369 12.4071 4.34539 12.5965 4.13545C12.5965 4.13057 12.6062 4.12568 12.6111 4.11592C12.99 3.70091 13.3932 3.53491 13.4661 3.51049C13.4661 3.51049 13.4661 3.51049 13.4709 3.51049H13.4758C13.5681 3.46655 13.0774 3.74485 12.6694 4.28681C12.5139 4.49187 12.3682 4.75064 12.2759 5.04359C12.2467 5.14124 12.2225 5.23888 12.2079 5.3463C12.2079 5.37559 12.1982 5.40001 12.1982 5.4293C12.1642 5.77107 12.203 6.10308 12.2856 6.41556C12.6111 7.61176 13.6069 8.51013 13.6895 8.58825L13.7041 8.57849Z" fill="white"/>
</g>
<path d="M14.6223 4.3844C14.6223 4.3844 12.8006 5.39019 13.7382 6.94281C13.7382 6.94281 12.5237 5.18024 14.6223 4.3844Z" fill="#FFE016"/>
<g style="mix-blend-mode:multiply" opacity="0.5">
<path d="M17.6244 4.76037C17.1484 4.67737 18.494 5.48297 18.562 6.82565C18.63 8.16832 16.376 8.43198 16.376 8.43198C16.376 8.43198 18.3871 8.80793 18.9069 7.15277C19.315 5.85404 17.6244 4.76525 17.6244 4.76525V4.76037Z" fill="#D42F55"/>
</g>
<g style="mix-blend-mode:multiply" opacity="0.8">
<path d="M18.0129 10.3069C18.0129 10.3069 18.0376 10.2971 18.0525 10.2922C18.0376 10.2971 18.0228 10.302 18.0129 10.3069Z" fill="#D42F55"/>
</g>
<g style="mix-blend-mode:multiply" opacity="0.8">
<path d="M18.052 10.2971C18.1589 10.258 18.4163 10.1555 18.7175 9.94064C19.077 9.68675 19.4996 9.28151 19.8057 8.65167C19.8105 8.64191 19.8154 8.63214 19.8203 8.62726C19.864 8.53449 19.9077 8.43196 19.9466 8.32943C19.9466 8.31966 19.9514 8.3099 19.9563 8.30013C19.9611 8.28549 19.966 8.27572 19.9709 8.26107C20.0291 8.09995 20.0777 7.92907 20.1166 7.74353C20.1263 7.69959 20.136 7.66053 20.1409 7.61659C20.3158 6.63522 20.0437 5.83937 19.7134 5.28277C19.4413 4.82382 19.1304 4.52111 19.009 4.4137C19.8154 5.08748 20.3206 5.94679 20.3838 6.79634C20.3838 6.79634 20.3838 6.79634 20.3838 6.80122C20.3838 6.85004 20.3886 6.90375 20.3886 6.95257C20.3886 6.9721 20.3886 6.98675 20.3886 7.00628C20.3886 7.01605 20.3886 7.02093 20.3886 7.03069C20.3886 7.07952 20.3886 7.12346 20.3789 7.17229C20.3789 7.1967 20.3741 7.22599 20.3692 7.25041C20.3546 7.38711 20.3255 7.52382 20.2818 7.65565C20.2429 7.78259 20.1895 7.90465 20.1312 8.02183L19.8688 8.66144C19.6065 9.43775 18.9313 10.0041 18.052 10.2922V10.2971Z" fill="#D42F55"/>
</g>
<g style="mix-blend-mode:multiply" opacity="0.8">
<path d="M12.3779 8.49547C12.2953 8.38317 12.2176 8.27087 12.1545 8.15858C12.1545 8.15858 12.1496 8.14881 12.1447 8.14881C12.0379 7.97793 11.9504 7.80704 11.9067 7.6508C11.9067 7.64592 11.9067 7.64104 11.9018 7.63616C11.7173 7.13815 11.6832 6.62549 11.8144 6.13724V6.12748L11.965 5.47811C11.9796 5.33163 12.0087 5.19004 12.0573 5.04845C12.0622 5.02892 12.0719 5.00451 12.0767 4.98498V4.97033C12.1739 4.69203 12.3293 4.44303 12.5188 4.22332C12.5431 4.19402 12.5674 4.16473 12.5917 4.13543C12.5917 4.13055 12.6014 4.12567 12.6062 4.1159C12.9851 3.70089 13.3883 3.53489 13.4612 3.51048C13.4612 3.51048 13.4612 3.51048 13.4661 3.51048C13.7235 3.38842 14.0053 3.29077 14.3065 3.22241C14.2628 3.23706 13.3543 3.56418 12.6694 4.28679C12.4702 4.49185 12.2953 4.73109 12.1593 5.00451C12.0622 5.19493 11.9893 5.39999 11.9456 5.62458C11.9456 5.62458 11.9359 5.66364 11.9359 5.68317C11.9359 5.68317 11.9359 5.68317 11.9359 5.68805C11.9261 5.74664 11.9164 5.80035 11.9067 5.85894C11.9067 5.86871 11.9067 5.87847 11.9018 5.88824C11.8824 6.02494 11.8727 6.15677 11.8678 6.28371C11.8144 7.3725 12.1933 8.16834 12.3293 8.42223C12.3488 8.46129 12.3633 8.4857 12.3682 8.49547H12.3779Z" fill="#D42F55"/>
</g>
<path d="M16.9152 9.49632C16.1331 9.39867 17.8771 8.18782 18.6155 8.14876C19.349 8.1097 19.2033 8.68095 19.0624 8.92019C18.9215 9.15943 17.7411 9.59885 16.9201 9.49632H16.9152Z" fill="white"/>
<g style="mix-blend-mode:multiply" opacity="0.5">
<path d="M11.7657 7.10878C11.7657 7.10878 13.0093 8.43193 15.035 9.29124C17.0608 10.1506 18.1829 10.2384 18.1829 10.2384C18.1829 10.2384 17.2356 12.0498 15.3314 12.2256C13.4319 12.4014 13.3834 11.4981 13.3834 11.4981C13.3834 11.4981 9.876 12.1914 8.33606 10.0285C6.79613 7.87044 11.9552 5.61475 11.9552 5.61475C11.9552 5.61475 11.6297 6.58147 11.7657 7.1039V7.10878Z" fill="#D40C55"/>
</g>
</g>
<g style="mix-blend-mode:soft-light" opacity="0.5">
<path d="M7.33542 18.3288C6.5776 17.7673 5.93636 19.5934 6.69904 20.1207C7.46173 20.648 8.09325 18.8903 7.33542 18.3288Z" fill="#FFE0B3"/>
</g>
<g style="mix-blend-mode:soft-light" opacity="0.5">
<path d="M13.3301 14.2812C12.4071 12.7774 15.793 13.1485 18.217 12.0841C20.6411 11.0197 18.2316 14.3105 13.3301 14.2812Z" fill="#FFE0B3"/>
</g>
<g style="mix-blend-mode:soft-light" opacity="0.5">
<path d="M20.9616 7.51904C20.6313 7.5874 20.9228 8.72013 20.5536 9.79427C20.1844 10.8684 22.3655 10.1067 22.3558 9.07655C22.3461 8.04635 20.9616 7.51904 20.9616 7.51904Z" fill="#FFE0B3"/>
</g>
</g>
<defs>
<radialGradient id="paint0_radial_4001_10179" cx="0" cy="0" r="1" gradientUnits="userSpaceOnUse" gradientTransform="translate(12.2807 20.2183) scale(11.4985 11.5568)">
<stop stop-color="#CE5411"/>
<stop offset="1" stop-color="#B42B00"/>
</radialGradient>
<linearGradient id="paint1_linear_4001_10179" x1="11.1537" y1="21.4047" x2="15.6278" y2="21.4047" gradientUnits="userSpaceOnUse">
<stop stop-color="#FF9600"/>
<stop offset="1" stop-color="#FFA900"/>
</linearGradient>
<linearGradient id="paint2_linear_4001_10179" x1="18.9848" y1="22.5007" x2="27.0387" y2="25.0304" gradientUnits="userSpaceOnUse">
<stop offset="0.05" stop-color="#FF3F00"/>
<stop offset="1" stop-color="#FF6A03"/>
</linearGradient>
<linearGradient id="paint3_linear_4001_10179" x1="19.0266" y1="22.043" x2="27.2614" y2="24.6295" gradientUnits="userSpaceOnUse">
<stop offset="0.05" stop-color="#FF3F00"/>
<stop offset="1" stop-color="#FF6A03"/>
</linearGradient>
<linearGradient id="paint4_linear_4001_10179" x1="19.1993" y1="21.4935" x2="27.4341" y2="24.08" gradientUnits="userSpaceOnUse">
<stop stop-color="#FFA900"/>
<stop offset="1" stop-color="#FFC600"/>
</linearGradient>
<linearGradient id="paint5_linear_4001_10179" x1="20.6163" y1="21.9124" x2="26.032" y2="23.6134" gradientUnits="userSpaceOnUse">
<stop stop-color="#FF7C04"/>
<stop offset="1" stop-color="#D92000"/>
</linearGradient>
<linearGradient id="paint6_linear_4001_10179" x1="11.0581" y1="11.162" x2="19.2453" y2="9.12945" gradientUnits="userSpaceOnUse">
<stop offset="0.05" stop-color="#FF3F00"/>
<stop offset="1" stop-color="#FF6A03"/>
</linearGradient>
<linearGradient id="paint7_linear_4001_10179" x1="10.8545" y1="10.745" x2="19.2303" y2="8.66569" gradientUnits="userSpaceOnUse">
<stop offset="0.05" stop-color="#FF3F00"/>
<stop offset="1" stop-color="#FF6A03"/>
</linearGradient>
<linearGradient id="paint8_linear_4001_10179" x1="10.7158" y1="10.186" x2="19.0916" y2="8.10666" gradientUnits="userSpaceOnUse">
<stop stop-color="#FFA900"/>
<stop offset="1" stop-color="#FF9600"/>
</linearGradient>
<linearGradient id="paint9_linear_4001_10179" x1="12.1415" y1="9.79822" x2="17.6499" y2="8.43072" gradientUnits="userSpaceOnUse">
<stop stop-color="#FF7C04"/>
<stop offset="1" stop-color="#D92000"/>
</linearGradient>
<linearGradient id="paint10_linear_4001_10179" x1="3.74391" y1="6.59955" x2="11.9653" y2="8.50911" gradientUnits="userSpaceOnUse">
<stop offset="0.05" stop-color="#FF3F00"/>
<stop offset="1" stop-color="#FF6A03"/>
</linearGradient>
<linearGradient id="paint11_linear_4001_10179" x1="3.75192" y1="6.13526" x2="12.1579" y2="8.0877" gradientUnits="userSpaceOnUse">
<stop offset="0.05" stop-color="#FF3F00"/>
<stop offset="1" stop-color="#FF6A03"/>
</linearGradient>
<linearGradient id="paint12_linear_4001_10179" x1="3.88124" y1="5.57898" x2="12.2872" y2="7.53142" gradientUnits="userSpaceOnUse">
<stop stop-color="#FFA900"/>
<stop offset="1" stop-color="#FF9600"/>
</linearGradient>
<linearGradient id="paint13_linear_4001_10179" x1="5.32599" y1="5.88787" x2="10.8543" y2="7.1719" gradientUnits="userSpaceOnUse">
<stop stop-color="#FF7C04"/>
<stop offset="1" stop-color="#D92000"/>
</linearGradient>
<linearGradient id="paint14_linear_4001_10179" x1="5.36837" y1="9.29197" x2="13.5898" y2="11.2015" gradientUnits="userSpaceOnUse">
<stop offset="0.05" stop-color="#FF3F00"/>
<stop offset="1" stop-color="#FF6A03"/>
</linearGradient>
<linearGradient id="paint15_linear_4001_10179" x1="5.37528" y1="8.83243" x2="13.786" y2="10.786" gradientUnits="userSpaceOnUse">
<stop offset="0.05" stop-color="#FF3F00"/>
<stop offset="1" stop-color="#FF6A03"/>
</linearGradient>
<linearGradient id="paint16_linear_4001_10179" x1="5.50572" y1="8.27139" x2="13.9165" y2="10.2249" gradientUnits="userSpaceOnUse">
<stop stop-color="#FFA900"/>
<stop offset="1" stop-color="#FF9600"/>
</linearGradient>
<linearGradient id="paint17_linear_4001_10179" x1="6.95048" y1="8.58028" x2="12.4835" y2="9.86541" gradientUnits="userSpaceOnUse">
<stop stop-color="#FF7C04"/>
<stop offset="1" stop-color="#D92000"/>
</linearGradient>
<linearGradient id="paint18_linear_4001_10179" x1="11.0541" y1="9.49229" x2="19.246" y2="7.4586" gradientUnits="userSpaceOnUse">
<stop offset="0.05" stop-color="#FF3F00"/>
<stop offset="1" stop-color="#FF6A03"/>
</linearGradient>
<linearGradient id="paint19_linear_4001_10179" x1="10.8505" y1="9.07535" x2="19.2264" y2="6.99601" gradientUnits="userSpaceOnUse">
<stop offset="0.05" stop-color="#FF3F00"/>
<stop offset="1" stop-color="#FF6A03"/>
</linearGradient>
<linearGradient id="paint20_linear_4001_10179" x1="10.7118" y1="8.51633" x2="19.0877" y2="6.43698" gradientUnits="userSpaceOnUse">
<stop stop-color="#FFA900"/>
<stop offset="1" stop-color="#FF9600"/>
</linearGradient>
<linearGradient id="paint21_linear_4001_10179" x1="12.1375" y1="8.12853" x2="17.6459" y2="6.76104" gradientUnits="userSpaceOnUse">
<stop stop-color="#FF7C04"/>
<stop offset="1" stop-color="#D92000"/>
</linearGradient>
<linearGradient id="paint22_linear_4001_10179" x1="11.8434" y1="6.05251" x2="19.8974" y2="8.5822" gradientUnits="userSpaceOnUse">
<stop offset="0.05" stop-color="#FF3F00"/>
<stop offset="1" stop-color="#FF6A03"/>
</linearGradient>
<linearGradient id="paint23_linear_4001_10179" x1="11.8898" y1="5.59626" x2="20.1247" y2="8.18275" gradientUnits="userSpaceOnUse">
<stop offset="0.05" stop-color="#FF3F00"/>
<stop offset="1" stop-color="#FF6A03"/>
</linearGradient>
<linearGradient id="paint24_linear_4001_10179" x1="12.0626" y1="5.04682" x2="20.2974" y2="7.63331" gradientUnits="userSpaceOnUse">
<stop stop-color="#FFA900"/>
<stop offset="1" stop-color="#FFC600"/>
</linearGradient>
<linearGradient id="paint25_linear_4001_10179" x1="13.475" y1="5.46418" x2="18.8953" y2="7.16666" gradientUnits="userSpaceOnUse">
<stop stop-color="#FF7C04"/>
<stop offset="1" stop-color="#D92000"/>
</linearGradient>
<clipPath id="clip0_4001_10179">
<rect width="27.5294" height="27" fill="white"/>
</clipPath>
</defs>
</svg>
