<svg width="30" height="31" viewBox="0 0 30 31" fill="none" xmlns="http://www.w3.org/2000/svg">
<circle cx="15" cy="15.75" r="15" fill="#3375BB"/>
<path d="M14.4584 7.81055C14.7746 7.563 15.2174 7.56284 15.5336 7.81055C17.667 9.49377 20.1333 9.60585 21.2552 9.60156H21.6224C21.8586 9.60156 22.082 9.69956 22.2465 9.86621C22.4109 10.0371 22.5037 10.268 22.4994 10.5029C22.4573 13.0494 22.3604 14.9977 22.1791 16.54C22.002 18.0822 21.7367 19.2272 21.3363 20.1543C21.0664 20.7738 20.7324 21.2869 20.3402 21.7227C19.8132 22.2994 19.2109 22.7189 18.5531 23.1162C18.2719 23.2866 17.979 23.4543 17.6722 23.6309C17.0178 24.0074 16.2983 24.4218 15.4828 24.9746C15.1878 25.1752 14.8042 25.1751 14.5092 24.9746C13.6812 24.4153 12.9518 23.9958 12.2914 23.6162C12.1446 23.5319 12.001 23.4497 11.8607 23.3682C11.0891 22.9152 10.3928 22.4832 9.78552 21.8594C9.38079 21.4492 9.0306 20.9493 8.75232 20.3555C8.37287 19.5608 8.11588 18.5995 7.92615 17.3564C7.67314 15.6944 7.54675 13.5193 7.50037 10.5029C7.49615 10.268 7.58493 10.0371 7.74939 9.86621C7.91384 9.69962 8.14123 9.60156 8.37732 9.60156H8.73962C9.85707 9.60588 12.3246 9.494 14.4584 7.81055ZM14.9984 9.60547C12.8439 11.0708 10.5834 11.3273 9.27185 11.3701C9.31823 13.4466 9.4104 15.0621 9.55798 16.3311C9.72666 17.775 9.96764 18.7536 10.267 19.4414C10.4651 19.8984 10.6843 20.2272 10.9457 20.5176C11.2957 20.9064 11.7382 21.2273 12.3412 21.5947C12.5913 21.7468 12.8672 21.905 13.1674 22.0771C13.7022 22.3838 14.3151 22.7352 14.9984 23.1758C15.669 22.7424 16.2726 22.3943 16.8011 22.0898C16.9604 21.9982 17.1128 21.9103 17.2582 21.8252C18.0003 21.3937 18.5484 21.0349 18.9574 20.6162C19.2314 20.3301 19.455 20.0182 19.6615 19.5869C19.9356 19.0143 20.1634 18.2235 20.3363 17.0869C20.5429 15.7282 20.6699 13.8824 20.7289 11.3701C19.4133 11.3316 17.1532 11.0751 14.9984 9.60547Z" fill="white"/>
</svg>
