<svg width="30" height="31" viewBox="0 0 30 31" fill="none" xmlns="http://www.w3.org/2000/svg">
<circle cx="15" cy="15.5" r="15" fill="#3B99FC"/>
<path fill-rule="evenodd" clip-rule="evenodd" d="M20.9056 11.6923C17.644 8.43591 12.356 8.43591 9.09441 11.6923L8.66357 12.1224C8.50049 12.2853 8.50049 12.5492 8.66357 12.7121L10.0064 14.0527C10.0879 14.1341 10.2201 14.1341 10.3016 14.0527L10.8801 13.4751C13.1555 11.2034 16.8445 11.2034 19.1199 13.4751L19.6601 14.0145C19.7416 14.0959 19.8738 14.0959 19.9554 14.0145L21.2981 12.6738C21.4612 12.511 21.4612 12.247 21.2981 12.0842L20.9056 11.6923ZM24.8777 15.6581L23.6826 14.4649C23.5195 14.3021 23.2551 14.3021 23.0921 14.4649L19.2675 18.2833C19.2267 18.3241 19.1606 18.3241 19.1198 18.2833L15.2952 14.4648L15.2952 14.4648C15.1321 14.302 14.8677 14.302 14.7047 14.4648L10.8802 18.2833C10.8395 18.3241 10.7734 18.3241 10.7326 18.2834L6.90795 14.4648C6.74487 14.302 6.48047 14.302 6.31739 14.4648L5.12231 15.658C4.95923 15.8208 4.95923 16.0848 5.12231 16.2476L10.5112 21.6279C10.6742 21.7907 10.9386 21.7907 11.1017 21.6279L14.9262 17.8094C14.967 17.7687 15.0331 17.7687 15.0739 17.8094L18.8984 21.6279C19.0615 21.7907 19.3259 21.7907 19.489 21.6279L24.8777 16.2477C25.0408 16.0849 25.0408 15.8209 24.8777 15.6581Z" fill="white"/>
</svg>
