<svg width="27" height="27" viewBox="0 0 27 27" fill="none" xmlns="http://www.w3.org/2000/svg">
<path d="M0 13.5C0 20.9558 6.04416 27 13.5 27C20.9558 27 27 20.9558 27 13.5C27 6.04416 20.9558 0 13.5 0C6.04416 0 0 6.04416 0 13.5Z" fill="#FF0000"/>
<path d="M19.9125 10.2094C19.7438 9.61878 19.3219 9.1969 18.7313 9.02815C17.7188 8.77502 13.4156 8.77502 13.4156 8.77502C13.4156 8.77502 9.19688 8.77502 8.10001 9.02815C7.50938 9.1969 7.0875 9.61878 6.91875 10.2094C6.75 11.3063 6.75 13.5 6.75 13.5C6.75 13.5 6.75 15.6938 7.00313 16.7906C7.17188 17.3813 7.59375 17.8031 8.18437 17.9719C9.19687 18.225 13.5 18.225 13.5 18.225C13.5 18.225 17.7187 18.225 18.8156 17.9719C19.4062 17.8031 19.8281 17.3813 19.9969 16.7906C20.25 15.6938 20.25 13.5 20.25 13.5C20.25 13.5 20.25 11.3063 19.9125 10.2094ZM12.15 15.525V11.475L15.6938 13.5L12.15 15.525Z" fill="white"/>
</svg>
